<svg width="26" height="26" viewBox="0 0 26 26" fill="none" xmlns="http://www.w3.org/2000/svg">
<g id="Icons">
<path id="Vector" d="M21.8911 14.3961L20.7561 13.2611C20.5853 13.0899 20.4431 12.8924 20.3351 12.6761L19.2551 10.5161C19.2257 10.4574 19.1828 10.4066 19.1299 10.3679C19.0771 10.3291 19.0157 10.3034 18.951 10.2929C18.8862 10.2825 18.8199 10.2876 18.7575 10.3078C18.6951 10.3279 18.6384 10.3627 18.5921 10.4091C18.4878 10.5133 18.3575 10.5877 18.2147 10.6246C18.0719 10.6616 17.9219 10.6596 17.7801 10.6191L16.5071 10.2561C16.3034 10.1988 16.086 10.216 15.8938 10.3045C15.7017 10.393 15.5473 10.5471 15.4585 10.7391C15.3697 10.9311 15.3521 11.1485 15.409 11.3523C15.466 11.5561 15.5936 11.7329 15.7691 11.8511L16.3561 12.2411C16.9461 12.6361 17.0301 13.4711 16.5281 13.9731L16.3281 14.1731C16.1161 14.3851 15.9981 14.6711 15.9981 14.9691V15.3791C15.9981 15.7881 15.8881 16.1881 15.6781 16.5371L14.3631 18.7281C14.1756 19.0407 13.9104 19.2995 13.5932 19.4791C13.276 19.6587 12.9176 19.7531 12.5531 19.7531C12.2733 19.7531 12.005 19.6419 11.8071 19.4441C11.6092 19.2462 11.4981 18.9779 11.4981 18.6981V17.5261C11.4981 16.6061 10.9381 15.7791 10.0841 15.4371L9.4291 15.1761C8.95254 14.9853 8.55554 14.6373 8.30398 14.1899C8.05242 13.7424 7.96142 13.2224 8.0461 12.7161L8.0531 12.6741C8.09958 12.3959 8.19796 12.1289 8.3431 11.8871L8.4331 11.7371C8.67192 11.3394 9.02782 11.0252 9.45208 10.8376C9.87634 10.65 10.3482 10.5981 10.8031 10.6891L11.9811 10.9251C12.2583 10.9804 12.5462 10.9293 12.7874 10.782C13.0287 10.6347 13.2056 10.4019 13.2831 10.1301L13.4911 9.40007C13.5632 9.14788 13.5448 8.87843 13.4393 8.63832C13.3337 8.3982 13.1476 8.20251 12.9131 8.08507L12.2481 7.75307L12.1571 7.84407C11.9482 8.053 11.7001 8.21874 11.4271 8.33181C11.1542 8.44488 10.8616 8.50307 10.5661 8.50307H10.3861C10.1371 8.50307 9.8991 8.60307 9.7241 8.77707C9.56371 8.93891 9.34955 9.03631 9.12217 9.05084C8.89479 9.06536 8.66997 8.996 8.4903 8.85589C8.31063 8.71577 8.18858 8.51463 8.14726 8.29057C8.10594 8.0665 8.14822 7.83506 8.2661 7.64007L9.6771 5.28707C9.81773 5.05318 9.91465 4.79565 9.9631 4.52707M21.8911 14.3961C22.1333 12.8532 21.9699 11.2739 21.4169 9.8133C20.8638 8.35273 19.9403 7.0612 18.7369 6.06568C17.5336 5.07016 16.0919 4.40491 14.5536 4.13532C13.0153 3.86573 11.4333 4.00108 9.9631 4.52807C8.46742 5.06421 7.14033 5.98675 6.1167 7.20193C5.09306 8.41711 4.40937 9.88163 4.1351 11.4466C3.86084 13.0117 4.00577 14.6214 4.55517 16.1122C5.10457 17.6031 6.03885 18.9219 7.26308 19.9347C8.48731 20.9475 9.95784 21.6182 11.5252 21.8786C13.0926 22.1389 14.701 21.9797 16.1869 21.4171C17.6728 20.8545 18.9833 19.9085 19.9852 18.6753C20.9871 17.4421 21.6447 15.9657 21.8911 14.3961Z" stroke="#F57B1F" stroke-width="1.5" stroke-linecap="round" stroke-linejoin="round"/>
</g>
</svg>
