<svg width="16" height="25" viewBox="0 0 16 25" fill="none" xmlns="http://www.w3.org/2000/svg">
<g id="Group 6">
<path id="Vector" d="M11.7667 13.5062L13.408 22.7427C13.4264 22.8515 13.4111 22.9632 13.3642 23.0631C13.3174 23.1629 13.2411 23.2461 13.1457 23.3015C13.0503 23.3568 12.9403 23.3817 12.8303 23.3729C12.7204 23.364 12.6158 23.3218 12.5305 23.2519L8.65214 20.3409C8.46491 20.2011 8.23747 20.1255 8.00377 20.1255C7.77006 20.1255 7.54262 20.2011 7.35539 20.3409L3.47056 23.2508C3.38532 23.3206 3.28083 23.3627 3.17101 23.3716C3.0612 23.3805 2.95129 23.3557 2.85594 23.3005C2.7606 23.2453 2.68436 23.1623 2.63739 23.0626C2.59042 22.963 2.57495 22.8514 2.59306 22.7427L4.23322 13.5062" stroke="#C31E5D" stroke-width="1.5" stroke-linecap="round" stroke-linejoin="round"/>
<path id="Vector_2" d="M8 14.7085C11.5899 14.7085 14.5 11.7984 14.5 8.20854C14.5 4.61869 11.5899 1.70854 8 1.70854C4.41015 1.70854 1.5 4.61869 1.5 8.20854C1.5 11.7984 4.41015 14.7085 8 14.7085Z" stroke="#C31E5D" stroke-width="1.5" stroke-linecap="round" stroke-linejoin="round"/>
</g>
</svg>
