<svg width="22" height="21" viewBox="0 0 22 21" fill="none" xmlns="http://www.w3.org/2000/svg">
<path id="Vector" d="M18.8448 0.838774C18.85 0.845543 18.7604 0.732307 18.7653 0.739261L21.5034 4.53168L21.68 4.78349C21.9078 5.06335 21.9326 5.45372 21.6649 5.71691C21.3972 5.98011 20.9764 5.98184 20.7206 5.72475L20.65 5.65011L18.9575 4.04006C18.9574 4.0427 18.9568 4.04429 18.9566 4.04693C18.8716 4.75556 18.7403 5.61721 18.5269 6.58941C18.2258 7.94406 17.7658 9.51372 17.0267 11.1092C16.2909 12.6998 15.2578 14.32 13.8954 15.6411C13.724 15.8076 13.5402 15.9686 13.3635 16.131C13.1855 16.2917 13.0109 16.4195 12.8349 16.565L12.6911 16.681L12.5493 16.7807L12.2664 16.9793C12.0783 17.1109 11.8908 17.2423 11.704 17.3732C11.5214 17.5092 11.3238 17.6226 11.1298 17.7382C10.936 17.8536 10.7432 17.9686 10.5516 18.0829C10.3633 18.2023 10.1651 18.302 9.96748 18.3986C9.77127 18.497 9.57637 18.5948 9.38302 18.6916C7.82138 19.4341 6.26797 19.8848 4.92285 20.0839C3.57657 20.2908 2.44724 20.2799 1.66965 20.2177C0.890075 20.1549 0.459732 20.0447 0.459732 20.0447C0.459732 20.0447 0.898938 20.1221 1.67727 20.1254C2.45329 20.129 3.5705 20.0549 4.86995 19.7547C6.16924 19.4626 7.64139 18.9134 9.08411 18.0922C9.2622 17.9859 9.44326 17.8805 9.62402 17.7724C9.80576 17.6664 9.99007 17.5613 10.1619 17.4334C10.3366 17.3109 10.518 17.1947 10.6945 17.0711C10.8711 16.9477 12.1792 15.8098 12.1792 15.8098C12.3396 15.6562 12.5207 15.5044 12.6662 15.3502C12.8103 15.1946 12.9689 15.0611 13.1102 14.9019C14.2601 13.6099 15.094 12.0793 15.6587 10.5747C16.2253 9.06642 16.5439 7.59248 16.7271 6.32183C16.8463 5.47694 16.909 4.72635 16.9399 4.09713L15.2793 5.76182L15.2043 5.83742C14.939 6.10306 14.522 6.12208 14.2634 5.86762C14.0049 5.61316 13.9798 5.1821 14.2695 4.94631L14.259 4.95482L14.2435 4.93573L17.1003 1.09186C17.2806 0.689247 17.7105 0.419159 18.1668 0.467025C18.4188 0.493283 18.6372 0.613972 18.7925 0.786113C18.8096 0.803914 18.8291 0.819459 18.8448 0.838774Z" fill="#323232"/>
</svg>
