<svg width="304" height="132" viewBox="0 0 304 132" fill="none" xmlns="http://www.w3.org/2000/svg">
<path d="M302 151C302 170.567 298.12 189.942 290.582 208.02C283.044 226.097 271.995 242.523 258.066 256.359C244.137 270.195 227.601 281.17 209.403 288.658C191.204 296.146 171.698 300 152 300C132.302 300 112.796 296.146 94.5975 288.658C76.3986 281.17 59.8628 270.195 45.934 256.359C32.0052 242.523 20.9563 226.097 13.4181 208.02C5.87986 189.942 2 170.567 2 151C2 131.433 5.87987 112.058 13.4181 93.9802C20.9563 75.9026 32.0052 59.477 45.934 45.6411C59.8628 31.8051 76.3987 20.8299 94.5975 13.3419C112.796 5.85399 132.302 2 152 2C171.698 2 191.204 5.854 209.403 13.342C227.601 20.8299 244.137 31.8052 258.066 45.6411C271.995 59.477 283.044 75.9027 290.582 93.9802C298.12 112.058 302 131.433 302 151L302 151Z" stroke="url(#paint0_linear_4914_8970)" stroke-width="3" stroke-linecap="round" stroke-linejoin="round"/>
<defs>
<linearGradient id="paint0_linear_4914_8970" x1="344" y1="-23" x2="-54.5" y2="189.5" gradientUnits="userSpaceOnUse">
<stop stop-color="#0E0725"/>
<stop offset="0.32747" stop-color="#5C03BC"/>
<stop offset="0.669597" stop-color="#E536AB"/>
<stop offset="1" stop-color="#F4E5F0"/>
</linearGradient>
</defs>
</svg>
