<svg width="38" height="38" viewBox="0 0 38 38" fill="none" xmlns="http://www.w3.org/2000/svg">
<g id="Icons">
<path id="Vector" d="M32.6679 17.3068C32.629 17.1201 32.5064 16.9768 32.3526 16.9372L32.1643 16.8891V13.6644L32.4715 13.3427C32.5929 13.2162 32.6436 13.0149 32.6019 12.8267C32.5602 12.6384 32.4335 12.4962 32.2767 12.4615L30.5508 12.0781L30.5514 9.36296L30.5508 9.30693L30.8686 8.97459C30.9897 8.84767 31.0407 8.64644 30.999 8.45854C30.9573 8.26988 30.8306 8.12772 30.6738 8.09304L16.7247 5.01084C16.6164 4.98645 16.5052 5.01656 16.4153 5.09354L5.60668 14.3241C5.4025 14.4629 4.65489 15.0913 4.6689 16.8381C4.68477 18.7349 5.60139 19.5963 5.6406 19.6321C5.64589 19.6371 5.65181 19.6401 5.65741 19.6447C5.66675 19.6527 5.67609 19.6599 5.68573 19.6668C5.69601 19.674 5.70659 19.6801 5.71748 19.6862C5.72713 19.692 5.73678 19.6969 5.74736 19.7015C5.75919 19.7068 5.77102 19.7106 5.78315 19.7144C5.79 19.7171 5.79654 19.7205 5.80338 19.7225L6.44175 19.8863C6.3381 20.2313 6.26776 20.6635 6.27243 21.2066C6.28021 22.1464 6.50898 22.8317 6.74272 23.2887L6.24815 23.7106C6.04273 23.8508 5.29637 24.4805 5.31099 26.2245C5.32656 28.1214 6.24286 28.9847 6.28301 29.0186C6.31756 29.0476 6.38666 29.0921 6.44517 29.1085L21.0781 32.8684C21.0796 32.8688 21.0812 32.8695 21.0827 32.8699L21.6053 33.0041C21.6333 33.0113 21.662 33.0147 21.69 33.0147C21.7871 33.0147 21.8823 32.9724 21.9576 32.8939L31.5748 22.8344C31.6946 22.709 31.7457 22.5112 31.7068 22.3248C31.6676 22.1381 31.5452 21.9947 31.3912 21.9551L31.2194 21.9113V19.1934L32.5356 17.8168C32.6558 17.691 32.7071 17.4932 32.6679 17.3068ZM20.9831 19.1557C21.0806 19.1557 21.1758 19.1134 21.2511 19.0345L29.7307 10.1652V13.3766L20.9069 22.5664V19.1458C20.9327 19.1515 20.9579 19.1557 20.9831 19.1557ZM6.24535 15.3799L20.0802 18.9347V22.3534L6.24535 18.8058V15.3799ZM6.88745 28.1885V24.7652L20.722 28.3207V31.744L6.88745 28.1885ZM7.85543 23.1747V20.2496L20.4363 23.4819C20.4378 23.4823 20.4391 23.4831 20.4406 23.4834L20.9632 23.6176C20.9915 23.6248 21.0199 23.6283 21.0479 23.6283C21.145 23.6283 21.2405 23.586 21.3159 23.5075L21.5446 23.2677L21.6828 23.3032V26.7253L7.85543 23.1747ZM30.3939 22.7399L21.5518 31.9575L21.549 28.5323C21.5742 28.5384 21.5997 28.5418 21.6252 28.5418C21.7223 28.5418 21.8176 28.4999 21.8929 28.421L22.3595 27.9331L22.5658 27.9861C22.5938 27.9933 22.6225 27.9968 22.6502 27.9968C22.7476 27.9968 22.8428 27.9545 22.9181 27.876L30.3939 20.0529V22.7399ZM31.3538 17.7238L22.5129 26.9384L22.5098 23.5147C22.5353 23.5204 22.5605 23.5242 22.5857 23.5242C22.6832 23.5242 22.7784 23.4819 22.8537 23.4034L31.3551 14.5109L31.3538 17.7238Z" fill="#323232"/>
</g>
</svg>
