<svg width="408" height="548" viewBox="0 0 408 548" fill="none" xmlns="http://www.w3.org/2000/svg">
<g clip-path="url(#clip0_881_10942)">
<rect width="408" height="548" rx="12" fill="#FEFEFE"/>
<g filter="url(#filter0_diiiii_881_10942)">
<g clip-path="url(#clip1_881_10942)">
<path d="M-4.90098 180.435C0.865842 172.456 3.74925 168.467 7.50468 166.542C10.808 164.848 14.5627 164.244 18.2306 164.816C22.4004 165.465 26.3899 168.349 34.3688 174.116L49.5652 185.099C57.5441 190.866 61.5335 193.749 63.4588 197.505C65.1522 200.808 65.7565 204.563 65.1849 208.231C64.535 212.4 61.6516 216.39 55.8848 224.369L44.9014 239.565C39.1346 247.544 36.2512 251.534 32.4958 253.459C29.1924 255.152 25.4377 255.757 21.7698 255.185C17.6 254.535 13.6106 251.652 5.63169 245.885L-9.56474 234.901C-17.5436 229.135 -21.5331 226.251 -23.4583 222.496C-25.1518 219.192 -25.756 215.438 -25.1844 211.77C-24.5346 207.6 -21.6512 203.611 -15.8843 195.632L-4.90098 180.435Z" fill="url(#paint0_linear_881_10942)" fill-opacity="0.72"/>
<g clip-path="url(#clip2_881_10942)" filter="url(#filter1_ddi_881_10942)">
<path d="M33.3519 238.238L33.7274 236.645C33.85 236.301 33.8693 235.928 33.7829 235.573C33.6965 235.219 33.5083 234.897 33.2413 234.648L48.5332 213.49C48.9477 212.915 49.1171 212.199 49.0042 211.5C48.8914 210.8 48.5056 210.174 47.9316 209.759L10.5362 182.731C9.96179 182.317 9.24638 182.147 8.54703 182.26C7.84768 182.372 7.22152 182.757 6.80595 183.331L-8.4968 204.504C-8.80875 204.37 -9.15069 204.321 -9.48766 204.362C-9.82462 204.404 -10.1445 204.534 -10.4147 204.74L-11.8102 205.597C-12.0497 205.738 -12.2499 205.937 -12.3925 206.175C-12.535 206.414 -12.6153 206.685 -12.626 206.962C-12.635 207.251 -12.5746 207.537 -12.4499 207.798C-12.3251 208.058 -12.1397 208.284 -11.9091 208.458L30.666 239.23C30.9033 239.394 31.1765 239.499 31.4628 239.536C31.7491 239.573 32.0401 239.54 32.3112 239.441C32.5715 239.344 32.8033 239.183 32.9851 238.973C33.167 238.762 33.2931 238.51 33.3519 238.238ZM32.0038 233.745L15.9323 222.129C15.8469 222.068 15.7499 222.024 15.6472 222.002L12.954 221.413L10.565 219.686L9.16086 217.314C9.10723 217.223 9.03564 217.145 8.9505 217.083L-7.24126 205.38L8.04683 184.228C8.22434 183.983 8.49167 183.819 8.79021 183.771C9.08876 183.723 9.39414 183.795 9.63938 183.972L24.2243 194.513L23.8149 195.08C23.5497 195.448 23.4413 195.906 23.5134 196.354C23.5856 196.802 23.8324 197.203 24.1999 197.469L29.7718 201.496C30.1397 201.762 30.5979 201.87 31.0459 201.798C31.4938 201.726 31.8949 201.479 32.1612 201.112L32.5705 200.546L47.0347 211C47.2795 211.177 47.444 211.444 47.4921 211.743C47.5401 212.041 47.4678 212.347 47.2909 212.592L32.0038 233.745ZM32.8636 202.6C32.9826 202.436 33.162 202.325 33.3625 202.293C33.563 202.26 33.7681 202.309 33.9328 202.428L34.5755 202.892C34.7338 203.014 34.8386 203.192 34.8676 203.389C34.8965 203.587 34.8473 203.788 34.7305 203.949C34.6136 204.111 34.4383 204.221 34.2418 204.255C34.0453 204.29 33.8432 204.246 33.6783 204.134L33.0356 203.669C32.8712 203.55 32.7607 203.371 32.7285 203.17C32.6962 202.97 32.7448 202.765 32.8636 202.6ZM34.9336 215.018L25.384 202.094C25.2898 201.966 25.1581 201.871 25.0074 201.821L9.74139 196.81C9.58713 196.76 9.42087 196.76 9.26658 196.81C9.11228 196.86 8.97793 196.958 8.88288 197.09C8.78783 197.221 8.73699 197.379 8.73768 197.542C8.73838 197.704 8.79058 197.862 8.88676 197.992L12.9572 203.502L9.12064 208.81C9.03532 208.928 8.98511 209.067 8.97585 209.212C8.96659 209.356 8.99867 209.501 9.06835 209.628C10.4898 212.234 12.4763 214.49 14.8824 216.229C17.2885 217.968 20.0532 219.146 22.9739 219.678C23.1163 219.705 23.2632 219.69 23.3976 219.636C23.5319 219.582 23.6482 219.491 23.733 219.374L27.5699 214.065L30.0164 214.868L25.7754 220.736C25.6499 220.651 25.5022 220.605 25.3507 220.604C25.1993 220.604 25.051 220.648 24.9247 220.731L22.7411 222.177C22.638 222.245 22.5529 222.337 22.4932 222.446C22.4335 222.554 22.4009 222.675 22.3983 222.799C22.3956 222.922 22.4229 223.045 22.4779 223.156C22.5329 223.266 22.6139 223.362 22.714 223.435L23.4421 223.961L22.9322 224.667C22.8199 224.831 22.7764 225.034 22.8108 225.23C22.8453 225.427 22.955 225.602 23.1167 225.719C23.2783 225.836 23.4792 225.885 23.6766 225.856C23.874 225.827 24.0523 225.722 24.1736 225.564L24.6835 224.858L25.413 225.386C25.5134 225.458 25.6298 225.505 25.7522 225.522C25.8746 225.54 25.9995 225.527 26.116 225.486C26.2326 225.445 26.3374 225.376 26.4215 225.285C26.5056 225.194 26.5665 225.085 26.5989 224.965L27.2867 222.438C27.3263 222.292 27.3216 222.138 27.2733 221.994C27.225 221.85 27.1352 221.725 27.0153 221.632L31.5425 215.368L34.0769 216.2C34.2311 216.251 34.3974 216.251 34.5517 216.2C34.706 216.15 34.8403 216.052 34.9354 215.921C35.0304 215.789 35.0813 215.631 35.0806 215.469C35.0799 215.306 35.0277 215.149 34.9315 215.018L34.9336 215.018ZM23.4026 217.217C20.878 216.69 18.4929 215.636 16.4026 214.125C14.3124 212.615 12.5638 210.68 11.2709 208.449L13.9116 204.795L18.4344 210.918C18.5291 211.045 18.6606 211.14 18.811 211.19L26.0432 213.564L23.4026 217.217Z" fill="white"/>
</g>
</g>
</g>
<g filter="url(#filter2_dddiiii_881_10942)">
<g clip-path="url(#clip3_881_10942)">
<path d="M362.495 61.3179C356.371 56.1845 353.309 53.6178 351.969 50.4654C350.791 47.6924 350.52 44.6175 351.196 41.6813C351.965 38.3434 354.532 35.2815 359.665 29.1578L369.442 17.4947C374.576 11.371 377.143 8.30912 380.295 6.9692C383.068 5.79057 386.143 5.52006 389.079 6.19644C392.417 6.96539 395.479 9.53209 401.603 14.6655L413.266 24.4425C419.389 29.5759 422.451 32.1426 423.791 35.295C424.97 38.068 425.24 41.1429 424.564 44.0791C423.795 47.4171 421.228 50.4789 416.095 56.6026L406.318 68.2657C401.185 74.3894 398.618 77.4513 395.465 78.7912C392.692 79.9699 389.617 80.2404 386.681 79.564C383.343 78.795 380.281 76.2283 374.158 71.0949L362.495 61.3179Z" fill="url(#paint1_linear_881_10942)" fill-opacity="0.78"/>
<g clip-path="url(#clip4_881_10942)" filter="url(#filter3_dd_881_10942)">
<path d="M390.851 62.5768C391.525 63.1419 392.538 63.0528 393.103 62.3787L409.899 42.3434L407.448 40.2893L390.653 60.3247C390.093 61.0029 390.177 62.0118 390.851 62.5768Z" fill="white"/>
<path d="M388.133 65.8192C390.411 67.7289 393.803 67.4305 395.713 65.1525L411.423 46.4112C412.182 45.5058 412.063 44.1582 411.158 43.3992L410.858 43.1476L394.063 63.183C393.052 64.3884 391.252 64.5468 390.047 63.5362C388.841 62.5257 388.683 60.7258 389.693 59.5203L406.489 39.485L404.55 37.8599L387.466 58.2397C385.561 60.5219 385.86 63.9137 388.133 65.8192Z" fill="white"/>
<path d="M390.355 25.9606C387.753 29.0652 388.155 33.6921 391.27 36.3029C392.736 37.532 394.539 38.0889 396.319 38.0053L398.266 39.8302C398.529 40.0759 398.953 39.9703 399.064 39.6278L400.002 36.8199C400.665 36.3878 401.273 35.8331 401.784 35.1728C404.114 32.1742 403.705 27.7348 400.871 25.2086C397.765 22.4284 393.011 22.7919 390.355 25.9606ZM398.879 30.5839L395.163 35.0171C394.94 35.2828 394.542 35.3178 394.276 35.0951C394.01 34.8723 393.975 34.4744 394.198 34.2087L397.914 29.7755C398.137 29.5098 398.535 29.4748 398.801 29.6975C399.066 29.9203 399.101 30.3182 398.879 30.5839ZM398.232 27.0086L393.022 33.2229C392.799 33.4886 392.401 33.5236 392.136 33.3009C391.87 33.0781 391.835 32.6802 392.058 32.4145L397.267 26.2002C397.49 25.9345 397.888 25.8995 398.154 26.1222C398.419 26.3449 398.45 26.7478 398.232 27.0086Z" fill="white"/>
<path d="M386.507 57.4354L387.237 56.5645L365.602 38.4288L364.872 39.2997C363.92 40.4363 363.516 41.8572 363.636 43.223C363.757 44.5978 364.403 45.9265 365.539 46.8792L385.176 63.3404C384.667 61.3389 385.084 59.1329 386.507 57.4354Z" fill="white"/>
<path d="M401.065 37.6106L400.256 40.0243C400.188 40.2353 400.086 40.4266 399.946 40.5939C399.641 40.958 399.191 41.1844 398.711 41.2084C398.234 41.2366 397.764 41.0684 397.416 40.7435L395.841 39.2642C393.883 39.2313 391.994 38.5271 390.479 37.2567C386.847 34.2128 386.365 28.7818 389.405 25.1555L389.409 25.1506L386.088 22.3665C383.81 20.4568 380.418 20.7552 378.508 23.0333L366.407 37.4694L388.046 55.6092L403.596 37.0598L402.567 36.1978L402.563 36.2027C402.114 36.739 401.612 37.207 401.065 37.6106ZM390.839 45.761L387.156 50.1548C386.929 50.4254 386.535 50.4555 386.27 50.2328C386.004 50.0101 385.965 49.617 386.192 49.3464L389.875 44.9526C390.098 44.6869 390.496 44.6519 390.761 44.8746C391.027 45.0974 391.062 45.4953 390.839 45.761ZM391.445 39.9517L384.652 48.0554C384.425 48.326 384.036 48.3602 383.765 48.1334C383.5 47.9107 383.46 47.5176 383.687 47.247L390.48 39.1433C390.703 38.8776 391.101 38.8426 391.367 39.0653C391.637 39.2922 391.668 39.686 391.445 39.9517ZM388.945 37.8565L382.152 45.9601C381.925 46.2307 381.531 46.2608 381.266 46.0381C381 45.8154 380.961 45.4223 381.188 45.1517L387.981 37.048C388.204 36.7823 388.602 36.7473 388.867 36.9701C389.133 37.1928 389.168 37.5908 388.945 37.8565ZM386.436 35.7529L379.643 43.8566C379.416 44.1272 379.022 44.1573 378.756 43.9346C378.491 43.7118 378.452 43.3188 378.678 43.0482L385.472 34.9445C385.694 34.6788 386.092 34.6438 386.358 34.8665C386.629 35.0934 386.659 35.4872 386.436 35.7529Z" fill="white"/>
</g>
</g>
</g>
<g filter="url(#filter4_dddiiii_881_10942)">
<g clip-path="url(#clip5_881_10942)">
<path d="M362.278 349.576C355.941 343.898 352.772 341.058 351.457 337.656C350.3 334.663 350.121 331.381 350.944 328.28C351.88 324.755 354.719 321.586 360.398 315.249L371.214 303.181C376.893 296.844 379.732 293.676 383.134 292.361C386.127 291.204 389.409 291.024 392.51 291.847C396.036 292.783 399.204 295.622 405.541 301.301L417.61 312.117C423.946 317.796 427.115 320.635 428.43 324.038C429.587 327.03 429.766 330.312 428.943 333.414C428.007 336.939 425.168 340.107 419.489 346.444L408.673 358.513C402.994 364.85 400.155 368.018 396.753 369.333C393.76 370.49 390.478 370.67 387.377 369.846C383.851 368.911 380.683 366.071 374.346 360.392L362.278 349.576Z" fill="url(#paint2_linear_881_10942)" fill-opacity="0.81"/>
<g clip-path="url(#clip6_881_10942)" filter="url(#filter5_dd_881_10942)">
<path fill-rule="evenodd" clip-rule="evenodd" d="M372.001 325.381C371.286 325.225 371.514 324.134 372.233 324.283L377.076 325.3C377.791 325.456 377.563 326.547 376.844 326.398L372.001 325.381ZM377.409 322.605L375.343 320.754C374.793 320.264 374.044 321.099 374.591 321.593L376.657 323.445C377.209 323.935 377.956 323.099 377.409 322.605ZM373.42 330.398L376.178 328.598C376.792 328.191 376.179 327.257 375.562 327.655L372.804 329.455C372.189 329.863 372.803 330.799 373.42 330.398ZM398.767 342.975C400.023 342.52 400.368 340.748 399.336 339.871C398.352 338.939 396.628 339.478 396.313 340.776C396.116 341.227 396.486 341.745 396.167 342.142C395.961 342.371 395.603 342.394 395.37 342.185L391.631 338.832L389.092 341.665C391.217 342.134 392.098 344.939 390.592 346.536C389.175 348.203 386.283 347.639 385.587 345.576L383.047 348.41L391.165 355.685C391.567 356.045 392.08 356.208 392.581 356.182C393.082 356.154 393.574 355.935 393.934 355.533L401.209 347.416L397.47 344.065C397.236 343.856 397.22 343.498 397.426 343.268C397.785 342.908 398.339 343.22 398.767 342.975ZM386.356 343.875C386.716 344.235 386.405 344.79 386.65 345.217C387.105 346.473 388.875 346.82 389.752 345.785C390.682 344.801 390.149 343.078 388.848 342.762C388.396 342.565 387.879 342.935 387.482 342.616C387.252 342.41 387.229 342.053 387.439 341.819L390.789 338.08L387.957 335.542C387.486 337.669 384.68 338.546 383.086 337.042C381.414 335.62 381.982 332.736 384.045 332.037L381.213 329.498L373.939 337.614C373.578 338.016 373.415 338.529 373.443 339.031C373.47 339.533 373.689 340.024 374.092 340.385L382.209 347.659L385.56 343.92C385.768 343.686 386.125 343.669 386.356 343.875ZM396.82 332.199C396.459 331.839 396.77 331.286 396.525 330.857C396.269 330.136 395.445 329.609 394.697 329.676C392.627 329.79 392.312 332.773 394.326 333.311C394.839 333.519 395.675 333.011 395.864 333.756C395.903 333.939 395.85 334.12 395.733 334.252L392.383 337.993L395.216 340.532C395.488 339.283 396.737 338.283 397.987 338.276C401.32 338.14 402.276 342.882 399.127 344.037L401.961 346.577L409.235 338.459C409.596 338.057 409.759 337.544 409.732 337.042C409.704 336.54 409.486 336.048 409.084 335.688L400.966 328.415L397.615 332.155C397.407 332.387 397.051 332.406 396.82 332.199ZM383.527 311.019C382.989 311.049 382.511 311.296 382.176 311.67C381.84 312.045 381.646 312.547 381.676 313.084L382.271 323.968L387.285 323.694C387.596 323.677 387.862 323.915 387.878 324.226C387.878 324.736 387.267 324.907 387.138 325.384C386.569 326.59 387.584 328.088 388.93 327.98C390.283 327.939 391.127 326.345 390.429 325.204C390.281 324.948 390.071 324.732 389.825 324.574C389.366 324.301 389.576 323.549 390.099 323.542L395.112 323.265L394.905 319.467C393.052 320.647 390.425 319.252 390.399 317.035C390.256 314.867 392.682 313.269 394.617 314.222L394.41 310.423L383.527 311.019Z" fill="white"/>
</g>
</g>
</g>
<g filter="url(#filter6_diiii_881_10942)">
<g clip-path="url(#clip7_881_10942)">
<path d="M-6.39866 404.809C0.765382 398.057 4.34741 394.681 8.39782 393.496C11.9607 392.454 15.762 392.566 19.257 393.817C23.2303 395.239 26.6065 398.821 33.3589 405.985L46.2195 419.63C52.9719 426.794 56.3481 430.376 57.533 434.426C58.5752 437.989 58.4628 441.79 57.2118 445.285C55.7896 449.259 52.2076 452.635 45.0435 459.387L31.399 472.248C24.235 479 20.6529 482.376 16.6025 483.561C13.0397 484.604 9.23836 484.491 5.74335 483.24C1.77005 481.818 -1.60616 478.236 -8.35858 471.072L-21.2191 457.427C-27.9715 450.263 -31.3478 446.681 -32.5326 442.631C-33.5749 439.068 -33.4624 435.267 -32.2114 431.772C-30.7892 427.798 -27.2072 424.422 -20.0432 417.67L-6.39866 404.809Z" fill="url(#paint3_linear_881_10942)" fill-opacity="0.75"/>
<g clip-path="url(#clip8_881_10942)" filter="url(#filter7_ddi_881_10942)">
<path d="M31.2521 430.144C31.3951 429.728 31.5366 429.305 31.6734 428.869L33.5563 430.129C33.4184 430.43 33.288 430.705 33.1669 430.954C33.0619 431.175 32.95 431.399 32.838 431.627L31.2487 430.143L31.2521 430.144ZM11.3962 416.628L20.3544 420.667L13.2919 414.07C12.9518 414.549 12.6261 414.997 12.3113 415.423C12.0036 415.838 11.698 416.241 11.3962 416.628ZM29.1149 435.357C28.0239 437.632 26.8654 439.604 25.6631 441.572L29.3776 440.254C31.0949 438.444 32.7914 436.65 34.6087 433.981L31.0667 430.671C30.4504 432.396 29.7971 433.932 29.1167 435.355L29.1149 435.357ZM8.58353 415.358L10.9139 416.41C11.1505 416.105 11.3906 415.793 11.631 415.471L9.30691 413.918C9.18764 414.162 9.06671 414.405 8.94579 414.648C8.82496 414.887 8.70591 415.124 8.58353 415.358ZM25.1385 442.307L16.1428 445.499C16.1171 445.507 16.0982 445.515 16.0827 445.523C16.0689 445.529 16.0499 445.541 16.0274 445.555L11.687 448.403C13.2391 448.332 16.2365 448.188 16.9394 448.129C16.9632 448.126 16.9837 448.123 17.0059 448.119C17.0281 448.115 17.0486 448.108 17.0709 448.101L22.3004 446.245L22.3056 446.244L31.0406 443.142L30.1176 440.539L25.1557 442.301C25.1488 442.304 25.1419 442.307 25.1351 442.307L25.1385 442.307ZM44.0877 437.799C44.2884 437.729 44.442 437.588 44.5302 437.415C44.6149 437.25 44.636 437.055 44.5717 436.875C44.5074 436.695 44.3706 436.557 44.1997 436.48C44.0254 436.404 43.8152 436.391 43.6145 436.461L42.6555 436.801L43.1303 438.138L44.0894 437.798L44.0877 437.799ZM32.2897 442.7L31.3667 440.097L30.6084 440.367L31.5313 442.969L32.2897 442.7ZM18.6679 453.293C17.5589 455.888 16.4817 458.902 15.4573 462.592L9.78789 460.034C9.77617 460.028 9.76445 460.023 9.75273 460.017L-0.815344 455.25C-0.823675 455.245 -0.833752 455.241 -0.843829 455.237L-11.124 450.601C-8.26911 440.928 -5.33467 436.075 -2.47869 431.354C-1.97354 430.519 -1.47009 429.685 -0.969451 428.83C-0.965958 428.827 -0.965858 428.823 -0.962365 428.82C1.20118 425.125 3.30216 421.021 5.26947 414.424L8.1159 415.709C8.12094 415.711 8.12423 415.714 8.12762 415.714L10.8652 416.95C10.8769 416.955 10.8886 416.961 10.9003 416.966L21.5455 421.766C21.5538 421.771 21.5623 421.773 21.5724 421.777L31.8576 426.416C31.6713 427.089 31.4841 427.737 31.2891 428.36C31.2836 428.375 31.2781 428.387 31.276 428.402C31.094 428.986 30.9077 429.547 30.7184 430.092C30.7076 430.112 30.7001 430.135 30.696 430.159C30.0506 432.004 29.3658 433.632 28.6475 435.13C27.4715 437.581 26.2053 439.695 24.8872 441.844L15.9687 445.01C15.931 445.022 15.8932 445.038 15.8535 445.059C15.8122 445.078 15.7759 445.099 15.7447 445.122L10.6182 448.486C10.5455 448.535 10.4989 448.618 10.5012 448.712C10.5072 448.855 10.6262 448.963 10.769 448.958C10.7843 448.956 16.0287 448.719 16.9801 448.64C17.0278 448.635 17.0721 448.63 17.1131 448.621C17.1559 448.61 17.1986 448.599 17.2432 448.584L21.8208 446.96C20.7515 448.845 19.6945 450.887 18.6658 453.291L18.6679 453.293ZM7.90196 422.144L25.6457 430.147C25.8284 430.229 26.0396 430.149 26.123 429.968C26.2048 429.785 26.1245 429.574 25.9436 429.491L8.19981 421.487C8.01893 421.404 7.80598 421.486 7.72254 421.667C7.64074 421.85 7.72107 422.061 7.90196 422.144ZM6.80852 426.337L24.5523 434.341C24.7349 434.423 24.9461 434.342 25.0296 434.161C25.113 433.98 25.031 433.767 24.8502 433.684L7.10636 425.681C6.92548 425.597 6.71254 425.679 6.6291 425.86C6.54565 426.041 6.62763 426.254 6.80852 426.337ZM4.5101 430.117L22.2539 438.12C22.4365 438.202 22.6477 438.121 22.7312 437.94C22.8146 437.759 22.7326 437.547 22.5517 437.463L4.80795 429.46C4.62532 429.378 4.41412 429.458 4.33068 429.639C4.24888 429.822 4.32921 430.033 4.5101 430.117ZM1.91238 433.739L19.6562 441.742C19.8388 441.824 20.05 441.744 20.1334 441.563C20.2152 441.38 20.1349 441.169 19.954 441.086L2.21023 433.082C2.02935 432.999 1.81641 433.081 1.73296 433.262C1.65116 433.444 1.7315 433.656 1.91238 433.739ZM9.93922 448.427C10.0227 448.246 9.94068 448.033 9.7598 447.95L-2.50898 442.418C-2.68986 442.334 -2.90281 442.416 -2.98626 442.597C-3.06805 442.78 -2.98772 442.991 -2.80683 443.074L9.46194 448.607C9.64457 448.688 9.85578 448.608 9.93922 448.427ZM14.6206 444.787C14.7024 444.604 14.622 444.393 14.4411 444.309L-0.300415 437.661C-0.481298 437.578 -0.694241 437.66 -0.777683 437.841C-0.859482 438.023 -0.779151 438.235 -0.598263 438.318L14.1433 444.966C14.3259 445.048 14.5371 444.967 14.6206 444.787ZM12.117 461.647L9.7514 460.579C9.51796 460.895 9.28967 461.209 9.06312 461.521L11.4238 463.099C11.5362 462.858 11.6504 462.615 11.7679 462.372C11.8837 462.131 12.0012 461.888 12.1188 461.646L12.117 461.647ZM8.3783 461.6L8.4811 461.453L8.48469 461.447C8.48828 461.44 8.49352 461.435 8.49712 461.428C8.76453 461.054 9.02118 460.7 9.2688 460.364L0.37919 456.356L7.43834 462.95C7.76664 462.469 8.07895 462.02 8.3783 461.6ZM-2.91718 431.088C-2.68328 430.7 -2.44773 430.313 -2.21385 429.924C-3.73537 431.256 -5.30649 432.717 -6.98596 434.505C-9.07529 436.724 -11.3306 439.447 -13.8699 443.041L-11.9882 444.799L-11.9783 444.81L-10.3115 446.368C-7.85507 439.251 -5.35762 435.123 -2.91953 431.09L-2.91718 431.088ZM-12.0844 445.414C-12.1944 445.634 -12.3079 445.856 -12.4199 446.084C-12.5499 446.345 -12.6835 446.616 -12.8191 446.895L-10.9113 448.17C-10.7728 447.737 -10.6312 447.313 -10.4934 446.899L-12.086 445.413L-12.0844 445.414ZM42.4384 439.09C42.5502 439.041 42.6409 438.962 42.6914 438.862C42.7455 438.755 42.7593 438.633 42.7185 438.519L42.0963 436.768C42.0539 436.653 41.9682 436.565 41.8609 436.518C41.7486 436.469 41.613 436.461 41.481 436.507L31.8522 439.923L32.7752 442.526L41.7657 439.335C41.8544 439.895 41.5046 440.472 40.9143 440.682L32.4213 443.697C32.236 443.763 32.1383 443.967 32.2041 444.152C32.2213 444.202 32.2473 444.244 32.2802 444.279C32.374 444.378 32.5222 444.42 32.6595 444.37L41.1525 441.354C42.1202 441.009 42.6587 440.024 42.4368 439.088L42.4384 439.09Z" fill="white"/>
</g>
</g>
</g>
<g filter="url(#filter8_dddiiii_881_10942)">
<g clip-path="url(#clip9_881_10942)">
<path d="M186.923 533.394C183.332 526.117 181.537 522.479 181.582 519.001C181.621 515.942 182.628 512.973 184.458 510.521C186.539 507.734 190.177 505.938 197.454 502.348L211.313 495.509C218.589 491.919 222.228 490.124 225.706 490.168C228.765 490.208 231.733 491.215 234.185 493.045C236.973 495.125 238.768 498.764 242.359 506.04L249.197 519.899C252.788 527.176 254.583 530.814 254.538 534.292C254.499 537.352 253.492 540.32 251.662 542.772C249.581 545.56 245.943 547.355 238.666 550.945L224.807 557.784C217.531 561.374 213.892 563.17 210.414 563.125C207.355 563.086 204.386 562.079 201.934 560.249C199.147 558.168 197.352 554.53 193.761 547.253L186.923 533.394Z" fill="url(#paint4_linear_881_10942)"/>
<g clip-path="url(#clip10_881_10942)" filter="url(#filter9_ddi_881_10942)">
<path fill-rule="evenodd" clip-rule="evenodd" d="M208.483 522.078C212.041 520.322 216.355 521.786 218.11 525.343C219.866 528.901 218.403 533.215 214.845 534.97C211.287 536.726 206.973 535.263 205.218 531.705C203.462 528.147 204.925 523.833 208.483 522.078ZM220.993 531.449C223.976 531.488 226.83 533.161 228.241 536.02L228.242 536.023C228.897 537.35 228.997 538.881 228.522 540.282C228.047 541.682 227.036 542.836 225.709 543.491L214.999 548.776C213.672 549.431 212.14 549.531 210.74 549.056C209.34 548.581 208.185 547.57 207.531 546.243L207.529 546.24C206.119 543.382 206.528 540.099 208.311 537.707C210.733 538.591 213.498 538.522 215.992 537.292C218.484 536.062 220.222 533.909 220.994 531.449L220.993 531.449ZM219.07 521.33C217.242 521.843 215.248 520.998 214.377 519.233L211.959 514.334C210.976 512.341 211.796 509.924 213.789 508.941L222.791 504.499C224.784 503.515 227.201 504.335 228.184 506.328L230.602 511.227C231.585 513.22 230.765 515.637 228.772 516.621L224.441 518.758L222.933 524.126C222.789 524.645 222.336 525.02 221.8 525.066C221.264 525.114 220.754 524.824 220.52 524.338L219.07 521.33Z" fill="#282828"/>
</g>
</g>
</g>
</g>
<defs>
<filter id="filter0_diiiii_881_10942" x="-37.0469" y="152.953" width="203.157" height="203.157" filterUnits="userSpaceOnUse" color-interpolation-filters="sRGB">
<feFlood flood-opacity="0" result="BackgroundImageFix"/>
<feColorMatrix in="SourceAlpha" type="matrix" values="0 0 0 0 0 0 0 0 0 0 0 0 0 0 0 0 0 0 127 0" result="hardAlpha"/>
<feOffset dx="46.8753" dy="46.8753"/>
<feGaussianBlur stdDeviation="23.4376"/>
<feColorMatrix type="matrix" values="0 0 0 0 0.203922 0 0 0 0 0.913725 0 0 0 0 0.486275 0 0 0 0.1 0"/>
<feBlend mode="normal" in2="BackgroundImageFix" result="effect1_dropShadow_881_10942"/>
<feBlend mode="normal" in="SourceGraphic" in2="effect1_dropShadow_881_10942" result="shape"/>
<feColorMatrix in="SourceAlpha" type="matrix" values="0 0 0 0 0 0 0 0 0 0 0 0 0 0 0 0 0 0 127 0" result="hardAlpha"/>
<feOffset dy="4.68753"/>
<feGaussianBlur stdDeviation="2.34376"/>
<feComposite in2="hardAlpha" operator="arithmetic" k2="-1" k3="1"/>
<feColorMatrix type="matrix" values="0 0 0 0 1 0 0 0 0 1 0 0 0 0 1 0 0 0 0.6 0"/>
<feBlend mode="normal" in2="shape" result="effect2_innerShadow_881_10942"/>
<feColorMatrix in="SourceAlpha" type="matrix" values="0 0 0 0 0 0 0 0 0 0 0 0 0 0 0 0 0 0 127 0" result="hardAlpha"/>
<feOffset dy="2.34376"/>
<feGaussianBlur stdDeviation="1.17188"/>
<feComposite in2="hardAlpha" operator="arithmetic" k2="-1" k3="1"/>
<feColorMatrix type="matrix" values="0 0 0 0 1 0 0 0 0 1 0 0 0 0 1 0 0 0 0.1 0"/>
<feBlend mode="normal" in2="effect2_innerShadow_881_10942" result="effect3_innerShadow_881_10942"/>
<feColorMatrix in="SourceAlpha" type="matrix" values="0 0 0 0 0 0 0 0 0 0 0 0 0 0 0 0 0 0 127 0" result="hardAlpha"/>
<feOffset dy="-4.68753"/>
<feGaussianBlur stdDeviation="2.34376"/>
<feComposite in2="hardAlpha" operator="arithmetic" k2="-1" k3="1"/>
<feColorMatrix type="matrix" values="0 0 0 0 0 0 0 0 0 0 0 0 0 0 0 0 0 0 0.05 0"/>
<feBlend mode="normal" in2="effect3_innerShadow_881_10942" result="effect4_innerShadow_881_10942"/>
<feColorMatrix in="SourceAlpha" type="matrix" values="0 0 0 0 0 0 0 0 0 0 0 0 0 0 0 0 0 0 127 0" result="hardAlpha"/>
<feOffset dx="4.68753"/>
<feGaussianBlur stdDeviation="2.34376"/>
<feComposite in2="hardAlpha" operator="arithmetic" k2="-1" k3="1"/>
<feColorMatrix type="matrix" values="0 0 0 0 0 0 0 0 0 0 0 0 0 0 0 0 0 0 0.02 0"/>
<feBlend mode="normal" in2="effect4_innerShadow_881_10942" result="effect5_innerShadow_881_10942"/>
<feColorMatrix in="SourceAlpha" type="matrix" values="0 0 0 0 0 0 0 0 0 0 0 0 0 0 0 0 0 0 127 0" result="hardAlpha"/>
<feOffset dx="-4.68753"/>
<feGaussianBlur stdDeviation="2.34376"/>
<feComposite in2="hardAlpha" operator="arithmetic" k2="-1" k3="1"/>
<feColorMatrix type="matrix" values="0 0 0 0 0 0 0 0 0 0 0 0 0 0 0 0 0 0 0.02 0"/>
<feBlend mode="normal" in2="effect5_innerShadow_881_10942" result="effect6_innerShadow_881_10942"/>
</filter>
<filter id="filter1_ddi_881_10942" x="-42.707" y="156.668" width="125.415" height="125.415" filterUnits="userSpaceOnUse" color-interpolation-filters="sRGB">
<feFlood flood-opacity="0" result="BackgroundImageFix"/>
<feColorMatrix in="SourceAlpha" type="matrix" values="0 0 0 0 0 0 0 0 0 0 0 0 0 0 0 0 0 0 127 0" result="hardAlpha"/>
<feOffset dy="9.37505"/>
<feGaussianBlur stdDeviation="11.7188"/>
<feColorMatrix type="matrix" values="0 0 0 0 0 0 0 0 0 0.529167 0 0 0 0 0.338997 0 0 0 0.5 0"/>
<feBlend mode="normal" in2="BackgroundImageFix" result="effect1_dropShadow_881_10942"/>
<feColorMatrix in="SourceAlpha" type="matrix" values="0 0 0 0 0 0 0 0 0 0 0 0 0 0 0 0 0 0 127 0" result="hardAlpha"/>
<feOffset dy="4.68753"/>
<feGaussianBlur stdDeviation="7.03129"/>
<feColorMatrix type="matrix" values="0 0 0 0 0 0 0 0 0 0.529412 0 0 0 0 0.337255 0 0 0 0.3 0"/>
<feBlend mode="normal" in2="effect1_dropShadow_881_10942" result="effect2_dropShadow_881_10942"/>
<feBlend mode="normal" in="SourceGraphic" in2="effect2_dropShadow_881_10942" result="shape"/>
<feColorMatrix in="SourceAlpha" type="matrix" values="0 0 0 0 0 0 0 0 0 0 0 0 0 0 0 0 0 0 127 0" result="hardAlpha"/>
<feOffset dx="-2.34376" dy="-2.34376"/>
<feGaussianBlur stdDeviation="1.17188"/>
<feComposite in2="hardAlpha" operator="arithmetic" k2="-1" k3="1"/>
<feColorMatrix type="matrix" values="0 0 0 0 0.4 0 0 0 0 1 0 0 0 0 0.784314 0 0 0 0.24 0"/>
<feBlend mode="normal" in2="shape" result="effect3_innerShadow_881_10942"/>
</filter>
<filter id="filter2_dddiiii_881_10942" x="341.195" y="-3.80475" width="165.66" height="165.66" filterUnits="userSpaceOnUse" color-interpolation-filters="sRGB">
<feFlood flood-opacity="0" result="BackgroundImageFix"/>
<feColorMatrix in="SourceAlpha" type="matrix" values="0 0 0 0 0 0 0 0 0 0 0 0 0 0 0 0 0 0 127 0" result="hardAlpha"/>
<feOffset dx="38.0475" dy="38.0475"/>
<feGaussianBlur stdDeviation="19.0237"/>
<feColorMatrix type="matrix" values="0 0 0 0 0.960784 0 0 0 0 0.32549 0 0 0 0 0.32549 0 0 0 0.1 0"/>
<feBlend mode="normal" in2="BackgroundImageFix" result="effect1_dropShadow_881_10942"/>
<feColorMatrix in="SourceAlpha" type="matrix" values="0 0 0 0 0 0 0 0 0 0 0 0 0 0 0 0 0 0 127 0" result="hardAlpha"/>
<feOffset dx="15.219" dy="15.219"/>
<feGaussianBlur stdDeviation="7.6095"/>
<feColorMatrix type="matrix" values="0 0 0 0 0.960784 0 0 0 0 0.32549 0 0 0 0 0.32549 0 0 0 0.1 0"/>
<feBlend mode="normal" in2="effect1_dropShadow_881_10942" result="effect2_dropShadow_881_10942"/>
<feColorMatrix in="SourceAlpha" type="matrix" values="0 0 0 0 0 0 0 0 0 0 0 0 0 0 0 0 0 0 127 0" result="hardAlpha"/>
<feOffset dx="7.6095" dy="7.6095"/>
<feGaussianBlur stdDeviation="3.80475"/>
<feColorMatrix type="matrix" values="0 0 0 0 0.960784 0 0 0 0 0.32549 0 0 0 0 0.32549 0 0 0 0.2 0"/>
<feBlend mode="normal" in2="effect2_dropShadow_881_10942" result="effect3_dropShadow_881_10942"/>
<feBlend mode="normal" in="SourceGraphic" in2="effect3_dropShadow_881_10942" result="shape"/>
<feColorMatrix in="SourceAlpha" type="matrix" values="0 0 0 0 0 0 0 0 0 0 0 0 0 0 0 0 0 0 127 0" result="hardAlpha"/>
<feOffset dy="1.90237"/>
<feGaussianBlur stdDeviation="0.951187"/>
<feComposite in2="hardAlpha" operator="arithmetic" k2="-1" k3="1"/>
<feColorMatrix type="matrix" values="0 0 0 0 1 0 0 0 0 1 0 0 0 0 1 0 0 0 0.1 0"/>
<feBlend mode="normal" in2="shape" result="effect4_innerShadow_881_10942"/>
<feColorMatrix in="SourceAlpha" type="matrix" values="0 0 0 0 0 0 0 0 0 0 0 0 0 0 0 0 0 0 127 0" result="hardAlpha"/>
<feOffset dy="-3.80475"/>
<feGaussianBlur stdDeviation="1.90237"/>
<feComposite in2="hardAlpha" operator="arithmetic" k2="-1" k3="1"/>
<feColorMatrix type="matrix" values="0 0 0 0 0 0 0 0 0 0 0 0 0 0 0 0 0 0 0.05 0"/>
<feBlend mode="normal" in2="effect4_innerShadow_881_10942" result="effect5_innerShadow_881_10942"/>
<feColorMatrix in="SourceAlpha" type="matrix" values="0 0 0 0 0 0 0 0 0 0 0 0 0 0 0 0 0 0 127 0" result="hardAlpha"/>
<feOffset dx="3.80475"/>
<feGaussianBlur stdDeviation="1.90237"/>
<feComposite in2="hardAlpha" operator="arithmetic" k2="-1" k3="1"/>
<feColorMatrix type="matrix" values="0 0 0 0 0 0 0 0 0 0 0 0 0 0 0 0 0 0 0.02 0"/>
<feBlend mode="normal" in2="effect5_innerShadow_881_10942" result="effect6_innerShadow_881_10942"/>
<feColorMatrix in="SourceAlpha" type="matrix" values="0 0 0 0 0 0 0 0 0 0 0 0 0 0 0 0 0 0 127 0" result="hardAlpha"/>
<feOffset dx="-3.80475"/>
<feGaussianBlur stdDeviation="1.90237"/>
<feComposite in2="hardAlpha" operator="arithmetic" k2="-1" k3="1"/>
<feColorMatrix type="matrix" values="0 0 0 0 0 0 0 0 0 0 0 0 0 0 0 0 0 0 0.02 0"/>
<feBlend mode="normal" in2="effect6_innerShadow_881_10942" result="effect7_innerShadow_881_10942"/>
</filter>
<filter id="filter3_dd_881_10942" x="336.696" y="-0.694092" width="102.368" height="102.368" filterUnits="userSpaceOnUse" color-interpolation-filters="sRGB">
<feFlood flood-opacity="0" result="BackgroundImageFix"/>
<feColorMatrix in="SourceAlpha" type="matrix" values="0 0 0 0 0 0 0 0 0 0 0 0 0 0 0 0 0 0 127 0" result="hardAlpha"/>
<feOffset dy="7.6095"/>
<feGaussianBlur stdDeviation="9.51187"/>
<feColorMatrix type="matrix" values="0 0 0 0 0.658333 0 0 0 0 0.0411459 0 0 0 0 0.0411459 0 0 0 0.5 0"/>
<feBlend mode="normal" in2="BackgroundImageFix" result="effect1_dropShadow_881_10942"/>
<feColorMatrix in="SourceAlpha" type="matrix" values="0 0 0 0 0 0 0 0 0 0 0 0 0 0 0 0 0 0 127 0" result="hardAlpha"/>
<feOffset dy="3.80475"/>
<feGaussianBlur stdDeviation="5.70712"/>
<feColorMatrix type="matrix" values="0 0 0 0 0.658824 0 0 0 0 0.0392157 0 0 0 0 0.0392157 0 0 0 0.3 0"/>
<feBlend mode="normal" in2="effect1_dropShadow_881_10942" result="effect2_dropShadow_881_10942"/>
<feBlend mode="normal" in="SourceGraphic" in2="effect2_dropShadow_881_10942" result="shape"/>
</filter>
<filter id="filter4_dddiiii_881_10942" x="340.123" y="281.026" width="176.621" height="176.621" filterUnits="userSpaceOnUse" color-interpolation-filters="sRGB">
<feFlood flood-opacity="0" result="BackgroundImageFix"/>
<feColorMatrix in="SourceAlpha" type="matrix" values="0 0 0 0 0 0 0 0 0 0 0 0 0 0 0 0 0 0 127 0" result="hardAlpha"/>
<feOffset dx="40.5153" dy="40.5153"/>
<feGaussianBlur stdDeviation="20.2576"/>
<feColorMatrix type="matrix" values="0 0 0 0 0.87451 0 0 0 0 0.486275 0 0 0 0 0.937255 0 0 0 0.1 0"/>
<feBlend mode="normal" in2="BackgroundImageFix" result="effect1_dropShadow_881_10942"/>
<feColorMatrix in="SourceAlpha" type="matrix" values="0 0 0 0 0 0 0 0 0 0 0 0 0 0 0 0 0 0 127 0" result="hardAlpha"/>
<feOffset dx="16.2061" dy="16.2061"/>
<feGaussianBlur stdDeviation="8.10306"/>
<feColorMatrix type="matrix" values="0 0 0 0 0.87451 0 0 0 0 0.486275 0 0 0 0 0.937255 0 0 0 0.1 0"/>
<feBlend mode="normal" in2="effect1_dropShadow_881_10942" result="effect2_dropShadow_881_10942"/>
<feColorMatrix in="SourceAlpha" type="matrix" values="0 0 0 0 0 0 0 0 0 0 0 0 0 0 0 0 0 0 127 0" result="hardAlpha"/>
<feOffset dx="8.10306" dy="8.10306"/>
<feGaussianBlur stdDeviation="4.05153"/>
<feColorMatrix type="matrix" values="0 0 0 0 0.87451 0 0 0 0 0.486275 0 0 0 0 0.937255 0 0 0 0.2 0"/>
<feBlend mode="normal" in2="effect2_dropShadow_881_10942" result="effect3_dropShadow_881_10942"/>
<feBlend mode="normal" in="SourceGraphic" in2="effect3_dropShadow_881_10942" result="shape"/>
<feColorMatrix in="SourceAlpha" type="matrix" values="0 0 0 0 0 0 0 0 0 0 0 0 0 0 0 0 0 0 127 0" result="hardAlpha"/>
<feOffset dy="2.02576"/>
<feGaussianBlur stdDeviation="1.01288"/>
<feComposite in2="hardAlpha" operator="arithmetic" k2="-1" k3="1"/>
<feColorMatrix type="matrix" values="0 0 0 0 1 0 0 0 0 1 0 0 0 0 1 0 0 0 0.1 0"/>
<feBlend mode="normal" in2="shape" result="effect4_innerShadow_881_10942"/>
<feColorMatrix in="SourceAlpha" type="matrix" values="0 0 0 0 0 0 0 0 0 0 0 0 0 0 0 0 0 0 127 0" result="hardAlpha"/>
<feOffset dy="-4.05153"/>
<feGaussianBlur stdDeviation="2.02576"/>
<feComposite in2="hardAlpha" operator="arithmetic" k2="-1" k3="1"/>
<feColorMatrix type="matrix" values="0 0 0 0 0 0 0 0 0 0 0 0 0 0 0 0 0 0 0.05 0"/>
<feBlend mode="normal" in2="effect4_innerShadow_881_10942" result="effect5_innerShadow_881_10942"/>
<feColorMatrix in="SourceAlpha" type="matrix" values="0 0 0 0 0 0 0 0 0 0 0 0 0 0 0 0 0 0 127 0" result="hardAlpha"/>
<feOffset dx="4.05153"/>
<feGaussianBlur stdDeviation="2.02576"/>
<feComposite in2="hardAlpha" operator="arithmetic" k2="-1" k3="1"/>
<feColorMatrix type="matrix" values="0 0 0 0 0 0 0 0 0 0 0 0 0 0 0 0 0 0 0.02 0"/>
<feBlend mode="normal" in2="effect5_innerShadow_881_10942" result="effect6_innerShadow_881_10942"/>
<feColorMatrix in="SourceAlpha" type="matrix" values="0 0 0 0 0 0 0 0 0 0 0 0 0 0 0 0 0 0 127 0" result="hardAlpha"/>
<feOffset dx="-4.05153"/>
<feGaussianBlur stdDeviation="2.02576"/>
<feComposite in2="hardAlpha" operator="arithmetic" k2="-1" k3="1"/>
<feColorMatrix type="matrix" values="0 0 0 0 0 0 0 0 0 0 0 0 0 0 0 0 0 0 0.02 0"/>
<feBlend mode="normal" in2="effect6_innerShadow_881_10942" result="effect7_innerShadow_881_10942"/>
</filter>
<filter id="filter5_dd_881_10942" x="335.377" y="284.382" width="109.169" height="109.169" filterUnits="userSpaceOnUse" color-interpolation-filters="sRGB">
<feFlood flood-opacity="0" result="BackgroundImageFix"/>
<feColorMatrix in="SourceAlpha" type="matrix" values="0 0 0 0 0 0 0 0 0 0 0 0 0 0 0 0 0 0 127 0" result="hardAlpha"/>
<feOffset dy="8.10306"/>
<feGaussianBlur stdDeviation="10.1288"/>
<feColorMatrix type="matrix" values="0 0 0 0 1 0 0 0 0 1 0 0 0 0 1 0 0 0 0.5 0"/>
<feBlend mode="normal" in2="BackgroundImageFix" result="effect1_dropShadow_881_10942"/>
<feColorMatrix in="SourceAlpha" type="matrix" values="0 0 0 0 0 0 0 0 0 0 0 0 0 0 0 0 0 0 127 0" result="hardAlpha"/>
<feOffset dy="4.05153"/>
<feGaussianBlur stdDeviation="6.07729"/>
<feColorMatrix type="matrix" values="0 0 0 0 1 0 0 0 0 1 0 0 0 0 1 0 0 0 0.3 0"/>
<feBlend mode="normal" in2="effect1_dropShadow_881_10942" result="effect2_dropShadow_881_10942"/>
<feBlend mode="normal" in="SourceGraphic" in2="effect2_dropShadow_881_10942" result="shape"/>
</filter>
<filter id="filter6_diiii_881_10942" x="-45.1974" y="380.831" width="204.458" height="204.458" filterUnits="userSpaceOnUse" color-interpolation-filters="sRGB">
<feFlood flood-opacity="0" result="BackgroundImageFix"/>
<feColorMatrix in="SourceAlpha" type="matrix" values="0 0 0 0 0 0 0 0 0 0 0 0 0 0 0 0 0 0 127 0" result="hardAlpha"/>
<feOffset dx="46.8753" dy="46.8753"/>
<feGaussianBlur stdDeviation="23.4376"/>
<feColorMatrix type="matrix" values="0 0 0 0 1 0 0 0 0 0.662745 0 0 0 0 0.270588 0 0 0 0.1 0"/>
<feBlend mode="normal" in2="BackgroundImageFix" result="effect1_dropShadow_881_10942"/>
<feBlend mode="normal" in="SourceGraphic" in2="effect1_dropShadow_881_10942" result="shape"/>
<feColorMatrix in="SourceAlpha" type="matrix" values="0 0 0 0 0 0 0 0 0 0 0 0 0 0 0 0 0 0 127 0" result="hardAlpha"/>
<feOffset dy="2.34376"/>
<feGaussianBlur stdDeviation="1.17188"/>
<feComposite in2="hardAlpha" operator="arithmetic" k2="-1" k3="1"/>
<feColorMatrix type="matrix" values="0 0 0 0 1 0 0 0 0 1 0 0 0 0 1 0 0 0 0.1 0"/>
<feBlend mode="normal" in2="shape" result="effect2_innerShadow_881_10942"/>
<feColorMatrix in="SourceAlpha" type="matrix" values="0 0 0 0 0 0 0 0 0 0 0 0 0 0 0 0 0 0 127 0" result="hardAlpha"/>
<feOffset dy="-4.68753"/>
<feGaussianBlur stdDeviation="2.34376"/>
<feComposite in2="hardAlpha" operator="arithmetic" k2="-1" k3="1"/>
<feColorMatrix type="matrix" values="0 0 0 0 0 0 0 0 0 0 0 0 0 0 0 0 0 0 0.05 0"/>
<feBlend mode="normal" in2="effect2_innerShadow_881_10942" result="effect3_innerShadow_881_10942"/>
<feColorMatrix in="SourceAlpha" type="matrix" values="0 0 0 0 0 0 0 0 0 0 0 0 0 0 0 0 0 0 127 0" result="hardAlpha"/>
<feOffset dx="4.68753"/>
<feGaussianBlur stdDeviation="2.34376"/>
<feComposite in2="hardAlpha" operator="arithmetic" k2="-1" k3="1"/>
<feColorMatrix type="matrix" values="0 0 0 0 0 0 0 0 0 0 0 0 0 0 0 0 0 0 0.02 0"/>
<feBlend mode="normal" in2="effect3_innerShadow_881_10942" result="effect4_innerShadow_881_10942"/>
<feColorMatrix in="SourceAlpha" type="matrix" values="0 0 0 0 0 0 0 0 0 0 0 0 0 0 0 0 0 0 127 0" result="hardAlpha"/>
<feOffset dx="-4.68753"/>
<feGaussianBlur stdDeviation="2.34376"/>
<feComposite in2="hardAlpha" operator="arithmetic" k2="-1" k3="1"/>
<feColorMatrix type="matrix" values="0 0 0 0 0 0 0 0 0 0 0 0 0 0 0 0 0 0 0.02 0"/>
<feBlend mode="normal" in2="effect4_innerShadow_881_10942" result="effect5_innerShadow_881_10942"/>
</filter>
<filter id="filter7_ddi_881_10942" x="-50.695" y="384.708" width="126.391" height="126.39" filterUnits="userSpaceOnUse" color-interpolation-filters="sRGB">
<feFlood flood-opacity="0" result="BackgroundImageFix"/>
<feColorMatrix in="SourceAlpha" type="matrix" values="0 0 0 0 0 0 0 0 0 0 0 0 0 0 0 0 0 0 127 0" result="hardAlpha"/>
<feOffset dy="9.37505"/>
<feGaussianBlur stdDeviation="11.7188"/>
<feColorMatrix type="matrix" values="0 0 0 0 0.792157 0 0 0 0 0.439216 0 0 0 0 0.0313726 0 0 0 0.5 0"/>
<feBlend mode="normal" in2="BackgroundImageFix" result="effect1_dropShadow_881_10942"/>
<feColorMatrix in="SourceAlpha" type="matrix" values="0 0 0 0 0 0 0 0 0 0 0 0 0 0 0 0 0 0 127 0" result="hardAlpha"/>
<feOffset dy="4.68753"/>
<feGaussianBlur stdDeviation="7.03129"/>
<feColorMatrix type="matrix" values="0 0 0 0 0.791667 0 0 0 0 0.440879 0 0 0 0 0.0329861 0 0 0 0.3 0"/>
<feBlend mode="normal" in2="effect1_dropShadow_881_10942" result="effect2_dropShadow_881_10942"/>
<feBlend mode="normal" in="SourceGraphic" in2="effect2_dropShadow_881_10942" result="shape"/>
<feColorMatrix in="SourceAlpha" type="matrix" values="0 0 0 0 0 0 0 0 0 0 0 0 0 0 0 0 0 0 127 0" result="hardAlpha"/>
<feOffset dx="-1.17188" dy="-1.17188"/>
<feGaussianBlur stdDeviation="0.585941"/>
<feComposite in2="hardAlpha" operator="arithmetic" k2="-1" k3="1"/>
<feColorMatrix type="matrix" values="0 0 0 0 1 0 0 0 0 0.662745 0 0 0 0 0.270588 0 0 0 0.24 0"/>
<feBlend mode="normal" in2="shape" result="effect3_innerShadow_881_10942"/>
</filter>
<filter id="filter8_dddiiii_881_10942" x="172.801" y="481.388" width="163.925" height="163.925" filterUnits="userSpaceOnUse" color-interpolation-filters="sRGB">
<feFlood flood-opacity="0" result="BackgroundImageFix"/>
<feColorMatrix in="SourceAlpha" type="matrix" values="0 0 0 0 0 0 0 0 0 0 0 0 0 0 0 0 0 0 127 0" result="hardAlpha"/>
<feOffset dx="38.6358" dy="38.6358"/>
<feGaussianBlur stdDeviation="19.3179"/>
<feColorMatrix type="matrix" values="0 0 0 0 0.458824 0 0 0 0 0.458824 0 0 0 0 0.458824 0 0 0 0.1 0"/>
<feBlend mode="normal" in2="BackgroundImageFix" result="effect1_dropShadow_881_10942"/>
<feColorMatrix in="SourceAlpha" type="matrix" values="0 0 0 0 0 0 0 0 0 0 0 0 0 0 0 0 0 0 127 0" result="hardAlpha"/>
<feOffset dx="15.4543" dy="15.4543"/>
<feGaussianBlur stdDeviation="7.72717"/>
<feColorMatrix type="matrix" values="0 0 0 0 0.458824 0 0 0 0 0.458824 0 0 0 0 0.458824 0 0 0 0.1 0"/>
<feBlend mode="normal" in2="effect1_dropShadow_881_10942" result="effect2_dropShadow_881_10942"/>
<feColorMatrix in="SourceAlpha" type="matrix" values="0 0 0 0 0 0 0 0 0 0 0 0 0 0 0 0 0 0 127 0" result="hardAlpha"/>
<feOffset dx="7.72717" dy="7.72717"/>
<feGaussianBlur stdDeviation="3.86358"/>
<feColorMatrix type="matrix" values="0 0 0 0 0.458333 0 0 0 0 0.458333 0 0 0 0 0.458333 0 0 0 0.2 0"/>
<feBlend mode="normal" in2="effect2_dropShadow_881_10942" result="effect3_dropShadow_881_10942"/>
<feBlend mode="normal" in="SourceGraphic" in2="effect3_dropShadow_881_10942" result="shape"/>
<feColorMatrix in="SourceAlpha" type="matrix" values="0 0 0 0 0 0 0 0 0 0 0 0 0 0 0 0 0 0 127 0" result="hardAlpha"/>
<feOffset dy="1.93179"/>
<feGaussianBlur stdDeviation="0.965896"/>
<feComposite in2="hardAlpha" operator="arithmetic" k2="-1" k3="1"/>
<feColorMatrix type="matrix" values="0 0 0 0 1 0 0 0 0 1 0 0 0 0 1 0 0 0 0.1 0"/>
<feBlend mode="normal" in2="shape" result="effect4_innerShadow_881_10942"/>
<feColorMatrix in="SourceAlpha" type="matrix" values="0 0 0 0 0 0 0 0 0 0 0 0 0 0 0 0 0 0 127 0" result="hardAlpha"/>
<feOffset dy="-3.86358"/>
<feGaussianBlur stdDeviation="1.93179"/>
<feComposite in2="hardAlpha" operator="arithmetic" k2="-1" k3="1"/>
<feColorMatrix type="matrix" values="0 0 0 0 0 0 0 0 0 0 0 0 0 0 0 0 0 0 0.05 0"/>
<feBlend mode="normal" in2="effect4_innerShadow_881_10942" result="effect5_innerShadow_881_10942"/>
<feColorMatrix in="SourceAlpha" type="matrix" values="0 0 0 0 0 0 0 0 0 0 0 0 0 0 0 0 0 0 127 0" result="hardAlpha"/>
<feOffset dx="3.86358"/>
<feGaussianBlur stdDeviation="1.93179"/>
<feComposite in2="hardAlpha" operator="arithmetic" k2="-1" k3="1"/>
<feColorMatrix type="matrix" values="0 0 0 0 0 0 0 0 0 0 0 0 0 0 0 0 0 0 0.02 0"/>
<feBlend mode="normal" in2="effect5_innerShadow_881_10942" result="effect6_innerShadow_881_10942"/>
<feColorMatrix in="SourceAlpha" type="matrix" values="0 0 0 0 0 0 0 0 0 0 0 0 0 0 0 0 0 0 127 0" result="hardAlpha"/>
<feOffset dx="-3.86358"/>
<feGaussianBlur stdDeviation="1.93179"/>
<feComposite in2="hardAlpha" operator="arithmetic" k2="-1" k3="1"/>
<feColorMatrix type="matrix" values="0 0 0 0 0 0 0 0 0 0 0 0 0 0 0 0 0 0 0.02 0"/>
<feBlend mode="normal" in2="effect6_innerShadow_881_10942" result="effect7_innerShadow_881_10942"/>
</filter>
<filter id="filter9_ddi_881_10942" x="167.696" y="484.01" width="100.728" height="100.728" filterUnits="userSpaceOnUse" color-interpolation-filters="sRGB">
<feFlood flood-opacity="0" result="BackgroundImageFix"/>
<feColorMatrix in="SourceAlpha" type="matrix" values="0 0 0 0 0 0 0 0 0 0 0 0 0 0 0 0 0 0 127 0" result="hardAlpha"/>
<feOffset dy="7.72717"/>
<feGaussianBlur stdDeviation="9.65896"/>
<feColorMatrix type="matrix" values="0 0 0 0 0.770833 0 0 0 0 0.770833 0 0 0 0 0.770833 0 0 0 0.5 0"/>
<feBlend mode="normal" in2="BackgroundImageFix" result="effect1_dropShadow_881_10942"/>
<feColorMatrix in="SourceAlpha" type="matrix" values="0 0 0 0 0 0 0 0 0 0 0 0 0 0 0 0 0 0 127 0" result="hardAlpha"/>
<feOffset dy="3.86358"/>
<feGaussianBlur stdDeviation="5.79538"/>
<feColorMatrix type="matrix" values="0 0 0 0 0.772549 0 0 0 0 0.772549 0 0 0 0 0.772549 0 0 0 0.3 0"/>
<feBlend mode="normal" in2="effect1_dropShadow_881_10942" result="effect2_dropShadow_881_10942"/>
<feBlend mode="normal" in="SourceGraphic" in2="effect2_dropShadow_881_10942" result="shape"/>
<feColorMatrix in="SourceAlpha" type="matrix" values="0 0 0 0 0 0 0 0 0 0 0 0 0 0 0 0 0 0 127 0" result="hardAlpha"/>
<feOffset dx="-0.965896" dy="-0.965896"/>
<feGaussianBlur stdDeviation="0.482948"/>
<feComposite in2="hardAlpha" operator="arithmetic" k2="-1" k3="1"/>
<feColorMatrix type="matrix" values="0 0 0 0 1 0 0 0 0 1 0 0 0 0 1 0 0 0 0.16 0"/>
<feBlend mode="normal" in2="shape" result="effect3_innerShadow_881_10942"/>
</filter>
<linearGradient id="paint0_linear_881_10942" x1="11.5741" y1="157.641" x2="-4.02591" y2="243.242" gradientUnits="userSpaceOnUse">
<stop stop-color="#66FFC8"/>
<stop offset="1" stop-color="#34E97C"/>
</linearGradient>
<linearGradient id="paint1_linear_881_10942" x1="345" y1="46.6525" x2="413.393" y2="64.2674" gradientUnits="userSpaceOnUse">
<stop stop-color="#FF668B"/>
<stop offset="1" stop-color="#F55353"/>
</linearGradient>
<linearGradient id="paint2_linear_881_10942" x1="344.174" y1="333.353" x2="416.344" y2="354.506" gradientUnits="userSpaceOnUse">
<stop stop-color="#7BADF8"/>
<stop offset="1" stop-color="#BE6CFF"/>
</linearGradient>
<linearGradient id="paint3_linear_881_10942" x1="14.0681" y1="385.518" x2="-17.3472" y2="466.661" gradientUnits="userSpaceOnUse">
<stop stop-color="#FFD260"/>
<stop offset="1" stop-color="#FFA945"/>
<stop offset="1" stop-color="#FFA945"/>
</linearGradient>
<linearGradient id="paint4_linear_881_10942" x1="176.665" y1="512.605" x2="233.019" y2="556.963" gradientUnits="userSpaceOnUse">
<stop stop-color="#FBFBFB"/>
<stop offset="1" stop-color="#DEDEDE"/>
</linearGradient>
<clipPath id="clip0_881_10942">
<rect width="408" height="548" rx="12" fill="white"/>
</clipPath>
<clipPath id="clip1_881_10942">
<path d="M-4.90098 180.435C0.865842 172.456 3.74925 168.467 7.50468 166.542C10.808 164.848 14.5627 164.244 18.2306 164.816C22.4004 165.465 26.3899 168.349 34.3688 174.116L49.5652 185.099C57.5441 190.866 61.5335 193.749 63.4588 197.505C65.1522 200.808 65.7565 204.563 65.1849 208.231C64.535 212.4 61.6516 216.39 55.8848 224.369L44.9014 239.565C39.1346 247.544 36.2512 251.534 32.4958 253.459C29.1924 255.152 25.4377 255.757 21.7698 255.185C17.6 254.535 13.6106 251.652 5.63169 245.885L-9.56474 234.901C-17.5436 229.135 -21.5331 226.251 -23.4583 222.496C-25.1518 219.192 -25.756 215.438 -25.1844 211.77C-24.5346 207.6 -21.6512 203.611 -15.8843 195.632L-4.90098 180.435Z" fill="white"/>
</clipPath>
<clipPath id="clip2_881_10942">
<rect width="56.2503" height="56.2503" fill="white" transform="translate(13.6807 170.731) rotate(35.8579)"/>
</clipPath>
<clipPath id="clip3_881_10942">
<path d="M362.495 61.3179C356.371 56.1845 353.309 53.6178 351.969 50.4654C350.791 47.6924 350.52 44.6175 351.196 41.6813C351.965 38.3434 354.532 35.2815 359.665 29.1578L369.442 17.4947C374.576 11.371 377.143 8.30912 380.295 6.9692C383.068 5.79057 386.143 5.52006 389.079 6.19644C392.417 6.96539 395.479 9.53209 401.603 14.6655L413.266 24.4425C419.389 29.5759 422.451 32.1426 423.791 35.295C424.97 38.068 425.24 41.1429 424.564 44.0791C423.795 47.4171 421.228 50.4789 416.095 56.6026L406.318 68.2657C401.185 74.3894 398.618 77.4513 395.465 78.7912C392.692 79.9699 389.617 80.2404 386.681 79.564C383.343 78.795 380.281 76.2283 374.158 71.0949L362.495 61.3179Z" fill="white"/>
</clipPath>
<clipPath id="clip4_881_10942">
<rect width="45.657" height="45.657" fill="white" transform="translate(355.72 45.7095) rotate(-50.0275)"/>
</clipPath>
<clipPath id="clip5_881_10942">
<path d="M362.278 349.576C355.941 343.898 352.772 341.058 351.457 337.656C350.3 334.663 350.121 331.381 350.944 328.28C351.88 324.755 354.719 321.586 360.398 315.249L371.214 303.181C376.893 296.844 379.732 293.676 383.134 292.361C386.127 291.204 389.409 291.024 392.51 291.847C396.036 292.783 399.204 295.622 405.541 301.301L417.61 312.117C423.946 317.796 427.115 320.635 428.43 324.038C429.587 327.03 429.766 330.312 428.943 333.414C428.007 336.939 425.168 340.107 419.489 346.444L408.673 358.513C402.994 364.85 400.155 368.018 396.753 369.333C393.76 370.49 390.478 370.67 387.377 369.846C383.851 368.911 380.683 366.071 374.346 360.392L362.278 349.576Z" fill="white"/>
</clipPath>
<clipPath id="clip6_881_10942">
<rect width="48.6183" height="48.6183" fill="white" transform="translate(355.635 332.743) rotate(-48.1338)"/>
</clipPath>
<clipPath id="clip7_881_10942">
<path d="M-6.39866 404.809C0.765382 398.057 4.34741 394.681 8.39782 393.496C11.9607 392.454 15.762 392.566 19.257 393.817C23.2303 395.239 26.6065 398.821 33.3589 405.985L46.2195 419.63C52.9719 426.794 56.3481 430.376 57.533 434.426C58.5752 437.989 58.4628 441.79 57.2118 445.285C55.7896 449.259 52.2076 452.635 45.0435 459.387L31.399 472.248C24.235 479 20.6529 482.376 16.6025 483.561C13.0397 484.604 9.23836 484.491 5.74335 483.24C1.77005 481.818 -1.60616 478.236 -8.35858 471.072L-21.2191 457.427C-27.9715 450.263 -31.3478 446.681 -32.5326 442.631C-33.5749 439.068 -33.4624 435.267 -32.2114 431.772C-30.7892 427.798 -27.2072 424.422 -20.0432 417.67L-6.39866 404.809Z" fill="white"/>
</clipPath>
<clipPath id="clip8_881_10942">
<rect width="56.2503" height="56.2503" fill="white" transform="translate(13.6763 398.771) rotate(46.6942)"/>
</clipPath>
<clipPath id="clip9_881_10942">
<path d="M186.923 533.394C183.332 526.117 181.537 522.479 181.582 519.001C181.621 515.942 182.628 512.973 184.458 510.521C186.539 507.734 190.177 505.938 197.454 502.348L211.313 495.509C218.589 491.919 222.228 490.124 225.706 490.168C228.765 490.208 231.733 491.215 234.185 493.045C236.973 495.125 238.768 498.764 242.359 506.04L249.197 519.899C252.788 527.176 254.583 530.814 254.538 534.292C254.499 537.352 253.492 540.32 251.662 542.772C249.581 545.56 245.943 547.355 238.666 550.945L224.807 557.784C217.531 561.374 213.892 563.17 210.414 563.125C207.355 563.086 204.386 562.079 201.934 560.249C199.147 558.168 197.352 554.53 193.761 547.253L186.923 533.394Z" fill="white"/>
</clipPath>
<clipPath id="clip10_881_10942">
<rect width="46.363" height="46.363" fill="white" transform="translate(187.014 516.116) rotate(-26.2631)"/>
</clipPath>
</defs>
</svg>
