<svg width="512" height="811" viewBox="0 0 512 811" fill="none" xmlns="http://www.w3.org/2000/svg">
<g clip-path="url(#clip0_2462_8455)">
<g filter="url(#filter0_diiiii_2462_8455)">
<g clip-path="url(#clip1_2462_8455)">
<path d="M-4.90085 312.435C0.865964 304.456 3.74937 300.467 7.5048 298.542C10.8082 296.848 14.5629 296.244 18.2307 296.816C22.4006 297.465 26.39 300.349 34.3689 306.116L49.5653 317.099C57.5442 322.866 61.5336 325.749 63.4589 329.505C65.1524 332.808 65.7566 336.563 65.185 340.231C64.5351 344.4 61.6517 348.39 55.8849 356.369L44.9016 371.565C39.1347 379.544 36.2513 383.534 32.4959 385.459C29.1925 387.152 25.4378 387.757 21.77 387.185C17.6001 386.535 13.6107 383.652 5.63181 377.885L-9.56462 366.901C-17.5435 361.135 -21.533 358.251 -23.4582 354.496C-25.1517 351.192 -25.7559 347.438 -25.1843 343.77C-24.5344 339.6 -21.651 335.611 -15.8842 327.632L-4.90085 312.435Z" fill="url(#paint0_linear_2462_8455)" fill-opacity="0.72"/>
<g clip-path="url(#clip2_2462_8455)" filter="url(#filter1_ddi_2462_8455)">
<path d="M33.3522 370.238L33.7276 368.645C33.8502 368.301 33.8695 367.928 33.7831 367.573C33.6968 367.219 33.5085 366.897 33.2416 366.648L48.5335 345.49C48.9479 344.915 49.1173 344.199 49.0045 343.5C48.8917 342.8 48.5059 342.174 47.9318 341.759L10.5365 314.731C9.96203 314.317 9.24663 314.147 8.54728 314.26C7.84793 314.372 7.22176 314.757 6.8062 315.331L-8.49656 336.504C-8.80851 336.37 -9.15045 336.321 -9.48741 336.362C-9.82438 336.404 -10.1443 336.534 -10.4144 336.74L-11.81 337.597C-12.0495 337.738 -12.2497 337.937 -12.3922 338.175C-12.5347 338.414 -12.6151 338.685 -12.6258 338.962C-12.6348 339.251 -12.5744 339.537 -12.4496 339.798C-12.3249 340.058 -12.1394 340.284 -11.9089 340.458L30.6663 371.23C30.9035 371.394 31.1768 371.499 31.4631 371.536C31.7494 371.573 32.0403 371.54 32.3114 371.441C32.5718 371.344 32.8035 371.183 32.9854 370.973C33.1672 370.762 33.2934 370.51 33.3522 370.238ZM32.004 365.745L15.9325 354.129C15.8472 354.068 15.7502 354.024 15.6475 354.002L12.9543 353.413L10.5652 351.686L9.1611 349.314C9.10748 349.223 9.03589 349.145 8.95075 349.083L-7.24102 337.38L8.04707 316.228C8.22458 315.983 8.49192 315.819 8.79046 315.771C9.089 315.723 9.39438 315.795 9.63963 315.972L24.2245 326.513L23.8152 327.08C23.5499 327.448 23.4415 327.906 23.5137 328.354C23.5858 328.802 23.8327 329.203 24.2001 329.469L29.772 333.496C30.14 333.762 30.5982 333.87 31.0461 333.798C31.4941 333.726 31.8952 333.479 32.1614 333.112L32.5708 332.546L47.035 343C47.2798 343.177 47.4443 343.444 47.4923 343.743C47.5403 344.041 47.468 344.347 47.2912 344.592L32.004 365.745ZM32.8639 334.6C32.9828 334.436 33.1623 334.325 33.3628 334.293C33.5633 334.26 33.7684 334.309 33.9331 334.428L34.5757 334.892C34.7341 335.014 34.8389 335.192 34.8678 335.389C34.8968 335.587 34.8476 335.788 34.7307 335.949C34.6139 336.111 34.4386 336.221 34.2421 336.255C34.0456 336.29 33.8434 336.246 33.6785 336.134L33.0359 335.669C32.8715 335.55 32.761 335.371 32.7287 335.17C32.6965 334.97 32.7451 334.765 32.8639 334.6ZM34.9339 347.018L25.3842 334.094C25.29 333.966 25.1584 333.871 25.0076 333.821L9.74164 328.81C9.58737 328.76 9.42111 328.76 9.26682 328.81C9.11253 328.86 8.97817 328.958 8.88312 329.09C8.78807 329.221 8.73723 329.379 8.73793 329.542C8.73863 329.704 8.79083 329.862 8.88701 329.992L12.9575 335.502L9.12088 340.81C9.03556 340.928 8.98535 341.067 8.97609 341.212C8.96684 341.356 8.99891 341.501 9.06859 341.628C10.49 344.234 12.4766 346.49 14.8827 348.229C17.2888 349.968 20.0535 351.146 22.9742 351.678C23.1165 351.705 23.2634 351.69 23.3978 351.636C23.5322 351.582 23.6485 351.491 23.7332 351.374L27.5702 346.065L30.0167 346.868L25.7756 352.736C25.6502 352.651 25.5024 352.605 25.351 352.604C25.1996 352.604 25.0513 352.648 24.9249 352.731L22.7413 354.177C22.6382 354.245 22.5532 354.337 22.4935 354.446C22.4338 354.554 22.4012 354.675 22.3985 354.799C22.3958 354.922 22.4232 355.045 22.4782 355.156C22.5331 355.266 22.6141 355.362 22.7142 355.435L23.4423 355.961L22.9325 356.667C22.8202 356.831 22.7766 357.034 22.8111 357.23C22.8455 357.427 22.9552 357.602 23.1169 357.719C23.2786 357.836 23.4795 357.885 23.6768 357.856C23.8742 357.827 24.0525 357.722 24.1739 357.564L24.6837 356.858L25.4133 357.386C25.5136 357.458 25.63 357.505 25.7524 357.522C25.8749 357.54 25.9997 357.527 26.1163 357.486C26.2328 357.445 26.3376 357.376 26.4217 357.285C26.5058 357.194 26.5667 357.085 26.5992 356.965L27.2869 354.438C27.3265 354.292 27.3218 354.138 27.2735 353.994C27.2252 353.85 27.1354 353.725 27.0155 353.632L31.5427 347.368L34.0771 348.2C34.2314 348.251 34.3976 348.251 34.5519 348.2C34.7062 348.15 34.8406 348.052 34.9356 347.921C35.0307 347.789 35.0815 347.631 35.0808 347.469C35.0801 347.306 35.0279 347.149 34.9317 347.018L34.9339 347.018ZM23.4028 349.217C20.8783 348.69 18.4932 347.636 16.4029 346.125C14.3126 344.615 12.5641 342.68 11.2712 340.449L13.9118 336.795L18.4347 342.918C18.5294 343.045 18.6608 343.14 18.8113 343.19L26.0435 345.563L23.4028 349.217Z" fill="white"/>
</g>
</g>
</g>
<g filter="url(#filter2_dddiiii_2462_8455)">
<g clip-path="url(#clip3_2462_8455)">
<path d="M466.495 193.318C460.371 188.185 457.309 185.618 455.969 182.465C454.791 179.692 454.52 176.617 455.196 173.681C455.965 170.343 458.532 167.282 463.665 161.158L473.442 149.495C478.576 143.371 481.143 140.309 484.295 138.969C487.068 137.791 490.143 137.52 493.079 138.196C496.417 138.965 499.479 141.532 505.603 146.665L517.266 156.442C523.389 161.576 526.451 164.143 527.791 167.295C528.97 170.068 529.24 173.143 528.564 176.079C527.795 179.417 525.228 182.479 520.095 188.603L510.318 200.266C505.185 206.389 502.618 209.451 499.465 210.791C496.692 211.97 493.617 212.24 490.681 211.564C487.343 210.795 484.281 208.228 478.158 203.095L466.495 193.318Z" fill="url(#paint1_linear_2462_8455)" fill-opacity="0.78"/>
<g clip-path="url(#clip4_2462_8455)" filter="url(#filter3_dd_2462_8455)">
<path d="M494.851 194.577C495.525 195.142 496.538 195.053 497.103 194.379L513.899 174.343L511.448 172.289L494.653 192.325C494.093 193.003 494.177 194.012 494.851 194.577Z" fill="white"/>
<path d="M492.133 197.819C494.411 199.729 497.803 199.431 499.713 197.152L515.423 178.411C516.182 177.506 516.063 176.158 515.158 175.399L514.858 175.148L498.063 195.183C497.052 196.388 495.252 196.547 494.047 195.536C492.841 194.526 492.683 192.726 493.693 191.52L510.489 171.485L508.55 169.86L491.466 190.24C489.561 192.522 489.86 195.914 492.133 197.819Z" fill="white"/>
<path d="M494.355 157.961C491.752 161.065 492.155 165.692 495.269 168.303C496.736 169.532 498.539 170.089 500.318 170.005L502.265 171.83C502.529 172.076 502.952 171.97 503.063 171.628L504.001 168.82C504.665 168.388 505.273 167.833 505.784 167.173C508.114 164.174 507.705 159.735 504.871 157.209C501.765 154.428 497.011 154.792 494.355 157.961ZM502.878 162.584L499.162 167.017C498.94 167.283 498.542 167.318 498.276 167.095C498.01 166.872 497.975 166.474 498.198 166.209L501.914 161.776C502.137 161.51 502.535 161.475 502.801 161.698C503.066 161.92 503.101 162.318 502.878 162.584ZM502.231 159.009L497.022 165.223C496.799 165.489 496.401 165.524 496.136 165.301C495.87 165.078 495.835 164.68 496.058 164.414L501.267 158.2C501.49 157.934 501.888 157.899 502.153 158.122C502.419 158.345 502.45 158.748 502.231 159.009Z" fill="white"/>
<path d="M490.507 189.435L491.237 188.565L469.602 170.429L468.872 171.3C467.92 172.436 467.516 173.857 467.636 175.223C467.757 176.598 468.403 177.926 469.539 178.879L489.176 195.34C488.667 193.339 489.084 191.133 490.507 189.435Z" fill="white"/>
<path d="M505.065 169.611L504.256 172.024C504.188 172.235 504.086 172.427 503.946 172.594C503.641 172.958 503.191 173.184 502.711 173.208C502.234 173.237 501.764 173.068 501.416 172.744L499.841 171.264C497.883 171.231 495.994 170.527 494.479 169.257C490.847 166.213 490.365 160.782 493.405 157.156L493.409 157.151L490.088 154.367C487.81 152.457 484.418 152.755 482.508 155.033L470.407 169.469L492.046 187.609L507.596 169.06L506.567 168.198L506.563 168.203C506.114 168.739 505.612 169.207 505.065 169.611ZM494.839 177.761L491.156 182.155C490.929 182.425 490.535 182.456 490.27 182.233C490.004 182.01 489.965 181.617 490.192 181.346L493.875 176.953C494.098 176.687 494.496 176.652 494.761 176.875C495.027 177.097 495.062 177.495 494.839 177.761ZM495.445 171.952L488.652 180.055C488.425 180.326 488.036 180.36 487.765 180.133C487.5 179.911 487.46 179.518 487.687 179.247L494.48 171.143C494.703 170.878 495.101 170.843 495.367 171.065C495.637 171.292 495.668 171.686 495.445 171.952ZM492.945 169.856L486.152 177.96C485.925 178.231 485.531 178.261 485.266 178.038C485 177.815 484.961 177.422 485.188 177.152L491.981 169.048C492.204 168.782 492.602 168.747 492.867 168.97C493.133 169.193 493.168 169.591 492.945 169.856ZM490.436 167.753L483.643 175.857C483.416 176.127 483.022 176.157 482.756 175.935C482.491 175.712 482.452 175.319 482.678 175.048L489.472 166.945C489.694 166.679 490.092 166.644 490.358 166.867C490.629 167.093 490.659 167.487 490.436 167.753Z" fill="white"/>
</g>
</g>
</g>
<g filter="url(#filter4_dddiiii_2462_8455)">
<g clip-path="url(#clip5_2462_8455)">
<path d="M466.278 481.576C459.941 475.898 456.772 473.058 455.457 469.656C454.3 466.663 454.121 463.381 454.944 460.28C455.88 456.755 458.719 453.586 464.398 447.249L475.214 435.181C480.893 428.844 483.732 425.676 487.134 424.361C490.127 423.204 493.409 423.024 496.51 423.847C500.036 424.783 503.204 427.622 509.541 433.301L521.61 444.117C527.946 449.796 531.115 452.635 532.43 456.038C533.587 459.03 533.766 462.312 532.943 465.414C532.007 468.939 529.168 472.107 523.489 478.444L512.673 490.513C506.994 496.85 504.155 500.018 500.753 501.333C497.76 502.49 494.478 502.67 491.377 501.846C487.851 500.911 484.683 498.071 478.346 492.392L466.278 481.576Z" fill="url(#paint2_linear_2462_8455)" fill-opacity="0.81"/>
<g clip-path="url(#clip6_2462_8455)" filter="url(#filter5_dd_2462_8455)">
<path fill-rule="evenodd" clip-rule="evenodd" d="M476.001 457.381C475.286 457.225 475.514 456.134 476.233 456.283L481.076 457.3C481.791 457.456 481.563 458.547 480.844 458.398L476.001 457.381ZM481.41 454.605L479.344 452.754C478.793 452.264 478.045 453.099 478.592 453.593L480.658 455.445C481.21 455.935 481.957 455.099 481.41 454.605ZM477.42 462.398L480.178 460.598C480.792 460.191 480.179 459.257 479.562 459.655L476.804 461.455C476.189 461.863 476.803 462.799 477.42 462.398ZM502.767 474.975C504.023 474.52 504.368 472.748 503.336 471.871C502.352 470.939 500.628 471.478 500.313 472.776C500.116 473.227 500.486 473.745 500.167 474.142C499.962 474.371 499.604 474.394 499.37 474.185L495.631 470.832L493.092 473.665C495.217 474.134 496.098 476.939 494.593 478.536C493.175 480.203 490.284 479.639 489.587 477.576L487.048 480.41L495.165 487.685C495.567 488.045 496.08 488.208 496.581 488.182C497.082 488.154 497.574 487.935 497.934 487.533L505.209 479.416L501.47 476.065C501.237 475.856 501.22 475.498 501.427 475.268C501.785 474.908 502.34 475.22 502.767 474.975ZM490.356 475.875C490.717 476.235 490.405 476.79 490.65 477.217C491.105 478.473 492.875 478.82 493.753 477.785C494.683 476.801 494.149 475.078 492.849 474.762C492.397 474.565 491.879 474.935 491.482 474.616C491.252 474.41 491.23 474.053 491.439 473.819L494.79 470.08L491.957 467.542C491.487 469.669 488.68 470.546 487.086 469.042C485.414 467.62 485.982 464.736 488.046 464.037L485.213 461.498L477.939 469.614C477.579 470.016 477.416 470.529 477.443 471.031C477.471 471.533 477.69 472.024 478.092 472.385L486.209 479.659L489.56 475.92C489.768 475.686 490.126 475.669 490.356 475.875ZM500.82 464.199C500.459 463.839 500.77 463.286 500.526 462.857C500.269 462.136 499.446 461.609 498.697 461.676C496.628 461.79 496.312 464.773 498.326 465.311C498.839 465.519 499.675 465.011 499.864 465.756C499.904 465.939 499.85 466.12 499.734 466.252L496.383 469.993L499.216 472.532C499.489 471.283 500.738 470.283 501.987 470.276C505.321 470.14 506.276 474.882 503.127 476.037L505.961 478.577L513.236 470.459C513.596 470.057 513.759 469.544 513.732 469.042C513.704 468.54 513.486 468.048 513.084 467.688L504.967 460.415L501.615 464.155C501.408 464.387 501.051 464.406 500.82 464.199ZM487.527 443.019C486.989 443.049 486.512 443.296 486.176 443.67C485.841 444.045 485.646 444.547 485.677 445.084L486.271 455.968L491.285 455.694C491.596 455.677 491.862 455.915 491.878 456.226C491.879 456.736 491.267 456.907 491.138 457.384C490.569 458.59 491.584 460.088 492.931 459.98C494.283 459.939 495.127 458.345 494.429 457.204C494.281 456.948 494.072 456.732 493.825 456.574C493.366 456.301 493.577 455.549 494.099 455.542L499.112 455.265L498.905 451.467C497.052 452.647 494.425 451.252 494.399 449.035C494.256 446.867 496.682 445.269 498.617 446.222L498.41 442.423L487.527 443.019Z" fill="white"/>
</g>
</g>
</g>
<g filter="url(#filter6_diiii_2462_8455)">
<g clip-path="url(#clip7_2462_8455)">
<path d="M-6.39842 536.809C0.765625 530.057 4.34765 526.681 8.39806 525.496C11.9609 524.454 15.7622 524.566 19.2573 525.817C23.2306 527.239 26.6068 530.821 33.3592 537.985L46.2197 551.63C52.9721 558.794 56.3484 562.376 57.5332 566.426C58.5755 569.989 58.463 573.79 57.212 577.285C55.7898 581.259 52.2078 584.635 45.0438 591.387L31.3993 604.248C24.2352 611 20.6532 614.376 16.6028 615.561C13.0399 616.604 9.2386 616.491 5.74359 615.24C1.77029 613.818 -1.60592 610.236 -8.35834 603.072L-21.2189 589.427C-27.9713 582.263 -31.3475 578.681 -32.5324 574.631C-33.5746 571.068 -33.4622 567.267 -32.2112 563.772C-30.789 559.798 -27.207 556.422 -20.0429 549.67L-6.39842 536.809Z" fill="url(#paint3_linear_2462_8455)" fill-opacity="0.75"/>
<g clip-path="url(#clip8_2462_8455)" filter="url(#filter7_ddi_2462_8455)">
<path d="M31.2521 562.144C31.3951 561.728 31.5366 561.305 31.6734 560.869L33.5563 562.129C33.4184 562.43 33.288 562.705 33.1669 562.954C33.0619 563.175 32.95 563.399 32.838 563.627L31.2487 562.143L31.2521 562.144ZM11.3962 548.628L20.3544 552.667L13.2919 546.07C12.9518 546.549 12.6261 546.997 12.3113 547.423C12.0036 547.838 11.698 548.241 11.3962 548.628ZM29.1149 567.357C28.0239 569.632 26.8654 571.604 25.6631 573.572L29.3776 572.254C31.0949 570.444 32.7914 568.65 34.6087 565.981L31.0667 562.671C30.4504 564.396 29.7971 565.932 29.1167 567.355L29.1149 567.357ZM8.58353 547.358L10.9139 548.41C11.1505 548.105 11.3906 547.793 11.631 547.471L9.30691 545.918C9.18764 546.162 9.06671 546.405 8.94579 546.648C8.82496 546.887 8.70591 547.124 8.58353 547.358ZM25.1385 574.307L16.1428 577.499C16.1171 577.507 16.0982 577.515 16.0827 577.523C16.0689 577.529 16.0499 577.541 16.0274 577.555L11.687 580.403C13.2391 580.332 16.2365 580.188 16.9394 580.129C16.9632 580.126 16.9837 580.123 17.0059 580.119C17.0281 580.115 17.0486 580.108 17.0709 580.101L22.3004 578.245L22.3056 578.244L31.0406 575.142L30.1176 572.539L25.1557 574.301C25.1488 574.304 25.1419 574.307 25.1351 574.307L25.1385 574.307ZM44.0877 569.799C44.2884 569.729 44.442 569.588 44.5303 569.415C44.6149 569.25 44.636 569.055 44.5717 568.875C44.5074 568.695 44.3706 568.557 44.1997 568.48C44.0254 568.404 43.8153 568.391 43.6145 568.461L42.6555 568.801L43.1303 570.138L44.0894 569.798L44.0877 569.799ZM32.2897 574.7L31.3667 572.097L30.6084 572.367L31.5314 574.969L32.2897 574.7ZM18.6679 585.293C17.5589 587.888 16.4817 590.902 15.4573 594.592L9.78789 592.034C9.77617 592.028 9.76445 592.023 9.75273 592.017L-0.815347 587.25C-0.823678 587.245 -0.833754 587.241 -0.843831 587.237L-11.124 582.601C-8.26911 572.928 -5.33467 568.075 -2.47869 563.354C-1.97354 562.519 -1.47009 561.685 -0.969454 560.83C-0.96596 560.827 -0.96586 560.823 -0.962368 560.82C1.20117 557.125 3.30216 553.021 5.26947 546.424L8.1159 547.709C8.12094 547.711 8.12423 547.714 8.12762 547.714L10.8651 548.95C10.8769 548.955 10.8886 548.961 10.9003 548.966L21.5455 553.766C21.5539 553.771 21.5623 553.773 21.5724 553.777L31.8576 558.416C31.6713 559.089 31.4841 559.737 31.2891 560.36C31.2836 560.375 31.2781 560.387 31.276 560.402C31.094 560.986 30.9077 561.547 30.7184 562.092C30.7076 562.112 30.7001 562.135 30.696 562.159C30.0506 564.004 29.3658 565.632 28.6475 567.13C27.4715 569.581 26.2053 571.695 24.8872 573.844L15.9687 577.01C15.931 577.022 15.8932 577.038 15.8535 577.059C15.8122 577.078 15.7759 577.099 15.7447 577.122L10.6182 580.486C10.5455 580.535 10.4989 580.618 10.5012 580.712C10.5072 580.855 10.6262 580.963 10.769 580.958C10.7843 580.956 16.0287 580.719 16.9801 580.64C17.0278 580.635 17.0721 580.63 17.1131 580.621C17.1559 580.61 17.1986 580.599 17.2432 580.584L21.8208 578.96C20.7515 580.845 19.6945 582.887 18.6658 585.291L18.6679 585.293ZM7.90196 554.144L25.6458 562.147C25.8284 562.229 26.0396 562.149 26.123 561.968C26.2048 561.785 26.1245 561.574 25.9436 561.491L8.19981 553.487C8.01893 553.404 7.80598 553.486 7.72254 553.667C7.64074 553.85 7.72107 554.061 7.90196 554.144ZM6.80852 558.337L24.5523 566.341C24.7349 566.423 24.9461 566.342 25.0296 566.161C25.113 565.98 25.031 565.767 24.8502 565.684L7.10636 557.681C6.92548 557.597 6.71254 557.679 6.6291 557.86C6.54565 558.041 6.62763 558.254 6.80852 558.337ZM4.5101 562.117L22.2539 570.12C22.4365 570.202 22.6477 570.121 22.7312 569.94C22.8146 569.759 22.7326 569.547 22.5517 569.463L4.80795 561.46C4.62531 561.378 4.41412 561.458 4.33067 561.639C4.24888 561.822 4.32921 562.033 4.5101 562.117ZM1.91238 565.739L19.6562 573.742C19.8388 573.824 20.05 573.744 20.1334 573.563C20.2152 573.38 20.1349 573.169 19.954 573.086L2.21023 565.082C2.02935 564.999 1.8164 565.081 1.73296 565.262C1.65116 565.444 1.7315 565.656 1.91238 565.739ZM9.93922 580.427C10.0227 580.246 9.94068 580.033 9.7598 579.95L-2.50898 574.418C-2.68986 574.334 -2.90281 574.416 -2.98626 574.597C-3.06806 574.78 -2.98772 574.991 -2.80684 575.074L9.46194 580.607C9.64457 580.688 9.85578 580.608 9.93922 580.427ZM14.6206 576.787C14.7024 576.604 14.622 576.393 14.4411 576.309L-0.300416 569.661C-0.481299 569.578 -0.694242 569.66 -0.777686 569.841C-0.859485 570.023 -0.779152 570.235 -0.598266 570.318L14.1433 576.966C14.3259 577.048 14.5371 576.967 14.6206 576.787ZM12.117 593.647L9.7514 592.579C9.51796 592.895 9.28967 593.209 9.06311 593.521L11.4238 595.099C11.5362 594.858 11.6504 594.615 11.7679 594.372C11.8837 594.131 12.0012 593.888 12.1188 593.646L12.117 593.647ZM8.3783 593.6L8.4811 593.453L8.48469 593.447C8.48828 593.44 8.49352 593.435 8.49712 593.428C8.76453 593.054 9.02118 592.7 9.2688 592.364L0.379188 588.356L7.43834 594.95C7.76664 594.469 8.07895 594.02 8.3783 593.6ZM-2.91718 563.088C-2.68328 562.7 -2.44773 562.313 -2.21385 561.924C-3.73537 563.256 -5.30649 564.717 -6.98597 566.504C-9.0753 568.724 -11.3306 571.447 -13.8699 575.041L-11.9882 576.799L-11.9784 576.81L-10.3115 578.368C-7.85508 571.251 -5.35762 567.123 -2.91953 563.09L-2.91718 563.088ZM-12.0844 577.414C-12.1944 577.634 -12.3079 577.856 -12.4199 578.084C-12.5499 578.345 -12.6835 578.616 -12.8191 578.895L-10.9113 580.17C-10.7728 579.737 -10.6312 579.313 -10.4934 578.899L-12.086 577.413L-12.0844 577.414ZM42.4384 571.09C42.5503 571.041 42.6409 570.962 42.6914 570.862C42.7455 570.755 42.7593 570.633 42.7185 570.519L42.0963 568.768C42.0539 568.653 41.9682 568.565 41.8609 568.518C41.7486 568.469 41.613 568.461 41.481 568.507L31.8522 571.923L32.7752 574.526L41.7657 571.335C41.8544 571.895 41.5046 572.472 40.9143 572.682L32.4213 575.697C32.236 575.763 32.1383 575.967 32.2041 576.152C32.2213 576.202 32.2473 576.244 32.2802 576.279C32.374 576.378 32.5222 576.42 32.6595 576.37L41.1525 573.354C42.1202 573.009 42.6587 572.024 42.4368 571.088L42.4384 571.09Z" fill="white"/>
</g>
</g>
</g>
<g filter="url(#filter8_dddiiii_2462_8455)">
<g clip-path="url(#clip9_2462_8455)">
<path d="M238.923 665.394C235.332 658.117 233.537 654.479 233.582 651.001C233.621 647.942 234.628 644.973 236.458 642.521C238.539 639.734 242.177 637.938 249.454 634.348L263.313 627.509C270.589 623.919 274.228 622.124 277.706 622.168C280.765 622.208 283.733 623.215 286.185 625.045C288.973 627.125 290.768 630.764 294.359 638.04L301.197 651.899C304.788 659.176 306.583 662.814 306.538 666.292C306.499 669.352 305.492 672.32 303.662 674.772C301.581 677.56 297.943 679.355 290.666 682.945L276.807 689.784C269.531 693.374 265.892 695.17 262.414 695.125C259.355 695.086 256.386 694.079 253.934 692.249C251.147 690.168 249.352 686.53 245.761 679.253L238.923 665.394Z" fill="url(#paint4_linear_2462_8455)"/>
<g clip-path="url(#clip10_2462_8455)" filter="url(#filter9_ddi_2462_8455)">
<path fill-rule="evenodd" clip-rule="evenodd" d="M260.483 654.078C264.041 652.322 268.355 653.785 270.11 657.343C271.866 660.901 270.403 665.215 266.845 666.97C263.287 668.726 258.973 667.263 257.218 663.705C255.462 660.147 256.925 655.833 260.483 654.078ZM272.993 663.449C275.976 663.488 278.83 665.161 280.241 668.02L280.242 668.023C280.897 669.35 280.997 670.881 280.522 672.282C280.047 673.682 279.036 674.836 277.709 675.491L266.999 680.776C265.672 681.43 264.14 681.531 262.74 681.056C261.34 680.581 260.185 679.569 259.531 678.243L259.529 678.24C258.119 675.382 258.528 672.099 260.311 669.707C262.733 670.591 265.498 670.522 267.992 669.292C270.484 668.062 272.222 665.909 272.994 663.448L272.993 663.449ZM271.07 653.33C269.242 653.843 267.248 652.998 266.377 651.233L263.959 646.334C262.976 644.341 263.796 641.924 265.789 640.941L274.791 636.499C276.784 635.515 279.201 636.335 280.184 638.328L282.602 643.227C283.585 645.22 282.765 647.637 280.772 648.621L276.441 650.758L274.933 656.126C274.789 656.645 274.336 657.02 273.8 657.066C273.264 657.114 272.754 656.824 272.52 656.338L271.07 653.33Z" fill="#282828"/>
</g>
</g>
</g>
</g>
<defs>
<filter id="filter0_diiiii_2462_8455" x="-37.0469" y="284.953" width="203.157" height="203.157" filterUnits="userSpaceOnUse" color-interpolation-filters="sRGB">
<feFlood flood-opacity="0" result="BackgroundImageFix"/>
<feColorMatrix in="SourceAlpha" type="matrix" values="0 0 0 0 0 0 0 0 0 0 0 0 0 0 0 0 0 0 127 0" result="hardAlpha"/>
<feOffset dx="46.8753" dy="46.8753"/>
<feGaussianBlur stdDeviation="23.4376"/>
<feColorMatrix type="matrix" values="0 0 0 0 0.203922 0 0 0 0 0.913725 0 0 0 0 0.486275 0 0 0 0.1 0"/>
<feBlend mode="normal" in2="BackgroundImageFix" result="effect1_dropShadow_2462_8455"/>
<feBlend mode="normal" in="SourceGraphic" in2="effect1_dropShadow_2462_8455" result="shape"/>
<feColorMatrix in="SourceAlpha" type="matrix" values="0 0 0 0 0 0 0 0 0 0 0 0 0 0 0 0 0 0 127 0" result="hardAlpha"/>
<feOffset dy="4.68753"/>
<feGaussianBlur stdDeviation="2.34376"/>
<feComposite in2="hardAlpha" operator="arithmetic" k2="-1" k3="1"/>
<feColorMatrix type="matrix" values="0 0 0 0 1 0 0 0 0 1 0 0 0 0 1 0 0 0 0.6 0"/>
<feBlend mode="normal" in2="shape" result="effect2_innerShadow_2462_8455"/>
<feColorMatrix in="SourceAlpha" type="matrix" values="0 0 0 0 0 0 0 0 0 0 0 0 0 0 0 0 0 0 127 0" result="hardAlpha"/>
<feOffset dy="2.34376"/>
<feGaussianBlur stdDeviation="1.17188"/>
<feComposite in2="hardAlpha" operator="arithmetic" k2="-1" k3="1"/>
<feColorMatrix type="matrix" values="0 0 0 0 1 0 0 0 0 1 0 0 0 0 1 0 0 0 0.1 0"/>
<feBlend mode="normal" in2="effect2_innerShadow_2462_8455" result="effect3_innerShadow_2462_8455"/>
<feColorMatrix in="SourceAlpha" type="matrix" values="0 0 0 0 0 0 0 0 0 0 0 0 0 0 0 0 0 0 127 0" result="hardAlpha"/>
<feOffset dy="-4.68753"/>
<feGaussianBlur stdDeviation="2.34376"/>
<feComposite in2="hardAlpha" operator="arithmetic" k2="-1" k3="1"/>
<feColorMatrix type="matrix" values="0 0 0 0 0 0 0 0 0 0 0 0 0 0 0 0 0 0 0.05 0"/>
<feBlend mode="normal" in2="effect3_innerShadow_2462_8455" result="effect4_innerShadow_2462_8455"/>
<feColorMatrix in="SourceAlpha" type="matrix" values="0 0 0 0 0 0 0 0 0 0 0 0 0 0 0 0 0 0 127 0" result="hardAlpha"/>
<feOffset dx="4.68753"/>
<feGaussianBlur stdDeviation="2.34376"/>
<feComposite in2="hardAlpha" operator="arithmetic" k2="-1" k3="1"/>
<feColorMatrix type="matrix" values="0 0 0 0 0 0 0 0 0 0 0 0 0 0 0 0 0 0 0.02 0"/>
<feBlend mode="normal" in2="effect4_innerShadow_2462_8455" result="effect5_innerShadow_2462_8455"/>
<feColorMatrix in="SourceAlpha" type="matrix" values="0 0 0 0 0 0 0 0 0 0 0 0 0 0 0 0 0 0 127 0" result="hardAlpha"/>
<feOffset dx="-4.68753"/>
<feGaussianBlur stdDeviation="2.34376"/>
<feComposite in2="hardAlpha" operator="arithmetic" k2="-1" k3="1"/>
<feColorMatrix type="matrix" values="0 0 0 0 0 0 0 0 0 0 0 0 0 0 0 0 0 0 0.02 0"/>
<feBlend mode="normal" in2="effect5_innerShadow_2462_8455" result="effect6_innerShadow_2462_8455"/>
</filter>
<filter id="filter1_ddi_2462_8455" x="-42.7072" y="288.668" width="125.415" height="125.415" filterUnits="userSpaceOnUse" color-interpolation-filters="sRGB">
<feFlood flood-opacity="0" result="BackgroundImageFix"/>
<feColorMatrix in="SourceAlpha" type="matrix" values="0 0 0 0 0 0 0 0 0 0 0 0 0 0 0 0 0 0 127 0" result="hardAlpha"/>
<feOffset dy="9.37505"/>
<feGaussianBlur stdDeviation="11.7188"/>
<feColorMatrix type="matrix" values="0 0 0 0 0 0 0 0 0 0.529167 0 0 0 0 0.338997 0 0 0 0.5 0"/>
<feBlend mode="normal" in2="BackgroundImageFix" result="effect1_dropShadow_2462_8455"/>
<feColorMatrix in="SourceAlpha" type="matrix" values="0 0 0 0 0 0 0 0 0 0 0 0 0 0 0 0 0 0 127 0" result="hardAlpha"/>
<feOffset dy="4.68753"/>
<feGaussianBlur stdDeviation="7.03129"/>
<feColorMatrix type="matrix" values="0 0 0 0 0 0 0 0 0 0.529412 0 0 0 0 0.337255 0 0 0 0.3 0"/>
<feBlend mode="normal" in2="effect1_dropShadow_2462_8455" result="effect2_dropShadow_2462_8455"/>
<feBlend mode="normal" in="SourceGraphic" in2="effect2_dropShadow_2462_8455" result="shape"/>
<feColorMatrix in="SourceAlpha" type="matrix" values="0 0 0 0 0 0 0 0 0 0 0 0 0 0 0 0 0 0 127 0" result="hardAlpha"/>
<feOffset dx="-2.34376" dy="-2.34376"/>
<feGaussianBlur stdDeviation="1.17188"/>
<feComposite in2="hardAlpha" operator="arithmetic" k2="-1" k3="1"/>
<feColorMatrix type="matrix" values="0 0 0 0 0.4 0 0 0 0 1 0 0 0 0 0.784314 0 0 0 0.24 0"/>
<feBlend mode="normal" in2="shape" result="effect3_innerShadow_2462_8455"/>
</filter>
<filter id="filter2_dddiiii_2462_8455" x="445.195" y="128.195" width="165.66" height="165.66" filterUnits="userSpaceOnUse" color-interpolation-filters="sRGB">
<feFlood flood-opacity="0" result="BackgroundImageFix"/>
<feColorMatrix in="SourceAlpha" type="matrix" values="0 0 0 0 0 0 0 0 0 0 0 0 0 0 0 0 0 0 127 0" result="hardAlpha"/>
<feOffset dx="38.0475" dy="38.0475"/>
<feGaussianBlur stdDeviation="19.0237"/>
<feColorMatrix type="matrix" values="0 0 0 0 0.960784 0 0 0 0 0.32549 0 0 0 0 0.32549 0 0 0 0.1 0"/>
<feBlend mode="normal" in2="BackgroundImageFix" result="effect1_dropShadow_2462_8455"/>
<feColorMatrix in="SourceAlpha" type="matrix" values="0 0 0 0 0 0 0 0 0 0 0 0 0 0 0 0 0 0 127 0" result="hardAlpha"/>
<feOffset dx="15.219" dy="15.219"/>
<feGaussianBlur stdDeviation="7.6095"/>
<feColorMatrix type="matrix" values="0 0 0 0 0.960784 0 0 0 0 0.32549 0 0 0 0 0.32549 0 0 0 0.1 0"/>
<feBlend mode="normal" in2="effect1_dropShadow_2462_8455" result="effect2_dropShadow_2462_8455"/>
<feColorMatrix in="SourceAlpha" type="matrix" values="0 0 0 0 0 0 0 0 0 0 0 0 0 0 0 0 0 0 127 0" result="hardAlpha"/>
<feOffset dx="7.6095" dy="7.6095"/>
<feGaussianBlur stdDeviation="3.80475"/>
<feColorMatrix type="matrix" values="0 0 0 0 0.960784 0 0 0 0 0.32549 0 0 0 0 0.32549 0 0 0 0.2 0"/>
<feBlend mode="normal" in2="effect2_dropShadow_2462_8455" result="effect3_dropShadow_2462_8455"/>
<feBlend mode="normal" in="SourceGraphic" in2="effect3_dropShadow_2462_8455" result="shape"/>
<feColorMatrix in="SourceAlpha" type="matrix" values="0 0 0 0 0 0 0 0 0 0 0 0 0 0 0 0 0 0 127 0" result="hardAlpha"/>
<feOffset dy="1.90237"/>
<feGaussianBlur stdDeviation="0.951187"/>
<feComposite in2="hardAlpha" operator="arithmetic" k2="-1" k3="1"/>
<feColorMatrix type="matrix" values="0 0 0 0 1 0 0 0 0 1 0 0 0 0 1 0 0 0 0.1 0"/>
<feBlend mode="normal" in2="shape" result="effect4_innerShadow_2462_8455"/>
<feColorMatrix in="SourceAlpha" type="matrix" values="0 0 0 0 0 0 0 0 0 0 0 0 0 0 0 0 0 0 127 0" result="hardAlpha"/>
<feOffset dy="-3.80475"/>
<feGaussianBlur stdDeviation="1.90237"/>
<feComposite in2="hardAlpha" operator="arithmetic" k2="-1" k3="1"/>
<feColorMatrix type="matrix" values="0 0 0 0 0 0 0 0 0 0 0 0 0 0 0 0 0 0 0.05 0"/>
<feBlend mode="normal" in2="effect4_innerShadow_2462_8455" result="effect5_innerShadow_2462_8455"/>
<feColorMatrix in="SourceAlpha" type="matrix" values="0 0 0 0 0 0 0 0 0 0 0 0 0 0 0 0 0 0 127 0" result="hardAlpha"/>
<feOffset dx="3.80475"/>
<feGaussianBlur stdDeviation="1.90237"/>
<feComposite in2="hardAlpha" operator="arithmetic" k2="-1" k3="1"/>
<feColorMatrix type="matrix" values="0 0 0 0 0 0 0 0 0 0 0 0 0 0 0 0 0 0 0.02 0"/>
<feBlend mode="normal" in2="effect5_innerShadow_2462_8455" result="effect6_innerShadow_2462_8455"/>
<feColorMatrix in="SourceAlpha" type="matrix" values="0 0 0 0 0 0 0 0 0 0 0 0 0 0 0 0 0 0 127 0" result="hardAlpha"/>
<feOffset dx="-3.80475"/>
<feGaussianBlur stdDeviation="1.90237"/>
<feComposite in2="hardAlpha" operator="arithmetic" k2="-1" k3="1"/>
<feColorMatrix type="matrix" values="0 0 0 0 0 0 0 0 0 0 0 0 0 0 0 0 0 0 0.02 0"/>
<feBlend mode="normal" in2="effect6_innerShadow_2462_8455" result="effect7_innerShadow_2462_8455"/>
</filter>
<filter id="filter3_dd_2462_8455" x="440.696" y="131.306" width="102.368" height="102.368" filterUnits="userSpaceOnUse" color-interpolation-filters="sRGB">
<feFlood flood-opacity="0" result="BackgroundImageFix"/>
<feColorMatrix in="SourceAlpha" type="matrix" values="0 0 0 0 0 0 0 0 0 0 0 0 0 0 0 0 0 0 127 0" result="hardAlpha"/>
<feOffset dy="7.6095"/>
<feGaussianBlur stdDeviation="9.51187"/>
<feColorMatrix type="matrix" values="0 0 0 0 0.658333 0 0 0 0 0.0411459 0 0 0 0 0.0411459 0 0 0 0.5 0"/>
<feBlend mode="normal" in2="BackgroundImageFix" result="effect1_dropShadow_2462_8455"/>
<feColorMatrix in="SourceAlpha" type="matrix" values="0 0 0 0 0 0 0 0 0 0 0 0 0 0 0 0 0 0 127 0" result="hardAlpha"/>
<feOffset dy="3.80475"/>
<feGaussianBlur stdDeviation="5.70712"/>
<feColorMatrix type="matrix" values="0 0 0 0 0.658824 0 0 0 0 0.0392157 0 0 0 0 0.0392157 0 0 0 0.3 0"/>
<feBlend mode="normal" in2="effect1_dropShadow_2462_8455" result="effect2_dropShadow_2462_8455"/>
<feBlend mode="normal" in="SourceGraphic" in2="effect2_dropShadow_2462_8455" result="shape"/>
</filter>
<filter id="filter4_dddiiii_2462_8455" x="444.123" y="413.026" width="176.621" height="176.621" filterUnits="userSpaceOnUse" color-interpolation-filters="sRGB">
<feFlood flood-opacity="0" result="BackgroundImageFix"/>
<feColorMatrix in="SourceAlpha" type="matrix" values="0 0 0 0 0 0 0 0 0 0 0 0 0 0 0 0 0 0 127 0" result="hardAlpha"/>
<feOffset dx="40.5153" dy="40.5153"/>
<feGaussianBlur stdDeviation="20.2576"/>
<feColorMatrix type="matrix" values="0 0 0 0 0.87451 0 0 0 0 0.486275 0 0 0 0 0.937255 0 0 0 0.1 0"/>
<feBlend mode="normal" in2="BackgroundImageFix" result="effect1_dropShadow_2462_8455"/>
<feColorMatrix in="SourceAlpha" type="matrix" values="0 0 0 0 0 0 0 0 0 0 0 0 0 0 0 0 0 0 127 0" result="hardAlpha"/>
<feOffset dx="16.2061" dy="16.2061"/>
<feGaussianBlur stdDeviation="8.10306"/>
<feColorMatrix type="matrix" values="0 0 0 0 0.87451 0 0 0 0 0.486275 0 0 0 0 0.937255 0 0 0 0.1 0"/>
<feBlend mode="normal" in2="effect1_dropShadow_2462_8455" result="effect2_dropShadow_2462_8455"/>
<feColorMatrix in="SourceAlpha" type="matrix" values="0 0 0 0 0 0 0 0 0 0 0 0 0 0 0 0 0 0 127 0" result="hardAlpha"/>
<feOffset dx="8.10306" dy="8.10306"/>
<feGaussianBlur stdDeviation="4.05153"/>
<feColorMatrix type="matrix" values="0 0 0 0 0.87451 0 0 0 0 0.486275 0 0 0 0 0.937255 0 0 0 0.2 0"/>
<feBlend mode="normal" in2="effect2_dropShadow_2462_8455" result="effect3_dropShadow_2462_8455"/>
<feBlend mode="normal" in="SourceGraphic" in2="effect3_dropShadow_2462_8455" result="shape"/>
<feColorMatrix in="SourceAlpha" type="matrix" values="0 0 0 0 0 0 0 0 0 0 0 0 0 0 0 0 0 0 127 0" result="hardAlpha"/>
<feOffset dy="2.02576"/>
<feGaussianBlur stdDeviation="1.01288"/>
<feComposite in2="hardAlpha" operator="arithmetic" k2="-1" k3="1"/>
<feColorMatrix type="matrix" values="0 0 0 0 1 0 0 0 0 1 0 0 0 0 1 0 0 0 0.1 0"/>
<feBlend mode="normal" in2="shape" result="effect4_innerShadow_2462_8455"/>
<feColorMatrix in="SourceAlpha" type="matrix" values="0 0 0 0 0 0 0 0 0 0 0 0 0 0 0 0 0 0 127 0" result="hardAlpha"/>
<feOffset dy="-4.05153"/>
<feGaussianBlur stdDeviation="2.02576"/>
<feComposite in2="hardAlpha" operator="arithmetic" k2="-1" k3="1"/>
<feColorMatrix type="matrix" values="0 0 0 0 0 0 0 0 0 0 0 0 0 0 0 0 0 0 0.05 0"/>
<feBlend mode="normal" in2="effect4_innerShadow_2462_8455" result="effect5_innerShadow_2462_8455"/>
<feColorMatrix in="SourceAlpha" type="matrix" values="0 0 0 0 0 0 0 0 0 0 0 0 0 0 0 0 0 0 127 0" result="hardAlpha"/>
<feOffset dx="4.05153"/>
<feGaussianBlur stdDeviation="2.02576"/>
<feComposite in2="hardAlpha" operator="arithmetic" k2="-1" k3="1"/>
<feColorMatrix type="matrix" values="0 0 0 0 0 0 0 0 0 0 0 0 0 0 0 0 0 0 0.02 0"/>
<feBlend mode="normal" in2="effect5_innerShadow_2462_8455" result="effect6_innerShadow_2462_8455"/>
<feColorMatrix in="SourceAlpha" type="matrix" values="0 0 0 0 0 0 0 0 0 0 0 0 0 0 0 0 0 0 127 0" result="hardAlpha"/>
<feOffset dx="-4.05153"/>
<feGaussianBlur stdDeviation="2.02576"/>
<feComposite in2="hardAlpha" operator="arithmetic" k2="-1" k3="1"/>
<feColorMatrix type="matrix" values="0 0 0 0 0 0 0 0 0 0 0 0 0 0 0 0 0 0 0.02 0"/>
<feBlend mode="normal" in2="effect6_innerShadow_2462_8455" result="effect7_innerShadow_2462_8455"/>
</filter>
<filter id="filter5_dd_2462_8455" x="439.378" y="416.382" width="109.169" height="109.169" filterUnits="userSpaceOnUse" color-interpolation-filters="sRGB">
<feFlood flood-opacity="0" result="BackgroundImageFix"/>
<feColorMatrix in="SourceAlpha" type="matrix" values="0 0 0 0 0 0 0 0 0 0 0 0 0 0 0 0 0 0 127 0" result="hardAlpha"/>
<feOffset dy="8.10306"/>
<feGaussianBlur stdDeviation="10.1288"/>
<feColorMatrix type="matrix" values="0 0 0 0 1 0 0 0 0 1 0 0 0 0 1 0 0 0 0.5 0"/>
<feBlend mode="normal" in2="BackgroundImageFix" result="effect1_dropShadow_2462_8455"/>
<feColorMatrix in="SourceAlpha" type="matrix" values="0 0 0 0 0 0 0 0 0 0 0 0 0 0 0 0 0 0 127 0" result="hardAlpha"/>
<feOffset dy="4.05153"/>
<feGaussianBlur stdDeviation="6.07729"/>
<feColorMatrix type="matrix" values="0 0 0 0 1 0 0 0 0 1 0 0 0 0 1 0 0 0 0.3 0"/>
<feBlend mode="normal" in2="effect1_dropShadow_2462_8455" result="effect2_dropShadow_2462_8455"/>
<feBlend mode="normal" in="SourceGraphic" in2="effect2_dropShadow_2462_8455" result="shape"/>
</filter>
<filter id="filter6_diiii_2462_8455" x="-45.1973" y="512.831" width="204.459" height="204.458" filterUnits="userSpaceOnUse" color-interpolation-filters="sRGB">
<feFlood flood-opacity="0" result="BackgroundImageFix"/>
<feColorMatrix in="SourceAlpha" type="matrix" values="0 0 0 0 0 0 0 0 0 0 0 0 0 0 0 0 0 0 127 0" result="hardAlpha"/>
<feOffset dx="46.8753" dy="46.8753"/>
<feGaussianBlur stdDeviation="23.4376"/>
<feColorMatrix type="matrix" values="0 0 0 0 1 0 0 0 0 0.662745 0 0 0 0 0.270588 0 0 0 0.1 0"/>
<feBlend mode="normal" in2="BackgroundImageFix" result="effect1_dropShadow_2462_8455"/>
<feBlend mode="normal" in="SourceGraphic" in2="effect1_dropShadow_2462_8455" result="shape"/>
<feColorMatrix in="SourceAlpha" type="matrix" values="0 0 0 0 0 0 0 0 0 0 0 0 0 0 0 0 0 0 127 0" result="hardAlpha"/>
<feOffset dy="2.34376"/>
<feGaussianBlur stdDeviation="1.17188"/>
<feComposite in2="hardAlpha" operator="arithmetic" k2="-1" k3="1"/>
<feColorMatrix type="matrix" values="0 0 0 0 1 0 0 0 0 1 0 0 0 0 1 0 0 0 0.1 0"/>
<feBlend mode="normal" in2="shape" result="effect2_innerShadow_2462_8455"/>
<feColorMatrix in="SourceAlpha" type="matrix" values="0 0 0 0 0 0 0 0 0 0 0 0 0 0 0 0 0 0 127 0" result="hardAlpha"/>
<feOffset dy="-4.68753"/>
<feGaussianBlur stdDeviation="2.34376"/>
<feComposite in2="hardAlpha" operator="arithmetic" k2="-1" k3="1"/>
<feColorMatrix type="matrix" values="0 0 0 0 0 0 0 0 0 0 0 0 0 0 0 0 0 0 0.05 0"/>
<feBlend mode="normal" in2="effect2_innerShadow_2462_8455" result="effect3_innerShadow_2462_8455"/>
<feColorMatrix in="SourceAlpha" type="matrix" values="0 0 0 0 0 0 0 0 0 0 0 0 0 0 0 0 0 0 127 0" result="hardAlpha"/>
<feOffset dx="4.68753"/>
<feGaussianBlur stdDeviation="2.34376"/>
<feComposite in2="hardAlpha" operator="arithmetic" k2="-1" k3="1"/>
<feColorMatrix type="matrix" values="0 0 0 0 0 0 0 0 0 0 0 0 0 0 0 0 0 0 0.02 0"/>
<feBlend mode="normal" in2="effect3_innerShadow_2462_8455" result="effect4_innerShadow_2462_8455"/>
<feColorMatrix in="SourceAlpha" type="matrix" values="0 0 0 0 0 0 0 0 0 0 0 0 0 0 0 0 0 0 127 0" result="hardAlpha"/>
<feOffset dx="-4.68753"/>
<feGaussianBlur stdDeviation="2.34376"/>
<feComposite in2="hardAlpha" operator="arithmetic" k2="-1" k3="1"/>
<feColorMatrix type="matrix" values="0 0 0 0 0 0 0 0 0 0 0 0 0 0 0 0 0 0 0.02 0"/>
<feBlend mode="normal" in2="effect4_innerShadow_2462_8455" result="effect5_innerShadow_2462_8455"/>
</filter>
<filter id="filter7_ddi_2462_8455" x="-50.695" y="516.708" width="126.39" height="126.39" filterUnits="userSpaceOnUse" color-interpolation-filters="sRGB">
<feFlood flood-opacity="0" result="BackgroundImageFix"/>
<feColorMatrix in="SourceAlpha" type="matrix" values="0 0 0 0 0 0 0 0 0 0 0 0 0 0 0 0 0 0 127 0" result="hardAlpha"/>
<feOffset dy="9.37505"/>
<feGaussianBlur stdDeviation="11.7188"/>
<feColorMatrix type="matrix" values="0 0 0 0 0.792157 0 0 0 0 0.439216 0 0 0 0 0.0313726 0 0 0 0.5 0"/>
<feBlend mode="normal" in2="BackgroundImageFix" result="effect1_dropShadow_2462_8455"/>
<feColorMatrix in="SourceAlpha" type="matrix" values="0 0 0 0 0 0 0 0 0 0 0 0 0 0 0 0 0 0 127 0" result="hardAlpha"/>
<feOffset dy="4.68753"/>
<feGaussianBlur stdDeviation="7.03129"/>
<feColorMatrix type="matrix" values="0 0 0 0 0.791667 0 0 0 0 0.440879 0 0 0 0 0.0329861 0 0 0 0.3 0"/>
<feBlend mode="normal" in2="effect1_dropShadow_2462_8455" result="effect2_dropShadow_2462_8455"/>
<feBlend mode="normal" in="SourceGraphic" in2="effect2_dropShadow_2462_8455" result="shape"/>
<feColorMatrix in="SourceAlpha" type="matrix" values="0 0 0 0 0 0 0 0 0 0 0 0 0 0 0 0 0 0 127 0" result="hardAlpha"/>
<feOffset dx="-1.17188" dy="-1.17188"/>
<feGaussianBlur stdDeviation="0.585941"/>
<feComposite in2="hardAlpha" operator="arithmetic" k2="-1" k3="1"/>
<feColorMatrix type="matrix" values="0 0 0 0 1 0 0 0 0 0.662745 0 0 0 0 0.270588 0 0 0 0.24 0"/>
<feBlend mode="normal" in2="shape" result="effect3_innerShadow_2462_8455"/>
</filter>
<filter id="filter8_dddiiii_2462_8455" x="224.801" y="613.388" width="163.925" height="163.925" filterUnits="userSpaceOnUse" color-interpolation-filters="sRGB">
<feFlood flood-opacity="0" result="BackgroundImageFix"/>
<feColorMatrix in="SourceAlpha" type="matrix" values="0 0 0 0 0 0 0 0 0 0 0 0 0 0 0 0 0 0 127 0" result="hardAlpha"/>
<feOffset dx="38.6358" dy="38.6358"/>
<feGaussianBlur stdDeviation="19.3179"/>
<feColorMatrix type="matrix" values="0 0 0 0 0.458824 0 0 0 0 0.458824 0 0 0 0 0.458824 0 0 0 0.1 0"/>
<feBlend mode="normal" in2="BackgroundImageFix" result="effect1_dropShadow_2462_8455"/>
<feColorMatrix in="SourceAlpha" type="matrix" values="0 0 0 0 0 0 0 0 0 0 0 0 0 0 0 0 0 0 127 0" result="hardAlpha"/>
<feOffset dx="15.4543" dy="15.4543"/>
<feGaussianBlur stdDeviation="7.72717"/>
<feColorMatrix type="matrix" values="0 0 0 0 0.458824 0 0 0 0 0.458824 0 0 0 0 0.458824 0 0 0 0.1 0"/>
<feBlend mode="normal" in2="effect1_dropShadow_2462_8455" result="effect2_dropShadow_2462_8455"/>
<feColorMatrix in="SourceAlpha" type="matrix" values="0 0 0 0 0 0 0 0 0 0 0 0 0 0 0 0 0 0 127 0" result="hardAlpha"/>
<feOffset dx="7.72717" dy="7.72717"/>
<feGaussianBlur stdDeviation="3.86358"/>
<feColorMatrix type="matrix" values="0 0 0 0 0.458333 0 0 0 0 0.458333 0 0 0 0 0.458333 0 0 0 0.2 0"/>
<feBlend mode="normal" in2="effect2_dropShadow_2462_8455" result="effect3_dropShadow_2462_8455"/>
<feBlend mode="normal" in="SourceGraphic" in2="effect3_dropShadow_2462_8455" result="shape"/>
<feColorMatrix in="SourceAlpha" type="matrix" values="0 0 0 0 0 0 0 0 0 0 0 0 0 0 0 0 0 0 127 0" result="hardAlpha"/>
<feOffset dy="1.93179"/>
<feGaussianBlur stdDeviation="0.965896"/>
<feComposite in2="hardAlpha" operator="arithmetic" k2="-1" k3="1"/>
<feColorMatrix type="matrix" values="0 0 0 0 1 0 0 0 0 1 0 0 0 0 1 0 0 0 0.1 0"/>
<feBlend mode="normal" in2="shape" result="effect4_innerShadow_2462_8455"/>
<feColorMatrix in="SourceAlpha" type="matrix" values="0 0 0 0 0 0 0 0 0 0 0 0 0 0 0 0 0 0 127 0" result="hardAlpha"/>
<feOffset dy="-3.86358"/>
<feGaussianBlur stdDeviation="1.93179"/>
<feComposite in2="hardAlpha" operator="arithmetic" k2="-1" k3="1"/>
<feColorMatrix type="matrix" values="0 0 0 0 0 0 0 0 0 0 0 0 0 0 0 0 0 0 0.05 0"/>
<feBlend mode="normal" in2="effect4_innerShadow_2462_8455" result="effect5_innerShadow_2462_8455"/>
<feColorMatrix in="SourceAlpha" type="matrix" values="0 0 0 0 0 0 0 0 0 0 0 0 0 0 0 0 0 0 127 0" result="hardAlpha"/>
<feOffset dx="3.86358"/>
<feGaussianBlur stdDeviation="1.93179"/>
<feComposite in2="hardAlpha" operator="arithmetic" k2="-1" k3="1"/>
<feColorMatrix type="matrix" values="0 0 0 0 0 0 0 0 0 0 0 0 0 0 0 0 0 0 0.02 0"/>
<feBlend mode="normal" in2="effect5_innerShadow_2462_8455" result="effect6_innerShadow_2462_8455"/>
<feColorMatrix in="SourceAlpha" type="matrix" values="0 0 0 0 0 0 0 0 0 0 0 0 0 0 0 0 0 0 127 0" result="hardAlpha"/>
<feOffset dx="-3.86358"/>
<feGaussianBlur stdDeviation="1.93179"/>
<feComposite in2="hardAlpha" operator="arithmetic" k2="-1" k3="1"/>
<feColorMatrix type="matrix" values="0 0 0 0 0 0 0 0 0 0 0 0 0 0 0 0 0 0 0.02 0"/>
<feBlend mode="normal" in2="effect6_innerShadow_2462_8455" result="effect7_innerShadow_2462_8455"/>
</filter>
<filter id="filter9_ddi_2462_8455" x="219.696" y="616.01" width="100.728" height="100.728" filterUnits="userSpaceOnUse" color-interpolation-filters="sRGB">
<feFlood flood-opacity="0" result="BackgroundImageFix"/>
<feColorMatrix in="SourceAlpha" type="matrix" values="0 0 0 0 0 0 0 0 0 0 0 0 0 0 0 0 0 0 127 0" result="hardAlpha"/>
<feOffset dy="7.72717"/>
<feGaussianBlur stdDeviation="9.65896"/>
<feColorMatrix type="matrix" values="0 0 0 0 0.770833 0 0 0 0 0.770833 0 0 0 0 0.770833 0 0 0 0.5 0"/>
<feBlend mode="normal" in2="BackgroundImageFix" result="effect1_dropShadow_2462_8455"/>
<feColorMatrix in="SourceAlpha" type="matrix" values="0 0 0 0 0 0 0 0 0 0 0 0 0 0 0 0 0 0 127 0" result="hardAlpha"/>
<feOffset dy="3.86358"/>
<feGaussianBlur stdDeviation="5.79538"/>
<feColorMatrix type="matrix" values="0 0 0 0 0.772549 0 0 0 0 0.772549 0 0 0 0 0.772549 0 0 0 0.3 0"/>
<feBlend mode="normal" in2="effect1_dropShadow_2462_8455" result="effect2_dropShadow_2462_8455"/>
<feBlend mode="normal" in="SourceGraphic" in2="effect2_dropShadow_2462_8455" result="shape"/>
<feColorMatrix in="SourceAlpha" type="matrix" values="0 0 0 0 0 0 0 0 0 0 0 0 0 0 0 0 0 0 127 0" result="hardAlpha"/>
<feOffset dx="-0.965896" dy="-0.965896"/>
<feGaussianBlur stdDeviation="0.482948"/>
<feComposite in2="hardAlpha" operator="arithmetic" k2="-1" k3="1"/>
<feColorMatrix type="matrix" values="0 0 0 0 1 0 0 0 0 1 0 0 0 0 1 0 0 0 0.16 0"/>
<feBlend mode="normal" in2="shape" result="effect3_innerShadow_2462_8455"/>
</filter>
<linearGradient id="paint0_linear_2462_8455" x1="11.5742" y1="289.641" x2="-4.02579" y2="375.242" gradientUnits="userSpaceOnUse">
<stop stop-color="#66FFC8"/>
<stop offset="1" stop-color="#34E97C"/>
</linearGradient>
<linearGradient id="paint1_linear_2462_8455" x1="449" y1="178.652" x2="517.393" y2="196.267" gradientUnits="userSpaceOnUse">
<stop stop-color="#FF668B"/>
<stop offset="1" stop-color="#F55353"/>
</linearGradient>
<linearGradient id="paint2_linear_2462_8455" x1="448.174" y1="465.353" x2="520.344" y2="486.506" gradientUnits="userSpaceOnUse">
<stop stop-color="#7BADF8"/>
<stop offset="1" stop-color="#BE6CFF"/>
</linearGradient>
<linearGradient id="paint3_linear_2462_8455" x1="14.0684" y1="517.518" x2="-17.3469" y2="598.661" gradientUnits="userSpaceOnUse">
<stop stop-color="#FFD260"/>
<stop offset="1" stop-color="#FFA945"/>
<stop offset="1" stop-color="#FFA945"/>
</linearGradient>
<linearGradient id="paint4_linear_2462_8455" x1="228.665" y1="644.605" x2="285.019" y2="688.963" gradientUnits="userSpaceOnUse">
<stop stop-color="#FBFBFB"/>
<stop offset="1" stop-color="#DEDEDE"/>
</linearGradient>
<clipPath id="clip0_2462_8455">
<rect width="512" height="811" rx="12" fill="white"/>
</clipPath>
<clipPath id="clip1_2462_8455">
<path d="M-4.90085 312.435C0.865964 304.456 3.74937 300.467 7.5048 298.542C10.8082 296.848 14.5629 296.244 18.2307 296.816C22.4006 297.465 26.39 300.349 34.3689 306.116L49.5653 317.099C57.5442 322.866 61.5336 325.749 63.4589 329.505C65.1524 332.808 65.7566 336.563 65.185 340.231C64.5351 344.4 61.6517 348.39 55.8849 356.369L44.9016 371.565C39.1347 379.544 36.2513 383.534 32.4959 385.459C29.1925 387.152 25.4378 387.757 21.77 387.185C17.6001 386.535 13.6107 383.652 5.63181 377.885L-9.56462 366.901C-17.5435 361.135 -21.533 358.251 -23.4582 354.496C-25.1517 351.192 -25.7559 347.438 -25.1843 343.77C-24.5344 339.6 -21.651 335.611 -15.8842 327.632L-4.90085 312.435Z" fill="white"/>
</clipPath>
<clipPath id="clip2_2462_8455">
<rect width="56.2503" height="56.2503" fill="white" transform="translate(13.6807 302.731) rotate(35.8579)"/>
</clipPath>
<clipPath id="clip3_2462_8455">
<path d="M466.495 193.318C460.371 188.185 457.309 185.618 455.969 182.465C454.791 179.692 454.52 176.617 455.196 173.681C455.965 170.343 458.532 167.282 463.665 161.158L473.442 149.495C478.576 143.371 481.143 140.309 484.295 138.969C487.068 137.791 490.143 137.52 493.079 138.196C496.417 138.965 499.479 141.532 505.603 146.665L517.266 156.442C523.389 161.576 526.451 164.143 527.791 167.295C528.97 170.068 529.24 173.143 528.564 176.079C527.795 179.417 525.228 182.479 520.095 188.603L510.318 200.266C505.185 206.389 502.618 209.451 499.465 210.791C496.692 211.97 493.617 212.24 490.681 211.564C487.343 210.795 484.281 208.228 478.158 203.095L466.495 193.318Z" fill="white"/>
</clipPath>
<clipPath id="clip4_2462_8455">
<rect width="45.657" height="45.657" fill="white" transform="translate(459.72 177.709) rotate(-50.0275)"/>
</clipPath>
<clipPath id="clip5_2462_8455">
<path d="M466.278 481.576C459.941 475.898 456.772 473.058 455.457 469.656C454.3 466.663 454.121 463.381 454.944 460.28C455.88 456.755 458.719 453.586 464.398 447.249L475.214 435.181C480.893 428.844 483.732 425.676 487.134 424.361C490.127 423.204 493.409 423.024 496.51 423.847C500.036 424.783 503.204 427.622 509.541 433.301L521.61 444.117C527.946 449.796 531.115 452.635 532.43 456.038C533.587 459.03 533.766 462.312 532.943 465.414C532.007 468.939 529.168 472.107 523.489 478.444L512.673 490.513C506.994 496.85 504.155 500.018 500.753 501.333C497.76 502.49 494.478 502.67 491.377 501.846C487.851 500.911 484.683 498.071 478.346 492.392L466.278 481.576Z" fill="white"/>
</clipPath>
<clipPath id="clip6_2462_8455">
<rect width="48.6183" height="48.6183" fill="white" transform="translate(459.635 464.743) rotate(-48.1338)"/>
</clipPath>
<clipPath id="clip7_2462_8455">
<path d="M-6.39842 536.809C0.765625 530.057 4.34765 526.681 8.39806 525.496C11.9609 524.454 15.7622 524.566 19.2573 525.817C23.2306 527.239 26.6068 530.821 33.3592 537.985L46.2197 551.63C52.9721 558.794 56.3484 562.376 57.5332 566.426C58.5755 569.989 58.463 573.79 57.212 577.285C55.7898 581.259 52.2078 584.635 45.0438 591.387L31.3993 604.248C24.2352 611 20.6532 614.376 16.6028 615.561C13.0399 616.604 9.2386 616.491 5.74359 615.24C1.77029 613.818 -1.60592 610.236 -8.35834 603.072L-21.2189 589.427C-27.9713 582.263 -31.3475 578.681 -32.5324 574.631C-33.5746 571.068 -33.4622 567.267 -32.2112 563.772C-30.789 559.798 -27.207 556.422 -20.0429 549.67L-6.39842 536.809Z" fill="white"/>
</clipPath>
<clipPath id="clip8_2462_8455">
<rect width="56.2503" height="56.2503" fill="white" transform="translate(13.6763 530.771) rotate(46.6942)"/>
</clipPath>
<clipPath id="clip9_2462_8455">
<path d="M238.923 665.394C235.332 658.117 233.537 654.479 233.582 651.001C233.621 647.942 234.628 644.973 236.458 642.521C238.539 639.734 242.177 637.938 249.454 634.348L263.313 627.509C270.589 623.919 274.228 622.124 277.706 622.168C280.765 622.208 283.733 623.215 286.185 625.045C288.973 627.125 290.768 630.764 294.359 638.04L301.197 651.899C304.788 659.176 306.583 662.814 306.538 666.292C306.499 669.352 305.492 672.32 303.662 674.772C301.581 677.56 297.943 679.355 290.666 682.945L276.807 689.784C269.531 693.374 265.892 695.17 262.414 695.125C259.355 695.086 256.386 694.079 253.934 692.249C251.147 690.168 249.352 686.53 245.761 679.253L238.923 665.394Z" fill="white"/>
</clipPath>
<clipPath id="clip10_2462_8455">
<rect width="46.363" height="46.363" fill="white" transform="translate(239.014 648.116) rotate(-26.2631)"/>
</clipPath>
</defs>
</svg>
