<svg width="454" height="548" viewBox="0 0 454 548" fill="none" xmlns="http://www.w3.org/2000/svg">
<g clip-path="url(#clip0_2462_8455)">
<g filter="url(#filter0_diiiii_2462_8455)">
<g clip-path="url(#clip1_2462_8455)">
<path d="M-4.90085 180.435C0.865965 172.456 3.74937 168.467 7.5048 166.542C10.8082 164.848 14.5629 164.244 18.2307 164.816C22.4006 165.465 26.39 168.349 34.3689 174.116L49.5653 185.099C57.5442 190.866 61.5336 193.749 63.4589 197.505C65.1524 200.808 65.7566 204.563 65.185 208.231C64.5351 212.4 61.6517 216.39 55.8849 224.369L44.9015 239.565C39.1347 247.544 36.2513 251.534 32.4959 253.459C29.1925 255.152 25.4378 255.757 21.77 255.185C17.6001 254.535 13.6107 251.652 5.63181 245.885L-9.56462 234.901C-17.5435 229.135 -21.5329 226.251 -23.4582 222.496C-25.1517 219.192 -25.7559 215.438 -25.1843 211.77C-24.5344 207.6 -21.651 203.611 -15.8842 195.632L-4.90085 180.435Z" fill="url(#paint0_linear_2462_8455)" fill-opacity="0.72"/>
<g clip-path="url(#clip2_2462_8455)" filter="url(#filter1_ddi_2462_8455)">
<path d="M33.3522 238.238L33.7276 236.645C33.8502 236.301 33.8695 235.928 33.7831 235.573C33.6968 235.219 33.5085 234.897 33.2416 234.648L48.5335 213.49C48.9479 212.915 49.1173 212.199 49.0045 211.5C48.8917 210.8 48.5059 210.174 47.9318 209.759L10.5365 182.731C9.96203 182.317 9.24663 182.147 8.54728 182.26C7.84793 182.372 7.22176 182.757 6.8062 183.331L-8.49656 204.504C-8.80851 204.37 -9.15044 204.321 -9.48741 204.362C-9.82438 204.404 -10.1443 204.534 -10.4144 204.74L-11.81 205.597C-12.0495 205.738 -12.2497 205.937 -12.3922 206.175C-12.5347 206.414 -12.615 206.685 -12.6258 206.962C-12.6348 207.251 -12.5744 207.537 -12.4496 207.798C-12.3249 208.058 -12.1394 208.284 -11.9089 208.458L30.6663 239.23C30.9035 239.394 31.1768 239.499 31.4631 239.536C31.7494 239.573 32.0403 239.54 32.3114 239.441C32.5718 239.344 32.8035 239.183 32.9854 238.973C33.1672 238.762 33.2933 238.51 33.3522 238.238ZM32.004 233.745L15.9325 222.129C15.8472 222.068 15.7502 222.024 15.6475 222.002L12.9543 221.413L10.5652 219.686L9.1611 217.314C9.10748 217.223 9.03589 217.145 8.95075 217.083L-7.24102 205.38L8.04707 184.228C8.22458 183.983 8.49192 183.819 8.79046 183.771C9.089 183.723 9.39438 183.795 9.63963 183.972L24.2245 194.513L23.8152 195.08C23.5499 195.448 23.4415 195.906 23.5137 196.354C23.5858 196.802 23.8327 197.203 24.2001 197.469L29.772 201.496C30.14 201.762 30.5982 201.87 31.0461 201.798C31.4941 201.726 31.8951 201.479 32.1614 201.112L32.5708 200.546L47.035 211C47.2798 211.177 47.4443 211.444 47.4923 211.743C47.5403 212.041 47.468 212.347 47.2912 212.592L32.004 233.745ZM32.8639 202.6C32.9828 202.436 33.1623 202.325 33.3628 202.293C33.5633 202.26 33.7684 202.309 33.9331 202.428L34.5757 202.892C34.7341 203.014 34.8389 203.192 34.8678 203.389C34.8968 203.587 34.8476 203.788 34.7307 203.949C34.6139 204.111 34.4386 204.221 34.2421 204.255C34.0456 204.29 33.8434 204.246 33.6785 204.134L33.0359 203.669C32.8715 203.55 32.761 203.371 32.7287 203.17C32.6965 202.97 32.7451 202.765 32.8639 202.6ZM34.9339 215.018L25.3842 202.094C25.29 201.966 25.1584 201.871 25.0076 201.821L9.74164 196.81C9.58737 196.76 9.42111 196.76 9.26682 196.81C9.11253 196.86 8.97817 196.958 8.88312 197.09C8.78807 197.221 8.73723 197.379 8.73793 197.542C8.73863 197.704 8.79083 197.862 8.88701 197.992L12.9575 203.502L9.12088 208.81C9.03556 208.928 8.98535 209.067 8.97609 209.212C8.96684 209.356 8.99891 209.501 9.06859 209.628C10.49 212.234 12.4766 214.49 14.8827 216.229C17.2888 217.968 20.0535 219.146 22.9742 219.678C23.1165 219.705 23.2634 219.69 23.3978 219.636C23.5322 219.582 23.6485 219.491 23.7332 219.374L27.5702 214.065L30.0167 214.868L25.7756 220.736C25.6502 220.651 25.5024 220.605 25.351 220.604C25.1996 220.604 25.0513 220.648 24.9249 220.731L22.7413 222.177C22.6382 222.245 22.5532 222.337 22.4935 222.446C22.4338 222.554 22.4012 222.675 22.3985 222.799C22.3958 222.922 22.4232 223.045 22.4782 223.156C22.5331 223.266 22.6141 223.362 22.7142 223.435L23.4423 223.961L22.9325 224.667C22.8202 224.831 22.7766 225.034 22.8111 225.23C22.8455 225.427 22.9552 225.602 23.1169 225.719C23.2786 225.836 23.4795 225.885 23.6768 225.856C23.8742 225.827 24.0525 225.722 24.1739 225.564L24.6837 224.858L25.4133 225.386C25.5136 225.458 25.63 225.505 25.7524 225.522C25.8749 225.54 25.9997 225.527 26.1163 225.486C26.2328 225.445 26.3376 225.376 26.4217 225.285C26.5058 225.194 26.5667 225.085 26.5992 224.965L27.2869 222.438C27.3265 222.292 27.3218 222.138 27.2735 221.994C27.2252 221.85 27.1354 221.725 27.0155 221.632L31.5427 215.368L34.0771 216.2C34.2314 216.251 34.3976 216.251 34.5519 216.2C34.7062 216.15 34.8406 216.052 34.9356 215.921C35.0307 215.789 35.0815 215.631 35.0808 215.469C35.0801 215.306 35.0279 215.149 34.9317 215.018L34.9339 215.018ZM23.4028 217.217C20.8783 216.69 18.4932 215.636 16.4029 214.125C14.3126 212.615 12.5641 210.68 11.2712 208.449L13.9118 204.795L18.4347 210.918C18.5294 211.045 18.6608 211.14 18.8113 211.19L26.0435 213.564L23.4028 217.217Z" fill="white"/>
</g>
</g>
</g>
<g filter="url(#filter2_dddiiii_2462_8455)">
<g clip-path="url(#clip3_2462_8455)">
<path d="M408.495 61.3179C402.371 56.1845 399.309 53.6178 397.969 50.4654C396.791 47.6924 396.52 44.6175 397.196 41.6813C397.965 38.3434 400.532 35.2815 405.665 29.1578L415.442 17.4947C420.576 11.371 423.143 8.30912 426.295 6.96919C429.068 5.79057 432.143 5.52006 435.079 6.19644C438.417 6.96539 441.479 9.53209 447.603 14.6655L459.266 24.4425C465.389 29.5759 468.451 32.1426 469.791 35.295C470.97 38.068 471.24 41.1429 470.564 44.0791C469.795 47.4171 467.228 50.4789 462.095 56.6026L452.318 68.2657C447.185 74.3894 444.618 77.4513 441.465 78.7912C438.692 79.9698 435.617 80.2404 432.681 79.564C429.343 78.795 426.281 76.2283 420.158 71.0949L408.495 61.3179Z" fill="url(#paint1_linear_2462_8455)" fill-opacity="0.78"/>
<g clip-path="url(#clip4_2462_8455)" filter="url(#filter3_dd_2462_8455)">
<path d="M436.851 62.5768C437.525 63.1419 438.538 63.0528 439.103 62.3787L455.899 42.3434L453.448 40.2893L436.653 60.3247C436.093 61.0029 436.177 62.0118 436.851 62.5768Z" fill="white"/>
<path d="M434.133 65.8192C436.411 67.7289 439.803 67.4305 441.713 65.1525L457.423 46.4112C458.182 45.5058 458.063 44.1582 457.158 43.3992L456.858 43.1476L440.063 63.183C439.052 64.3884 437.252 64.5468 436.047 63.5362C434.841 62.5257 434.683 60.7258 435.693 59.5203L452.489 39.485L450.55 37.8599L433.466 58.2397C431.561 60.5219 431.86 63.9137 434.133 65.8192Z" fill="white"/>
<path d="M436.355 25.9606C433.753 29.0652 434.155 33.6921 437.27 36.3029C438.736 37.532 440.54 38.0889 442.319 38.0053L444.266 39.8302C444.529 40.0759 444.953 39.9703 445.064 39.6278L446.002 36.8199C446.666 36.3878 447.273 35.8331 447.785 35.1728C450.114 32.1742 449.705 27.7348 446.872 25.2086C443.765 22.4284 439.012 22.7919 436.355 25.9606ZM444.879 30.5839L441.163 35.0171C440.94 35.2828 440.542 35.3178 440.276 35.0951C440.011 34.8723 439.976 34.4744 440.198 34.2087L443.915 29.7755C444.137 29.5098 444.535 29.4748 444.801 29.6975C445.067 29.9202 445.102 30.3182 444.879 30.5839ZM444.232 27.0086L439.022 33.2229C438.8 33.4886 438.402 33.5236 438.136 33.3009C437.87 33.0781 437.835 32.6802 438.058 32.4145L443.267 26.2002C443.49 25.9345 443.888 25.8995 444.154 26.1222C444.419 26.3449 444.45 26.7478 444.232 27.0086Z" fill="white"/>
<path d="M432.507 57.4354L433.237 56.5645L411.602 38.4288L410.872 39.2997C409.92 40.4363 409.516 41.8572 409.636 43.223C409.757 44.5978 410.403 45.9265 411.539 46.8792L431.176 63.3404C430.667 61.3389 431.084 59.1329 432.507 57.4354Z" fill="white"/>
<path d="M447.065 37.6106L446.256 40.0243C446.188 40.2353 446.086 40.4266 445.946 40.5939C445.641 40.958 445.191 41.1844 444.711 41.2084C444.234 41.2366 443.764 41.0684 443.416 40.7435L441.841 39.2642C439.883 39.2313 437.994 38.5271 436.479 37.2567C432.847 34.2128 432.365 28.7818 435.405 25.1555L435.409 25.1506L432.088 22.3665C429.81 20.4568 426.418 20.7552 424.508 23.0333L412.407 37.4694L434.046 55.6092L449.596 37.0598L448.567 36.1978L448.563 36.2027C448.114 36.739 447.612 37.207 447.065 37.6106ZM436.839 45.761L433.156 50.1548C432.929 50.4254 432.535 50.4555 432.27 50.2328C432.004 50.0101 431.965 49.617 432.192 49.3464L435.875 44.9526C436.098 44.6869 436.496 44.6519 436.761 44.8746C437.027 45.0974 437.062 45.4953 436.839 45.761ZM437.445 39.9517L430.652 48.0554C430.425 48.326 430.036 48.3602 429.765 48.1334C429.5 47.9107 429.46 47.5176 429.687 47.247L436.48 39.1433C436.703 38.8776 437.101 38.8426 437.367 39.0653C437.637 39.2922 437.668 39.686 437.445 39.9517ZM434.945 37.8565L428.152 45.9601C427.925 46.2307 427.531 46.2608 427.266 46.0381C427 45.8154 426.961 45.4223 427.188 45.1517L433.981 37.048C434.204 36.7823 434.602 36.7473 434.867 36.9701C435.133 37.1928 435.168 37.5908 434.945 37.8565ZM432.436 35.7529L425.643 43.8566C425.416 44.1272 425.022 44.1573 424.756 43.9346C424.491 43.7118 424.452 43.3188 424.678 43.0482L431.472 34.9445C431.694 34.6788 432.092 34.6438 432.358 34.8665C432.629 35.0934 432.659 35.4872 432.436 35.7529Z" fill="white"/>
</g>
</g>
</g>
<g filter="url(#filter4_dddiiii_2462_8455)">
<g clip-path="url(#clip5_2462_8455)">
<path d="M408.278 349.576C401.941 343.898 398.772 341.058 397.457 337.656C396.3 334.663 396.121 331.381 396.944 328.28C397.88 324.755 400.719 321.586 406.398 315.249L417.214 303.181C422.893 296.844 425.732 293.676 429.134 292.361C432.127 291.204 435.409 291.024 438.51 291.847C442.036 292.783 445.204 295.622 451.541 301.301L463.61 312.117C469.946 317.796 473.115 320.635 474.43 324.038C475.587 327.03 475.766 330.312 474.943 333.414C474.007 336.939 471.168 340.107 465.489 346.444L454.673 358.513C448.994 364.85 446.155 368.018 442.753 369.333C439.76 370.49 436.478 370.67 433.377 369.846C429.851 368.911 426.683 366.071 420.346 360.392L408.278 349.576Z" fill="url(#paint2_linear_2462_8455)" fill-opacity="0.81"/>
<g clip-path="url(#clip6_2462_8455)" filter="url(#filter5_dd_2462_8455)">
<path fill-rule="evenodd" clip-rule="evenodd" d="M418.001 325.381C417.286 325.225 417.514 324.134 418.233 324.283L423.076 325.3C423.791 325.456 423.563 326.547 422.844 326.398L418.001 325.381ZM423.41 322.605L421.344 320.754C420.793 320.264 420.045 321.099 420.592 321.593L422.658 323.445C423.21 323.935 423.957 323.099 423.41 322.605ZM419.42 330.398L422.178 328.598C422.792 328.191 422.179 327.257 421.562 327.655L418.804 329.455C418.189 329.863 418.803 330.799 419.42 330.398ZM444.767 342.975C446.023 342.52 446.368 340.748 445.336 339.871C444.352 338.939 442.628 339.478 442.313 340.776C442.116 341.227 442.486 341.745 442.167 342.142C441.962 342.371 441.604 342.394 441.37 342.185L437.631 338.832L435.092 341.665C437.217 342.134 438.098 344.939 436.593 346.536C435.175 348.203 432.284 347.639 431.587 345.576L429.048 348.41L437.165 355.685C437.567 356.045 438.08 356.208 438.581 356.182C439.082 356.154 439.574 355.935 439.934 355.533L447.209 347.416L443.47 344.065C443.237 343.856 443.22 343.498 443.427 343.268C443.785 342.908 444.34 343.22 444.767 342.975ZM432.356 343.875C432.717 344.235 432.405 344.79 432.65 345.217C433.105 346.473 434.875 346.82 435.753 345.785C436.683 344.801 436.149 343.078 434.849 342.762C434.397 342.565 433.879 342.935 433.482 342.616C433.252 342.41 433.23 342.053 433.439 341.819L436.79 338.08L433.957 335.542C433.487 337.669 430.68 338.546 429.086 337.042C427.414 335.62 427.982 332.736 430.046 332.037L427.213 329.498L419.939 337.614C419.579 338.016 419.416 338.529 419.443 339.031C419.471 339.533 419.69 340.024 420.092 340.385L428.209 347.659L431.56 343.92C431.768 343.686 432.126 343.669 432.356 343.875ZM442.82 332.199C442.459 331.839 442.77 331.286 442.526 330.857C442.269 330.136 441.446 329.609 440.697 329.676C438.628 329.79 438.312 332.773 440.326 333.311C440.839 333.519 441.675 333.011 441.864 333.756C441.904 333.939 441.85 334.12 441.734 334.252L438.383 337.993L441.216 340.532C441.489 339.283 442.738 338.283 443.987 338.276C447.321 338.14 448.276 342.882 445.127 344.037L447.961 346.577L455.236 338.459C455.596 338.057 455.759 337.544 455.732 337.042C455.704 336.54 455.486 336.048 455.084 335.688L446.967 328.415L443.615 332.155C443.408 332.387 443.051 332.406 442.82 332.199ZM429.527 311.019C428.989 311.049 428.512 311.296 428.176 311.67C427.841 312.045 427.646 312.547 427.677 313.084L428.271 323.968L433.285 323.694C433.596 323.677 433.862 323.915 433.878 324.226C433.879 324.736 433.267 324.907 433.138 325.384C432.569 326.59 433.584 328.088 434.931 327.98C436.283 327.939 437.127 326.345 436.429 325.204C436.281 324.948 436.072 324.732 435.825 324.574C435.366 324.301 435.577 323.549 436.099 323.542L441.112 323.265L440.905 319.467C439.052 320.647 436.425 319.252 436.399 317.035C436.256 314.867 438.682 313.269 440.617 314.222L440.41 310.423L429.527 311.019Z" fill="white"/>
</g>
</g>
</g>
<g filter="url(#filter6_diiii_2462_8455)">
<g clip-path="url(#clip7_2462_8455)">
<path d="M-6.39842 404.809C0.765627 398.057 4.34765 394.681 8.39806 393.496C11.9609 392.454 15.7622 392.566 19.2573 393.817C23.2305 395.239 26.6068 398.821 33.3592 405.985L46.2197 419.63C52.9721 426.794 56.3484 430.376 57.5332 434.426C58.5755 437.989 58.463 441.79 57.212 445.285C55.7898 449.259 52.2078 452.635 45.0438 459.387L31.3993 472.248C24.2352 479 20.6532 482.376 16.6028 483.561C13.0399 484.604 9.2386 484.491 5.74359 483.24C1.77029 481.818 -1.60592 478.236 -8.35834 471.072L-21.2189 457.427C-27.9713 450.263 -31.3475 446.681 -32.5324 442.631C-33.5746 439.068 -33.4622 435.267 -32.2112 431.772C-30.789 427.798 -27.207 424.422 -20.0429 417.67L-6.39842 404.809Z" fill="url(#paint3_linear_2462_8455)" fill-opacity="0.75"/>
<g clip-path="url(#clip8_2462_8455)" filter="url(#filter7_ddi_2462_8455)">
<path d="M31.2521 430.144C31.3951 429.728 31.5366 429.305 31.6734 428.869L33.5563 430.129C33.4184 430.43 33.288 430.705 33.1669 430.954C33.0619 431.175 32.95 431.399 32.838 431.627L31.2487 430.143L31.2521 430.144ZM11.3962 416.628L20.3544 420.667L13.2919 414.07C12.9518 414.549 12.6261 414.997 12.3113 415.423C12.0036 415.838 11.698 416.241 11.3962 416.628ZM29.1149 435.357C28.0239 437.632 26.8654 439.604 25.6631 441.572L29.3776 440.254C31.0949 438.444 32.7914 436.65 34.6087 433.981L31.0667 430.671C30.4504 432.396 29.7971 433.932 29.1167 435.355L29.1149 435.357ZM8.58353 415.358L10.9139 416.41C11.1505 416.105 11.3906 415.793 11.631 415.471L9.30691 413.918C9.18764 414.162 9.06671 414.405 8.94579 414.648C8.82496 414.887 8.70591 415.124 8.58353 415.358ZM25.1385 442.307L16.1428 445.499C16.1171 445.507 16.0982 445.515 16.0827 445.523C16.0689 445.529 16.0499 445.541 16.0274 445.555L11.687 448.403C13.2391 448.332 16.2365 448.188 16.9394 448.129C16.9632 448.126 16.9837 448.123 17.0059 448.119C17.0281 448.115 17.0486 448.108 17.0709 448.101L22.3004 446.245L22.3056 446.244L31.0406 443.142L30.1176 440.539L25.1557 442.301C25.1488 442.304 25.1419 442.307 25.1351 442.307L25.1385 442.307ZM44.0877 437.799C44.2884 437.729 44.442 437.588 44.5302 437.415C44.6149 437.25 44.636 437.055 44.5717 436.875C44.5074 436.695 44.3706 436.557 44.1997 436.48C44.0254 436.404 43.8152 436.391 43.6145 436.461L42.6555 436.801L43.1303 438.138L44.0894 437.798L44.0877 437.799ZM32.2897 442.7L31.3667 440.097L30.6084 440.367L31.5313 442.969L32.2897 442.7ZM18.6679 453.293C17.5589 455.888 16.4817 458.902 15.4573 462.592L9.78789 460.034C9.77617 460.028 9.76445 460.023 9.75273 460.017L-0.815345 455.25C-0.823675 455.245 -0.833752 455.241 -0.843828 455.237L-11.124 450.601C-8.26911 440.928 -5.33467 436.075 -2.47869 431.354C-1.97354 430.519 -1.47009 429.685 -0.969451 428.83C-0.965958 428.827 -0.965857 428.823 -0.962365 428.82C1.20118 425.125 3.30216 421.021 5.26947 414.424L8.1159 415.709C8.12094 415.711 8.12423 415.714 8.12762 415.714L10.8652 416.95C10.8769 416.955 10.8886 416.961 10.9003 416.966L21.5455 421.766C21.5538 421.771 21.5623 421.773 21.5724 421.777L31.8576 426.416C31.6713 427.089 31.4841 427.737 31.2891 428.36C31.2836 428.375 31.2781 428.387 31.276 428.402C31.094 428.986 30.9077 429.547 30.7184 430.092C30.7076 430.112 30.7001 430.135 30.696 430.159C30.0506 432.004 29.3658 433.632 28.6475 435.13C27.4715 437.581 26.2053 439.695 24.8872 441.844L15.9687 445.01C15.931 445.022 15.8932 445.038 15.8535 445.059C15.8122 445.078 15.7759 445.099 15.7447 445.122L10.6182 448.486C10.5455 448.535 10.4989 448.618 10.5012 448.712C10.5072 448.855 10.6262 448.963 10.769 448.958C10.7843 448.956 16.0287 448.719 16.9801 448.64C17.0278 448.635 17.0721 448.63 17.1131 448.621C17.1559 448.61 17.1986 448.599 17.2432 448.584L21.8208 446.96C20.7515 448.845 19.6945 450.887 18.6658 453.291L18.6679 453.293ZM7.90196 422.144L25.6458 430.147C25.8284 430.229 26.0396 430.149 26.123 429.968C26.2048 429.785 26.1245 429.574 25.9436 429.491L8.19981 421.487C8.01893 421.404 7.80598 421.486 7.72254 421.667C7.64074 421.85 7.72107 422.061 7.90196 422.144ZM6.80852 426.337L24.5523 434.341C24.7349 434.423 24.9461 434.342 25.0296 434.161C25.113 433.98 25.031 433.767 24.8502 433.684L7.10636 425.681C6.92548 425.597 6.71254 425.679 6.6291 425.86C6.54566 426.041 6.62763 426.254 6.80852 426.337ZM4.5101 430.117L22.2539 438.12C22.4365 438.202 22.6477 438.121 22.7312 437.94C22.8146 437.759 22.7326 437.547 22.5517 437.463L4.80795 429.46C4.62532 429.378 4.41412 429.458 4.33068 429.639C4.24888 429.822 4.32921 430.033 4.5101 430.117ZM1.91238 433.739L19.6562 441.742C19.8388 441.824 20.05 441.744 20.1334 441.563C20.2152 441.38 20.1349 441.169 19.954 441.086L2.21023 433.082C2.02935 432.999 1.81641 433.081 1.73296 433.262C1.65116 433.444 1.7315 433.656 1.91238 433.739ZM9.93922 448.427C10.0227 448.246 9.94069 448.033 9.7598 447.95L-2.50898 442.418C-2.68986 442.334 -2.90281 442.416 -2.98625 442.597C-3.06805 442.78 -2.98772 442.991 -2.80683 443.074L9.46194 448.607C9.64457 448.688 9.85578 448.608 9.93922 448.427ZM14.6206 444.787C14.7024 444.604 14.622 444.393 14.4411 444.309L-0.300414 437.661C-0.481297 437.578 -0.69424 437.66 -0.777683 437.841C-0.859482 438.023 -0.77915 438.235 -0.598264 438.318L14.1433 444.966C14.3259 445.048 14.5371 444.967 14.6206 444.787ZM12.117 461.647L9.7514 460.579C9.51796 460.895 9.28967 461.209 9.06312 461.521L11.4238 463.099C11.5362 462.858 11.6504 462.615 11.7679 462.372C11.8837 462.131 12.0012 461.888 12.1188 461.646L12.117 461.647ZM8.3783 461.6L8.4811 461.453L8.48469 461.447C8.48829 461.44 8.49352 461.435 8.49712 461.428C8.76453 461.054 9.02118 460.7 9.2688 460.364L0.37919 456.356L7.43834 462.95C7.76664 462.469 8.07895 462.02 8.3783 461.6ZM-2.91718 431.088C-2.68328 430.7 -2.44773 430.313 -2.21385 429.924C-3.73537 431.256 -5.30649 432.717 -6.98596 434.505C-9.07529 436.724 -11.3306 439.447 -13.8699 443.041L-11.9882 444.799L-11.9783 444.81L-10.3115 446.368C-7.85507 439.251 -5.35761 435.123 -2.91953 431.09L-2.91718 431.088ZM-12.0844 445.414C-12.1944 445.634 -12.3079 445.856 -12.4199 446.084C-12.5499 446.345 -12.6835 446.616 -12.8191 446.895L-10.9113 448.17C-10.7728 447.737 -10.6312 447.313 -10.4934 446.899L-12.086 445.413L-12.0844 445.414ZM42.4384 439.09C42.5502 439.041 42.6409 438.962 42.6914 438.862C42.7455 438.755 42.7593 438.633 42.7185 438.519L42.0963 436.768C42.0539 436.653 41.9682 436.565 41.8609 436.518C41.7486 436.469 41.613 436.461 41.481 436.507L31.8522 439.923L32.7752 442.526L41.7657 439.335C41.8544 439.895 41.5046 440.472 40.9143 440.682L32.4213 443.697C32.236 443.763 32.1383 443.967 32.2041 444.152C32.2213 444.202 32.2473 444.244 32.2802 444.279C32.374 444.378 32.5222 444.42 32.6595 444.37L41.1525 441.354C42.1202 441.009 42.6587 440.024 42.4368 439.088L42.4384 439.09Z" fill="white"/>
</g>
</g>
</g>
<g filter="url(#filter8_dddiiii_2462_8455)">
<g clip-path="url(#clip9_2462_8455)">
<path d="M209.923 533.394C206.332 526.117 204.537 522.479 204.582 519.001C204.621 515.942 205.628 512.973 207.458 510.521C209.539 507.734 213.177 505.938 220.454 502.348L234.313 495.509C241.589 491.919 245.228 490.124 248.706 490.168C251.765 490.208 254.733 491.215 257.185 493.045C259.973 495.125 261.768 498.764 265.359 506.04L272.197 519.899C275.788 527.176 277.583 530.814 277.538 534.292C277.499 537.352 276.492 540.32 274.662 542.772C272.581 545.56 268.943 547.355 261.666 550.945L247.807 557.784C240.531 561.374 236.892 563.17 233.414 563.125C230.355 563.086 227.386 562.079 224.934 560.249C222.147 558.168 220.352 554.53 216.761 547.253L209.923 533.394Z" fill="url(#paint4_linear_2462_8455)"/>
<g clip-path="url(#clip10_2462_8455)" filter="url(#filter9_ddi_2462_8455)">
<path fill-rule="evenodd" clip-rule="evenodd" d="M231.483 522.078C235.041 520.322 239.355 521.785 241.11 525.343C242.866 528.901 241.403 533.215 237.845 534.97C234.287 536.726 229.973 535.263 228.218 531.705C226.462 528.147 227.925 523.833 231.483 522.078ZM243.993 531.449C246.976 531.488 249.83 533.161 251.241 536.02L251.242 536.023C251.897 537.35 251.997 538.881 251.522 540.282C251.047 541.682 250.036 542.836 248.709 543.491L237.999 548.776C236.672 549.43 235.14 549.531 233.74 549.056C232.34 548.581 231.185 547.569 230.531 546.243L230.529 546.24C229.119 543.382 229.528 540.099 231.311 537.707C233.733 538.591 236.498 538.522 238.992 537.292C241.484 536.062 243.222 533.909 243.994 531.448L243.993 531.449ZM242.07 521.33C240.242 521.843 238.248 520.998 237.377 519.233L234.959 514.334C233.976 512.341 234.796 509.924 236.789 508.941L245.791 504.499C247.784 503.515 250.201 504.335 251.184 506.328L253.602 511.227C254.585 513.22 253.765 515.637 251.772 516.621L247.441 518.758L245.933 524.126C245.789 524.645 245.336 525.02 244.8 525.066C244.264 525.114 243.754 524.824 243.52 524.338L242.07 521.33Z" fill="#282828"/>
</g>
</g>
</g>
</g>
<defs>
<filter id="filter0_diiiii_2462_8455" x="-37.0469" y="152.953" width="203.157" height="203.157" filterUnits="userSpaceOnUse" color-interpolation-filters="sRGB">
<feFlood flood-opacity="0" result="BackgroundImageFix"/>
<feColorMatrix in="SourceAlpha" type="matrix" values="0 0 0 0 0 0 0 0 0 0 0 0 0 0 0 0 0 0 127 0" result="hardAlpha"/>
<feOffset dx="46.8753" dy="46.8753"/>
<feGaussianBlur stdDeviation="23.4376"/>
<feColorMatrix type="matrix" values="0 0 0 0 0.203922 0 0 0 0 0.913725 0 0 0 0 0.486275 0 0 0 0.1 0"/>
<feBlend mode="normal" in2="BackgroundImageFix" result="effect1_dropShadow_2462_8455"/>
<feBlend mode="normal" in="SourceGraphic" in2="effect1_dropShadow_2462_8455" result="shape"/>
<feColorMatrix in="SourceAlpha" type="matrix" values="0 0 0 0 0 0 0 0 0 0 0 0 0 0 0 0 0 0 127 0" result="hardAlpha"/>
<feOffset dy="4.68753"/>
<feGaussianBlur stdDeviation="2.34376"/>
<feComposite in2="hardAlpha" operator="arithmetic" k2="-1" k3="1"/>
<feColorMatrix type="matrix" values="0 0 0 0 1 0 0 0 0 1 0 0 0 0 1 0 0 0 0.6 0"/>
<feBlend mode="normal" in2="shape" result="effect2_innerShadow_2462_8455"/>
<feColorMatrix in="SourceAlpha" type="matrix" values="0 0 0 0 0 0 0 0 0 0 0 0 0 0 0 0 0 0 127 0" result="hardAlpha"/>
<feOffset dy="2.34376"/>
<feGaussianBlur stdDeviation="1.17188"/>
<feComposite in2="hardAlpha" operator="arithmetic" k2="-1" k3="1"/>
<feColorMatrix type="matrix" values="0 0 0 0 1 0 0 0 0 1 0 0 0 0 1 0 0 0 0.1 0"/>
<feBlend mode="normal" in2="effect2_innerShadow_2462_8455" result="effect3_innerShadow_2462_8455"/>
<feColorMatrix in="SourceAlpha" type="matrix" values="0 0 0 0 0 0 0 0 0 0 0 0 0 0 0 0 0 0 127 0" result="hardAlpha"/>
<feOffset dy="-4.68753"/>
<feGaussianBlur stdDeviation="2.34376"/>
<feComposite in2="hardAlpha" operator="arithmetic" k2="-1" k3="1"/>
<feColorMatrix type="matrix" values="0 0 0 0 0 0 0 0 0 0 0 0 0 0 0 0 0 0 0.05 0"/>
<feBlend mode="normal" in2="effect3_innerShadow_2462_8455" result="effect4_innerShadow_2462_8455"/>
<feColorMatrix in="SourceAlpha" type="matrix" values="0 0 0 0 0 0 0 0 0 0 0 0 0 0 0 0 0 0 127 0" result="hardAlpha"/>
<feOffset dx="4.68753"/>
<feGaussianBlur stdDeviation="2.34376"/>
<feComposite in2="hardAlpha" operator="arithmetic" k2="-1" k3="1"/>
<feColorMatrix type="matrix" values="0 0 0 0 0 0 0 0 0 0 0 0 0 0 0 0 0 0 0.02 0"/>
<feBlend mode="normal" in2="effect4_innerShadow_2462_8455" result="effect5_innerShadow_2462_8455"/>
<feColorMatrix in="SourceAlpha" type="matrix" values="0 0 0 0 0 0 0 0 0 0 0 0 0 0 0 0 0 0 127 0" result="hardAlpha"/>
<feOffset dx="-4.68753"/>
<feGaussianBlur stdDeviation="2.34376"/>
<feComposite in2="hardAlpha" operator="arithmetic" k2="-1" k3="1"/>
<feColorMatrix type="matrix" values="0 0 0 0 0 0 0 0 0 0 0 0 0 0 0 0 0 0 0.02 0"/>
<feBlend mode="normal" in2="effect5_innerShadow_2462_8455" result="effect6_innerShadow_2462_8455"/>
</filter>
<filter id="filter1_ddi_2462_8455" x="-42.7072" y="156.668" width="125.415" height="125.415" filterUnits="userSpaceOnUse" color-interpolation-filters="sRGB">
<feFlood flood-opacity="0" result="BackgroundImageFix"/>
<feColorMatrix in="SourceAlpha" type="matrix" values="0 0 0 0 0 0 0 0 0 0 0 0 0 0 0 0 0 0 127 0" result="hardAlpha"/>
<feOffset dy="9.37505"/>
<feGaussianBlur stdDeviation="11.7188"/>
<feColorMatrix type="matrix" values="0 0 0 0 0 0 0 0 0 0.529167 0 0 0 0 0.338997 0 0 0 0.5 0"/>
<feBlend mode="normal" in2="BackgroundImageFix" result="effect1_dropShadow_2462_8455"/>
<feColorMatrix in="SourceAlpha" type="matrix" values="0 0 0 0 0 0 0 0 0 0 0 0 0 0 0 0 0 0 127 0" result="hardAlpha"/>
<feOffset dy="4.68753"/>
<feGaussianBlur stdDeviation="7.03129"/>
<feColorMatrix type="matrix" values="0 0 0 0 0 0 0 0 0 0.529412 0 0 0 0 0.337255 0 0 0 0.3 0"/>
<feBlend mode="normal" in2="effect1_dropShadow_2462_8455" result="effect2_dropShadow_2462_8455"/>
<feBlend mode="normal" in="SourceGraphic" in2="effect2_dropShadow_2462_8455" result="shape"/>
<feColorMatrix in="SourceAlpha" type="matrix" values="0 0 0 0 0 0 0 0 0 0 0 0 0 0 0 0 0 0 127 0" result="hardAlpha"/>
<feOffset dx="-2.34376" dy="-2.34376"/>
<feGaussianBlur stdDeviation="1.17188"/>
<feComposite in2="hardAlpha" operator="arithmetic" k2="-1" k3="1"/>
<feColorMatrix type="matrix" values="0 0 0 0 0.4 0 0 0 0 1 0 0 0 0 0.784314 0 0 0 0.24 0"/>
<feBlend mode="normal" in2="shape" result="effect3_innerShadow_2462_8455"/>
</filter>
<filter id="filter2_dddiiii_2462_8455" x="387.195" y="-3.80475" width="165.66" height="165.66" filterUnits="userSpaceOnUse" color-interpolation-filters="sRGB">
<feFlood flood-opacity="0" result="BackgroundImageFix"/>
<feColorMatrix in="SourceAlpha" type="matrix" values="0 0 0 0 0 0 0 0 0 0 0 0 0 0 0 0 0 0 127 0" result="hardAlpha"/>
<feOffset dx="38.0475" dy="38.0475"/>
<feGaussianBlur stdDeviation="19.0237"/>
<feColorMatrix type="matrix" values="0 0 0 0 0.960784 0 0 0 0 0.32549 0 0 0 0 0.32549 0 0 0 0.1 0"/>
<feBlend mode="normal" in2="BackgroundImageFix" result="effect1_dropShadow_2462_8455"/>
<feColorMatrix in="SourceAlpha" type="matrix" values="0 0 0 0 0 0 0 0 0 0 0 0 0 0 0 0 0 0 127 0" result="hardAlpha"/>
<feOffset dx="15.219" dy="15.219"/>
<feGaussianBlur stdDeviation="7.6095"/>
<feColorMatrix type="matrix" values="0 0 0 0 0.960784 0 0 0 0 0.32549 0 0 0 0 0.32549 0 0 0 0.1 0"/>
<feBlend mode="normal" in2="effect1_dropShadow_2462_8455" result="effect2_dropShadow_2462_8455"/>
<feColorMatrix in="SourceAlpha" type="matrix" values="0 0 0 0 0 0 0 0 0 0 0 0 0 0 0 0 0 0 127 0" result="hardAlpha"/>
<feOffset dx="7.6095" dy="7.6095"/>
<feGaussianBlur stdDeviation="3.80475"/>
<feColorMatrix type="matrix" values="0 0 0 0 0.960784 0 0 0 0 0.32549 0 0 0 0 0.32549 0 0 0 0.2 0"/>
<feBlend mode="normal" in2="effect2_dropShadow_2462_8455" result="effect3_dropShadow_2462_8455"/>
<feBlend mode="normal" in="SourceGraphic" in2="effect3_dropShadow_2462_8455" result="shape"/>
<feColorMatrix in="SourceAlpha" type="matrix" values="0 0 0 0 0 0 0 0 0 0 0 0 0 0 0 0 0 0 127 0" result="hardAlpha"/>
<feOffset dy="1.90237"/>
<feGaussianBlur stdDeviation="0.951187"/>
<feComposite in2="hardAlpha" operator="arithmetic" k2="-1" k3="1"/>
<feColorMatrix type="matrix" values="0 0 0 0 1 0 0 0 0 1 0 0 0 0 1 0 0 0 0.1 0"/>
<feBlend mode="normal" in2="shape" result="effect4_innerShadow_2462_8455"/>
<feColorMatrix in="SourceAlpha" type="matrix" values="0 0 0 0 0 0 0 0 0 0 0 0 0 0 0 0 0 0 127 0" result="hardAlpha"/>
<feOffset dy="-3.80475"/>
<feGaussianBlur stdDeviation="1.90237"/>
<feComposite in2="hardAlpha" operator="arithmetic" k2="-1" k3="1"/>
<feColorMatrix type="matrix" values="0 0 0 0 0 0 0 0 0 0 0 0 0 0 0 0 0 0 0.05 0"/>
<feBlend mode="normal" in2="effect4_innerShadow_2462_8455" result="effect5_innerShadow_2462_8455"/>
<feColorMatrix in="SourceAlpha" type="matrix" values="0 0 0 0 0 0 0 0 0 0 0 0 0 0 0 0 0 0 127 0" result="hardAlpha"/>
<feOffset dx="3.80475"/>
<feGaussianBlur stdDeviation="1.90237"/>
<feComposite in2="hardAlpha" operator="arithmetic" k2="-1" k3="1"/>
<feColorMatrix type="matrix" values="0 0 0 0 0 0 0 0 0 0 0 0 0 0 0 0 0 0 0.02 0"/>
<feBlend mode="normal" in2="effect5_innerShadow_2462_8455" result="effect6_innerShadow_2462_8455"/>
<feColorMatrix in="SourceAlpha" type="matrix" values="0 0 0 0 0 0 0 0 0 0 0 0 0 0 0 0 0 0 127 0" result="hardAlpha"/>
<feOffset dx="-3.80475"/>
<feGaussianBlur stdDeviation="1.90237"/>
<feComposite in2="hardAlpha" operator="arithmetic" k2="-1" k3="1"/>
<feColorMatrix type="matrix" values="0 0 0 0 0 0 0 0 0 0 0 0 0 0 0 0 0 0 0.02 0"/>
<feBlend mode="normal" in2="effect6_innerShadow_2462_8455" result="effect7_innerShadow_2462_8455"/>
</filter>
<filter id="filter3_dd_2462_8455" x="382.696" y="-0.694122" width="102.368" height="102.368" filterUnits="userSpaceOnUse" color-interpolation-filters="sRGB">
<feFlood flood-opacity="0" result="BackgroundImageFix"/>
<feColorMatrix in="SourceAlpha" type="matrix" values="0 0 0 0 0 0 0 0 0 0 0 0 0 0 0 0 0 0 127 0" result="hardAlpha"/>
<feOffset dy="7.6095"/>
<feGaussianBlur stdDeviation="9.51187"/>
<feColorMatrix type="matrix" values="0 0 0 0 0.658333 0 0 0 0 0.0411459 0 0 0 0 0.0411459 0 0 0 0.5 0"/>
<feBlend mode="normal" in2="BackgroundImageFix" result="effect1_dropShadow_2462_8455"/>
<feColorMatrix in="SourceAlpha" type="matrix" values="0 0 0 0 0 0 0 0 0 0 0 0 0 0 0 0 0 0 127 0" result="hardAlpha"/>
<feOffset dy="3.80475"/>
<feGaussianBlur stdDeviation="5.70712"/>
<feColorMatrix type="matrix" values="0 0 0 0 0.658824 0 0 0 0 0.0392157 0 0 0 0 0.0392157 0 0 0 0.3 0"/>
<feBlend mode="normal" in2="effect1_dropShadow_2462_8455" result="effect2_dropShadow_2462_8455"/>
<feBlend mode="normal" in="SourceGraphic" in2="effect2_dropShadow_2462_8455" result="shape"/>
</filter>
<filter id="filter4_dddiiii_2462_8455" x="386.123" y="281.026" width="176.621" height="176.621" filterUnits="userSpaceOnUse" color-interpolation-filters="sRGB">
<feFlood flood-opacity="0" result="BackgroundImageFix"/>
<feColorMatrix in="SourceAlpha" type="matrix" values="0 0 0 0 0 0 0 0 0 0 0 0 0 0 0 0 0 0 127 0" result="hardAlpha"/>
<feOffset dx="40.5153" dy="40.5153"/>
<feGaussianBlur stdDeviation="20.2576"/>
<feColorMatrix type="matrix" values="0 0 0 0 0.87451 0 0 0 0 0.486275 0 0 0 0 0.937255 0 0 0 0.1 0"/>
<feBlend mode="normal" in2="BackgroundImageFix" result="effect1_dropShadow_2462_8455"/>
<feColorMatrix in="SourceAlpha" type="matrix" values="0 0 0 0 0 0 0 0 0 0 0 0 0 0 0 0 0 0 127 0" result="hardAlpha"/>
<feOffset dx="16.2061" dy="16.2061"/>
<feGaussianBlur stdDeviation="8.10306"/>
<feColorMatrix type="matrix" values="0 0 0 0 0.87451 0 0 0 0 0.486275 0 0 0 0 0.937255 0 0 0 0.1 0"/>
<feBlend mode="normal" in2="effect1_dropShadow_2462_8455" result="effect2_dropShadow_2462_8455"/>
<feColorMatrix in="SourceAlpha" type="matrix" values="0 0 0 0 0 0 0 0 0 0 0 0 0 0 0 0 0 0 127 0" result="hardAlpha"/>
<feOffset dx="8.10306" dy="8.10306"/>
<feGaussianBlur stdDeviation="4.05153"/>
<feColorMatrix type="matrix" values="0 0 0 0 0.87451 0 0 0 0 0.486275 0 0 0 0 0.937255 0 0 0 0.2 0"/>
<feBlend mode="normal" in2="effect2_dropShadow_2462_8455" result="effect3_dropShadow_2462_8455"/>
<feBlend mode="normal" in="SourceGraphic" in2="effect3_dropShadow_2462_8455" result="shape"/>
<feColorMatrix in="SourceAlpha" type="matrix" values="0 0 0 0 0 0 0 0 0 0 0 0 0 0 0 0 0 0 127 0" result="hardAlpha"/>
<feOffset dy="2.02576"/>
<feGaussianBlur stdDeviation="1.01288"/>
<feComposite in2="hardAlpha" operator="arithmetic" k2="-1" k3="1"/>
<feColorMatrix type="matrix" values="0 0 0 0 1 0 0 0 0 1 0 0 0 0 1 0 0 0 0.1 0"/>
<feBlend mode="normal" in2="shape" result="effect4_innerShadow_2462_8455"/>
<feColorMatrix in="SourceAlpha" type="matrix" values="0 0 0 0 0 0 0 0 0 0 0 0 0 0 0 0 0 0 127 0" result="hardAlpha"/>
<feOffset dy="-4.05153"/>
<feGaussianBlur stdDeviation="2.02576"/>
<feComposite in2="hardAlpha" operator="arithmetic" k2="-1" k3="1"/>
<feColorMatrix type="matrix" values="0 0 0 0 0 0 0 0 0 0 0 0 0 0 0 0 0 0 0.05 0"/>
<feBlend mode="normal" in2="effect4_innerShadow_2462_8455" result="effect5_innerShadow_2462_8455"/>
<feColorMatrix in="SourceAlpha" type="matrix" values="0 0 0 0 0 0 0 0 0 0 0 0 0 0 0 0 0 0 127 0" result="hardAlpha"/>
<feOffset dx="4.05153"/>
<feGaussianBlur stdDeviation="2.02576"/>
<feComposite in2="hardAlpha" operator="arithmetic" k2="-1" k3="1"/>
<feColorMatrix type="matrix" values="0 0 0 0 0 0 0 0 0 0 0 0 0 0 0 0 0 0 0.02 0"/>
<feBlend mode="normal" in2="effect5_innerShadow_2462_8455" result="effect6_innerShadow_2462_8455"/>
<feColorMatrix in="SourceAlpha" type="matrix" values="0 0 0 0 0 0 0 0 0 0 0 0 0 0 0 0 0 0 127 0" result="hardAlpha"/>
<feOffset dx="-4.05153"/>
<feGaussianBlur stdDeviation="2.02576"/>
<feComposite in2="hardAlpha" operator="arithmetic" k2="-1" k3="1"/>
<feColorMatrix type="matrix" values="0 0 0 0 0 0 0 0 0 0 0 0 0 0 0 0 0 0 0.02 0"/>
<feBlend mode="normal" in2="effect6_innerShadow_2462_8455" result="effect7_innerShadow_2462_8455"/>
</filter>
<filter id="filter5_dd_2462_8455" x="381.378" y="284.382" width="109.169" height="109.169" filterUnits="userSpaceOnUse" color-interpolation-filters="sRGB">
<feFlood flood-opacity="0" result="BackgroundImageFix"/>
<feColorMatrix in="SourceAlpha" type="matrix" values="0 0 0 0 0 0 0 0 0 0 0 0 0 0 0 0 0 0 127 0" result="hardAlpha"/>
<feOffset dy="8.10306"/>
<feGaussianBlur stdDeviation="10.1288"/>
<feColorMatrix type="matrix" values="0 0 0 0 1 0 0 0 0 1 0 0 0 0 1 0 0 0 0.5 0"/>
<feBlend mode="normal" in2="BackgroundImageFix" result="effect1_dropShadow_2462_8455"/>
<feColorMatrix in="SourceAlpha" type="matrix" values="0 0 0 0 0 0 0 0 0 0 0 0 0 0 0 0 0 0 127 0" result="hardAlpha"/>
<feOffset dy="4.05153"/>
<feGaussianBlur stdDeviation="6.07729"/>
<feColorMatrix type="matrix" values="0 0 0 0 1 0 0 0 0 1 0 0 0 0 1 0 0 0 0.3 0"/>
<feBlend mode="normal" in2="effect1_dropShadow_2462_8455" result="effect2_dropShadow_2462_8455"/>
<feBlend mode="normal" in="SourceGraphic" in2="effect2_dropShadow_2462_8455" result="shape"/>
</filter>
<filter id="filter6_diiii_2462_8455" x="-45.1973" y="380.831" width="204.459" height="204.458" filterUnits="userSpaceOnUse" color-interpolation-filters="sRGB">
<feFlood flood-opacity="0" result="BackgroundImageFix"/>
<feColorMatrix in="SourceAlpha" type="matrix" values="0 0 0 0 0 0 0 0 0 0 0 0 0 0 0 0 0 0 127 0" result="hardAlpha"/>
<feOffset dx="46.8753" dy="46.8753"/>
<feGaussianBlur stdDeviation="23.4376"/>
<feColorMatrix type="matrix" values="0 0 0 0 1 0 0 0 0 0.662745 0 0 0 0 0.270588 0 0 0 0.1 0"/>
<feBlend mode="normal" in2="BackgroundImageFix" result="effect1_dropShadow_2462_8455"/>
<feBlend mode="normal" in="SourceGraphic" in2="effect1_dropShadow_2462_8455" result="shape"/>
<feColorMatrix in="SourceAlpha" type="matrix" values="0 0 0 0 0 0 0 0 0 0 0 0 0 0 0 0 0 0 127 0" result="hardAlpha"/>
<feOffset dy="2.34376"/>
<feGaussianBlur stdDeviation="1.17188"/>
<feComposite in2="hardAlpha" operator="arithmetic" k2="-1" k3="1"/>
<feColorMatrix type="matrix" values="0 0 0 0 1 0 0 0 0 1 0 0 0 0 1 0 0 0 0.1 0"/>
<feBlend mode="normal" in2="shape" result="effect2_innerShadow_2462_8455"/>
<feColorMatrix in="SourceAlpha" type="matrix" values="0 0 0 0 0 0 0 0 0 0 0 0 0 0 0 0 0 0 127 0" result="hardAlpha"/>
<feOffset dy="-4.68753"/>
<feGaussianBlur stdDeviation="2.34376"/>
<feComposite in2="hardAlpha" operator="arithmetic" k2="-1" k3="1"/>
<feColorMatrix type="matrix" values="0 0 0 0 0 0 0 0 0 0 0 0 0 0 0 0 0 0 0.05 0"/>
<feBlend mode="normal" in2="effect2_innerShadow_2462_8455" result="effect3_innerShadow_2462_8455"/>
<feColorMatrix in="SourceAlpha" type="matrix" values="0 0 0 0 0 0 0 0 0 0 0 0 0 0 0 0 0 0 127 0" result="hardAlpha"/>
<feOffset dx="4.68753"/>
<feGaussianBlur stdDeviation="2.34376"/>
<feComposite in2="hardAlpha" operator="arithmetic" k2="-1" k3="1"/>
<feColorMatrix type="matrix" values="0 0 0 0 0 0 0 0 0 0 0 0 0 0 0 0 0 0 0.02 0"/>
<feBlend mode="normal" in2="effect3_innerShadow_2462_8455" result="effect4_innerShadow_2462_8455"/>
<feColorMatrix in="SourceAlpha" type="matrix" values="0 0 0 0 0 0 0 0 0 0 0 0 0 0 0 0 0 0 127 0" result="hardAlpha"/>
<feOffset dx="-4.68753"/>
<feGaussianBlur stdDeviation="2.34376"/>
<feComposite in2="hardAlpha" operator="arithmetic" k2="-1" k3="1"/>
<feColorMatrix type="matrix" values="0 0 0 0 0 0 0 0 0 0 0 0 0 0 0 0 0 0 0.02 0"/>
<feBlend mode="normal" in2="effect4_innerShadow_2462_8455" result="effect5_innerShadow_2462_8455"/>
</filter>
<filter id="filter7_ddi_2462_8455" x="-50.695" y="384.708" width="126.39" height="126.39" filterUnits="userSpaceOnUse" color-interpolation-filters="sRGB">
<feFlood flood-opacity="0" result="BackgroundImageFix"/>
<feColorMatrix in="SourceAlpha" type="matrix" values="0 0 0 0 0 0 0 0 0 0 0 0 0 0 0 0 0 0 127 0" result="hardAlpha"/>
<feOffset dy="9.37505"/>
<feGaussianBlur stdDeviation="11.7188"/>
<feColorMatrix type="matrix" values="0 0 0 0 0.792157 0 0 0 0 0.439216 0 0 0 0 0.0313726 0 0 0 0.5 0"/>
<feBlend mode="normal" in2="BackgroundImageFix" result="effect1_dropShadow_2462_8455"/>
<feColorMatrix in="SourceAlpha" type="matrix" values="0 0 0 0 0 0 0 0 0 0 0 0 0 0 0 0 0 0 127 0" result="hardAlpha"/>
<feOffset dy="4.68753"/>
<feGaussianBlur stdDeviation="7.03129"/>
<feColorMatrix type="matrix" values="0 0 0 0 0.791667 0 0 0 0 0.440879 0 0 0 0 0.0329861 0 0 0 0.3 0"/>
<feBlend mode="normal" in2="effect1_dropShadow_2462_8455" result="effect2_dropShadow_2462_8455"/>
<feBlend mode="normal" in="SourceGraphic" in2="effect2_dropShadow_2462_8455" result="shape"/>
<feColorMatrix in="SourceAlpha" type="matrix" values="0 0 0 0 0 0 0 0 0 0 0 0 0 0 0 0 0 0 127 0" result="hardAlpha"/>
<feOffset dx="-1.17188" dy="-1.17188"/>
<feGaussianBlur stdDeviation="0.585941"/>
<feComposite in2="hardAlpha" operator="arithmetic" k2="-1" k3="1"/>
<feColorMatrix type="matrix" values="0 0 0 0 1 0 0 0 0 0.662745 0 0 0 0 0.270588 0 0 0 0.24 0"/>
<feBlend mode="normal" in2="shape" result="effect3_innerShadow_2462_8455"/>
</filter>
<filter id="filter8_dddiiii_2462_8455" x="195.801" y="481.388" width="163.925" height="163.925" filterUnits="userSpaceOnUse" color-interpolation-filters="sRGB">
<feFlood flood-opacity="0" result="BackgroundImageFix"/>
<feColorMatrix in="SourceAlpha" type="matrix" values="0 0 0 0 0 0 0 0 0 0 0 0 0 0 0 0 0 0 127 0" result="hardAlpha"/>
<feOffset dx="38.6358" dy="38.6358"/>
<feGaussianBlur stdDeviation="19.3179"/>
<feColorMatrix type="matrix" values="0 0 0 0 0.458824 0 0 0 0 0.458824 0 0 0 0 0.458824 0 0 0 0.1 0"/>
<feBlend mode="normal" in2="BackgroundImageFix" result="effect1_dropShadow_2462_8455"/>
<feColorMatrix in="SourceAlpha" type="matrix" values="0 0 0 0 0 0 0 0 0 0 0 0 0 0 0 0 0 0 127 0" result="hardAlpha"/>
<feOffset dx="15.4543" dy="15.4543"/>
<feGaussianBlur stdDeviation="7.72717"/>
<feColorMatrix type="matrix" values="0 0 0 0 0.458824 0 0 0 0 0.458824 0 0 0 0 0.458824 0 0 0 0.1 0"/>
<feBlend mode="normal" in2="effect1_dropShadow_2462_8455" result="effect2_dropShadow_2462_8455"/>
<feColorMatrix in="SourceAlpha" type="matrix" values="0 0 0 0 0 0 0 0 0 0 0 0 0 0 0 0 0 0 127 0" result="hardAlpha"/>
<feOffset dx="7.72717" dy="7.72717"/>
<feGaussianBlur stdDeviation="3.86358"/>
<feColorMatrix type="matrix" values="0 0 0 0 0.458333 0 0 0 0 0.458333 0 0 0 0 0.458333 0 0 0 0.2 0"/>
<feBlend mode="normal" in2="effect2_dropShadow_2462_8455" result="effect3_dropShadow_2462_8455"/>
<feBlend mode="normal" in="SourceGraphic" in2="effect3_dropShadow_2462_8455" result="shape"/>
<feColorMatrix in="SourceAlpha" type="matrix" values="0 0 0 0 0 0 0 0 0 0 0 0 0 0 0 0 0 0 127 0" result="hardAlpha"/>
<feOffset dy="1.93179"/>
<feGaussianBlur stdDeviation="0.965896"/>
<feComposite in2="hardAlpha" operator="arithmetic" k2="-1" k3="1"/>
<feColorMatrix type="matrix" values="0 0 0 0 1 0 0 0 0 1 0 0 0 0 1 0 0 0 0.1 0"/>
<feBlend mode="normal" in2="shape" result="effect4_innerShadow_2462_8455"/>
<feColorMatrix in="SourceAlpha" type="matrix" values="0 0 0 0 0 0 0 0 0 0 0 0 0 0 0 0 0 0 127 0" result="hardAlpha"/>
<feOffset dy="-3.86358"/>
<feGaussianBlur stdDeviation="1.93179"/>
<feComposite in2="hardAlpha" operator="arithmetic" k2="-1" k3="1"/>
<feColorMatrix type="matrix" values="0 0 0 0 0 0 0 0 0 0 0 0 0 0 0 0 0 0 0.05 0"/>
<feBlend mode="normal" in2="effect4_innerShadow_2462_8455" result="effect5_innerShadow_2462_8455"/>
<feColorMatrix in="SourceAlpha" type="matrix" values="0 0 0 0 0 0 0 0 0 0 0 0 0 0 0 0 0 0 127 0" result="hardAlpha"/>
<feOffset dx="3.86358"/>
<feGaussianBlur stdDeviation="1.93179"/>
<feComposite in2="hardAlpha" operator="arithmetic" k2="-1" k3="1"/>
<feColorMatrix type="matrix" values="0 0 0 0 0 0 0 0 0 0 0 0 0 0 0 0 0 0 0.02 0"/>
<feBlend mode="normal" in2="effect5_innerShadow_2462_8455" result="effect6_innerShadow_2462_8455"/>
<feColorMatrix in="SourceAlpha" type="matrix" values="0 0 0 0 0 0 0 0 0 0 0 0 0 0 0 0 0 0 127 0" result="hardAlpha"/>
<feOffset dx="-3.86358"/>
<feGaussianBlur stdDeviation="1.93179"/>
<feComposite in2="hardAlpha" operator="arithmetic" k2="-1" k3="1"/>
<feColorMatrix type="matrix" values="0 0 0 0 0 0 0 0 0 0 0 0 0 0 0 0 0 0 0.02 0"/>
<feBlend mode="normal" in2="effect6_innerShadow_2462_8455" result="effect7_innerShadow_2462_8455"/>
</filter>
<filter id="filter9_ddi_2462_8455" x="190.696" y="484.01" width="100.728" height="100.728" filterUnits="userSpaceOnUse" color-interpolation-filters="sRGB">
<feFlood flood-opacity="0" result="BackgroundImageFix"/>
<feColorMatrix in="SourceAlpha" type="matrix" values="0 0 0 0 0 0 0 0 0 0 0 0 0 0 0 0 0 0 127 0" result="hardAlpha"/>
<feOffset dy="7.72717"/>
<feGaussianBlur stdDeviation="9.65896"/>
<feColorMatrix type="matrix" values="0 0 0 0 0.770833 0 0 0 0 0.770833 0 0 0 0 0.770833 0 0 0 0.5 0"/>
<feBlend mode="normal" in2="BackgroundImageFix" result="effect1_dropShadow_2462_8455"/>
<feColorMatrix in="SourceAlpha" type="matrix" values="0 0 0 0 0 0 0 0 0 0 0 0 0 0 0 0 0 0 127 0" result="hardAlpha"/>
<feOffset dy="3.86358"/>
<feGaussianBlur stdDeviation="5.79538"/>
<feColorMatrix type="matrix" values="0 0 0 0 0.772549 0 0 0 0 0.772549 0 0 0 0 0.772549 0 0 0 0.3 0"/>
<feBlend mode="normal" in2="effect1_dropShadow_2462_8455" result="effect2_dropShadow_2462_8455"/>
<feBlend mode="normal" in="SourceGraphic" in2="effect2_dropShadow_2462_8455" result="shape"/>
<feColorMatrix in="SourceAlpha" type="matrix" values="0 0 0 0 0 0 0 0 0 0 0 0 0 0 0 0 0 0 127 0" result="hardAlpha"/>
<feOffset dx="-0.965896" dy="-0.965896"/>
<feGaussianBlur stdDeviation="0.482948"/>
<feComposite in2="hardAlpha" operator="arithmetic" k2="-1" k3="1"/>
<feColorMatrix type="matrix" values="0 0 0 0 1 0 0 0 0 1 0 0 0 0 1 0 0 0 0.16 0"/>
<feBlend mode="normal" in2="shape" result="effect3_innerShadow_2462_8455"/>
</filter>
<linearGradient id="paint0_linear_2462_8455" x1="11.5742" y1="157.641" x2="-4.02579" y2="243.242" gradientUnits="userSpaceOnUse">
<stop stop-color="#66FFC8"/>
<stop offset="1" stop-color="#34E97C"/>
</linearGradient>
<linearGradient id="paint1_linear_2462_8455" x1="391" y1="46.6525" x2="459.393" y2="64.2674" gradientUnits="userSpaceOnUse">
<stop stop-color="#FF668B"/>
<stop offset="1" stop-color="#F55353"/>
</linearGradient>
<linearGradient id="paint2_linear_2462_8455" x1="390.174" y1="333.353" x2="462.344" y2="354.506" gradientUnits="userSpaceOnUse">
<stop stop-color="#7BADF8"/>
<stop offset="1" stop-color="#BE6CFF"/>
</linearGradient>
<linearGradient id="paint3_linear_2462_8455" x1="14.0684" y1="385.518" x2="-17.347" y2="466.661" gradientUnits="userSpaceOnUse">
<stop stop-color="#FFD260"/>
<stop offset="1" stop-color="#FFA945"/>
<stop offset="1" stop-color="#FFA945"/>
</linearGradient>
<linearGradient id="paint4_linear_2462_8455" x1="199.665" y1="512.605" x2="256.019" y2="556.963" gradientUnits="userSpaceOnUse">
<stop stop-color="#FBFBFB"/>
<stop offset="1" stop-color="#DEDEDE"/>
</linearGradient>
<clipPath id="clip0_2462_8455">
<rect width="454" height="548" rx="12" fill="white"/>
</clipPath>
<clipPath id="clip1_2462_8455">
<path d="M-4.90085 180.435C0.865965 172.456 3.74937 168.467 7.5048 166.542C10.8082 164.848 14.5629 164.244 18.2307 164.816C22.4006 165.465 26.39 168.349 34.3689 174.116L49.5653 185.099C57.5442 190.866 61.5336 193.749 63.4589 197.505C65.1524 200.808 65.7566 204.563 65.185 208.231C64.5351 212.4 61.6517 216.39 55.8849 224.369L44.9015 239.565C39.1347 247.544 36.2513 251.534 32.4959 253.459C29.1925 255.152 25.4378 255.757 21.77 255.185C17.6001 254.535 13.6107 251.652 5.63181 245.885L-9.56462 234.901C-17.5435 229.135 -21.5329 226.251 -23.4582 222.496C-25.1517 219.192 -25.7559 215.438 -25.1843 211.77C-24.5344 207.6 -21.651 203.611 -15.8842 195.632L-4.90085 180.435Z" fill="white"/>
</clipPath>
<clipPath id="clip2_2462_8455">
<rect width="56.2503" height="56.2503" fill="white" transform="translate(13.6807 170.731) rotate(35.8579)"/>
</clipPath>
<clipPath id="clip3_2462_8455">
<path d="M408.495 61.3179C402.371 56.1845 399.309 53.6178 397.969 50.4654C396.791 47.6924 396.52 44.6175 397.196 41.6813C397.965 38.3434 400.532 35.2815 405.665 29.1578L415.442 17.4947C420.576 11.371 423.143 8.30912 426.295 6.96919C429.068 5.79057 432.143 5.52006 435.079 6.19644C438.417 6.96539 441.479 9.53209 447.603 14.6655L459.266 24.4425C465.389 29.5759 468.451 32.1426 469.791 35.295C470.97 38.068 471.24 41.1429 470.564 44.0791C469.795 47.4171 467.228 50.4789 462.095 56.6026L452.318 68.2657C447.185 74.3894 444.618 77.4513 441.465 78.7912C438.692 79.9698 435.617 80.2404 432.681 79.564C429.343 78.795 426.281 76.2283 420.158 71.0949L408.495 61.3179Z" fill="white"/>
</clipPath>
<clipPath id="clip4_2462_8455">
<rect width="45.657" height="45.657" fill="white" transform="translate(401.72 45.7095) rotate(-50.0275)"/>
</clipPath>
<clipPath id="clip5_2462_8455">
<path d="M408.278 349.576C401.941 343.898 398.772 341.058 397.457 337.656C396.3 334.663 396.121 331.381 396.944 328.28C397.88 324.755 400.719 321.586 406.398 315.249L417.214 303.181C422.893 296.844 425.732 293.676 429.134 292.361C432.127 291.204 435.409 291.024 438.51 291.847C442.036 292.783 445.204 295.622 451.541 301.301L463.61 312.117C469.946 317.796 473.115 320.635 474.43 324.038C475.587 327.03 475.766 330.312 474.943 333.414C474.007 336.939 471.168 340.107 465.489 346.444L454.673 358.513C448.994 364.85 446.155 368.018 442.753 369.333C439.76 370.49 436.478 370.67 433.377 369.846C429.851 368.911 426.683 366.071 420.346 360.392L408.278 349.576Z" fill="white"/>
</clipPath>
<clipPath id="clip6_2462_8455">
<rect width="48.6183" height="48.6183" fill="white" transform="translate(401.635 332.743) rotate(-48.1338)"/>
</clipPath>
<clipPath id="clip7_2462_8455">
<path d="M-6.39842 404.809C0.765627 398.057 4.34765 394.681 8.39806 393.496C11.9609 392.454 15.7622 392.566 19.2573 393.817C23.2305 395.239 26.6068 398.821 33.3592 405.985L46.2197 419.63C52.9721 426.794 56.3484 430.376 57.5332 434.426C58.5755 437.989 58.463 441.79 57.212 445.285C55.7898 449.259 52.2078 452.635 45.0438 459.387L31.3993 472.248C24.2352 479 20.6532 482.376 16.6028 483.561C13.0399 484.604 9.2386 484.491 5.74359 483.24C1.77029 481.818 -1.60592 478.236 -8.35834 471.072L-21.2189 457.427C-27.9713 450.263 -31.3475 446.681 -32.5324 442.631C-33.5746 439.068 -33.4622 435.267 -32.2112 431.772C-30.789 427.798 -27.207 424.422 -20.0429 417.67L-6.39842 404.809Z" fill="white"/>
</clipPath>
<clipPath id="clip8_2462_8455">
<rect width="56.2503" height="56.2503" fill="white" transform="translate(13.6763 398.771) rotate(46.6942)"/>
</clipPath>
<clipPath id="clip9_2462_8455">
<path d="M209.923 533.394C206.332 526.117 204.537 522.479 204.582 519.001C204.621 515.942 205.628 512.973 207.458 510.521C209.539 507.734 213.177 505.938 220.454 502.348L234.313 495.509C241.589 491.919 245.228 490.124 248.706 490.168C251.765 490.208 254.733 491.215 257.185 493.045C259.973 495.125 261.768 498.764 265.359 506.04L272.197 519.899C275.788 527.176 277.583 530.814 277.538 534.292C277.499 537.352 276.492 540.32 274.662 542.772C272.581 545.56 268.943 547.355 261.666 550.945L247.807 557.784C240.531 561.374 236.892 563.17 233.414 563.125C230.355 563.086 227.386 562.079 224.934 560.249C222.147 558.168 220.352 554.53 216.761 547.253L209.923 533.394Z" fill="white"/>
</clipPath>
<clipPath id="clip10_2462_8455">
<rect width="46.363" height="46.363" fill="white" transform="translate(210.014 516.116) rotate(-26.2631)"/>
</clipPath>
</defs>
</svg>
