<svg width="478" height="572" viewBox="0 0 478 572" fill="none" xmlns="http://www.w3.org/2000/svg">
<g filter="url(#filter0_di_2462_8455)">
<g clip-path="url(#clip0_2462_8455)">
<g filter="url(#filter1_diiiii_2462_8455)">
<g clip-path="url(#clip1_2462_8455)">
<path d="M1.09915 186.435C6.86596 178.456 9.74937 174.467 13.5048 172.542C16.8082 170.848 20.5629 170.244 24.2307 170.816C28.4006 171.465 32.39 174.349 40.3689 180.116L55.5653 191.099C63.5442 196.866 67.5336 199.749 69.4589 203.505C71.1524 206.808 71.7566 210.563 71.185 214.231C70.5351 218.4 67.6517 222.39 61.8849 230.369L50.9015 245.565C45.1347 253.544 42.2513 257.534 38.4959 259.459C35.1925 261.152 31.4378 261.757 27.77 261.185C23.6001 260.535 19.6107 257.652 11.6318 251.885L-3.56462 240.901C-11.5435 235.135 -15.5329 232.251 -17.4582 228.496C-19.1517 225.192 -19.7559 221.438 -19.1843 217.77C-18.5344 213.6 -15.651 209.611 -9.88423 201.632L1.09915 186.435Z" fill="url(#paint0_linear_2462_8455)" fill-opacity="0.72"/>
<g clip-path="url(#clip2_2462_8455)" filter="url(#filter2_ddi_2462_8455)">
<path d="M39.3522 244.238L39.7276 242.645C39.8502 242.301 39.8695 241.928 39.7831 241.573C39.6968 241.219 39.5085 240.897 39.2416 240.648L54.5335 219.49C54.9479 218.915 55.1173 218.199 55.0045 217.5C54.8917 216.8 54.5059 216.174 53.9318 215.759L16.5365 188.731C15.962 188.317 15.2466 188.147 14.5473 188.26C13.8479 188.372 13.2218 188.757 12.8062 189.331L-2.49656 210.504C-2.80851 210.37 -3.15044 210.321 -3.48741 210.362C-3.82438 210.404 -4.14429 210.534 -4.41443 210.74L-5.80999 211.597C-6.04947 211.738 -6.24967 211.937 -6.39221 212.175C-6.53474 212.414 -6.61505 212.685 -6.62575 212.962C-6.63478 213.251 -6.57438 213.537 -6.44963 213.798C-6.32487 214.058 -6.13942 214.284 -5.90888 214.458L36.6663 245.23C36.9035 245.394 37.1768 245.499 37.4631 245.536C37.7494 245.573 38.0403 245.54 38.3114 245.441C38.5718 245.344 38.8035 245.183 38.9854 244.973C39.1672 244.762 39.2933 244.51 39.3522 244.238ZM38.004 239.745L21.9325 228.129C21.8472 228.068 21.7502 228.024 21.6475 228.002L18.9543 227.413L16.5652 225.686L15.1611 223.314C15.1075 223.223 15.0359 223.145 14.9507 223.083L-1.24102 211.38L14.0471 190.228C14.2246 189.983 14.4919 189.819 14.7905 189.771C15.089 189.723 15.3944 189.795 15.6396 189.972L30.2245 200.513L29.8152 201.08C29.5499 201.448 29.4415 201.906 29.5137 202.354C29.5858 202.802 29.8327 203.203 30.2001 203.469L35.772 207.496C36.14 207.762 36.5982 207.87 37.0461 207.798C37.4941 207.726 37.8951 207.479 38.1614 207.112L38.5708 206.546L53.035 217C53.2798 217.177 53.4443 217.444 53.4923 217.743C53.5403 218.041 53.468 218.347 53.2912 218.592L38.004 239.745ZM38.8639 208.6C38.9828 208.436 39.1623 208.325 39.3628 208.293C39.5633 208.26 39.7684 208.309 39.9331 208.428L40.5757 208.892C40.7341 209.014 40.8389 209.192 40.8678 209.389C40.8968 209.587 40.8476 209.788 40.7307 209.949C40.6139 210.111 40.4386 210.221 40.2421 210.255C40.0456 210.29 39.8434 210.246 39.6785 210.134L39.0359 209.669C38.8715 209.55 38.761 209.371 38.7287 209.17C38.6965 208.97 38.7451 208.765 38.8639 208.6ZM40.9339 221.018L31.3842 208.094C31.29 207.966 31.1584 207.871 31.0076 207.821L15.7416 202.81C15.5874 202.76 15.4211 202.76 15.2668 202.81C15.1125 202.86 14.9782 202.958 14.8831 203.09C14.7881 203.221 14.7372 203.379 14.7379 203.542C14.7386 203.704 14.7908 203.862 14.887 203.992L18.9575 209.502L15.1209 214.81C15.0356 214.928 14.9853 215.067 14.9761 215.212C14.9668 215.356 14.9989 215.501 15.0686 215.628C16.49 218.234 18.4766 220.49 20.8827 222.229C23.2888 223.968 26.0535 225.146 28.9742 225.678C29.1165 225.705 29.2634 225.69 29.3978 225.636C29.5322 225.582 29.6485 225.491 29.7332 225.374L33.5702 220.065L36.0167 220.868L31.7756 226.736C31.6502 226.651 31.5024 226.605 31.351 226.604C31.1996 226.604 31.0513 226.648 30.9249 226.731L28.7413 228.177C28.6382 228.245 28.5532 228.337 28.4935 228.446C28.4338 228.554 28.4012 228.675 28.3985 228.799C28.3958 228.922 28.4232 229.045 28.4782 229.156C28.5331 229.266 28.6141 229.362 28.7142 229.435L29.4423 229.961L28.9325 230.667C28.8202 230.831 28.7766 231.034 28.8111 231.23C28.8455 231.427 28.9552 231.602 29.1169 231.719C29.2786 231.836 29.4795 231.885 29.6768 231.856C29.8742 231.827 30.0525 231.722 30.1739 231.564L30.6837 230.858L31.4133 231.386C31.5136 231.458 31.63 231.505 31.7524 231.522C31.8749 231.54 31.9997 231.527 32.1163 231.486C32.2328 231.445 32.3376 231.376 32.4217 231.285C32.5058 231.194 32.5667 231.085 32.5992 230.965L33.2869 228.438C33.3265 228.292 33.3218 228.138 33.2735 227.994C33.2252 227.85 33.1354 227.725 33.0155 227.632L37.5427 221.368L40.0771 222.2C40.2314 222.251 40.3976 222.251 40.5519 222.2C40.7062 222.15 40.8406 222.052 40.9356 221.921C41.0307 221.789 41.0815 221.631 41.0808 221.469C41.0801 221.306 41.0279 221.149 40.9317 221.018L40.9339 221.018ZM29.4028 223.217C26.8783 222.69 24.4932 221.636 22.4029 220.125C20.3126 218.615 18.5641 216.68 17.2712 214.449L19.9118 210.795L24.4347 216.918C24.5294 217.045 24.6608 217.14 24.8113 217.19L32.0435 219.564L29.4028 223.217Z" fill="white"/>
</g>
</g>
</g>
<g filter="url(#filter3_dddiiii_2462_8455)">
<g clip-path="url(#clip3_2462_8455)">
<path d="M414.495 67.3179C408.371 62.1845 405.309 59.6178 403.969 56.4654C402.791 53.6924 402.52 50.6175 403.196 47.6813C403.965 44.3434 406.532 41.2815 411.665 35.1578L421.442 23.4947C426.576 17.371 429.143 14.3091 432.295 12.9692C435.068 11.7906 438.143 11.5201 441.079 12.1964C444.417 12.9654 447.479 15.5321 453.603 20.6655L465.266 30.4425C471.389 35.5759 474.451 38.1426 475.791 41.295C476.97 44.068 477.24 47.1429 476.564 50.0791C475.795 53.4171 473.228 56.4789 468.095 62.6026L458.318 74.2657C453.185 80.3894 450.618 83.4513 447.465 84.7912C444.692 85.9698 441.617 86.2404 438.681 85.564C435.343 84.795 432.281 82.2283 426.158 77.0949L414.495 67.3179Z" fill="url(#paint1_linear_2462_8455)" fill-opacity="0.78"/>
<g clip-path="url(#clip4_2462_8455)" filter="url(#filter4_dd_2462_8455)">
<path d="M442.851 68.5768C443.525 69.1419 444.538 69.0528 445.103 68.3787L461.899 48.3434L459.448 46.2893L442.653 66.3247C442.093 67.0029 442.177 68.0118 442.851 68.5768Z" fill="white"/>
<path d="M440.133 71.8192C442.411 73.7289 445.803 73.4305 447.713 71.1525L463.423 52.4112C464.182 51.5058 464.063 50.1582 463.158 49.3992L462.858 49.1476L446.063 69.183C445.052 70.3884 443.252 70.5468 442.047 69.5362C440.841 68.5257 440.683 66.7258 441.693 65.5203L458.489 45.485L456.55 43.8599L439.466 64.2397C437.561 66.5219 437.86 69.9137 440.133 71.8192Z" fill="white"/>
<path d="M442.355 31.9606C439.753 35.0652 440.155 39.6921 443.27 42.3029C444.736 43.532 446.54 44.0889 448.319 44.0053L450.266 45.8302C450.529 46.0759 450.953 45.9703 451.064 45.6278L452.002 42.8199C452.666 42.3878 453.273 41.8331 453.785 41.1728C456.114 38.1742 455.705 33.7348 452.872 31.2086C449.765 28.4284 445.012 28.7919 442.355 31.9606ZM450.879 36.5839L447.163 41.0171C446.94 41.2828 446.542 41.3178 446.276 41.0951C446.011 40.8723 445.976 40.4744 446.198 40.2087L449.915 35.7755C450.137 35.5098 450.535 35.4748 450.801 35.6975C451.067 35.9202 451.102 36.3182 450.879 36.5839ZM450.232 33.0086L445.022 39.2229C444.8 39.4886 444.402 39.5236 444.136 39.3009C443.87 39.0781 443.835 38.6802 444.058 38.4145L449.267 32.2002C449.49 31.9345 449.888 31.8995 450.154 32.1222C450.419 32.3449 450.45 32.7478 450.232 33.0086Z" fill="white"/>
<path d="M438.507 63.4354L439.237 62.5645L417.602 44.4288L416.872 45.2997C415.92 46.4363 415.516 47.8572 415.636 49.223C415.757 50.5978 416.403 51.9265 417.539 52.8792L437.176 69.3404C436.667 67.3389 437.084 65.1329 438.507 63.4354Z" fill="white"/>
<path d="M453.065 43.6106L452.256 46.0243C452.188 46.2353 452.086 46.4266 451.946 46.5939C451.641 46.958 451.191 47.1844 450.711 47.2084C450.234 47.2366 449.764 47.0684 449.416 46.7435L447.841 45.2642C445.883 45.2313 443.994 44.5271 442.479 43.2567C438.847 40.2128 438.365 34.7818 441.405 31.1555L441.409 31.1506L438.088 28.3665C435.81 26.4568 432.418 26.7552 430.508 29.0333L418.407 43.4694L440.046 61.6092L455.596 43.0598L454.567 42.1978L454.563 42.2027C454.114 42.739 453.612 43.207 453.065 43.6106ZM442.839 51.761L439.156 56.1548C438.929 56.4254 438.535 56.4555 438.27 56.2328C438.004 56.0101 437.965 55.617 438.192 55.3464L441.875 50.9526C442.098 50.6869 442.496 50.6519 442.761 50.8746C443.027 51.0974 443.062 51.4953 442.839 51.761ZM443.445 45.9517L436.652 54.0554C436.425 54.326 436.036 54.3602 435.765 54.1334C435.5 53.9107 435.46 53.5176 435.687 53.247L442.48 45.1433C442.703 44.8776 443.101 44.8426 443.367 45.0653C443.637 45.2922 443.668 45.686 443.445 45.9517ZM440.945 43.8565L434.152 51.9601C433.925 52.2307 433.531 52.2608 433.266 52.0381C433 51.8154 432.961 51.4223 433.188 51.1517L439.981 43.048C440.204 42.7823 440.602 42.7473 440.867 42.9701C441.133 43.1928 441.168 43.5908 440.945 43.8565ZM438.436 41.7529L431.643 49.8566C431.416 50.1272 431.022 50.1573 430.756 49.9346C430.491 49.7118 430.452 49.3188 430.678 49.0482L437.472 40.9445C437.694 40.6788 438.092 40.6438 438.358 40.8665C438.629 41.0934 438.659 41.4872 438.436 41.7529Z" fill="white"/>
</g>
</g>
</g>
<g filter="url(#filter5_dddiiii_2462_8455)">
<g clip-path="url(#clip5_2462_8455)">
<path d="M414.278 355.576C407.941 349.898 404.772 347.058 403.457 343.656C402.3 340.663 402.121 337.381 402.944 334.28C403.88 330.755 406.719 327.586 412.398 321.249L423.214 309.181C428.893 302.844 431.732 299.676 435.134 298.361C438.127 297.204 441.409 297.024 444.51 297.847C448.036 298.783 451.204 301.622 457.541 307.301L469.61 318.117C475.946 323.796 479.115 326.635 480.43 330.038C481.587 333.03 481.766 336.312 480.943 339.414C480.007 342.939 477.168 346.107 471.489 352.444L460.673 364.513C454.994 370.85 452.155 374.018 448.753 375.333C445.76 376.49 442.478 376.67 439.377 375.846C435.851 374.911 432.683 372.071 426.346 366.392L414.278 355.576Z" fill="url(#paint2_linear_2462_8455)" fill-opacity="0.81"/>
<g clip-path="url(#clip6_2462_8455)" filter="url(#filter6_dd_2462_8455)">
<path fill-rule="evenodd" clip-rule="evenodd" d="M424.001 331.381C423.286 331.225 423.514 330.134 424.233 330.283L429.076 331.3C429.791 331.456 429.563 332.547 428.844 332.398L424.001 331.381ZM429.41 328.605L427.344 326.754C426.793 326.264 426.045 327.099 426.592 327.593L428.658 329.445C429.21 329.935 429.957 329.099 429.41 328.605ZM425.42 336.398L428.178 334.598C428.792 334.191 428.179 333.257 427.562 333.655L424.804 335.455C424.189 335.863 424.803 336.799 425.42 336.398ZM450.767 348.975C452.023 348.52 452.368 346.748 451.336 345.871C450.352 344.939 448.628 345.478 448.313 346.776C448.116 347.227 448.486 347.745 448.167 348.142C447.962 348.371 447.604 348.394 447.37 348.185L443.631 344.832L441.092 347.665C443.217 348.134 444.098 350.939 442.593 352.536C441.175 354.203 438.284 353.639 437.587 351.576L435.048 354.41L443.165 361.685C443.567 362.045 444.08 362.208 444.581 362.182C445.082 362.154 445.574 361.935 445.934 361.533L453.209 353.416L449.47 350.065C449.237 349.856 449.22 349.498 449.427 349.268C449.785 348.908 450.34 349.22 450.767 348.975ZM438.356 349.875C438.717 350.235 438.405 350.79 438.65 351.217C439.105 352.473 440.875 352.82 441.753 351.785C442.683 350.801 442.149 349.078 440.849 348.762C440.397 348.565 439.879 348.935 439.482 348.616C439.252 348.41 439.23 348.053 439.439 347.819L442.79 344.08L439.957 341.542C439.487 343.669 436.68 344.546 435.086 343.042C433.414 341.62 433.982 338.736 436.046 338.037L433.213 335.498L425.939 343.614C425.579 344.016 425.416 344.529 425.443 345.031C425.471 345.533 425.69 346.024 426.092 346.385L434.209 353.659L437.56 349.92C437.768 349.686 438.126 349.669 438.356 349.875ZM448.82 338.199C448.459 337.839 448.77 337.286 448.526 336.857C448.269 336.136 447.446 335.609 446.697 335.676C444.628 335.79 444.312 338.773 446.326 339.311C446.839 339.519 447.675 339.011 447.864 339.756C447.904 339.939 447.85 340.12 447.734 340.252L444.383 343.993L447.216 346.532C447.489 345.283 448.738 344.283 449.987 344.276C453.321 344.14 454.276 348.882 451.127 350.037L453.961 352.577L461.236 344.459C461.596 344.057 461.759 343.544 461.732 343.042C461.704 342.54 461.486 342.048 461.084 341.688L452.967 334.415L449.615 338.155C449.408 338.387 449.051 338.406 448.82 338.199ZM435.527 317.019C434.989 317.049 434.512 317.296 434.176 317.67C433.841 318.045 433.646 318.547 433.677 319.084L434.271 329.968L439.285 329.694C439.596 329.677 439.862 329.915 439.878 330.226C439.879 330.736 439.267 330.907 439.138 331.384C438.569 332.59 439.584 334.088 440.931 333.98C442.283 333.939 443.127 332.345 442.429 331.204C442.281 330.948 442.072 330.732 441.825 330.574C441.366 330.301 441.577 329.549 442.099 329.542L447.112 329.265L446.905 325.467C445.052 326.647 442.425 325.252 442.399 323.035C442.256 320.867 444.682 319.269 446.617 320.222L446.41 316.423L435.527 317.019Z" fill="white"/>
</g>
</g>
</g>
<g filter="url(#filter7_diiii_2462_8455)">
<g clip-path="url(#clip7_2462_8455)">
<path d="M-0.398419 410.809C6.76563 404.057 10.3476 400.681 14.3981 399.496C17.9609 398.454 21.7622 398.566 25.2573 399.817C29.2305 401.239 32.6068 404.821 39.3592 411.985L52.2197 425.63C58.9721 432.794 62.3484 436.376 63.5332 440.426C64.5755 443.989 64.463 447.79 63.212 451.285C61.7898 455.259 58.2078 458.635 51.0438 465.387L37.3993 478.248C30.2352 485 26.6532 488.376 22.6028 489.561C19.0399 490.604 15.2386 490.491 11.7436 489.24C7.77029 487.818 4.39408 484.236 -2.35834 477.072L-15.2189 463.427C-21.9713 456.263 -25.3475 452.681 -26.5324 448.631C-27.5746 445.068 -27.4622 441.267 -26.2112 437.772C-24.789 433.798 -21.207 430.422 -14.0429 423.67L-0.398419 410.809Z" fill="url(#paint3_linear_2462_8455)" fill-opacity="0.75"/>
<g clip-path="url(#clip8_2462_8455)" filter="url(#filter8_ddi_2462_8455)">
<path d="M37.2521 436.144C37.3951 435.728 37.5366 435.305 37.6734 434.869L39.5563 436.129C39.4184 436.43 39.288 436.705 39.1669 436.954C39.0619 437.175 38.95 437.399 38.838 437.627L37.2487 436.143L37.2521 436.144ZM17.3962 422.628L26.3544 426.667L19.2919 420.07C18.9518 420.549 18.6261 420.997 18.3113 421.423C18.0036 421.838 17.698 422.241 17.3962 422.628ZM35.1149 441.357C34.0239 443.632 32.8654 445.604 31.6631 447.572L35.3776 446.254C37.0949 444.444 38.7914 442.65 40.6087 439.981L37.0667 436.671C36.4504 438.396 35.7971 439.932 35.1167 441.355L35.1149 441.357ZM14.5835 421.358L16.9139 422.41C17.1505 422.105 17.3906 421.793 17.631 421.471L15.3069 419.918C15.1876 420.162 15.0667 420.405 14.9458 420.648C14.825 420.887 14.7059 421.124 14.5835 421.358ZM31.1385 448.307L22.1428 451.499C22.1171 451.507 22.0982 451.515 22.0827 451.523C22.0689 451.529 22.0499 451.541 22.0274 451.555L17.687 454.403C19.2391 454.332 22.2365 454.188 22.9394 454.129C22.9632 454.126 22.9837 454.123 23.0059 454.119C23.0281 454.115 23.0486 454.108 23.0709 454.101L28.3004 452.245L28.3056 452.244L37.0406 449.142L36.1176 446.539L31.1557 448.301C31.1488 448.304 31.1419 448.307 31.1351 448.307L31.1385 448.307ZM50.0877 443.799C50.2884 443.729 50.442 443.588 50.5302 443.415C50.6149 443.25 50.636 443.055 50.5717 442.875C50.5074 442.695 50.3706 442.557 50.1997 442.48C50.0254 442.404 49.8152 442.391 49.6145 442.461L48.6555 442.801L49.1303 444.138L50.0894 443.798L50.0877 443.799ZM38.2897 448.7L37.3667 446.097L36.6084 446.367L37.5313 448.969L38.2897 448.7ZM24.6679 459.293C23.5589 461.888 22.4817 464.902 21.4573 468.592L15.7879 466.034C15.7762 466.028 15.7645 466.023 15.7527 466.017L5.18465 461.25C5.17632 461.245 5.16625 461.241 5.15617 461.237L-5.124 456.601C-2.26911 446.928 0.665332 442.075 3.52131 437.354C4.02646 436.519 4.52991 435.685 5.03055 434.83C5.03404 434.827 5.03414 434.823 5.03763 434.82C7.20118 431.125 9.30216 427.021 11.2695 420.424L14.1159 421.709C14.1209 421.711 14.1242 421.714 14.1276 421.714L16.8652 422.95C16.8769 422.955 16.8886 422.961 16.9003 422.966L27.5455 427.766C27.5538 427.771 27.5623 427.773 27.5724 427.777L37.8576 432.416C37.6713 433.089 37.4841 433.737 37.2891 434.36C37.2836 434.375 37.2781 434.387 37.276 434.402C37.094 434.986 36.9077 435.547 36.7184 436.092C36.7076 436.112 36.7001 436.135 36.696 436.159C36.0506 438.004 35.3658 439.632 34.6475 441.13C33.4715 443.581 32.2053 445.695 30.8872 447.844L21.9687 451.01C21.931 451.022 21.8932 451.038 21.8535 451.059C21.8122 451.078 21.7759 451.099 21.7447 451.122L16.6182 454.486C16.5455 454.535 16.4989 454.618 16.5012 454.712C16.5072 454.855 16.6262 454.963 16.769 454.958C16.7843 454.956 22.0287 454.719 22.9801 454.64C23.0278 454.635 23.0721 454.63 23.1131 454.621C23.1559 454.61 23.1986 454.599 23.2432 454.584L27.8208 452.96C26.7515 454.845 25.6945 456.887 24.6658 459.291L24.6679 459.293ZM13.902 428.144L31.6458 436.147C31.8284 436.229 32.0396 436.149 32.123 435.968C32.2048 435.785 32.1245 435.574 31.9436 435.491L14.1998 427.487C14.0189 427.404 13.806 427.486 13.7225 427.667C13.6407 427.85 13.7211 428.061 13.902 428.144ZM12.8085 432.337L30.5523 440.341C30.7349 440.423 30.9461 440.342 31.0296 440.161C31.113 439.98 31.031 439.767 30.8502 439.684L13.1064 431.681C12.9255 431.597 12.7125 431.679 12.6291 431.86C12.5457 432.041 12.6276 432.254 12.8085 432.337ZM10.5101 436.117L28.2539 444.12C28.4365 444.202 28.6477 444.121 28.7312 443.94C28.8146 443.759 28.7326 443.547 28.5517 443.463L10.8079 435.46C10.6253 435.378 10.4141 435.458 10.3307 435.639C10.2489 435.822 10.3292 436.033 10.5101 436.117ZM7.91238 439.739L25.6562 447.742C25.8388 447.824 26.05 447.744 26.1334 447.563C26.2152 447.38 26.1349 447.169 25.954 447.086L8.21023 439.082C8.02935 438.999 7.81641 439.081 7.73296 439.262C7.65116 439.444 7.7315 439.656 7.91238 439.739ZM15.9392 454.427C16.0227 454.246 15.9407 454.033 15.7598 453.95L3.49102 448.418C3.31014 448.334 3.09719 448.416 3.01375 448.597C2.93195 448.78 3.01228 448.991 3.19317 449.074L15.4619 454.607C15.6446 454.688 15.8558 454.608 15.9392 454.427ZM20.6206 450.787C20.7024 450.604 20.622 450.393 20.4411 450.309L5.69959 443.661C5.5187 443.578 5.30576 443.66 5.22232 443.841C5.14052 444.023 5.22085 444.235 5.40174 444.318L20.1433 450.966C20.3259 451.048 20.5371 450.967 20.6206 450.787ZM18.117 467.647L15.7514 466.579C15.518 466.895 15.2897 467.209 15.0631 467.521L17.4238 469.099C17.5362 468.858 17.6504 468.615 17.7679 468.372C17.8837 468.131 18.0012 467.888 18.1188 467.646L18.117 467.647ZM14.3783 467.6L14.4811 467.453L14.4847 467.447C14.4883 467.44 14.4935 467.435 14.4971 467.428C14.7645 467.054 15.0212 466.7 15.2688 466.364L6.37919 462.356L13.4383 468.95C13.7666 468.469 14.0789 468.02 14.3783 467.6ZM3.08282 437.088C3.31672 436.7 3.55227 436.313 3.78615 435.924C2.26463 437.256 0.693509 438.717 -0.985963 440.505C-3.07529 442.724 -5.33059 445.447 -7.86991 449.041L-5.98823 450.799L-5.97835 450.81L-4.31146 452.368C-1.85507 445.251 0.642385 441.123 3.08047 437.09L3.08282 437.088ZM-6.08435 451.414C-6.1944 451.634 -6.30793 451.856 -6.41991 452.084C-6.54986 452.345 -6.68351 452.616 -6.81911 452.895L-4.91125 454.17C-4.77279 453.737 -4.63121 453.313 -4.49337 452.899L-6.08601 451.413L-6.08435 451.414ZM48.4384 445.09C48.5502 445.041 48.6409 444.962 48.6914 444.862C48.7455 444.755 48.7593 444.633 48.7185 444.519L48.0963 442.768C48.0539 442.653 47.9682 442.565 47.8609 442.518C47.7486 442.469 47.613 442.461 47.481 442.507L37.8522 445.923L38.7752 448.526L47.7657 445.335C47.8544 445.895 47.5046 446.472 46.9143 446.682L38.4213 449.697C38.236 449.763 38.1383 449.967 38.2041 450.152C38.2213 450.202 38.2473 450.244 38.2802 450.279C38.374 450.378 38.5222 450.42 38.6595 450.37L47.1525 447.354C48.1202 447.009 48.6587 446.024 48.4368 445.088L48.4384 445.09Z" fill="white"/>
</g>
</g>
</g>
<g filter="url(#filter9_dddiiii_2462_8455)">
<g clip-path="url(#clip9_2462_8455)">
<path d="M215.923 539.394C212.332 532.117 210.537 528.479 210.582 525.001C210.621 521.942 211.628 518.973 213.458 516.521C215.539 513.734 219.177 511.938 226.454 508.348L240.313 501.509C247.589 497.919 251.228 496.124 254.706 496.168C257.765 496.208 260.733 497.215 263.185 499.045C265.973 501.125 267.768 504.764 271.359 512.04L278.197 525.899C281.788 533.176 283.583 536.814 283.538 540.292C283.499 543.352 282.492 546.32 280.662 548.772C278.581 551.56 274.943 553.355 267.666 556.945L253.807 563.784C246.531 567.374 242.892 569.17 239.414 569.125C236.355 569.086 233.386 568.079 230.934 566.249C228.147 564.168 226.352 560.53 222.761 553.253L215.923 539.394Z" fill="url(#paint4_linear_2462_8455)"/>
<g clip-path="url(#clip10_2462_8455)" filter="url(#filter10_ddi_2462_8455)">
<path fill-rule="evenodd" clip-rule="evenodd" d="M237.483 528.078C241.041 526.322 245.355 527.785 247.11 531.343C248.866 534.901 247.403 539.215 243.845 540.97C240.287 542.726 235.973 541.263 234.218 537.705C232.462 534.147 233.925 529.833 237.483 528.078ZM249.993 537.449C252.976 537.488 255.83 539.161 257.241 542.02L257.242 542.023C257.897 543.35 257.997 544.881 257.522 546.282C257.047 547.682 256.036 548.836 254.709 549.491L243.999 554.776C242.672 555.43 241.14 555.531 239.74 555.056C238.34 554.581 237.185 553.569 236.531 552.243L236.529 552.24C235.119 549.382 235.528 546.099 237.311 543.707C239.733 544.591 242.498 544.522 244.992 543.292C247.484 542.062 249.222 539.909 249.994 537.448L249.993 537.449ZM248.07 527.33C246.242 527.843 244.248 526.998 243.377 525.233L240.959 520.334C239.976 518.341 240.796 515.924 242.789 514.941L251.791 510.499C253.784 509.515 256.201 510.335 257.184 512.328L259.602 517.227C260.585 519.22 259.765 521.637 257.772 522.621L253.441 524.758L251.933 530.126C251.789 530.645 251.336 531.02 250.8 531.066C250.264 531.114 249.754 530.824 249.52 530.338L248.07 527.33Z" fill="#282828"/>
</g>
</g>
</g>
</g>
</g>
<defs>
<filter id="filter0_di_2462_8455" x="0" y="0" width="478" height="572" filterUnits="userSpaceOnUse" color-interpolation-filters="sRGB">
<feFlood flood-opacity="0" result="BackgroundImageFix"/>
<feColorMatrix in="SourceAlpha" type="matrix" values="0 0 0 0 0 0 0 0 0 0 0 0 0 0 0 0 0 0 127 0" result="hardAlpha"/>
<feOffset dx="6" dy="6"/>
<feGaussianBlur stdDeviation="6"/>
<feComposite in2="hardAlpha" operator="out"/>
<feColorMatrix type="matrix" values="0 0 0 0 0 0 0 0 0 0 0 0 0 0 0 0 0 0 0.08 0"/>
<feBlend mode="normal" in2="BackgroundImageFix" result="effect1_dropShadow_2462_8455"/>
<feBlend mode="normal" in="SourceGraphic" in2="effect1_dropShadow_2462_8455" result="shape"/>
<feColorMatrix in="SourceAlpha" type="matrix" values="0 0 0 0 0 0 0 0 0 0 0 0 0 0 0 0 0 0 127 0" result="hardAlpha"/>
<feOffset dx="10" dy="10"/>
<feGaussianBlur stdDeviation="20"/>
<feComposite in2="hardAlpha" operator="arithmetic" k2="-1" k3="1"/>
<feColorMatrix type="matrix" values="0 0 0 0 0 0 0 0 0 0 0 0 0 0 0 0 0 0 0.06 0"/>
<feBlend mode="normal" in2="shape" result="effect2_innerShadow_2462_8455"/>
</filter>
<filter id="filter1_diiiii_2462_8455" x="-31.0469" y="158.953" width="203.157" height="203.157" filterUnits="userSpaceOnUse" color-interpolation-filters="sRGB">
<feFlood flood-opacity="0" result="BackgroundImageFix"/>
<feColorMatrix in="SourceAlpha" type="matrix" values="0 0 0 0 0 0 0 0 0 0 0 0 0 0 0 0 0 0 127 0" result="hardAlpha"/>
<feOffset dx="46.8753" dy="46.8753"/>
<feGaussianBlur stdDeviation="23.4376"/>
<feColorMatrix type="matrix" values="0 0 0 0 0.203922 0 0 0 0 0.913725 0 0 0 0 0.486275 0 0 0 0.1 0"/>
<feBlend mode="normal" in2="BackgroundImageFix" result="effect1_dropShadow_2462_8455"/>
<feBlend mode="normal" in="SourceGraphic" in2="effect1_dropShadow_2462_8455" result="shape"/>
<feColorMatrix in="SourceAlpha" type="matrix" values="0 0 0 0 0 0 0 0 0 0 0 0 0 0 0 0 0 0 127 0" result="hardAlpha"/>
<feOffset dy="4.68753"/>
<feGaussianBlur stdDeviation="2.34376"/>
<feComposite in2="hardAlpha" operator="arithmetic" k2="-1" k3="1"/>
<feColorMatrix type="matrix" values="0 0 0 0 1 0 0 0 0 1 0 0 0 0 1 0 0 0 0.6 0"/>
<feBlend mode="normal" in2="shape" result="effect2_innerShadow_2462_8455"/>
<feColorMatrix in="SourceAlpha" type="matrix" values="0 0 0 0 0 0 0 0 0 0 0 0 0 0 0 0 0 0 127 0" result="hardAlpha"/>
<feOffset dy="2.34376"/>
<feGaussianBlur stdDeviation="1.17188"/>
<feComposite in2="hardAlpha" operator="arithmetic" k2="-1" k3="1"/>
<feColorMatrix type="matrix" values="0 0 0 0 1 0 0 0 0 1 0 0 0 0 1 0 0 0 0.1 0"/>
<feBlend mode="normal" in2="effect2_innerShadow_2462_8455" result="effect3_innerShadow_2462_8455"/>
<feColorMatrix in="SourceAlpha" type="matrix" values="0 0 0 0 0 0 0 0 0 0 0 0 0 0 0 0 0 0 127 0" result="hardAlpha"/>
<feOffset dy="-4.68753"/>
<feGaussianBlur stdDeviation="2.34376"/>
<feComposite in2="hardAlpha" operator="arithmetic" k2="-1" k3="1"/>
<feColorMatrix type="matrix" values="0 0 0 0 0 0 0 0 0 0 0 0 0 0 0 0 0 0 0.05 0"/>
<feBlend mode="normal" in2="effect3_innerShadow_2462_8455" result="effect4_innerShadow_2462_8455"/>
<feColorMatrix in="SourceAlpha" type="matrix" values="0 0 0 0 0 0 0 0 0 0 0 0 0 0 0 0 0 0 127 0" result="hardAlpha"/>
<feOffset dx="4.68753"/>
<feGaussianBlur stdDeviation="2.34376"/>
<feComposite in2="hardAlpha" operator="arithmetic" k2="-1" k3="1"/>
<feColorMatrix type="matrix" values="0 0 0 0 0 0 0 0 0 0 0 0 0 0 0 0 0 0 0.02 0"/>
<feBlend mode="normal" in2="effect4_innerShadow_2462_8455" result="effect5_innerShadow_2462_8455"/>
<feColorMatrix in="SourceAlpha" type="matrix" values="0 0 0 0 0 0 0 0 0 0 0 0 0 0 0 0 0 0 127 0" result="hardAlpha"/>
<feOffset dx="-4.68753"/>
<feGaussianBlur stdDeviation="2.34376"/>
<feComposite in2="hardAlpha" operator="arithmetic" k2="-1" k3="1"/>
<feColorMatrix type="matrix" values="0 0 0 0 0 0 0 0 0 0 0 0 0 0 0 0 0 0 0.02 0"/>
<feBlend mode="normal" in2="effect5_innerShadow_2462_8455" result="effect6_innerShadow_2462_8455"/>
</filter>
<filter id="filter2_ddi_2462_8455" x="-36.7072" y="162.668" width="125.415" height="125.415" filterUnits="userSpaceOnUse" color-interpolation-filters="sRGB">
<feFlood flood-opacity="0" result="BackgroundImageFix"/>
<feColorMatrix in="SourceAlpha" type="matrix" values="0 0 0 0 0 0 0 0 0 0 0 0 0 0 0 0 0 0 127 0" result="hardAlpha"/>
<feOffset dy="9.37505"/>
<feGaussianBlur stdDeviation="11.7188"/>
<feColorMatrix type="matrix" values="0 0 0 0 0 0 0 0 0 0.529167 0 0 0 0 0.338997 0 0 0 0.5 0"/>
<feBlend mode="normal" in2="BackgroundImageFix" result="effect1_dropShadow_2462_8455"/>
<feColorMatrix in="SourceAlpha" type="matrix" values="0 0 0 0 0 0 0 0 0 0 0 0 0 0 0 0 0 0 127 0" result="hardAlpha"/>
<feOffset dy="4.68753"/>
<feGaussianBlur stdDeviation="7.03129"/>
<feColorMatrix type="matrix" values="0 0 0 0 0 0 0 0 0 0.529412 0 0 0 0 0.337255 0 0 0 0.3 0"/>
<feBlend mode="normal" in2="effect1_dropShadow_2462_8455" result="effect2_dropShadow_2462_8455"/>
<feBlend mode="normal" in="SourceGraphic" in2="effect2_dropShadow_2462_8455" result="shape"/>
<feColorMatrix in="SourceAlpha" type="matrix" values="0 0 0 0 0 0 0 0 0 0 0 0 0 0 0 0 0 0 127 0" result="hardAlpha"/>
<feOffset dx="-2.34376" dy="-2.34376"/>
<feGaussianBlur stdDeviation="1.17188"/>
<feComposite in2="hardAlpha" operator="arithmetic" k2="-1" k3="1"/>
<feColorMatrix type="matrix" values="0 0 0 0 0.4 0 0 0 0 1 0 0 0 0 0.784314 0 0 0 0.24 0"/>
<feBlend mode="normal" in2="shape" result="effect3_innerShadow_2462_8455"/>
</filter>
<filter id="filter3_dddiiii_2462_8455" x="393.195" y="2.19525" width="165.66" height="165.66" filterUnits="userSpaceOnUse" color-interpolation-filters="sRGB">
<feFlood flood-opacity="0" result="BackgroundImageFix"/>
<feColorMatrix in="SourceAlpha" type="matrix" values="0 0 0 0 0 0 0 0 0 0 0 0 0 0 0 0 0 0 127 0" result="hardAlpha"/>
<feOffset dx="38.0475" dy="38.0475"/>
<feGaussianBlur stdDeviation="19.0237"/>
<feColorMatrix type="matrix" values="0 0 0 0 0.960784 0 0 0 0 0.32549 0 0 0 0 0.32549 0 0 0 0.1 0"/>
<feBlend mode="normal" in2="BackgroundImageFix" result="effect1_dropShadow_2462_8455"/>
<feColorMatrix in="SourceAlpha" type="matrix" values="0 0 0 0 0 0 0 0 0 0 0 0 0 0 0 0 0 0 127 0" result="hardAlpha"/>
<feOffset dx="15.219" dy="15.219"/>
<feGaussianBlur stdDeviation="7.6095"/>
<feColorMatrix type="matrix" values="0 0 0 0 0.960784 0 0 0 0 0.32549 0 0 0 0 0.32549 0 0 0 0.1 0"/>
<feBlend mode="normal" in2="effect1_dropShadow_2462_8455" result="effect2_dropShadow_2462_8455"/>
<feColorMatrix in="SourceAlpha" type="matrix" values="0 0 0 0 0 0 0 0 0 0 0 0 0 0 0 0 0 0 127 0" result="hardAlpha"/>
<feOffset dx="7.6095" dy="7.6095"/>
<feGaussianBlur stdDeviation="3.80475"/>
<feColorMatrix type="matrix" values="0 0 0 0 0.960784 0 0 0 0 0.32549 0 0 0 0 0.32549 0 0 0 0.2 0"/>
<feBlend mode="normal" in2="effect2_dropShadow_2462_8455" result="effect3_dropShadow_2462_8455"/>
<feBlend mode="normal" in="SourceGraphic" in2="effect3_dropShadow_2462_8455" result="shape"/>
<feColorMatrix in="SourceAlpha" type="matrix" values="0 0 0 0 0 0 0 0 0 0 0 0 0 0 0 0 0 0 127 0" result="hardAlpha"/>
<feOffset dy="1.90237"/>
<feGaussianBlur stdDeviation="0.951187"/>
<feComposite in2="hardAlpha" operator="arithmetic" k2="-1" k3="1"/>
<feColorMatrix type="matrix" values="0 0 0 0 1 0 0 0 0 1 0 0 0 0 1 0 0 0 0.1 0"/>
<feBlend mode="normal" in2="shape" result="effect4_innerShadow_2462_8455"/>
<feColorMatrix in="SourceAlpha" type="matrix" values="0 0 0 0 0 0 0 0 0 0 0 0 0 0 0 0 0 0 127 0" result="hardAlpha"/>
<feOffset dy="-3.80475"/>
<feGaussianBlur stdDeviation="1.90237"/>
<feComposite in2="hardAlpha" operator="arithmetic" k2="-1" k3="1"/>
<feColorMatrix type="matrix" values="0 0 0 0 0 0 0 0 0 0 0 0 0 0 0 0 0 0 0.05 0"/>
<feBlend mode="normal" in2="effect4_innerShadow_2462_8455" result="effect5_innerShadow_2462_8455"/>
<feColorMatrix in="SourceAlpha" type="matrix" values="0 0 0 0 0 0 0 0 0 0 0 0 0 0 0 0 0 0 127 0" result="hardAlpha"/>
<feOffset dx="3.80475"/>
<feGaussianBlur stdDeviation="1.90237"/>
<feComposite in2="hardAlpha" operator="arithmetic" k2="-1" k3="1"/>
<feColorMatrix type="matrix" values="0 0 0 0 0 0 0 0 0 0 0 0 0 0 0 0 0 0 0.02 0"/>
<feBlend mode="normal" in2="effect5_innerShadow_2462_8455" result="effect6_innerShadow_2462_8455"/>
<feColorMatrix in="SourceAlpha" type="matrix" values="0 0 0 0 0 0 0 0 0 0 0 0 0 0 0 0 0 0 127 0" result="hardAlpha"/>
<feOffset dx="-3.80475"/>
<feGaussianBlur stdDeviation="1.90237"/>
<feComposite in2="hardAlpha" operator="arithmetic" k2="-1" k3="1"/>
<feColorMatrix type="matrix" values="0 0 0 0 0 0 0 0 0 0 0 0 0 0 0 0 0 0 0.02 0"/>
<feBlend mode="normal" in2="effect6_innerShadow_2462_8455" result="effect7_innerShadow_2462_8455"/>
</filter>
<filter id="filter4_dd_2462_8455" x="388.696" y="5.30588" width="102.368" height="102.368" filterUnits="userSpaceOnUse" color-interpolation-filters="sRGB">
<feFlood flood-opacity="0" result="BackgroundImageFix"/>
<feColorMatrix in="SourceAlpha" type="matrix" values="0 0 0 0 0 0 0 0 0 0 0 0 0 0 0 0 0 0 127 0" result="hardAlpha"/>
<feOffset dy="7.6095"/>
<feGaussianBlur stdDeviation="9.51187"/>
<feColorMatrix type="matrix" values="0 0 0 0 0.658333 0 0 0 0 0.0411459 0 0 0 0 0.0411459 0 0 0 0.5 0"/>
<feBlend mode="normal" in2="BackgroundImageFix" result="effect1_dropShadow_2462_8455"/>
<feColorMatrix in="SourceAlpha" type="matrix" values="0 0 0 0 0 0 0 0 0 0 0 0 0 0 0 0 0 0 127 0" result="hardAlpha"/>
<feOffset dy="3.80475"/>
<feGaussianBlur stdDeviation="5.70712"/>
<feColorMatrix type="matrix" values="0 0 0 0 0.658824 0 0 0 0 0.0392157 0 0 0 0 0.0392157 0 0 0 0.3 0"/>
<feBlend mode="normal" in2="effect1_dropShadow_2462_8455" result="effect2_dropShadow_2462_8455"/>
<feBlend mode="normal" in="SourceGraphic" in2="effect2_dropShadow_2462_8455" result="shape"/>
</filter>
<filter id="filter5_dddiiii_2462_8455" x="392.123" y="287.026" width="176.621" height="176.621" filterUnits="userSpaceOnUse" color-interpolation-filters="sRGB">
<feFlood flood-opacity="0" result="BackgroundImageFix"/>
<feColorMatrix in="SourceAlpha" type="matrix" values="0 0 0 0 0 0 0 0 0 0 0 0 0 0 0 0 0 0 127 0" result="hardAlpha"/>
<feOffset dx="40.5153" dy="40.5153"/>
<feGaussianBlur stdDeviation="20.2576"/>
<feColorMatrix type="matrix" values="0 0 0 0 0.87451 0 0 0 0 0.486275 0 0 0 0 0.937255 0 0 0 0.1 0"/>
<feBlend mode="normal" in2="BackgroundImageFix" result="effect1_dropShadow_2462_8455"/>
<feColorMatrix in="SourceAlpha" type="matrix" values="0 0 0 0 0 0 0 0 0 0 0 0 0 0 0 0 0 0 127 0" result="hardAlpha"/>
<feOffset dx="16.2061" dy="16.2061"/>
<feGaussianBlur stdDeviation="8.10306"/>
<feColorMatrix type="matrix" values="0 0 0 0 0.87451 0 0 0 0 0.486275 0 0 0 0 0.937255 0 0 0 0.1 0"/>
<feBlend mode="normal" in2="effect1_dropShadow_2462_8455" result="effect2_dropShadow_2462_8455"/>
<feColorMatrix in="SourceAlpha" type="matrix" values="0 0 0 0 0 0 0 0 0 0 0 0 0 0 0 0 0 0 127 0" result="hardAlpha"/>
<feOffset dx="8.10306" dy="8.10306"/>
<feGaussianBlur stdDeviation="4.05153"/>
<feColorMatrix type="matrix" values="0 0 0 0 0.87451 0 0 0 0 0.486275 0 0 0 0 0.937255 0 0 0 0.2 0"/>
<feBlend mode="normal" in2="effect2_dropShadow_2462_8455" result="effect3_dropShadow_2462_8455"/>
<feBlend mode="normal" in="SourceGraphic" in2="effect3_dropShadow_2462_8455" result="shape"/>
<feColorMatrix in="SourceAlpha" type="matrix" values="0 0 0 0 0 0 0 0 0 0 0 0 0 0 0 0 0 0 127 0" result="hardAlpha"/>
<feOffset dy="2.02576"/>
<feGaussianBlur stdDeviation="1.01288"/>
<feComposite in2="hardAlpha" operator="arithmetic" k2="-1" k3="1"/>
<feColorMatrix type="matrix" values="0 0 0 0 1 0 0 0 0 1 0 0 0 0 1 0 0 0 0.1 0"/>
<feBlend mode="normal" in2="shape" result="effect4_innerShadow_2462_8455"/>
<feColorMatrix in="SourceAlpha" type="matrix" values="0 0 0 0 0 0 0 0 0 0 0 0 0 0 0 0 0 0 127 0" result="hardAlpha"/>
<feOffset dy="-4.05153"/>
<feGaussianBlur stdDeviation="2.02576"/>
<feComposite in2="hardAlpha" operator="arithmetic" k2="-1" k3="1"/>
<feColorMatrix type="matrix" values="0 0 0 0 0 0 0 0 0 0 0 0 0 0 0 0 0 0 0.05 0"/>
<feBlend mode="normal" in2="effect4_innerShadow_2462_8455" result="effect5_innerShadow_2462_8455"/>
<feColorMatrix in="SourceAlpha" type="matrix" values="0 0 0 0 0 0 0 0 0 0 0 0 0 0 0 0 0 0 127 0" result="hardAlpha"/>
<feOffset dx="4.05153"/>
<feGaussianBlur stdDeviation="2.02576"/>
<feComposite in2="hardAlpha" operator="arithmetic" k2="-1" k3="1"/>
<feColorMatrix type="matrix" values="0 0 0 0 0 0 0 0 0 0 0 0 0 0 0 0 0 0 0.02 0"/>
<feBlend mode="normal" in2="effect5_innerShadow_2462_8455" result="effect6_innerShadow_2462_8455"/>
<feColorMatrix in="SourceAlpha" type="matrix" values="0 0 0 0 0 0 0 0 0 0 0 0 0 0 0 0 0 0 127 0" result="hardAlpha"/>
<feOffset dx="-4.05153"/>
<feGaussianBlur stdDeviation="2.02576"/>
<feComposite in2="hardAlpha" operator="arithmetic" k2="-1" k3="1"/>
<feColorMatrix type="matrix" values="0 0 0 0 0 0 0 0 0 0 0 0 0 0 0 0 0 0 0.02 0"/>
<feBlend mode="normal" in2="effect6_innerShadow_2462_8455" result="effect7_innerShadow_2462_8455"/>
</filter>
<filter id="filter6_dd_2462_8455" x="387.378" y="290.382" width="109.169" height="109.169" filterUnits="userSpaceOnUse" color-interpolation-filters="sRGB">
<feFlood flood-opacity="0" result="BackgroundImageFix"/>
<feColorMatrix in="SourceAlpha" type="matrix" values="0 0 0 0 0 0 0 0 0 0 0 0 0 0 0 0 0 0 127 0" result="hardAlpha"/>
<feOffset dy="8.10306"/>
<feGaussianBlur stdDeviation="10.1288"/>
<feColorMatrix type="matrix" values="0 0 0 0 1 0 0 0 0 1 0 0 0 0 1 0 0 0 0.5 0"/>
<feBlend mode="normal" in2="BackgroundImageFix" result="effect1_dropShadow_2462_8455"/>
<feColorMatrix in="SourceAlpha" type="matrix" values="0 0 0 0 0 0 0 0 0 0 0 0 0 0 0 0 0 0 127 0" result="hardAlpha"/>
<feOffset dy="4.05153"/>
<feGaussianBlur stdDeviation="6.07729"/>
<feColorMatrix type="matrix" values="0 0 0 0 1 0 0 0 0 1 0 0 0 0 1 0 0 0 0.3 0"/>
<feBlend mode="normal" in2="effect1_dropShadow_2462_8455" result="effect2_dropShadow_2462_8455"/>
<feBlend mode="normal" in="SourceGraphic" in2="effect2_dropShadow_2462_8455" result="shape"/>
</filter>
<filter id="filter7_diiii_2462_8455" x="-39.1973" y="386.831" width="204.459" height="204.458" filterUnits="userSpaceOnUse" color-interpolation-filters="sRGB">
<feFlood flood-opacity="0" result="BackgroundImageFix"/>
<feColorMatrix in="SourceAlpha" type="matrix" values="0 0 0 0 0 0 0 0 0 0 0 0 0 0 0 0 0 0 127 0" result="hardAlpha"/>
<feOffset dx="46.8753" dy="46.8753"/>
<feGaussianBlur stdDeviation="23.4376"/>
<feColorMatrix type="matrix" values="0 0 0 0 1 0 0 0 0 0.662745 0 0 0 0 0.270588 0 0 0 0.1 0"/>
<feBlend mode="normal" in2="BackgroundImageFix" result="effect1_dropShadow_2462_8455"/>
<feBlend mode="normal" in="SourceGraphic" in2="effect1_dropShadow_2462_8455" result="shape"/>
<feColorMatrix in="SourceAlpha" type="matrix" values="0 0 0 0 0 0 0 0 0 0 0 0 0 0 0 0 0 0 127 0" result="hardAlpha"/>
<feOffset dy="2.34376"/>
<feGaussianBlur stdDeviation="1.17188"/>
<feComposite in2="hardAlpha" operator="arithmetic" k2="-1" k3="1"/>
<feColorMatrix type="matrix" values="0 0 0 0 1 0 0 0 0 1 0 0 0 0 1 0 0 0 0.1 0"/>
<feBlend mode="normal" in2="shape" result="effect2_innerShadow_2462_8455"/>
<feColorMatrix in="SourceAlpha" type="matrix" values="0 0 0 0 0 0 0 0 0 0 0 0 0 0 0 0 0 0 127 0" result="hardAlpha"/>
<feOffset dy="-4.68753"/>
<feGaussianBlur stdDeviation="2.34376"/>
<feComposite in2="hardAlpha" operator="arithmetic" k2="-1" k3="1"/>
<feColorMatrix type="matrix" values="0 0 0 0 0 0 0 0 0 0 0 0 0 0 0 0 0 0 0.05 0"/>
<feBlend mode="normal" in2="effect2_innerShadow_2462_8455" result="effect3_innerShadow_2462_8455"/>
<feColorMatrix in="SourceAlpha" type="matrix" values="0 0 0 0 0 0 0 0 0 0 0 0 0 0 0 0 0 0 127 0" result="hardAlpha"/>
<feOffset dx="4.68753"/>
<feGaussianBlur stdDeviation="2.34376"/>
<feComposite in2="hardAlpha" operator="arithmetic" k2="-1" k3="1"/>
<feColorMatrix type="matrix" values="0 0 0 0 0 0 0 0 0 0 0 0 0 0 0 0 0 0 0.02 0"/>
<feBlend mode="normal" in2="effect3_innerShadow_2462_8455" result="effect4_innerShadow_2462_8455"/>
<feColorMatrix in="SourceAlpha" type="matrix" values="0 0 0 0 0 0 0 0 0 0 0 0 0 0 0 0 0 0 127 0" result="hardAlpha"/>
<feOffset dx="-4.68753"/>
<feGaussianBlur stdDeviation="2.34376"/>
<feComposite in2="hardAlpha" operator="arithmetic" k2="-1" k3="1"/>
<feColorMatrix type="matrix" values="0 0 0 0 0 0 0 0 0 0 0 0 0 0 0 0 0 0 0.02 0"/>
<feBlend mode="normal" in2="effect4_innerShadow_2462_8455" result="effect5_innerShadow_2462_8455"/>
</filter>
<filter id="filter8_ddi_2462_8455" x="-44.695" y="390.708" width="126.39" height="126.39" filterUnits="userSpaceOnUse" color-interpolation-filters="sRGB">
<feFlood flood-opacity="0" result="BackgroundImageFix"/>
<feColorMatrix in="SourceAlpha" type="matrix" values="0 0 0 0 0 0 0 0 0 0 0 0 0 0 0 0 0 0 127 0" result="hardAlpha"/>
<feOffset dy="9.37505"/>
<feGaussianBlur stdDeviation="11.7188"/>
<feColorMatrix type="matrix" values="0 0 0 0 0.792157 0 0 0 0 0.439216 0 0 0 0 0.0313726 0 0 0 0.5 0"/>
<feBlend mode="normal" in2="BackgroundImageFix" result="effect1_dropShadow_2462_8455"/>
<feColorMatrix in="SourceAlpha" type="matrix" values="0 0 0 0 0 0 0 0 0 0 0 0 0 0 0 0 0 0 127 0" result="hardAlpha"/>
<feOffset dy="4.68753"/>
<feGaussianBlur stdDeviation="7.03129"/>
<feColorMatrix type="matrix" values="0 0 0 0 0.791667 0 0 0 0 0.440879 0 0 0 0 0.0329861 0 0 0 0.3 0"/>
<feBlend mode="normal" in2="effect1_dropShadow_2462_8455" result="effect2_dropShadow_2462_8455"/>
<feBlend mode="normal" in="SourceGraphic" in2="effect2_dropShadow_2462_8455" result="shape"/>
<feColorMatrix in="SourceAlpha" type="matrix" values="0 0 0 0 0 0 0 0 0 0 0 0 0 0 0 0 0 0 127 0" result="hardAlpha"/>
<feOffset dx="-1.17188" dy="-1.17188"/>
<feGaussianBlur stdDeviation="0.585941"/>
<feComposite in2="hardAlpha" operator="arithmetic" k2="-1" k3="1"/>
<feColorMatrix type="matrix" values="0 0 0 0 1 0 0 0 0 0.662745 0 0 0 0 0.270588 0 0 0 0.24 0"/>
<feBlend mode="normal" in2="shape" result="effect3_innerShadow_2462_8455"/>
</filter>
<filter id="filter9_dddiiii_2462_8455" x="201.801" y="487.388" width="163.925" height="163.925" filterUnits="userSpaceOnUse" color-interpolation-filters="sRGB">
<feFlood flood-opacity="0" result="BackgroundImageFix"/>
<feColorMatrix in="SourceAlpha" type="matrix" values="0 0 0 0 0 0 0 0 0 0 0 0 0 0 0 0 0 0 127 0" result="hardAlpha"/>
<feOffset dx="38.6358" dy="38.6358"/>
<feGaussianBlur stdDeviation="19.3179"/>
<feColorMatrix type="matrix" values="0 0 0 0 0.458824 0 0 0 0 0.458824 0 0 0 0 0.458824 0 0 0 0.1 0"/>
<feBlend mode="normal" in2="BackgroundImageFix" result="effect1_dropShadow_2462_8455"/>
<feColorMatrix in="SourceAlpha" type="matrix" values="0 0 0 0 0 0 0 0 0 0 0 0 0 0 0 0 0 0 127 0" result="hardAlpha"/>
<feOffset dx="15.4543" dy="15.4543"/>
<feGaussianBlur stdDeviation="7.72717"/>
<feColorMatrix type="matrix" values="0 0 0 0 0.458824 0 0 0 0 0.458824 0 0 0 0 0.458824 0 0 0 0.1 0"/>
<feBlend mode="normal" in2="effect1_dropShadow_2462_8455" result="effect2_dropShadow_2462_8455"/>
<feColorMatrix in="SourceAlpha" type="matrix" values="0 0 0 0 0 0 0 0 0 0 0 0 0 0 0 0 0 0 127 0" result="hardAlpha"/>
<feOffset dx="7.72717" dy="7.72717"/>
<feGaussianBlur stdDeviation="3.86358"/>
<feColorMatrix type="matrix" values="0 0 0 0 0.458333 0 0 0 0 0.458333 0 0 0 0 0.458333 0 0 0 0.2 0"/>
<feBlend mode="normal" in2="effect2_dropShadow_2462_8455" result="effect3_dropShadow_2462_8455"/>
<feBlend mode="normal" in="SourceGraphic" in2="effect3_dropShadow_2462_8455" result="shape"/>
<feColorMatrix in="SourceAlpha" type="matrix" values="0 0 0 0 0 0 0 0 0 0 0 0 0 0 0 0 0 0 127 0" result="hardAlpha"/>
<feOffset dy="1.93179"/>
<feGaussianBlur stdDeviation="0.965896"/>
<feComposite in2="hardAlpha" operator="arithmetic" k2="-1" k3="1"/>
<feColorMatrix type="matrix" values="0 0 0 0 1 0 0 0 0 1 0 0 0 0 1 0 0 0 0.1 0"/>
<feBlend mode="normal" in2="shape" result="effect4_innerShadow_2462_8455"/>
<feColorMatrix in="SourceAlpha" type="matrix" values="0 0 0 0 0 0 0 0 0 0 0 0 0 0 0 0 0 0 127 0" result="hardAlpha"/>
<feOffset dy="-3.86358"/>
<feGaussianBlur stdDeviation="1.93179"/>
<feComposite in2="hardAlpha" operator="arithmetic" k2="-1" k3="1"/>
<feColorMatrix type="matrix" values="0 0 0 0 0 0 0 0 0 0 0 0 0 0 0 0 0 0 0.05 0"/>
<feBlend mode="normal" in2="effect4_innerShadow_2462_8455" result="effect5_innerShadow_2462_8455"/>
<feColorMatrix in="SourceAlpha" type="matrix" values="0 0 0 0 0 0 0 0 0 0 0 0 0 0 0 0 0 0 127 0" result="hardAlpha"/>
<feOffset dx="3.86358"/>
<feGaussianBlur stdDeviation="1.93179"/>
<feComposite in2="hardAlpha" operator="arithmetic" k2="-1" k3="1"/>
<feColorMatrix type="matrix" values="0 0 0 0 0 0 0 0 0 0 0 0 0 0 0 0 0 0 0.02 0"/>
<feBlend mode="normal" in2="effect5_innerShadow_2462_8455" result="effect6_innerShadow_2462_8455"/>
<feColorMatrix in="SourceAlpha" type="matrix" values="0 0 0 0 0 0 0 0 0 0 0 0 0 0 0 0 0 0 127 0" result="hardAlpha"/>
<feOffset dx="-3.86358"/>
<feGaussianBlur stdDeviation="1.93179"/>
<feComposite in2="hardAlpha" operator="arithmetic" k2="-1" k3="1"/>
<feColorMatrix type="matrix" values="0 0 0 0 0 0 0 0 0 0 0 0 0 0 0 0 0 0 0.02 0"/>
<feBlend mode="normal" in2="effect6_innerShadow_2462_8455" result="effect7_innerShadow_2462_8455"/>
</filter>
<filter id="filter10_ddi_2462_8455" x="196.696" y="490.01" width="100.728" height="100.728" filterUnits="userSpaceOnUse" color-interpolation-filters="sRGB">
<feFlood flood-opacity="0" result="BackgroundImageFix"/>
<feColorMatrix in="SourceAlpha" type="matrix" values="0 0 0 0 0 0 0 0 0 0 0 0 0 0 0 0 0 0 127 0" result="hardAlpha"/>
<feOffset dy="7.72717"/>
<feGaussianBlur stdDeviation="9.65896"/>
<feColorMatrix type="matrix" values="0 0 0 0 0.770833 0 0 0 0 0.770833 0 0 0 0 0.770833 0 0 0 0.5 0"/>
<feBlend mode="normal" in2="BackgroundImageFix" result="effect1_dropShadow_2462_8455"/>
<feColorMatrix in="SourceAlpha" type="matrix" values="0 0 0 0 0 0 0 0 0 0 0 0 0 0 0 0 0 0 127 0" result="hardAlpha"/>
<feOffset dy="3.86358"/>
<feGaussianBlur stdDeviation="5.79538"/>
<feColorMatrix type="matrix" values="0 0 0 0 0.772549 0 0 0 0 0.772549 0 0 0 0 0.772549 0 0 0 0.3 0"/>
<feBlend mode="normal" in2="effect1_dropShadow_2462_8455" result="effect2_dropShadow_2462_8455"/>
<feBlend mode="normal" in="SourceGraphic" in2="effect2_dropShadow_2462_8455" result="shape"/>
<feColorMatrix in="SourceAlpha" type="matrix" values="0 0 0 0 0 0 0 0 0 0 0 0 0 0 0 0 0 0 127 0" result="hardAlpha"/>
<feOffset dx="-0.965896" dy="-0.965896"/>
<feGaussianBlur stdDeviation="0.482948"/>
<feComposite in2="hardAlpha" operator="arithmetic" k2="-1" k3="1"/>
<feColorMatrix type="matrix" values="0 0 0 0 1 0 0 0 0 1 0 0 0 0 1 0 0 0 0.16 0"/>
<feBlend mode="normal" in2="shape" result="effect3_innerShadow_2462_8455"/>
</filter>
<linearGradient id="paint0_linear_2462_8455" x1="17.5742" y1="163.641" x2="1.97421" y2="249.242" gradientUnits="userSpaceOnUse">
<stop stop-color="#66FFC8"/>
<stop offset="1" stop-color="#34E97C"/>
</linearGradient>
<linearGradient id="paint1_linear_2462_8455" x1="397" y1="52.6525" x2="465.393" y2="70.2674" gradientUnits="userSpaceOnUse">
<stop stop-color="#FF668B"/>
<stop offset="1" stop-color="#F55353"/>
</linearGradient>
<linearGradient id="paint2_linear_2462_8455" x1="396.174" y1="339.353" x2="468.344" y2="360.506" gradientUnits="userSpaceOnUse">
<stop stop-color="#7BADF8"/>
<stop offset="1" stop-color="#BE6CFF"/>
</linearGradient>
<linearGradient id="paint3_linear_2462_8455" x1="20.0684" y1="391.518" x2="-11.347" y2="472.661" gradientUnits="userSpaceOnUse">
<stop stop-color="#FFD260"/>
<stop offset="1" stop-color="#FFA945"/>
<stop offset="1" stop-color="#FFA945"/>
</linearGradient>
<linearGradient id="paint4_linear_2462_8455" x1="205.665" y1="518.605" x2="262.019" y2="562.963" gradientUnits="userSpaceOnUse">
<stop stop-color="#FBFBFB"/>
<stop offset="1" stop-color="#DEDEDE"/>
</linearGradient>
<clipPath id="clip0_2462_8455">
<rect x="6" y="6" width="454" height="548" rx="12" fill="white"/>
</clipPath>
<clipPath id="clip1_2462_8455">
<path d="M1.09915 186.435C6.86596 178.456 9.74937 174.467 13.5048 172.542C16.8082 170.848 20.5629 170.244 24.2307 170.816C28.4006 171.465 32.39 174.349 40.3689 180.116L55.5653 191.099C63.5442 196.866 67.5336 199.749 69.4589 203.505C71.1524 206.808 71.7566 210.563 71.185 214.231C70.5351 218.4 67.6517 222.39 61.8849 230.369L50.9015 245.565C45.1347 253.544 42.2513 257.534 38.4959 259.459C35.1925 261.152 31.4378 261.757 27.77 261.185C23.6001 260.535 19.6107 257.652 11.6318 251.885L-3.56462 240.901C-11.5435 235.135 -15.5329 232.251 -17.4582 228.496C-19.1517 225.192 -19.7559 221.438 -19.1843 217.77C-18.5344 213.6 -15.651 209.611 -9.88423 201.632L1.09915 186.435Z" fill="white"/>
</clipPath>
<clipPath id="clip2_2462_8455">
<rect width="56.2503" height="56.2503" fill="white" transform="translate(19.6807 176.731) rotate(35.8579)"/>
</clipPath>
<clipPath id="clip3_2462_8455">
<path d="M414.495 67.3179C408.371 62.1845 405.309 59.6178 403.969 56.4654C402.791 53.6924 402.52 50.6175 403.196 47.6813C403.965 44.3434 406.532 41.2815 411.665 35.1578L421.442 23.4947C426.576 17.371 429.143 14.3091 432.295 12.9692C435.068 11.7906 438.143 11.5201 441.079 12.1964C444.417 12.9654 447.479 15.5321 453.603 20.6655L465.266 30.4425C471.389 35.5759 474.451 38.1426 475.791 41.295C476.97 44.068 477.24 47.1429 476.564 50.0791C475.795 53.4171 473.228 56.4789 468.095 62.6026L458.318 74.2657C453.185 80.3894 450.618 83.4513 447.465 84.7912C444.692 85.9698 441.617 86.2404 438.681 85.564C435.343 84.795 432.281 82.2283 426.158 77.0949L414.495 67.3179Z" fill="white"/>
</clipPath>
<clipPath id="clip4_2462_8455">
<rect width="45.657" height="45.657" fill="white" transform="translate(407.72 51.7095) rotate(-50.0275)"/>
</clipPath>
<clipPath id="clip5_2462_8455">
<path d="M414.278 355.576C407.941 349.898 404.772 347.058 403.457 343.656C402.3 340.663 402.121 337.381 402.944 334.28C403.88 330.755 406.719 327.586 412.398 321.249L423.214 309.181C428.893 302.844 431.732 299.676 435.134 298.361C438.127 297.204 441.409 297.024 444.51 297.847C448.036 298.783 451.204 301.622 457.541 307.301L469.61 318.117C475.946 323.796 479.115 326.635 480.43 330.038C481.587 333.03 481.766 336.312 480.943 339.414C480.007 342.939 477.168 346.107 471.489 352.444L460.673 364.513C454.994 370.85 452.155 374.018 448.753 375.333C445.76 376.49 442.478 376.67 439.377 375.846C435.851 374.911 432.683 372.071 426.346 366.392L414.278 355.576Z" fill="white"/>
</clipPath>
<clipPath id="clip6_2462_8455">
<rect width="48.6183" height="48.6183" fill="white" transform="translate(407.635 338.743) rotate(-48.1338)"/>
</clipPath>
<clipPath id="clip7_2462_8455">
<path d="M-0.398419 410.809C6.76563 404.057 10.3476 400.681 14.3981 399.496C17.9609 398.454 21.7622 398.566 25.2573 399.817C29.2305 401.239 32.6068 404.821 39.3592 411.985L52.2197 425.63C58.9721 432.794 62.3484 436.376 63.5332 440.426C64.5755 443.989 64.463 447.79 63.212 451.285C61.7898 455.259 58.2078 458.635 51.0438 465.387L37.3993 478.248C30.2352 485 26.6532 488.376 22.6028 489.561C19.0399 490.604 15.2386 490.491 11.7436 489.24C7.77029 487.818 4.39408 484.236 -2.35834 477.072L-15.2189 463.427C-21.9713 456.263 -25.3475 452.681 -26.5324 448.631C-27.5746 445.068 -27.4622 441.267 -26.2112 437.772C-24.789 433.798 -21.207 430.422 -14.0429 423.67L-0.398419 410.809Z" fill="white"/>
</clipPath>
<clipPath id="clip8_2462_8455">
<rect width="56.2503" height="56.2503" fill="white" transform="translate(19.6763 404.771) rotate(46.6942)"/>
</clipPath>
<clipPath id="clip9_2462_8455">
<path d="M215.923 539.394C212.332 532.117 210.537 528.479 210.582 525.001C210.621 521.942 211.628 518.973 213.458 516.521C215.539 513.734 219.177 511.938 226.454 508.348L240.313 501.509C247.589 497.919 251.228 496.124 254.706 496.168C257.765 496.208 260.733 497.215 263.185 499.045C265.973 501.125 267.768 504.764 271.359 512.04L278.197 525.899C281.788 533.176 283.583 536.814 283.538 540.292C283.499 543.352 282.492 546.32 280.662 548.772C278.581 551.56 274.943 553.355 267.666 556.945L253.807 563.784C246.531 567.374 242.892 569.17 239.414 569.125C236.355 569.086 233.386 568.079 230.934 566.249C228.147 564.168 226.352 560.53 222.761 553.253L215.923 539.394Z" fill="white"/>
</clipPath>
<clipPath id="clip10_2462_8455">
<rect width="46.363" height="46.363" fill="white" transform="translate(216.014 522.116) rotate(-26.2631)"/>
</clipPath>
</defs>
</svg>
