<svg width="60" height="60" viewBox="0 0 60 60" fill="none" xmlns="http://www.w3.org/2000/svg">
<path fill-rule="evenodd" clip-rule="evenodd" d="M26.5639 34.7204H30.6673V20.0112C30.6673 19.8564 30.7288 19.7079 30.8383 19.5985C30.9478 19.489 31.0962 19.4275 31.2511 19.4275C31.4059 19.4275 31.5543 19.489 31.6638 19.5985C31.7733 19.7079 31.8348 19.8564 31.8348 20.0112V34.7204H35.9382V33.07C35.9303 32.3812 36.0986 31.7017 36.4271 31.0961C36.7555 30.4906 37.2333 29.979 37.815 29.6099C39.4944 28.5133 40.8743 27.0158 41.8304 25.2526C42.9425 23.1966 43.4316 20.8612 43.2378 18.5318C43.044 16.2023 42.1757 13.9798 40.7391 12.1359C39.3024 10.292 37.3597 8.90666 35.1484 8.14916C32.937 7.39166 30.5529 7.29485 28.2874 7.87056C26.0219 8.44628 23.9733 9.66958 22.3918 11.3909C20.8104 13.1122 19.7648 15.257 19.3828 17.5631C19.0007 19.8692 19.2989 22.2366 20.2407 24.3759C21.1825 26.5153 22.7272 28.3339 24.686 29.6094C25.2678 29.9784 25.7455 30.49 26.074 31.0956C26.4024 31.7012 26.5707 32.3806 26.5628 33.0695V34.7204H26.5639ZM31.2822 52.9446C32.533 50.6382 37.8266 47.8209 40.3499 47.1443C43.7044 46.244 47.2512 46.3656 50.5361 47.4937C50.6244 47.5272 50.7195 47.5388 50.8133 47.5275C50.9071 47.5162 50.9968 47.4824 51.0746 47.4288C51.1525 47.3753 51.2162 47.3036 51.2602 47.2201C51.3043 47.1365 51.3275 47.0435 51.3277 46.949V25.7281C51.9104 25.7985 52.4953 25.8907 53.0826 26.0047C53.7265 26.1292 54.3656 26.2793 55 26.4549V53.2512C50.8427 52.0505 46.4949 51.062 42.4225 51.0308C38.2214 50.9981 34.3275 51.9808 31.25 54.7881C28.1725 51.9829 24.2786 50.9981 20.0775 51.0308C16.0051 51.062 11.6573 52.0505 7.5 53.2512V26.4549C8.13333 26.2789 8.77247 26.1289 9.41742 26.0047C10.0043 25.891 10.5893 25.7988 11.1723 25.7281V46.9511C11.1722 47.0154 11.1829 47.0793 11.2039 47.1401C11.2541 47.2859 11.36 47.406 11.4985 47.4741C11.6369 47.5421 11.7967 47.5526 11.9428 47.5032C15.233 46.3689 18.7872 46.2447 22.1485 47.1464C25.6903 48.153 28.8627 50.1683 31.279 52.9467L31.2822 52.9446ZM35.9382 35.8863H26.5639V39.5971C26.5651 39.9326 26.699 40.2541 26.9362 40.4913C27.1735 40.7286 27.495 40.8625 27.8305 40.8637H34.6732C35.0087 40.8625 35.3302 40.7286 35.5675 40.4913C35.8047 40.2541 35.9386 39.9326 35.9398 39.5971V35.8884L35.9382 35.8863ZM30.6673 50.7063C28.2959 48.3826 25.3464 46.735 22.1243 45.9342C18.9022 45.1334 15.5247 45.2084 12.3413 46.1515V21.2647C14.198 20.6724 16.1411 20.3964 18.0893 20.4482C18.2175 22.3254 18.7481 24.1529 19.6452 25.8068C20.6948 27.7413 22.2098 29.3839 24.0532 30.5863C24.4719 30.8497 24.8154 31.2168 25.0505 31.6519C25.2857 32.087 25.4044 32.5755 25.3954 33.07V39.5992C25.3969 40.2443 25.6538 40.8625 26.11 41.3187C26.5661 41.7748 27.1844 42.0317 27.8295 42.0333H30.6673V50.7063ZM31.8348 42.0333H34.6732C35.3186 42.0323 35.9374 41.7756 36.394 41.3194C36.8506 40.8632 37.1079 40.2446 37.1094 39.5992V33.07C37.1003 32.5754 37.2191 32.0869 37.4543 31.6517C37.6896 31.2166 38.0333 30.8496 38.4521 30.5863C40.2949 29.3845 41.8096 27.7428 42.8595 25.8094C43.7567 24.1556 44.2873 22.328 44.4154 20.4509C46.3636 20.399 48.3067 20.675 50.1634 21.2673V46.1515C46.9801 45.2084 43.6025 45.1334 40.3804 45.9342C37.1583 46.735 34.2089 48.3826 31.8374 50.7063L31.8348 42.0333Z" fill="#C31E5D"/>
</svg>
