<svg width="360" height="504" viewBox="0 0 360 504" fill="none" xmlns="http://www.w3.org/2000/svg">
<g clip-path="url(#clip0_1469_10111)">
<rect width="360" height="504" rx="12" fill="url(#paint0_linear_1469_10111)" fill-opacity="0.14"/>
<g filter="url(#filter1_dddiiii_1469_10111)">
<g clip-path="url(#clip1_1469_10111)">
<path d="M320.959 418.7C315.21 413.953 312.335 411.579 311.064 408.647C309.945 406.068 309.671 403.201 310.282 400.457C310.977 397.337 313.35 394.463 318.098 388.714L327.14 377.765C331.887 372.017 334.261 369.142 337.193 367.87C339.772 366.752 342.639 366.478 345.383 367.089C348.503 367.784 351.377 370.157 357.126 374.905L368.075 383.946C373.824 388.694 376.698 391.068 377.97 394C379.088 396.579 379.362 399.446 378.751 402.19C378.057 405.309 375.683 408.184 370.936 413.933L361.894 424.882C357.146 430.63 354.773 433.505 351.841 434.776C349.261 435.895 346.394 436.169 343.65 435.558C340.531 434.863 337.656 432.49 331.908 427.742L320.959 418.7Z" fill="url(#paint1_linear_1469_10111)" fill-opacity="0.74"/>
<g clip-path="url(#clip2_1469_10111)" filter="url(#filter2_ddi_1469_10111)">
<path d="M336.45 388.022C336.124 387.954 335.793 387.888 335.453 387.826L336.222 386.292C336.461 386.368 336.68 386.44 336.878 386.507C337.054 386.565 337.233 386.628 337.415 386.691L336.45 388.025L336.45 388.022ZM328.164 404.216L330.355 397.104L326.063 403.032C326.455 403.243 326.823 403.445 327.172 403.642C327.513 403.834 327.845 404.025 328.164 404.216ZM340.569 389.137C342.381 389.743 343.972 390.428 345.564 391.146L344.224 388.479C342.702 387.359 341.194 386.253 339.017 385.139L336.864 388.112C338.218 388.413 339.434 388.759 340.567 389.136L340.569 389.137ZM327.475 406.449L328.046 404.599C327.794 404.45 327.537 404.299 327.272 404.148L326.324 406.041C326.519 406.108 326.713 406.176 326.906 406.244C327.098 406.312 327.287 406.379 327.475 406.449ZM346.166 391.471L349.412 397.93C349.42 397.948 349.428 397.962 349.435 397.973C349.441 397.983 349.452 397.996 349.465 398.011L352.013 401.005C351.814 399.845 351.423 397.606 351.313 397.084C351.308 397.066 351.304 397.051 351.299 397.035C351.294 397.018 351.287 397.003 351.279 396.987L349.392 393.233L349.391 393.229L346.237 386.957L344.368 387.896L346.159 391.459C346.162 391.463 346.165 391.468 346.166 391.473L346.166 391.471ZM340.994 377.656C340.922 377.512 340.801 377.41 340.664 377.36C340.531 377.312 340.383 377.314 340.254 377.38C340.124 377.445 340.033 377.561 339.992 377.696C339.951 377.834 339.961 377.994 340.033 378.138L340.379 378.826L341.338 378.344L340.993 377.655L340.994 377.656ZM345.787 386.06L343.918 386.999L344.192 387.543L346.061 386.605L345.787 386.06ZM355.03 395.298C357.085 395.887 359.451 396.413 362.32 396.835L360.932 401.336C360.929 401.346 360.926 401.355 360.923 401.364L358.336 409.755C358.333 409.761 358.331 409.769 358.329 409.777L355.813 417.939C348.276 416.704 344.352 414.956 340.536 413.255C339.861 412.954 339.187 412.654 338.497 412.359C338.495 412.356 338.492 412.357 338.489 412.354C335.509 411.076 332.227 409.884 327.085 409.027L327.782 406.767C327.783 406.763 327.785 406.761 327.785 406.758L328.455 404.585C328.458 404.575 328.461 404.566 328.464 404.557L331.069 396.105C331.072 396.099 331.073 396.092 331.075 396.084L333.592 387.918C334.115 387.995 334.62 388.075 335.106 388.163C335.118 388.165 335.127 388.168 335.139 388.168C335.595 388.25 336.034 388.337 336.461 388.428C336.477 388.435 336.496 388.438 336.514 388.439C337.961 388.75 339.249 389.111 340.442 389.51C342.395 390.163 344.102 390.915 345.841 391.703L349.06 398.107C349.073 398.134 349.089 398.161 349.108 398.189C349.126 398.218 349.145 398.243 349.166 398.265L352.176 401.8C352.22 401.85 352.287 401.877 352.357 401.867C352.464 401.849 352.534 401.749 352.516 401.642C352.514 401.631 351.842 397.712 351.693 397.005C351.685 396.97 351.676 396.937 351.666 396.907C351.654 396.876 351.642 396.845 351.626 396.812L349.975 393.526C351.492 394.152 353.126 394.754 355.029 395.3L355.03 395.298ZM332.638 406.322L336.981 392.235C337.025 392.09 336.945 391.939 336.801 391.893C336.656 391.849 336.505 391.929 336.459 392.073L332.116 406.16C332.071 406.304 332.152 406.456 332.296 406.502C332.441 406.546 332.592 406.466 332.638 406.322ZM335.892 406.749L340.235 392.662C340.279 392.517 340.199 392.365 340.055 392.32C339.911 392.274 339.759 392.356 339.713 392.5L335.37 406.587C335.325 406.731 335.406 406.883 335.55 406.928C335.694 406.974 335.846 406.892 335.892 406.749ZM338.948 408.12L343.291 394.033C343.335 393.888 343.255 393.737 343.111 393.691C342.967 393.645 342.815 393.727 342.769 393.871L338.427 407.958C338.382 408.103 338.463 408.254 338.606 408.3C338.751 408.344 338.902 408.264 338.948 408.12ZM341.915 409.731L346.258 395.644C346.302 395.499 346.222 395.348 346.078 395.302C345.933 395.258 345.782 395.338 345.736 395.482L341.393 409.569C341.348 409.713 341.429 409.865 341.573 409.911C341.718 409.955 341.869 409.875 341.915 409.731ZM352.196 402.316C352.052 402.27 351.9 402.352 351.854 402.496L348.853 412.236C348.807 412.38 348.889 412.532 349.032 412.578C349.177 412.622 349.328 412.542 349.374 412.398L352.376 402.657C352.42 402.513 352.34 402.361 352.196 402.316ZM349.02 399.141C348.875 399.097 348.723 399.177 348.678 399.321L345.071 411.024C345.025 411.168 345.107 411.32 345.25 411.366C345.395 411.41 345.546 411.33 345.592 411.186L349.199 399.483C349.244 399.338 349.163 399.187 349.02 399.141ZM361.925 399.434L361.345 401.312C361.604 401.458 361.862 401.6 362.118 401.741L363.081 399.818C362.889 399.757 362.696 399.694 362.503 399.628C362.311 399.564 362.117 399.499 361.924 399.433L361.925 399.434ZM362.241 402.248L362.122 402.185L362.116 402.183C362.111 402.181 362.107 402.177 362.101 402.175C361.795 402.009 361.505 401.85 361.229 401.695L359.055 408.753L363.345 402.827C362.952 402.626 362.586 402.433 362.241 402.248ZM340.378 413.61C340.064 413.47 339.751 413.33 339.437 413.191C340.581 414.209 341.827 415.252 343.328 416.345C345.193 417.706 347.451 419.144 350.391 420.714L351.535 419.135L351.542 419.126L352.556 417.727C346.977 416.551 343.64 415.063 340.38 413.611L340.378 413.61ZM352.006 419.149C352.181 419.211 352.359 419.275 352.541 419.338C352.749 419.411 352.965 419.486 353.188 419.562L353.967 418.008C353.628 417.945 353.296 417.878 352.972 417.813L352.005 419.15L352.006 419.149ZM342.119 378.774C342.071 378.695 342.004 378.634 341.924 378.605C341.838 378.575 341.745 378.576 341.664 378.617L340.406 379.25C340.324 379.292 340.266 379.365 340.241 379.45C340.214 379.539 340.221 379.642 340.268 379.737L343.742 386.65L345.611 385.712L342.367 379.256C342.779 379.137 343.245 379.346 343.459 379.769L346.524 385.867C346.591 386 346.754 386.055 346.887 385.988C346.923 385.97 346.951 385.947 346.975 385.919C347.041 385.839 347.058 385.723 347.007 385.625L343.942 379.527C343.591 378.832 342.8 378.521 342.118 378.775L342.119 378.774Z" fill="white"/>
</g>
</g>
</g>
<g filter="url(#filter3_dddiiii_1469_10111)">
<g clip-path="url(#clip3_1469_10111)">
<path d="M1.74472 16.9012C7.15157 10.9852 9.855 8.02722 13.0715 6.81986C15.9007 5.75784 18.9936 5.61878 21.9068 6.42259C25.2186 7.33641 28.1766 10.0398 34.0926 15.4467L45.36 25.7444C51.276 31.1513 54.234 33.8547 55.4413 37.0712C56.5033 39.9005 56.6424 42.9933 55.8386 45.9065C54.9248 49.2184 52.2214 52.1763 46.8145 58.0923L36.5167 69.3597C31.1099 75.2757 28.4065 78.2337 25.19 79.441C22.3607 80.5031 19.2678 80.6421 16.3547 79.8383C13.0428 78.9245 10.0848 76.2211 4.16888 70.8142L-7.09855 60.5165C-13.0145 55.1096 -15.9725 52.4062 -17.1799 49.1897C-18.2419 46.3604 -18.381 43.2676 -17.5771 40.3544C-16.6633 37.0426 -13.9599 34.0846 -8.55305 28.1686L1.74472 16.9012Z" fill="url(#paint2_linear_1469_10111)" fill-opacity="0.78"/>
<g clip-path="url(#clip4_1469_10111)" filter="url(#filter4_dd_1469_10111)">
<path d="M-0.734068 45.262C-1.32923 45.9132 -1.28342 46.9321 -0.632211 47.5273L18.7234 65.2172L20.8869 62.85L1.53124 45.1601C0.875686 44.5697 -0.138902 44.6107 -0.734068 45.262Z" fill="white"/>
<path d="M-3.86609 42.3993C-5.87749 44.6001 -5.72409 48.0117 -3.52329 50.0231L14.5822 66.5705C15.4568 67.3698 16.8124 67.3089 17.6117 66.4343L17.8767 66.1443L-1.47891 48.4544C-2.64348 47.3901 -2.72489 45.5796 -1.66054 44.4151C-0.59619 43.2505 1.21424 43.1691 2.37881 44.2334L21.7344 61.9233L23.4461 60.0505L3.75772 42.0565C1.55257 40.0499 -1.85903 40.2033 -3.86609 42.3993Z" fill="white"/>
<path d="M35.979 46.3371C32.9796 43.5959 28.326 43.8005 25.576 46.8094C24.2815 48.2259 23.646 50.0093 23.6534 51.7957L21.7412 53.6684C21.4837 53.9216 21.5714 54.3507 21.9098 54.4767L24.6831 55.5371C25.0876 56.2209 25.6174 56.8534 26.2571 57.3944C29.1619 59.8573 33.628 59.6382 36.281 56.9072C39.2003 53.9135 39.0401 49.1348 35.979 46.3371ZM30.9802 54.6797L26.6974 50.7655C26.4408 50.5309 26.4228 50.1306 26.6573 49.8739C26.8919 49.6172 27.2922 49.5992 27.5489 49.8338L31.8317 53.748C32.0884 53.9826 32.1064 54.3829 31.8718 54.6396C31.6372 54.8963 31.2369 54.9143 30.9802 54.6797ZM34.5907 54.1846L28.5872 48.6978C28.3305 48.4632 28.3125 48.0629 28.5471 47.8062C28.7817 47.5495 29.182 47.5315 29.4387 47.7661L35.4421 53.2529C35.6988 53.4875 35.7168 53.8878 35.4822 54.1445C35.2476 54.4012 34.8426 54.4148 34.5907 54.1846Z" fill="white"/>
<path d="M4.60465 41.1296L5.446 41.8985L24.5478 20.9981L23.7064 20.2291C22.6084 19.2256 21.2019 18.7601 19.8281 18.8219C18.4453 18.8841 17.0862 19.4739 16.0826 20.5719L-1.25538 39.5425C0.77211 39.1186 2.96475 39.6308 4.60465 41.1296Z" fill="white"/>
<path d="M23.8453 56.5684L21.4614 55.6546C21.2528 55.5774 21.0655 55.4673 20.9039 55.3196C20.5522 54.9982 20.3446 54.538 20.3411 54.055C20.3333 53.5768 20.5221 53.1125 20.8626 52.7781L22.4126 51.2635C22.5295 49.3029 23.3163 47.4398 24.6544 45.9757C27.8604 42.4678 33.3234 42.2176 36.8266 45.4193L36.8313 45.4236L39.7637 42.2151C41.7751 40.0143 41.6217 36.6027 39.4209 34.5913L25.4746 21.8452L6.36848 42.7504L24.2886 59.1283L25.1965 58.1349L25.1918 58.1306C24.6737 57.657 24.2263 57.1347 23.8453 56.5684ZM16.1171 45.9722L11.8723 42.0927C11.6109 41.8538 11.5976 41.4578 11.8322 41.2012C12.0668 40.9445 12.4624 40.9221 12.7238 41.1611L16.9685 45.0405C17.2252 45.2751 17.2432 45.6754 17.0086 45.9321C16.774 46.1888 16.3737 46.2068 16.1171 45.9722ZM21.9123 46.8283L14.0836 39.6733C13.8221 39.4343 13.8045 39.0431 14.0435 38.7817C14.2781 38.525 14.6736 38.5027 14.935 38.7416L22.7638 45.8966C23.0205 46.1312 23.0385 46.5315 22.8039 46.7882C22.5649 47.0496 22.169 47.0629 21.9123 46.8283ZM24.1192 44.4136L16.2905 37.2586C16.029 37.0196 16.0158 36.6237 16.2504 36.367C16.485 36.1103 16.8805 36.088 17.1419 36.3269L24.9707 43.4819C25.2274 43.7165 25.2454 44.1168 25.0108 44.3735C24.7762 44.6302 24.3759 44.6482 24.1192 44.4136ZM26.3348 41.9894L18.506 34.8344C18.2446 34.5954 18.2314 34.1995 18.4659 33.9428C18.7005 33.6861 19.0961 33.6638 19.3575 33.9027L27.1863 41.0577C27.443 41.2923 27.4609 41.6926 27.2264 41.9493C26.9874 42.2107 26.5915 42.224 26.3348 41.9894Z" fill="white"/>
</g>
</g>
</g>
<g filter="url(#filter5_dddiiii_1469_10111)">
<g clip-path="url(#clip5_1469_10111)">
<path d="M-4.04792 336.715C0.563039 330.164 2.86852 326.888 5.90452 325.284C8.57506 323.872 11.6239 323.342 14.6141 323.77C18.0135 324.256 21.2888 326.562 27.8395 331.173L40.3159 339.955C46.8666 344.566 50.1419 346.871 51.7466 349.907C53.1581 352.578 53.688 355.627 53.2602 358.617C52.7739 362.016 50.4684 365.292 45.8575 371.842L37.0756 384.319C32.4646 390.869 30.1591 394.145 27.1231 395.749C24.4526 397.161 21.4037 397.691 18.4136 397.263C15.0142 396.777 11.7388 394.471 5.18813 389.86L-7.28821 381.078C-13.8389 376.467 -17.1143 374.162 -18.719 371.126C-20.1305 368.455 -20.6603 365.406 -20.2326 362.416C-19.7463 359.017 -17.4408 355.742 -12.8298 349.191L-4.04792 336.715Z" fill="url(#paint3_linear_1469_10111)" fill-opacity="0.79"/>
<g clip-path="url(#clip6_1469_10111)" filter="url(#filter6_ddi_1469_10111)">
<path fill-rule="evenodd" clip-rule="evenodd" d="M13.4326 356.326C13.0502 356.333 12.6668 356.37 12.2854 356.435C10.5505 356.737 8.986 357.641 7.86124 358.977L5.8943 357.593C2.86773 355.462 -1.31323 356.189 -3.4436 359.215L-3.44517 359.218C-5.64263 362.34 -4.89277 366.652 -1.77087 368.85C2.94916 372.172 10.1595 377.247 14.8488 380.548C17.9226 382.712 22.1681 381.974 24.3317 378.9C24.3326 378.899 24.3335 378.897 24.3345 378.896C25.3735 377.42 25.7837 375.592 25.4745 373.813C25.2979 372.797 24.8951 371.844 24.3064 371.021C26.7452 371.11 29.181 370.437 31.2392 369.067C31.5853 368.836 31.7775 368.434 31.7406 368.02C31.7031 367.606 31.4422 367.245 31.0601 367.08C26.6837 365.189 25.1865 362.253 24.6829 360.071C23.8228 356.341 24.4197 353.012 28.0347 349.932C28.3588 349.656 28.5008 349.223 28.4034 348.808C28.306 348.394 27.985 348.07 27.5723 347.967C23.0207 346.837 18.0368 348.527 15.1768 352.59C14.3554 353.757 13.7775 355.023 13.4326 356.326ZM20.8906 367.938C23.2205 368.984 25.8343 369.013 28.1351 368.13C24.371 365.87 22.9987 362.864 22.4717 360.581C21.5771 356.702 21.9736 353.178 24.8415 349.893C21.8459 349.867 18.8861 351.263 17.0329 353.896C16.4271 354.757 15.9854 355.683 15.7015 356.639C16.4636 356.867 17.1907 357.218 17.8534 357.684C18.1189 357.871 18.3857 358.059 18.6512 358.246C20.268 359.384 21.3668 361.118 21.7054 363.066C21.9969 364.743 21.7043 366.461 20.8906 367.938Z" fill="white"/>
</g>
</g>
</g>
<g filter="url(#filter7_dddiiii_1469_10111)">
<g clip-path="url(#clip7_1469_10111)">
<path d="M325.518 172.825C320.114 168.416 317.412 166.212 316.205 163.476C315.144 161.07 314.872 158.389 315.428 155.818C316.06 152.896 318.265 150.194 322.674 144.789L331.071 134.496C335.48 129.091 337.684 126.389 340.42 125.182C342.826 124.121 345.507 123.849 348.078 124.405C351 125.038 353.702 127.242 359.107 131.651L369.4 140.048C374.805 144.457 377.507 146.661 378.714 149.397C379.775 151.804 380.047 154.484 379.491 157.055C378.858 159.977 376.654 162.679 372.245 168.084L363.848 178.378C359.439 183.782 357.235 186.485 354.499 187.691C352.092 188.752 349.412 189.024 346.841 188.468C343.919 187.836 341.217 185.631 335.812 181.222L325.518 172.825Z" fill="url(#paint4_linear_1469_10111)" fill-opacity="0.76"/>
<g clip-path="url(#clip8_1469_10111)" filter="url(#filter8_ddi_1469_10111)">
<path d="M367.984 148.162L366.872 147.83C366.634 147.729 366.371 147.7 366.117 147.747C365.862 147.793 365.627 147.913 365.44 148.091L351.108 136.4C350.719 136.083 350.22 135.934 349.72 135.985C349.221 136.036 348.762 136.283 348.444 136.671L327.781 162.002C327.464 162.391 327.314 162.89 327.365 163.389C327.416 163.888 327.662 164.347 328.051 164.665L342.392 176.364C342.285 176.579 342.236 176.819 342.251 177.059C342.267 177.299 342.346 177.531 342.48 177.73L343.028 178.753C343.118 178.928 343.251 179.078 343.414 179.189C343.576 179.299 343.764 179.367 343.96 179.386C344.164 179.405 344.369 179.374 344.559 179.296C344.748 179.219 344.916 179.097 345.048 178.941L368.574 150.102C368.7 149.941 368.786 149.752 368.823 149.551C368.861 149.351 368.85 149.143 368.791 148.948C368.733 148.759 368.629 148.589 368.488 148.451C368.347 148.314 368.173 148.214 367.984 148.162ZM364.75 148.929L355.869 159.816C355.822 159.873 355.788 159.94 355.767 160.012L355.239 161.892L353.919 163.511L352.183 164.406C352.117 164.44 352.059 164.487 352.011 164.545L343.064 175.513L328.736 163.824C328.571 163.689 328.465 163.493 328.444 163.28C328.422 163.066 328.486 162.853 328.621 162.687L336.681 152.808L337.064 153.121C337.314 153.324 337.633 153.419 337.953 153.387C338.273 153.354 338.567 153.196 338.77 152.948L341.849 149.173C342.052 148.924 342.148 148.605 342.115 148.285C342.083 147.965 341.925 147.671 341.676 147.468L341.292 147.155L349.285 137.357C349.42 137.191 349.616 137.086 349.829 137.064C350.042 137.043 350.255 137.106 350.422 137.242L364.75 148.929ZM342.758 147.032C342.646 146.941 342.575 146.81 342.561 146.667C342.546 146.524 342.589 146.38 342.68 146.269L343.035 145.834C343.127 145.727 343.258 145.66 343.399 145.648C343.539 145.635 343.68 145.678 343.789 145.768C343.899 145.857 343.969 145.986 343.985 146.126C344.001 146.266 343.962 146.408 343.876 146.52L343.521 146.955C343.43 147.066 343.298 147.137 343.155 147.151C343.012 147.166 342.869 147.123 342.758 147.032ZM351.626 146.082L342.09 152.301C341.996 152.363 341.923 152.452 341.882 152.557L337.706 163.146C337.664 163.253 337.657 163.371 337.686 163.482C337.715 163.593 337.779 163.693 337.868 163.765C337.957 163.838 338.067 163.88 338.181 163.887C338.296 163.893 338.41 163.862 338.506 163.8L342.572 161.149L346.167 164.082C346.247 164.147 346.343 164.189 346.445 164.201C346.547 164.214 346.651 164.197 346.744 164.153C348.646 163.255 350.323 161.944 351.653 160.314C352.982 158.684 353.93 156.777 354.427 154.734C354.452 154.634 354.447 154.53 354.415 154.432C354.382 154.335 354.323 154.249 354.243 154.184L350.647 151.251L351.317 149.554L355.291 152.796C355.226 152.881 355.188 152.984 355.181 153.091C355.174 153.198 355.199 153.305 355.253 153.398L356.185 155.002C356.229 155.078 356.291 155.142 356.365 155.188C356.439 155.235 356.523 155.263 356.611 155.27C356.698 155.277 356.786 155.263 356.866 155.228C356.947 155.194 357.018 155.141 357.073 155.073L357.476 154.58L357.954 154.97C358.066 155.056 358.207 155.095 358.347 155.079C358.488 155.063 358.616 154.992 358.705 154.883C358.795 154.773 358.838 154.633 358.826 154.492C358.813 154.352 358.747 154.221 358.64 154.129L358.162 153.739L358.565 153.245C358.62 153.177 358.658 153.096 358.675 153.011C358.693 152.925 358.689 152.836 358.665 152.752C358.64 152.668 358.596 152.591 358.535 152.527C358.475 152.464 358.4 152.417 358.317 152.389L356.558 151.798C356.456 151.764 356.347 151.76 356.243 151.789C356.14 151.817 356.047 151.875 355.976 151.956L351.733 148.495L352.427 146.737C352.469 146.63 352.476 146.512 352.447 146.401C352.417 146.29 352.354 146.191 352.265 146.118C352.176 146.046 352.066 146.003 351.951 145.997C351.836 145.991 351.722 146.021 351.626 146.084L351.626 146.082ZM352.704 154.329C352.227 156.092 351.383 157.736 350.228 159.152C349.073 160.568 347.633 161.724 346.001 162.546L343.526 160.527L348.043 157.582C348.137 157.52 348.21 157.431 348.251 157.327L350.229 152.31L352.704 154.329Z" fill="white"/>
</g>
</g>
</g>
</g>
<rect x="1" y="1" width="358" height="502" rx="11" stroke="url(#paint5_linear_1469_10111)" stroke-width="2"/>
<defs>
<filter id="filter1_dddiiii_1469_10111" x="300.985" y="357.792" width="154.512" height="154.512" filterUnits="userSpaceOnUse" color-interpolation-filters="sRGB">
<feFlood flood-opacity="0" result="BackgroundImageFix"/>
<feColorMatrix in="SourceAlpha" type="matrix" values="0 0 0 0 0 0 0 0 0 0 0 0 0 0 0 0 0 0 127 0" result="hardAlpha"/>
<feOffset dx="35.4995" dy="35.4995"/>
<feGaussianBlur stdDeviation="17.7497"/>
<feColorMatrix type="matrix" values="0 0 0 0 1 0 0 0 0 0.662745 0 0 0 0 0.270588 0 0 0 0.1 0"/>
<feBlend mode="normal" in2="BackgroundImageFix" result="effect1_dropShadow_1469_10111"/>
<feColorMatrix in="SourceAlpha" type="matrix" values="0 0 0 0 0 0 0 0 0 0 0 0 0 0 0 0 0 0 127 0" result="hardAlpha"/>
<feOffset dx="14.1998" dy="14.1998"/>
<feGaussianBlur stdDeviation="7.0999"/>
<feColorMatrix type="matrix" values="0 0 0 0 1 0 0 0 0 0.662745 0 0 0 0 0.270588 0 0 0 0.1 0"/>
<feBlend mode="normal" in2="effect1_dropShadow_1469_10111" result="effect2_dropShadow_1469_10111"/>
<feColorMatrix in="SourceAlpha" type="matrix" values="0 0 0 0 0 0 0 0 0 0 0 0 0 0 0 0 0 0 127 0" result="hardAlpha"/>
<feOffset dx="7.0999" dy="7.0999"/>
<feGaussianBlur stdDeviation="3.54995"/>
<feColorMatrix type="matrix" values="0 0 0 0 1 0 0 0 0 0.662745 0 0 0 0 0.270588 0 0 0 0.2 0"/>
<feBlend mode="normal" in2="effect2_dropShadow_1469_10111" result="effect3_dropShadow_1469_10111"/>
<feBlend mode="normal" in="SourceGraphic" in2="effect3_dropShadow_1469_10111" result="shape"/>
<feColorMatrix in="SourceAlpha" type="matrix" values="0 0 0 0 0 0 0 0 0 0 0 0 0 0 0 0 0 0 127 0" result="hardAlpha"/>
<feOffset dy="1.77497"/>
<feGaussianBlur stdDeviation="0.887487"/>
<feComposite in2="hardAlpha" operator="arithmetic" k2="-1" k3="1"/>
<feColorMatrix type="matrix" values="0 0 0 0 1 0 0 0 0 1 0 0 0 0 1 0 0 0 0.1 0"/>
<feBlend mode="normal" in2="shape" result="effect4_innerShadow_1469_10111"/>
<feColorMatrix in="SourceAlpha" type="matrix" values="0 0 0 0 0 0 0 0 0 0 0 0 0 0 0 0 0 0 127 0" result="hardAlpha"/>
<feOffset dy="-3.54995"/>
<feGaussianBlur stdDeviation="1.77497"/>
<feComposite in2="hardAlpha" operator="arithmetic" k2="-1" k3="1"/>
<feColorMatrix type="matrix" values="0 0 0 0 0 0 0 0 0 0 0 0 0 0 0 0 0 0 0.05 0"/>
<feBlend mode="normal" in2="effect4_innerShadow_1469_10111" result="effect5_innerShadow_1469_10111"/>
<feColorMatrix in="SourceAlpha" type="matrix" values="0 0 0 0 0 0 0 0 0 0 0 0 0 0 0 0 0 0 127 0" result="hardAlpha"/>
<feOffset dx="3.54995"/>
<feGaussianBlur stdDeviation="1.77497"/>
<feComposite in2="hardAlpha" operator="arithmetic" k2="-1" k3="1"/>
<feColorMatrix type="matrix" values="0 0 0 0 0 0 0 0 0 0 0 0 0 0 0 0 0 0 0.02 0"/>
<feBlend mode="normal" in2="effect5_innerShadow_1469_10111" result="effect6_innerShadow_1469_10111"/>
<feColorMatrix in="SourceAlpha" type="matrix" values="0 0 0 0 0 0 0 0 0 0 0 0 0 0 0 0 0 0 127 0" result="hardAlpha"/>
<feOffset dx="-3.54995"/>
<feGaussianBlur stdDeviation="1.77497"/>
<feComposite in2="hardAlpha" operator="arithmetic" k2="-1" k3="1"/>
<feColorMatrix type="matrix" values="0 0 0 0 0 0 0 0 0 0 0 0 0 0 0 0 0 0 0.02 0"/>
<feBlend mode="normal" in2="effect6_innerShadow_1469_10111" result="effect7_innerShadow_1469_10111"/>
</filter>
<filter id="filter2_ddi_1469_10111" x="296.781" y="360.687" width="95.4716" height="95.4719" filterUnits="userSpaceOnUse" color-interpolation-filters="sRGB">
<feFlood flood-opacity="0" result="BackgroundImageFix"/>
<feColorMatrix in="SourceAlpha" type="matrix" values="0 0 0 0 0 0 0 0 0 0 0 0 0 0 0 0 0 0 127 0" result="hardAlpha"/>
<feOffset dy="7.09989"/>
<feGaussianBlur stdDeviation="8.87487"/>
<feColorMatrix type="matrix" values="0 0 0 0 0.792157 0 0 0 0 0.439216 0 0 0 0 0.0313726 0 0 0 0.5 0"/>
<feBlend mode="normal" in2="BackgroundImageFix" result="effect1_dropShadow_1469_10111"/>
<feColorMatrix in="SourceAlpha" type="matrix" values="0 0 0 0 0 0 0 0 0 0 0 0 0 0 0 0 0 0 127 0" result="hardAlpha"/>
<feOffset dy="3.54995"/>
<feGaussianBlur stdDeviation="5.32492"/>
<feColorMatrix type="matrix" values="0 0 0 0 0.791667 0 0 0 0 0.440879 0 0 0 0 0.0329861 0 0 0 0.3 0"/>
<feBlend mode="normal" in2="effect1_dropShadow_1469_10111" result="effect2_dropShadow_1469_10111"/>
<feBlend mode="normal" in="SourceGraphic" in2="effect2_dropShadow_1469_10111" result="shape"/>
<feColorMatrix in="SourceAlpha" type="matrix" values="0 0 0 0 0 0 0 0 0 0 0 0 0 0 0 0 0 0 127 0" result="hardAlpha"/>
<feOffset dx="-0.887487" dy="-0.887487"/>
<feGaussianBlur stdDeviation="0.443743"/>
<feComposite in2="hardAlpha" operator="arithmetic" k2="-1" k3="1"/>
<feColorMatrix type="matrix" values="0 0 0 0 1 0 0 0 0 0.662745 0 0 0 0 0.270588 0 0 0 0.24 0"/>
<feBlend mode="normal" in2="shape" result="effect3_innerShadow_1469_10111"/>
</filter>
<filter id="filter3_dddiiii_1469_10111" x="-27.8156" y="-3.81608" width="166.398" height="166.399" filterUnits="userSpaceOnUse" color-interpolation-filters="sRGB">
<feFlood flood-opacity="0" result="BackgroundImageFix"/>
<feColorMatrix in="SourceAlpha" type="matrix" values="0 0 0 0 0 0 0 0 0 0 0 0 0 0 0 0 0 0 127 0" result="hardAlpha"/>
<feOffset dx="38.1608" dy="38.1608"/>
<feGaussianBlur stdDeviation="19.0804"/>
<feColorMatrix type="matrix" values="0 0 0 0 0.960784 0 0 0 0 0.32549 0 0 0 0 0.32549 0 0 0 0.1 0"/>
<feBlend mode="normal" in2="BackgroundImageFix" result="effect1_dropShadow_1469_10111"/>
<feColorMatrix in="SourceAlpha" type="matrix" values="0 0 0 0 0 0 0 0 0 0 0 0 0 0 0 0 0 0 127 0" result="hardAlpha"/>
<feOffset dx="15.2643" dy="15.2643"/>
<feGaussianBlur stdDeviation="7.63216"/>
<feColorMatrix type="matrix" values="0 0 0 0 0.960784 0 0 0 0 0.32549 0 0 0 0 0.32549 0 0 0 0.1 0"/>
<feBlend mode="normal" in2="effect1_dropShadow_1469_10111" result="effect2_dropShadow_1469_10111"/>
<feColorMatrix in="SourceAlpha" type="matrix" values="0 0 0 0 0 0 0 0 0 0 0 0 0 0 0 0 0 0 127 0" result="hardAlpha"/>
<feOffset dx="7.63216" dy="7.63216"/>
<feGaussianBlur stdDeviation="3.81608"/>
<feColorMatrix type="matrix" values="0 0 0 0 0.960784 0 0 0 0 0.32549 0 0 0 0 0.32549 0 0 0 0.2 0"/>
<feBlend mode="normal" in2="effect2_dropShadow_1469_10111" result="effect3_dropShadow_1469_10111"/>
<feBlend mode="normal" in="SourceGraphic" in2="effect3_dropShadow_1469_10111" result="shape"/>
<feColorMatrix in="SourceAlpha" type="matrix" values="0 0 0 0 0 0 0 0 0 0 0 0 0 0 0 0 0 0 127 0" result="hardAlpha"/>
<feOffset dy="1.90804"/>
<feGaussianBlur stdDeviation="0.95402"/>
<feComposite in2="hardAlpha" operator="arithmetic" k2="-1" k3="1"/>
<feColorMatrix type="matrix" values="0 0 0 0 1 0 0 0 0 1 0 0 0 0 1 0 0 0 0.1 0"/>
<feBlend mode="normal" in2="shape" result="effect4_innerShadow_1469_10111"/>
<feColorMatrix in="SourceAlpha" type="matrix" values="0 0 0 0 0 0 0 0 0 0 0 0 0 0 0 0 0 0 127 0" result="hardAlpha"/>
<feOffset dy="-3.81608"/>
<feGaussianBlur stdDeviation="1.90804"/>
<feComposite in2="hardAlpha" operator="arithmetic" k2="-1" k3="1"/>
<feColorMatrix type="matrix" values="0 0 0 0 0 0 0 0 0 0 0 0 0 0 0 0 0 0 0.05 0"/>
<feBlend mode="normal" in2="effect4_innerShadow_1469_10111" result="effect5_innerShadow_1469_10111"/>
<feColorMatrix in="SourceAlpha" type="matrix" values="0 0 0 0 0 0 0 0 0 0 0 0 0 0 0 0 0 0 127 0" result="hardAlpha"/>
<feOffset dx="3.81608"/>
<feGaussianBlur stdDeviation="1.90804"/>
<feComposite in2="hardAlpha" operator="arithmetic" k2="-1" k3="1"/>
<feColorMatrix type="matrix" values="0 0 0 0 0 0 0 0 0 0 0 0 0 0 0 0 0 0 0.02 0"/>
<feBlend mode="normal" in2="effect5_innerShadow_1469_10111" result="effect6_innerShadow_1469_10111"/>
<feColorMatrix in="SourceAlpha" type="matrix" values="0 0 0 0 0 0 0 0 0 0 0 0 0 0 0 0 0 0 127 0" result="hardAlpha"/>
<feOffset dx="-3.81608"/>
<feGaussianBlur stdDeviation="1.90804"/>
<feComposite in2="hardAlpha" operator="arithmetic" k2="-1" k3="1"/>
<feColorMatrix type="matrix" values="0 0 0 0 0 0 0 0 0 0 0 0 0 0 0 0 0 0 0.02 0"/>
<feBlend mode="normal" in2="effect6_innerShadow_1469_10111" result="effect7_innerShadow_1469_10111"/>
</filter>
<filter id="filter4_dd_1469_10111" x="-32.2977" y="-0.665531" width="102.857" height="102.857" filterUnits="userSpaceOnUse" color-interpolation-filters="sRGB">
<feFlood flood-opacity="0" result="BackgroundImageFix"/>
<feColorMatrix in="SourceAlpha" type="matrix" values="0 0 0 0 0 0 0 0 0 0 0 0 0 0 0 0 0 0 127 0" result="hardAlpha"/>
<feOffset dy="7.63216"/>
<feGaussianBlur stdDeviation="9.5402"/>
<feColorMatrix type="matrix" values="0 0 0 0 0.658333 0 0 0 0 0.0411459 0 0 0 0 0.0411459 0 0 0 0.5 0"/>
<feBlend mode="normal" in2="BackgroundImageFix" result="effect1_dropShadow_1469_10111"/>
<feColorMatrix in="SourceAlpha" type="matrix" values="0 0 0 0 0 0 0 0 0 0 0 0 0 0 0 0 0 0 127 0" result="hardAlpha"/>
<feOffset dy="3.81608"/>
<feGaussianBlur stdDeviation="5.72412"/>
<feColorMatrix type="matrix" values="0 0 0 0 0.658824 0 0 0 0 0.0392157 0 0 0 0 0.0392157 0 0 0 0.3 0"/>
<feBlend mode="normal" in2="effect1_dropShadow_1469_10111" result="effect2_dropShadow_1469_10111"/>
<feBlend mode="normal" in="SourceGraphic" in2="effect2_dropShadow_1469_10111" result="shape"/>
</filter>
<filter id="filter5_dddiiii_1469_10111" x="-29.8172" y="314.186" width="165.133" height="165.133" filterUnits="userSpaceOnUse" color-interpolation-filters="sRGB">
<feFlood flood-opacity="0" result="BackgroundImageFix"/>
<feColorMatrix in="SourceAlpha" type="matrix" values="0 0 0 0 0 0 0 0 0 0 0 0 0 0 0 0 0 0 127 0" result="hardAlpha"/>
<feOffset dx="38.143" dy="38.143"/>
<feGaussianBlur stdDeviation="19.0715"/>
<feColorMatrix type="matrix" values="0 0 0 0 0.117647 0 0 0 0 0.117647 0 0 0 0 0.117647 0 0 0 0.1 0"/>
<feBlend mode="normal" in2="BackgroundImageFix" result="effect1_dropShadow_1469_10111"/>
<feColorMatrix in="SourceAlpha" type="matrix" values="0 0 0 0 0 0 0 0 0 0 0 0 0 0 0 0 0 0 127 0" result="hardAlpha"/>
<feOffset dx="15.2572" dy="15.2572"/>
<feGaussianBlur stdDeviation="7.62859"/>
<feColorMatrix type="matrix" values="0 0 0 0 0.117647 0 0 0 0 0.117647 0 0 0 0 0.117647 0 0 0 0.1 0"/>
<feBlend mode="normal" in2="effect1_dropShadow_1469_10111" result="effect2_dropShadow_1469_10111"/>
<feColorMatrix in="SourceAlpha" type="matrix" values="0 0 0 0 0 0 0 0 0 0 0 0 0 0 0 0 0 0 127 0" result="hardAlpha"/>
<feOffset dx="7.62859" dy="7.62859"/>
<feGaussianBlur stdDeviation="3.8143"/>
<feColorMatrix type="matrix" values="0 0 0 0 0.117647 0 0 0 0 0.117647 0 0 0 0 0.117647 0 0 0 0.2 0"/>
<feBlend mode="normal" in2="effect2_dropShadow_1469_10111" result="effect3_dropShadow_1469_10111"/>
<feBlend mode="normal" in="SourceGraphic" in2="effect3_dropShadow_1469_10111" result="shape"/>
<feColorMatrix in="SourceAlpha" type="matrix" values="0 0 0 0 0 0 0 0 0 0 0 0 0 0 0 0 0 0 127 0" result="hardAlpha"/>
<feOffset dy="1.90715"/>
<feGaussianBlur stdDeviation="0.953574"/>
<feComposite in2="hardAlpha" operator="arithmetic" k2="-1" k3="1"/>
<feColorMatrix type="matrix" values="0 0 0 0 1 0 0 0 0 1 0 0 0 0 1 0 0 0 0.1 0"/>
<feBlend mode="normal" in2="shape" result="effect4_innerShadow_1469_10111"/>
<feColorMatrix in="SourceAlpha" type="matrix" values="0 0 0 0 0 0 0 0 0 0 0 0 0 0 0 0 0 0 127 0" result="hardAlpha"/>
<feOffset dy="-3.8143"/>
<feGaussianBlur stdDeviation="1.90715"/>
<feComposite in2="hardAlpha" operator="arithmetic" k2="-1" k3="1"/>
<feColorMatrix type="matrix" values="0 0 0 0 0 0 0 0 0 0 0 0 0 0 0 0 0 0 0.05 0"/>
<feBlend mode="normal" in2="effect4_innerShadow_1469_10111" result="effect5_innerShadow_1469_10111"/>
<feColorMatrix in="SourceAlpha" type="matrix" values="0 0 0 0 0 0 0 0 0 0 0 0 0 0 0 0 0 0 127 0" result="hardAlpha"/>
<feOffset dx="3.8143"/>
<feGaussianBlur stdDeviation="1.90715"/>
<feComposite in2="hardAlpha" operator="arithmetic" k2="-1" k3="1"/>
<feColorMatrix type="matrix" values="0 0 0 0 0 0 0 0 0 0 0 0 0 0 0 0 0 0 0.02 0"/>
<feBlend mode="normal" in2="effect5_innerShadow_1469_10111" result="effect6_innerShadow_1469_10111"/>
<feColorMatrix in="SourceAlpha" type="matrix" values="0 0 0 0 0 0 0 0 0 0 0 0 0 0 0 0 0 0 127 0" result="hardAlpha"/>
<feOffset dx="-3.8143"/>
<feGaussianBlur stdDeviation="1.90715"/>
<feComposite in2="hardAlpha" operator="arithmetic" k2="-1" k3="1"/>
<feColorMatrix type="matrix" values="0 0 0 0 0 0 0 0 0 0 0 0 0 0 0 0 0 0 0.02 0"/>
<feBlend mode="normal" in2="effect6_innerShadow_1469_10111" result="effect7_innerShadow_1469_10111"/>
</filter>
<filter id="filter6_ddi_1469_10111" x="-19.1878" y="324.815" width="71.4035" height="71.4035" filterUnits="userSpaceOnUse" color-interpolation-filters="sRGB">
<feFlood flood-opacity="0" result="BackgroundImageFix"/>
<feColorMatrix in="SourceAlpha" type="matrix" values="0 0 0 0 0 0 0 0 0 0 0 0 0 0 0 0 0 0 127 0" result="hardAlpha"/>
<feOffset dx="1.90715" dy="1.90715"/>
<feGaussianBlur stdDeviation="0.953574"/>
<feColorMatrix type="matrix" values="0 0 0 0 0 0 0 0 0 0 0 0 0 0 0 0 0 0 0.25 0"/>
<feBlend mode="normal" in2="BackgroundImageFix" result="effect1_dropShadow_1469_10111"/>
<feColorMatrix in="SourceAlpha" type="matrix" values="0 0 0 0 0 0 0 0 0 0 0 0 0 0 0 0 0 0 127 0" result="hardAlpha"/>
<feOffset/>
<feGaussianBlur stdDeviation="1.90715"/>
<feColorMatrix type="matrix" values="0 0 0 0 0 0 0 0 0 0 0 0 0 0 0 0 0 0 0.7 0"/>
<feBlend mode="normal" in2="effect1_dropShadow_1469_10111" result="effect2_dropShadow_1469_10111"/>
<feBlend mode="normal" in="SourceGraphic" in2="effect2_dropShadow_1469_10111" result="shape"/>
<feColorMatrix in="SourceAlpha" type="matrix" values="0 0 0 0 0 0 0 0 0 0 0 0 0 0 0 0 0 0 127 0" result="hardAlpha"/>
<feOffset dx="-0.953574" dy="-0.953574"/>
<feGaussianBlur stdDeviation="0.476787"/>
<feComposite in2="hardAlpha" operator="arithmetic" k2="-1" k3="1"/>
<feColorMatrix type="matrix" values="0 0 0 0 0 0 0 0 0 0 0 0 0 0 0 0 0 0 0.16 0"/>
<feBlend mode="normal" in2="shape" result="effect3_innerShadow_1469_10111"/>
</filter>
<filter id="filter7_dddiiii_1469_10111" x="306.757" y="115.734" width="144.505" height="144.505" filterUnits="userSpaceOnUse" color-interpolation-filters="sRGB">
<feFlood flood-opacity="0" result="BackgroundImageFix"/>
<feColorMatrix in="SourceAlpha" type="matrix" values="0 0 0 0 0 0 0 0 0 0 0 0 0 0 0 0 0 0 127 0" result="hardAlpha"/>
<feOffset dx="33.2104" dy="33.2104"/>
<feGaussianBlur stdDeviation="16.6052"/>
<feColorMatrix type="matrix" values="0 0 0 0 0.203922 0 0 0 0 0.913725 0 0 0 0 0.486275 0 0 0 0.1 0"/>
<feBlend mode="normal" in2="BackgroundImageFix" result="effect1_dropShadow_1469_10111"/>
<feColorMatrix in="SourceAlpha" type="matrix" values="0 0 0 0 0 0 0 0 0 0 0 0 0 0 0 0 0 0 127 0" result="hardAlpha"/>
<feOffset dx="13.2842" dy="13.2842"/>
<feGaussianBlur stdDeviation="6.64208"/>
<feColorMatrix type="matrix" values="0 0 0 0 0.203922 0 0 0 0 0.913725 0 0 0 0 0.486275 0 0 0 0.1 0"/>
<feBlend mode="normal" in2="effect1_dropShadow_1469_10111" result="effect2_dropShadow_1469_10111"/>
<feColorMatrix in="SourceAlpha" type="matrix" values="0 0 0 0 0 0 0 0 0 0 0 0 0 0 0 0 0 0 127 0" result="hardAlpha"/>
<feOffset dx="6.64208" dy="6.64208"/>
<feGaussianBlur stdDeviation="3.32104"/>
<feColorMatrix type="matrix" values="0 0 0 0 0.203922 0 0 0 0 0.913725 0 0 0 0 0.486275 0 0 0 0.2 0"/>
<feBlend mode="normal" in2="effect2_dropShadow_1469_10111" result="effect3_dropShadow_1469_10111"/>
<feBlend mode="normal" in="SourceGraphic" in2="effect3_dropShadow_1469_10111" result="shape"/>
<feColorMatrix in="SourceAlpha" type="matrix" values="0 0 0 0 0 0 0 0 0 0 0 0 0 0 0 0 0 0 127 0" result="hardAlpha"/>
<feOffset dy="1.66052"/>
<feGaussianBlur stdDeviation="0.83026"/>
<feComposite in2="hardAlpha" operator="arithmetic" k2="-1" k3="1"/>
<feColorMatrix type="matrix" values="0 0 0 0 1 0 0 0 0 1 0 0 0 0 1 0 0 0 0.1 0"/>
<feBlend mode="normal" in2="shape" result="effect4_innerShadow_1469_10111"/>
<feColorMatrix in="SourceAlpha" type="matrix" values="0 0 0 0 0 0 0 0 0 0 0 0 0 0 0 0 0 0 127 0" result="hardAlpha"/>
<feOffset dy="-3.32104"/>
<feGaussianBlur stdDeviation="1.66052"/>
<feComposite in2="hardAlpha" operator="arithmetic" k2="-1" k3="1"/>
<feColorMatrix type="matrix" values="0 0 0 0 0 0 0 0 0 0 0 0 0 0 0 0 0 0 0.05 0"/>
<feBlend mode="normal" in2="effect4_innerShadow_1469_10111" result="effect5_innerShadow_1469_10111"/>
<feColorMatrix in="SourceAlpha" type="matrix" values="0 0 0 0 0 0 0 0 0 0 0 0 0 0 0 0 0 0 127 0" result="hardAlpha"/>
<feOffset dx="3.32104"/>
<feGaussianBlur stdDeviation="1.66052"/>
<feComposite in2="hardAlpha" operator="arithmetic" k2="-1" k3="1"/>
<feColorMatrix type="matrix" values="0 0 0 0 0 0 0 0 0 0 0 0 0 0 0 0 0 0 0.02 0"/>
<feBlend mode="normal" in2="effect5_innerShadow_1469_10111" result="effect6_innerShadow_1469_10111"/>
<feColorMatrix in="SourceAlpha" type="matrix" values="0 0 0 0 0 0 0 0 0 0 0 0 0 0 0 0 0 0 127 0" result="hardAlpha"/>
<feOffset dx="-3.32104"/>
<feGaussianBlur stdDeviation="1.66052"/>
<feComposite in2="hardAlpha" operator="arithmetic" k2="-1" k3="1"/>
<feColorMatrix type="matrix" values="0 0 0 0 0 0 0 0 0 0 0 0 0 0 0 0 0 0 0.02 0"/>
<feBlend mode="normal" in2="effect6_innerShadow_1469_10111" result="effect7_innerShadow_1469_10111"/>
</filter>
<filter id="filter8_ddi_1469_10111" x="302.818" y="118.438" width="89.2822" height="89.2824" filterUnits="userSpaceOnUse" color-interpolation-filters="sRGB">
<feFlood flood-opacity="0" result="BackgroundImageFix"/>
<feColorMatrix in="SourceAlpha" type="matrix" values="0 0 0 0 0 0 0 0 0 0 0 0 0 0 0 0 0 0 127 0" result="hardAlpha"/>
<feOffset dy="6.64208"/>
<feGaussianBlur stdDeviation="8.3026"/>
<feColorMatrix type="matrix" values="0 0 0 0 0 0 0 0 0 0.529167 0 0 0 0 0.338997 0 0 0 0.5 0"/>
<feBlend mode="normal" in2="BackgroundImageFix" result="effect1_dropShadow_1469_10111"/>
<feColorMatrix in="SourceAlpha" type="matrix" values="0 0 0 0 0 0 0 0 0 0 0 0 0 0 0 0 0 0 127 0" result="hardAlpha"/>
<feOffset dy="3.32104"/>
<feGaussianBlur stdDeviation="4.98156"/>
<feColorMatrix type="matrix" values="0 0 0 0 0 0 0 0 0 0.529412 0 0 0 0 0.337255 0 0 0 0.3 0"/>
<feBlend mode="normal" in2="effect1_dropShadow_1469_10111" result="effect2_dropShadow_1469_10111"/>
<feBlend mode="normal" in="SourceGraphic" in2="effect2_dropShadow_1469_10111" result="shape"/>
<feColorMatrix in="SourceAlpha" type="matrix" values="0 0 0 0 0 0 0 0 0 0 0 0 0 0 0 0 0 0 127 0" result="hardAlpha"/>
<feOffset dx="-1.66052" dy="-1.66052"/>
<feGaussianBlur stdDeviation="0.83026"/>
<feComposite in2="hardAlpha" operator="arithmetic" k2="-1" k3="1"/>
<feColorMatrix type="matrix" values="0 0 0 0 0.4 0 0 0 0 1 0 0 0 0 0.784314 0 0 0 0.24 0"/>
<feBlend mode="normal" in2="shape" result="effect3_innerShadow_1469_10111"/>
</filter>
<linearGradient id="paint0_linear_1469_10111" x1="2.325" y1="242.107" x2="360" y2="242.107" gradientUnits="userSpaceOnUse">
<stop stop-color="#FFA585"/>
<stop offset="1" stop-color="#FFEDA0"/>
</linearGradient>
<linearGradient id="paint1_linear_1469_10111" x1="304.535" y1="405.138" x2="368.468" y2="421.102" gradientUnits="userSpaceOnUse">
<stop stop-color="#FFD260"/>
<stop offset="1" stop-color="#FFA945"/>
<stop offset="1" stop-color="#FFA945"/>
</linearGradient>
<linearGradient id="paint2_linear_1469_10111" x1="17.1914" y1="0" x2="-3.39567" y2="67.778" gradientUnits="userSpaceOnUse">
<stop stop-color="#FF668B"/>
<stop offset="1" stop-color="#F55353"/>
</linearGradient>
<linearGradient id="paint3_linear_1469_10111" x1="9.125" y1="318" x2="-2.69666" y2="387.809" gradientUnits="userSpaceOnUse">
<stop stop-color="#808080"/>
<stop offset="1" stop-color="#1E1E1E"/>
</linearGradient>
<linearGradient id="paint4_linear_1469_10111" x1="310.078" y1="160.229" x2="369.977" y2="174.805" gradientUnits="userSpaceOnUse">
<stop stop-color="#66FFC8"/>
<stop offset="1" stop-color="#34E97C"/>
</linearGradient>
<linearGradient id="paint5_linear_1469_10111" x1="2.325" y1="242.107" x2="360" y2="242.107" gradientUnits="userSpaceOnUse">
<stop stop-color="#FFA585"/>
<stop offset="1" stop-color="#FFEDA0"/>
</linearGradient>
<clipPath id="clip0_1469_10111">
<rect width="360" height="504" rx="12" fill="white"/>
</clipPath>
<clipPath id="clip1_1469_10111">
<path d="M320.959 418.7C315.21 413.953 312.335 411.579 311.064 408.647C309.945 406.068 309.671 403.201 310.282 400.457C310.977 397.337 313.35 394.463 318.098 388.714L327.14 377.765C331.887 372.017 334.261 369.142 337.193 367.87C339.772 366.752 342.639 366.478 345.383 367.089C348.503 367.784 351.377 370.157 357.126 374.905L368.075 383.946C373.824 388.694 376.698 391.068 377.97 394C379.088 396.579 379.362 399.446 378.751 402.19C378.057 405.309 375.683 408.184 370.936 413.933L361.894 424.882C357.146 430.63 354.773 433.505 351.841 434.776C349.261 435.895 346.394 436.169 343.65 435.558C340.531 434.863 337.656 432.49 331.908 427.742L320.959 418.7Z" fill="white"/>
</clipPath>
<clipPath id="clip2_1469_10111">
<rect width="42.5994" height="42.5994" fill="white" transform="translate(314.53 404.184) rotate(-50.4496)"/>
</clipPath>
<clipPath id="clip3_1469_10111">
<path d="M1.74472 16.9012C7.15157 10.9852 9.855 8.02722 13.0715 6.81986C15.9007 5.75784 18.9936 5.61878 21.9068 6.42259C25.2186 7.33641 28.1766 10.0398 34.0926 15.4467L45.36 25.7444C51.276 31.1513 54.234 33.8547 55.4413 37.0712C56.5033 39.9005 56.6424 42.9933 55.8386 45.9065C54.9248 49.2184 52.2214 52.1763 46.8145 58.0923L36.5167 69.3597C31.1099 75.2757 28.4065 78.2337 25.19 79.441C22.3607 80.5031 19.2678 80.6421 16.3547 79.8383C13.0428 78.9245 10.0848 76.2211 4.16888 70.8142L-7.09855 60.5165C-13.0145 55.1096 -15.9725 52.4062 -17.1799 49.1897C-18.2419 46.3604 -18.381 43.2676 -17.5771 40.3544C-16.6633 37.0426 -13.9599 34.0846 -8.55305 28.1686L1.74472 16.9012Z" fill="white"/>
</clipPath>
<clipPath id="clip4_1469_10111">
<rect width="45.793" height="45.793" fill="white" transform="translate(17.6763 10.7827) rotate(42.4255)"/>
</clipPath>
<clipPath id="clip5_1469_10111">
<path d="M-4.04792 336.715C0.563039 330.164 2.86852 326.888 5.90452 325.284C8.57506 323.872 11.6239 323.342 14.6141 323.77C18.0135 324.256 21.2888 326.562 27.8395 331.173L40.3159 339.955C46.8666 344.566 50.1419 346.871 51.7466 349.907C53.1581 352.578 53.688 355.627 53.2602 358.617C52.7739 362.016 50.4684 365.292 45.8575 371.842L37.0756 384.319C32.4646 390.869 30.1591 394.145 27.1231 395.749C24.4526 397.161 21.4037 397.691 18.4136 397.263C15.0142 396.777 11.7388 394.471 5.18813 389.86L-7.28821 381.078C-13.8389 376.467 -17.1143 374.162 -18.719 371.126C-20.1305 368.455 -20.6603 365.406 -20.2326 362.416C-19.7463 359.017 -17.4408 355.742 -12.8298 349.191L-4.04792 336.715Z" fill="white"/>
</clipPath>
<clipPath id="clip6_1469_10111">
<rect width="45.7716" height="45.7716" fill="white" transform="translate(10.9722 328.629) rotate(35.1412)"/>
</clipPath>
<clipPath id="clip7_1469_10111">
<path d="M325.518 172.825C320.114 168.416 317.412 166.212 316.205 163.476C315.144 161.07 314.872 158.389 315.428 155.818C316.06 152.896 318.265 150.194 322.674 144.789L331.071 134.496C335.48 129.091 337.684 126.389 340.42 125.182C342.826 124.121 345.507 123.849 348.078 124.405C351 125.038 353.702 127.242 359.107 131.651L369.4 140.048C374.805 144.457 377.507 146.661 378.714 149.397C379.775 151.804 380.047 154.484 379.491 157.055C378.858 159.977 376.654 162.679 372.245 168.084L363.848 178.378C359.439 183.782 357.235 186.485 354.499 187.691C352.092 188.752 349.412 189.024 346.841 188.468C343.919 187.836 341.217 185.631 335.812 181.222L325.518 172.825Z" fill="white"/>
</clipPath>
<clipPath id="clip8_1469_10111">
<rect width="39.8525" height="39.8525" fill="white" transform="translate(319.423 159.281) rotate(-50.7937)"/>
</clipPath>
</defs>
</svg>
