<svg width="360" height="504" viewBox="0 0 360 504" fill="none" xmlns="http://www.w3.org/2000/svg">
<g clip-path="url(#clip0_1469_10050)">
<rect width="360" height="504" rx="12" fill="url(#paint0_linear_1469_10050)" fill-opacity="0.14"/>
<g filter="url(#filter1_dddiiii_1469_10050)">
<g clip-path="url(#clip1_1469_10050)">
<path d="M312.91 421.857C307.341 416.106 304.557 413.231 303.549 409.95C302.662 407.065 302.712 403.973 303.69 401.117C304.803 397.871 307.678 395.086 313.429 389.517L324.382 378.91C330.132 373.341 333.008 370.556 336.288 369.548C339.173 368.662 342.265 368.711 345.121 369.69C348.367 370.803 351.152 373.678 356.721 379.429L367.328 390.381C372.897 396.132 375.682 399.007 376.69 402.288C377.576 405.173 377.527 408.265 376.548 411.121C375.436 414.367 372.56 417.152 366.81 422.721L355.857 433.328C350.106 438.897 347.231 441.682 343.951 442.69C341.065 443.576 337.973 443.527 335.118 442.548C331.871 441.435 329.087 438.56 323.517 432.809L312.91 421.857Z" fill="url(#paint1_linear_1469_10050)"/>
<g clip-path="url(#clip2_1469_10050)" filter="url(#filter2_dd_1469_10050)">
<path fill-rule="evenodd" clip-rule="evenodd" d="M342.927 387.753C342.397 388.719 341.897 389.645 341.32 390.609C341.062 390.332 340.672 389.957 340.502 389.765C338.26 391.483 335.753 393.456 333.465 395.259C333.118 395.533 332.785 395.892 332.459 396.075C332.218 396.21 331.864 396.163 331.57 396.302C330.822 396.657 329.619 398.028 330.138 398.587C330.636 399.122 331.775 398.283 332.301 397.548C332.511 397.255 332.545 396.891 332.718 396.67C332.919 396.411 333.355 396.154 333.696 395.88C335.861 394.151 338.27 392.326 340.407 390.595C340.61 390.804 340.812 391.013 341.015 391.223C339.291 394.201 337.616 397.267 335.905 400.343C335.67 400.765 335.415 401.382 335.16 401.645C334.835 401.981 333.957 402.267 333.428 402.53C329.463 404.507 325.442 406.469 321.502 408.429C321.141 408.057 320.781 407.684 320.42 407.312C322.95 403.051 325.64 398.759 328.136 394.558C328.4 394.113 329.379 393.699 329.953 393.379C333.84 391.217 338.048 388.882 341.918 386.703L342.927 387.753Z" fill="white"/>
<path fill-rule="evenodd" clip-rule="evenodd" d="M341.63 391.04C341.649 391.022 341.667 391.004 341.685 390.987C342.309 391.631 342.934 392.276 343.559 392.921C344.176 392.621 345.215 393.094 345.206 393.913C346.179 393.415 347.117 395.142 348.07 395.944C347.715 396.784 346.775 397.666 345.917 398.029C345.153 397.06 343.476 396.077 344.005 395.128C343.215 395.06 342.63 393.994 343.121 393.397C342.532 392.789 341.942 392.18 341.353 391.571C341.413 391.393 341.563 391.217 341.63 391.04Z" fill="white"/>
<path fill-rule="evenodd" clip-rule="evenodd" d="M340.397 394.618C338.84 397.259 337.414 399.901 335.923 402.542C333.102 403.913 330.281 405.317 327.458 406.726C327.431 406.761 327.471 406.798 327.511 406.834C329.277 408.661 330.968 410.4 332.682 412.174C337.019 412.004 343.511 406.59 345.056 401.829C345.226 401.303 345.626 400.089 345.384 399.767L340.397 394.618L340.397 394.618Z" fill="white"/>
<path fill-rule="evenodd" clip-rule="evenodd" d="M351.397 417.921C344.923 420.142 338.447 422.467 331.971 424.746C330.108 424.737 327.564 422.238 327.239 420.297C328.334 417.444 329.433 414.591 330.57 411.739C331.111 412.247 331.583 412.996 332.179 413.4C332.586 413.676 334.065 413.177 334.574 413.037C336.889 412.396 339.561 410.9 341.752 408.779C345.026 405.608 346.665 402.412 346.705 399.387C346.581 399.26 346.458 399.133 346.335 399.006C347.731 398.436 349.062 396.749 349.422 395.541C348.789 394.887 348.156 394.233 347.523 393.579C349.526 393.012 351.529 392.498 353.531 391.931C351.01 398.983 348.409 406.033 345.868 413.084C340.027 415.379 334.187 417.606 328.347 419.858C328.306 421.353 330.356 423.458 331.854 423.698C337.574 421.657 350.188 417.294 350.337 417.153C350.506 416.991 350.691 416.222 350.814 415.846C352.908 409.432 355.124 402.922 357.241 396.524C357.315 396.392 357.044 396.253 356.952 396.117C357.212 396.094 357.473 395.978 357.732 395.996C357.959 396.187 358.02 396.376 358.233 396.567L351.397 417.921Z" fill="white"/>
<path fill-rule="evenodd" clip-rule="evenodd" d="M347.096 414.317L329.593 420.76L329.341 420.563L346.845 414.12L347.096 414.317Z" fill="white"/>
<path fill-rule="evenodd" clip-rule="evenodd" d="M348.312 415.375L330.808 421.818L330.557 421.621L348.06 415.178L348.312 415.375Z" fill="white"/>
<path fill-rule="evenodd" clip-rule="evenodd" d="M349.423 416.39L331.92 422.834L331.668 422.636L349.171 416.193L349.423 416.39Z" fill="white"/>
</g>
</g>
</g>
<g filter="url(#filter3_dddiiii_1469_10050)">
<g clip-path="url(#clip3_1469_10050)">
<path d="M-0.354389 26.3717C4.19156 21.3411 6.46453 18.8258 9.17986 17.7891C11.5683 16.8772 14.1842 16.7448 16.6525 17.411C19.4586 18.1683 21.9739 20.4413 27.0045 24.9872L36.5856 33.6453C41.6161 38.1913 44.1314 40.4643 45.1681 43.1796C46.0801 45.5681 46.2124 48.1839 45.5463 50.6523C44.789 53.4584 42.516 55.9737 37.97 61.0042L29.3119 70.5853C24.766 75.6159 22.493 78.1312 19.7777 79.1679C17.3892 80.0798 14.7733 80.2122 12.305 79.546C9.49887 78.7887 6.98359 76.5157 1.95304 71.9698L-7.62808 63.3116C-12.6586 58.7657 -15.1739 56.4927 -16.2106 53.7774C-17.1225 51.3889 -17.2549 48.7731 -16.5888 46.3047C-15.8315 43.4986 -13.5585 40.9833 -9.01253 35.9528L-0.354389 26.3717Z" fill="url(#paint2_linear_1469_10050)"/>
<g clip-path="url(#clip4_1469_10050)" filter="url(#filter4_dd_1469_10050)">
<g filter="url(#filter5_i_1469_10050)">
<path d="M11.6841 49.1637C8.99433 52.1401 4.40096 52.3726 1.42449 49.6828C-1.55197 46.9931 -1.78442 42.3997 0.905322 39.4233C3.59506 36.4468 8.18843 36.2143 11.1649 38.9041C14.1414 41.5938 14.3738 46.1872 11.6841 49.1637Z" fill="white"/>
<path d="M20.9081 56.4113C17.6206 60.0492 12.0065 60.3333 8.3686 57.0458C4.7307 53.7584 4.4466 48.1443 7.73406 44.5063C11.0215 40.8684 16.6356 40.5843 20.2735 43.8718C23.9115 47.1593 24.1955 52.7734 20.9081 56.4113Z" fill="white"/>
<path d="M24.8581 61.0686C22.1684 64.0451 17.575 64.2775 14.5985 61.5878C11.6221 58.898 11.3896 54.3047 14.0793 51.3282C16.7691 48.3517 21.3625 48.1193 24.3389 50.809C27.3154 53.4988 27.5478 58.0921 24.8581 61.0686Z" fill="white"/>
</g>
<g filter="url(#filter6_di_1469_10050)">
<circle cx="14.0437" cy="39.3298" r="8.071" transform="rotate(42.1031 14.0437 39.3298)" fill="#FFA945"/>
</g>
</g>
</g>
</g>
<g filter="url(#filter7_dddiiii_1469_10050)">
<g clip-path="url(#clip5_1469_10050)">
<path d="M-9.34815 301.236C-6.06642 294.512 -4.42555 291.15 -1.86354 289.22C0.390063 287.523 3.12313 286.583 5.94396 286.534C9.15081 286.479 12.5127 288.12 19.2366 291.402L32.0428 297.652C38.7667 300.934 42.1286 302.575 44.0582 305.137C45.7554 307.39 46.6956 310.123 46.7441 312.944C46.7992 316.151 45.1583 319.513 41.8766 326.237L35.6263 339.043C32.3446 345.767 30.7037 349.129 28.1417 351.058C25.8881 352.756 23.155 353.696 20.3342 353.744C17.1273 353.8 13.7654 352.159 7.04151 348.877L-5.76468 342.627C-12.4886 339.345 -15.8505 337.704 -17.78 335.142C-19.4773 332.888 -20.4175 330.155 -20.466 327.335C-20.5211 324.128 -18.8802 320.766 -15.5985 314.042L-9.34815 301.236Z" fill="url(#paint3_linear_1469_10050)"/>
<g clip-path="url(#clip6_1469_10050)" filter="url(#filter8_ddi_1469_10050)">
<path fill-rule="evenodd" clip-rule="evenodd" d="M6.5829 301.083C4.81473 300.22 2.68176 300.954 1.81877 302.722L-7.55673 321.931C-8.41972 323.699 -7.68593 325.832 -5.91776 326.695L19.6946 339.196C21.4628 340.059 23.5958 339.325 24.4587 337.557L33.8342 318.348C34.6972 316.579 33.9634 314.446 32.1953 313.584L6.5829 301.083ZM14.2242 314.453C13.967 314.041 13.5065 313.801 13.0215 313.827C12.5365 313.852 12.1034 314.138 11.8904 314.575L7.98398 322.579C7.77096 323.015 7.81157 323.533 8.09004 323.931C8.36851 324.329 8.84096 324.544 9.32396 324.493L17.6803 323.617C18.1384 323.569 18.5394 323.288 18.7415 322.874C18.9435 322.46 18.918 321.971 18.6741 321.58L14.2242 314.453Z" fill="white"/>
</g>
</g>
</g>
<g filter="url(#filter9_dddiiii_1469_10050)">
<g clip-path="url(#clip7_1469_10050)">
<path d="M321.572 214.684C316.122 210.078 313.396 207.776 312.21 204.956C311.168 202.475 310.937 199.728 311.551 197.109C312.249 194.13 314.552 191.405 319.157 185.954L327.929 175.572C332.534 170.122 334.837 167.396 337.657 166.21C340.137 165.168 342.884 164.937 345.504 165.551C348.482 166.249 351.208 168.552 356.658 173.157L367.04 181.929C372.491 186.534 375.216 188.837 376.402 191.657C377.445 194.137 377.676 196.884 377.062 199.504C376.363 202.482 374.061 205.208 369.455 210.658L360.684 221.04C356.078 226.491 353.776 229.216 350.956 230.402C348.475 231.445 345.728 231.676 343.109 231.062C340.13 230.363 337.405 228.061 331.954 223.455L321.572 214.684Z" fill="url(#paint4_linear_1469_10050)"/>
<g clip-path="url(#clip8_1469_10050)" filter="url(#filter10_ddi_1469_10050)">
<ellipse cx="343.862" cy="197.99" rx="16.9888" ry="13.5911" transform="rotate(-49.8054 343.862 197.99)" fill="white"/>
<path d="M349.656 209.558L345.069 212.355C346.877 213.781 347.012 215.258 346.77 218.24C348.5 215.519 349.278 213.556 349.656 209.558Z" fill="white"/>
</g>
</g>
</g>
</g>
<rect x="1" y="1" width="358" height="502" rx="11" stroke="url(#paint5_linear_1469_10050)" stroke-width="2"/>
<defs>
<filter id="filter1_dddiiii_1469_10050" x="293.188" y="359.188" width="166.285" height="166.285" filterUnits="userSpaceOnUse" color-interpolation-filters="sRGB">
<feFlood flood-opacity="0" result="BackgroundImageFix"/>
<feColorMatrix in="SourceAlpha" type="matrix" values="0 0 0 0 0 0 0 0 0 0 0 0 0 0 0 0 0 0 127 0" result="hardAlpha"/>
<feOffset dx="38.1173" dy="38.1173"/>
<feGaussianBlur stdDeviation="19.0586"/>
<feColorMatrix type="matrix" values="0 0 0 0 0.933333 0 0 0 0 0.72549 0 0 0 0 0.635294 0 0 0 0.1 0"/>
<feBlend mode="normal" in2="BackgroundImageFix" result="effect1_dropShadow_1469_10050"/>
<feColorMatrix in="SourceAlpha" type="matrix" values="0 0 0 0 0 0 0 0 0 0 0 0 0 0 0 0 0 0 127 0" result="hardAlpha"/>
<feOffset dx="15.2469" dy="15.2469"/>
<feGaussianBlur stdDeviation="7.62345"/>
<feColorMatrix type="matrix" values="0 0 0 0 0.933333 0 0 0 0 0.72549 0 0 0 0 0.635294 0 0 0 0.1 0"/>
<feBlend mode="normal" in2="effect1_dropShadow_1469_10050" result="effect2_dropShadow_1469_10050"/>
<feColorMatrix in="SourceAlpha" type="matrix" values="0 0 0 0 0 0 0 0 0 0 0 0 0 0 0 0 0 0 127 0" result="hardAlpha"/>
<feOffset dx="7.62345" dy="7.62345"/>
<feGaussianBlur stdDeviation="3.81173"/>
<feColorMatrix type="matrix" values="0 0 0 0 0.932438 0 0 0 0 0.727383 0 0 0 0 0.634859 0 0 0 0.2 0"/>
<feBlend mode="normal" in2="effect2_dropShadow_1469_10050" result="effect3_dropShadow_1469_10050"/>
<feBlend mode="normal" in="SourceGraphic" in2="effect3_dropShadow_1469_10050" result="shape"/>
<feColorMatrix in="SourceAlpha" type="matrix" values="0 0 0 0 0 0 0 0 0 0 0 0 0 0 0 0 0 0 127 0" result="hardAlpha"/>
<feOffset dy="1.90586"/>
<feGaussianBlur stdDeviation="0.952932"/>
<feComposite in2="hardAlpha" operator="arithmetic" k2="-1" k3="1"/>
<feColorMatrix type="matrix" values="0 0 0 0 1 0 0 0 0 1 0 0 0 0 1 0 0 0 0.1 0"/>
<feBlend mode="normal" in2="shape" result="effect4_innerShadow_1469_10050"/>
<feColorMatrix in="SourceAlpha" type="matrix" values="0 0 0 0 0 0 0 0 0 0 0 0 0 0 0 0 0 0 127 0" result="hardAlpha"/>
<feOffset dy="-3.81173"/>
<feGaussianBlur stdDeviation="1.90586"/>
<feComposite in2="hardAlpha" operator="arithmetic" k2="-1" k3="1"/>
<feColorMatrix type="matrix" values="0 0 0 0 0 0 0 0 0 0 0 0 0 0 0 0 0 0 0.05 0"/>
<feBlend mode="normal" in2="effect4_innerShadow_1469_10050" result="effect5_innerShadow_1469_10050"/>
<feColorMatrix in="SourceAlpha" type="matrix" values="0 0 0 0 0 0 0 0 0 0 0 0 0 0 0 0 0 0 127 0" result="hardAlpha"/>
<feOffset dx="3.81173"/>
<feGaussianBlur stdDeviation="1.90586"/>
<feComposite in2="hardAlpha" operator="arithmetic" k2="-1" k3="1"/>
<feColorMatrix type="matrix" values="0 0 0 0 0 0 0 0 0 0 0 0 0 0 0 0 0 0 0.02 0"/>
<feBlend mode="normal" in2="effect5_innerShadow_1469_10050" result="effect6_innerShadow_1469_10050"/>
<feColorMatrix in="SourceAlpha" type="matrix" values="0 0 0 0 0 0 0 0 0 0 0 0 0 0 0 0 0 0 127 0" result="hardAlpha"/>
<feOffset dx="-3.81173"/>
<feGaussianBlur stdDeviation="1.90586"/>
<feComposite in2="hardAlpha" operator="arithmetic" k2="-1" k3="1"/>
<feColorMatrix type="matrix" values="0 0 0 0 0 0 0 0 0 0 0 0 0 0 0 0 0 0 0.02 0"/>
<feBlend mode="normal" in2="effect6_innerShadow_1469_10050" result="effect7_innerShadow_1469_10050"/>
</filter>
<filter id="filter2_dd_1469_10050" x="288.737" y="362.361" width="102.796" height="102.796" filterUnits="userSpaceOnUse" color-interpolation-filters="sRGB">
<feFlood flood-opacity="0" result="BackgroundImageFix"/>
<feColorMatrix in="SourceAlpha" type="matrix" values="0 0 0 0 0 0 0 0 0 0 0 0 0 0 0 0 0 0 127 0" result="hardAlpha"/>
<feOffset dy="7.62345"/>
<feGaussianBlur stdDeviation="9.52932"/>
<feColorMatrix type="matrix" values="0 0 0 0 1 0 0 0 0 1 0 0 0 0 1 0 0 0 0.5 0"/>
<feBlend mode="normal" in2="BackgroundImageFix" result="effect1_dropShadow_1469_10050"/>
<feColorMatrix in="SourceAlpha" type="matrix" values="0 0 0 0 0 0 0 0 0 0 0 0 0 0 0 0 0 0 127 0" result="hardAlpha"/>
<feOffset dy="3.81173"/>
<feGaussianBlur stdDeviation="5.71759"/>
<feColorMatrix type="matrix" values="0 0 0 0 1 0 0 0 0 1 0 0 0 0 1 0 0 0 0.3 0"/>
<feBlend mode="normal" in2="effect1_dropShadow_1469_10050" result="effect2_dropShadow_1469_10050"/>
<feBlend mode="normal" in="SourceGraphic" in2="effect2_dropShadow_1469_10050" result="shape"/>
</filter>
<filter id="filter3_dddiiii_1469_10050" x="-25.2279" y="8.7716" width="140.753" height="140.753" filterUnits="userSpaceOnUse" color-interpolation-filters="sRGB">
<feFlood flood-opacity="0" result="BackgroundImageFix"/>
<feColorMatrix in="SourceAlpha" type="matrix" values="0 0 0 0 0 0 0 0 0 0 0 0 0 0 0 0 0 0 127 0" result="hardAlpha"/>
<feOffset dx="32.284" dy="32.284"/>
<feGaussianBlur stdDeviation="16.142"/>
<feColorMatrix type="matrix" values="0 0 0 0 0.415686 0 0 0 0 0.580392 0 0 0 0 1 0 0 0 0.1 0"/>
<feBlend mode="normal" in2="BackgroundImageFix" result="effect1_dropShadow_1469_10050"/>
<feColorMatrix in="SourceAlpha" type="matrix" values="0 0 0 0 0 0 0 0 0 0 0 0 0 0 0 0 0 0 127 0" result="hardAlpha"/>
<feOffset dx="12.9136" dy="12.9136"/>
<feGaussianBlur stdDeviation="6.4568"/>
<feColorMatrix type="matrix" values="0 0 0 0 0.415686 0 0 0 0 0.580392 0 0 0 0 1 0 0 0 0.1 0"/>
<feBlend mode="normal" in2="effect1_dropShadow_1469_10050" result="effect2_dropShadow_1469_10050"/>
<feColorMatrix in="SourceAlpha" type="matrix" values="0 0 0 0 0 0 0 0 0 0 0 0 0 0 0 0 0 0 127 0" result="hardAlpha"/>
<feOffset dx="6.4568" dy="6.4568"/>
<feGaussianBlur stdDeviation="3.2284"/>
<feColorMatrix type="matrix" values="0 0 0 0 0.415686 0 0 0 0 0.580392 0 0 0 0 1 0 0 0 0.2 0"/>
<feBlend mode="normal" in2="effect2_dropShadow_1469_10050" result="effect3_dropShadow_1469_10050"/>
<feBlend mode="normal" in="SourceGraphic" in2="effect3_dropShadow_1469_10050" result="shape"/>
<feColorMatrix in="SourceAlpha" type="matrix" values="0 0 0 0 0 0 0 0 0 0 0 0 0 0 0 0 0 0 127 0" result="hardAlpha"/>
<feOffset dy="1.6142"/>
<feGaussianBlur stdDeviation="0.8071"/>
<feComposite in2="hardAlpha" operator="arithmetic" k2="-1" k3="1"/>
<feColorMatrix type="matrix" values="0 0 0 0 1 0 0 0 0 1 0 0 0 0 1 0 0 0 0.1 0"/>
<feBlend mode="normal" in2="shape" result="effect4_innerShadow_1469_10050"/>
<feColorMatrix in="SourceAlpha" type="matrix" values="0 0 0 0 0 0 0 0 0 0 0 0 0 0 0 0 0 0 127 0" result="hardAlpha"/>
<feOffset dy="-3.2284"/>
<feGaussianBlur stdDeviation="1.6142"/>
<feComposite in2="hardAlpha" operator="arithmetic" k2="-1" k3="1"/>
<feColorMatrix type="matrix" values="0 0 0 0 0 0 0 0 0 0 0 0 0 0 0 0 0 0 0.05 0"/>
<feBlend mode="normal" in2="effect4_innerShadow_1469_10050" result="effect5_innerShadow_1469_10050"/>
<feColorMatrix in="SourceAlpha" type="matrix" values="0 0 0 0 0 0 0 0 0 0 0 0 0 0 0 0 0 0 127 0" result="hardAlpha"/>
<feOffset dx="3.2284"/>
<feGaussianBlur stdDeviation="1.6142"/>
<feComposite in2="hardAlpha" operator="arithmetic" k2="-1" k3="1"/>
<feColorMatrix type="matrix" values="0 0 0 0 0 0 0 0 0 0 0 0 0 0 0 0 0 0 0.02 0"/>
<feBlend mode="normal" in2="effect5_innerShadow_1469_10050" result="effect6_innerShadow_1469_10050"/>
<feColorMatrix in="SourceAlpha" type="matrix" values="0 0 0 0 0 0 0 0 0 0 0 0 0 0 0 0 0 0 127 0" result="hardAlpha"/>
<feOffset dx="-3.2284"/>
<feGaussianBlur stdDeviation="1.6142"/>
<feComposite in2="hardAlpha" operator="arithmetic" k2="-1" k3="1"/>
<feColorMatrix type="matrix" values="0 0 0 0 0 0 0 0 0 0 0 0 0 0 0 0 0 0 0.02 0"/>
<feBlend mode="normal" in2="effect6_innerShadow_1469_10050" result="effect7_innerShadow_1469_10050"/>
</filter>
<filter id="filter4_dd_1469_10050" x="-28.996" y="11.4054" width="87.0018" height="87.0018" filterUnits="userSpaceOnUse" color-interpolation-filters="sRGB">
<feFlood flood-opacity="0" result="BackgroundImageFix"/>
<feColorMatrix in="SourceAlpha" type="matrix" values="0 0 0 0 0 0 0 0 0 0 0 0 0 0 0 0 0 0 127 0" result="hardAlpha"/>
<feOffset dy="6.4568"/>
<feGaussianBlur stdDeviation="8.071"/>
<feColorMatrix type="matrix" values="0 0 0 0 1 0 0 0 0 1 0 0 0 0 1 0 0 0 0.5 0"/>
<feBlend mode="normal" in2="BackgroundImageFix" result="effect1_dropShadow_1469_10050"/>
<feColorMatrix in="SourceAlpha" type="matrix" values="0 0 0 0 0 0 0 0 0 0 0 0 0 0 0 0 0 0 127 0" result="hardAlpha"/>
<feOffset dy="3.2284"/>
<feGaussianBlur stdDeviation="4.8426"/>
<feColorMatrix type="matrix" values="0 0 0 0 1 0 0 0 0 1 0 0 0 0 1 0 0 0 0.3 0"/>
<feBlend mode="normal" in2="effect1_dropShadow_1469_10050" result="effect2_dropShadow_1469_10050"/>
<feBlend mode="normal" in="SourceGraphic" in2="effect2_dropShadow_1469_10050" result="shape"/>
</filter>
<filter id="filter5_i_1469_10050" x="-2.58344" y="35.4153" width="29.3163" height="28.0471" filterUnits="userSpaceOnUse" color-interpolation-filters="sRGB">
<feFlood flood-opacity="0" result="BackgroundImageFix"/>
<feBlend mode="normal" in="SourceGraphic" in2="BackgroundImageFix" result="shape"/>
<feColorMatrix in="SourceAlpha" type="matrix" values="0 0 0 0 0 0 0 0 0 0 0 0 0 0 0 0 0 0 127 0" result="hardAlpha"/>
<feOffset dx="-1.6142" dy="-1.6142"/>
<feGaussianBlur stdDeviation="0.8071"/>
<feComposite in2="hardAlpha" operator="arithmetic" k2="-1" k3="1"/>
<feColorMatrix type="matrix" values="0 0 0 0 0.415686 0 0 0 0 0.580392 0 0 0 0 1 0 0 0 0.24 0"/>
<feBlend mode="normal" in2="shape" result="effect1_innerShadow_1469_10050"/>
</filter>
<filter id="filter6_di_1469_10050" x="-3.71254" y="24.802" width="35.5125" height="35.5125" filterUnits="userSpaceOnUse" color-interpolation-filters="sRGB">
<feFlood flood-opacity="0" result="BackgroundImageFix"/>
<feColorMatrix in="SourceAlpha" type="matrix" values="0 0 0 0 0 0 0 0 0 0 0 0 0 0 0 0 0 0 127 0" result="hardAlpha"/>
<feOffset dy="3.2284"/>
<feGaussianBlur stdDeviation="4.8426"/>
<feColorMatrix type="matrix" values="0 0 0 0 1 0 0 0 0 0.662745 0 0 0 0 0.270588 0 0 0 0.3 0"/>
<feBlend mode="normal" in2="BackgroundImageFix" result="effect1_dropShadow_1469_10050"/>
<feBlend mode="normal" in="SourceGraphic" in2="effect1_dropShadow_1469_10050" result="shape"/>
<feColorMatrix in="SourceAlpha" type="matrix" values="0 0 0 0 0 0 0 0 0 0 0 0 0 0 0 0 0 0 127 0" result="hardAlpha"/>
<feOffset dx="-1.6142" dy="-1.6142"/>
<feGaussianBlur stdDeviation="0.8071"/>
<feComposite in2="hardAlpha" operator="arithmetic" k2="-1" k3="1"/>
<feColorMatrix type="matrix" values="0 0 0 0 0.716667 0 0 0 0 0.517672 0 0 0 0 0.00597221 0 0 0 0.24 0"/>
<feBlend mode="normal" in2="shape" result="effect2_innerShadow_1469_10050"/>
</filter>
<filter id="filter7_dddiiii_1469_10050" x="-28.5366" y="278.464" width="151.039" height="151.039" filterUnits="userSpaceOnUse" color-interpolation-filters="sRGB">
<feFlood flood-opacity="0" result="BackgroundImageFix"/>
<feColorMatrix in="SourceAlpha" type="matrix" values="0 0 0 0 0 0 0 0 0 0 0 0 0 0 0 0 0 0 127 0" result="hardAlpha"/>
<feOffset dx="35.6252" dy="35.6252"/>
<feGaussianBlur stdDeviation="17.8126"/>
<feColorMatrix type="matrix" values="0 0 0 0 0.419608 0 0 0 0 0.694118 0 0 0 0 0.945098 0 0 0 0.1 0"/>
<feBlend mode="normal" in2="BackgroundImageFix" result="effect1_dropShadow_1469_10050"/>
<feColorMatrix in="SourceAlpha" type="matrix" values="0 0 0 0 0 0 0 0 0 0 0 0 0 0 0 0 0 0 127 0" result="hardAlpha"/>
<feOffset dx="14.2501" dy="14.2501"/>
<feGaussianBlur stdDeviation="7.12505"/>
<feColorMatrix type="matrix" values="0 0 0 0 0.419608 0 0 0 0 0.694118 0 0 0 0 0.945098 0 0 0 0.1 0"/>
<feBlend mode="normal" in2="effect1_dropShadow_1469_10050" result="effect2_dropShadow_1469_10050"/>
<feColorMatrix in="SourceAlpha" type="matrix" values="0 0 0 0 0 0 0 0 0 0 0 0 0 0 0 0 0 0 127 0" result="hardAlpha"/>
<feOffset dx="7.12505" dy="7.12505"/>
<feGaussianBlur stdDeviation="3.56252"/>
<feColorMatrix type="matrix" values="0 0 0 0 0.419608 0 0 0 0 0.694118 0 0 0 0 0.945098 0 0 0 0.2 0"/>
<feBlend mode="normal" in2="effect2_dropShadow_1469_10050" result="effect3_dropShadow_1469_10050"/>
<feBlend mode="normal" in="SourceGraphic" in2="effect3_dropShadow_1469_10050" result="shape"/>
<feColorMatrix in="SourceAlpha" type="matrix" values="0 0 0 0 0 0 0 0 0 0 0 0 0 0 0 0 0 0 127 0" result="hardAlpha"/>
<feOffset dy="1.78126"/>
<feGaussianBlur stdDeviation="0.890631"/>
<feComposite in2="hardAlpha" operator="arithmetic" k2="-1" k3="1"/>
<feColorMatrix type="matrix" values="0 0 0 0 1 0 0 0 0 1 0 0 0 0 1 0 0 0 0.1 0"/>
<feBlend mode="normal" in2="shape" result="effect4_innerShadow_1469_10050"/>
<feColorMatrix in="SourceAlpha" type="matrix" values="0 0 0 0 0 0 0 0 0 0 0 0 0 0 0 0 0 0 127 0" result="hardAlpha"/>
<feOffset dy="-3.56252"/>
<feGaussianBlur stdDeviation="1.78126"/>
<feComposite in2="hardAlpha" operator="arithmetic" k2="-1" k3="1"/>
<feColorMatrix type="matrix" values="0 0 0 0 0 0 0 0 0 0 0 0 0 0 0 0 0 0 0.05 0"/>
<feBlend mode="normal" in2="effect4_innerShadow_1469_10050" result="effect5_innerShadow_1469_10050"/>
<feColorMatrix in="SourceAlpha" type="matrix" values="0 0 0 0 0 0 0 0 0 0 0 0 0 0 0 0 0 0 127 0" result="hardAlpha"/>
<feOffset dx="3.56252"/>
<feGaussianBlur stdDeviation="1.78126"/>
<feComposite in2="hardAlpha" operator="arithmetic" k2="-1" k3="1"/>
<feColorMatrix type="matrix" values="0 0 0 0 0 0 0 0 0 0 0 0 0 0 0 0 0 0 0.02 0"/>
<feBlend mode="normal" in2="effect5_innerShadow_1469_10050" result="effect6_innerShadow_1469_10050"/>
<feColorMatrix in="SourceAlpha" type="matrix" values="0 0 0 0 0 0 0 0 0 0 0 0 0 0 0 0 0 0 127 0" result="hardAlpha"/>
<feOffset dx="-3.56252"/>
<feGaussianBlur stdDeviation="1.78126"/>
<feComposite in2="hardAlpha" operator="arithmetic" k2="-1" k3="1"/>
<feColorMatrix type="matrix" values="0 0 0 0 0 0 0 0 0 0 0 0 0 0 0 0 0 0 0.02 0"/>
<feBlend mode="normal" in2="effect6_innerShadow_1469_10050" result="effect7_innerShadow_1469_10050"/>
</filter>
<filter id="filter8_ddi_1469_10050" x="-33.2584" y="280.867" width="92.7947" height="92.7948" filterUnits="userSpaceOnUse" color-interpolation-filters="sRGB">
<feFlood flood-opacity="0" result="BackgroundImageFix"/>
<feColorMatrix in="SourceAlpha" type="matrix" values="0 0 0 0 0 0 0 0 0 0 0 0 0 0 0 0 0 0 127 0" result="hardAlpha"/>
<feOffset dy="7.12505"/>
<feGaussianBlur stdDeviation="8.90631"/>
<feColorMatrix type="matrix" values="0 0 0 0 0.0796528 0 0 0 0 0.486412 0 0 0 0 0.516667 0 0 0 0.5 0"/>
<feBlend mode="normal" in2="BackgroundImageFix" result="effect1_dropShadow_1469_10050"/>
<feColorMatrix in="SourceAlpha" type="matrix" values="0 0 0 0 0 0 0 0 0 0 0 0 0 0 0 0 0 0 127 0" result="hardAlpha"/>
<feOffset dy="3.56252"/>
<feGaussianBlur stdDeviation="5.34378"/>
<feColorMatrix type="matrix" values="0 0 0 0 0.14184 0 0 0 0 0.746679 0 0 0 0 0.791667 0 0 0 0.3 0"/>
<feBlend mode="normal" in2="effect1_dropShadow_1469_10050" result="effect2_dropShadow_1469_10050"/>
<feBlend mode="normal" in="SourceGraphic" in2="effect2_dropShadow_1469_10050" result="shape"/>
<feColorMatrix in="SourceAlpha" type="matrix" values="0 0 0 0 0 0 0 0 0 0 0 0 0 0 0 0 0 0 127 0" result="hardAlpha"/>
<feOffset dx="-1.78126" dy="-1.78126"/>
<feGaussianBlur stdDeviation="0.890631"/>
<feComposite in2="hardAlpha" operator="arithmetic" k2="-1" k3="1"/>
<feColorMatrix type="matrix" values="0 0 0 0 0.270588 0 0 0 0 0.65098 0 0 0 0 1 0 0 0 0.24 0"/>
<feBlend mode="normal" in2="shape" result="effect3_innerShadow_1469_10050"/>
</filter>
<filter id="filter9_dddiiii_1469_10050" x="302.602" y="156.602" width="147.965" height="147.966" filterUnits="userSpaceOnUse" color-interpolation-filters="sRGB">
<feFlood flood-opacity="0" result="BackgroundImageFix"/>
<feColorMatrix in="SourceAlpha" type="matrix" values="0 0 0 0 0 0 0 0 0 0 0 0 0 0 0 0 0 0 127 0" result="hardAlpha"/>
<feOffset dx="33.9777" dy="33.9777"/>
<feGaussianBlur stdDeviation="16.9888"/>
<feColorMatrix type="matrix" values="0 0 0 0 0.694118 0 0 0 0 0.854902 0 0 0 0 0.870588 0 0 0 0.1 0"/>
<feBlend mode="normal" in2="BackgroundImageFix" result="effect1_dropShadow_1469_10050"/>
<feColorMatrix in="SourceAlpha" type="matrix" values="0 0 0 0 0 0 0 0 0 0 0 0 0 0 0 0 0 0 127 0" result="hardAlpha"/>
<feOffset dx="13.5911" dy="13.5911"/>
<feGaussianBlur stdDeviation="6.79553"/>
<feColorMatrix type="matrix" values="0 0 0 0 0.694118 0 0 0 0 0.854902 0 0 0 0 0.870588 0 0 0 0.1 0"/>
<feBlend mode="normal" in2="effect1_dropShadow_1469_10050" result="effect2_dropShadow_1469_10050"/>
<feColorMatrix in="SourceAlpha" type="matrix" values="0 0 0 0 0 0 0 0 0 0 0 0 0 0 0 0 0 0 127 0" result="hardAlpha"/>
<feOffset dx="6.79553" dy="6.79553"/>
<feGaussianBlur stdDeviation="3.39777"/>
<feColorMatrix type="matrix" values="0 0 0 0 0.694118 0 0 0 0 0.854902 0 0 0 0 0.870588 0 0 0 0.2 0"/>
<feBlend mode="normal" in2="effect2_dropShadow_1469_10050" result="effect3_dropShadow_1469_10050"/>
<feBlend mode="normal" in="SourceGraphic" in2="effect3_dropShadow_1469_10050" result="shape"/>
<feColorMatrix in="SourceAlpha" type="matrix" values="0 0 0 0 0 0 0 0 0 0 0 0 0 0 0 0 0 0 127 0" result="hardAlpha"/>
<feOffset dy="1.69888"/>
<feGaussianBlur stdDeviation="0.849441"/>
<feComposite in2="hardAlpha" operator="arithmetic" k2="-1" k3="1"/>
<feColorMatrix type="matrix" values="0 0 0 0 1 0 0 0 0 1 0 0 0 0 1 0 0 0 0.1 0"/>
<feBlend mode="normal" in2="shape" result="effect4_innerShadow_1469_10050"/>
<feColorMatrix in="SourceAlpha" type="matrix" values="0 0 0 0 0 0 0 0 0 0 0 0 0 0 0 0 0 0 127 0" result="hardAlpha"/>
<feOffset dy="-3.39777"/>
<feGaussianBlur stdDeviation="1.69888"/>
<feComposite in2="hardAlpha" operator="arithmetic" k2="-1" k3="1"/>
<feColorMatrix type="matrix" values="0 0 0 0 0 0 0 0 0 0 0 0 0 0 0 0 0 0 0.05 0"/>
<feBlend mode="normal" in2="effect4_innerShadow_1469_10050" result="effect5_innerShadow_1469_10050"/>
<feColorMatrix in="SourceAlpha" type="matrix" values="0 0 0 0 0 0 0 0 0 0 0 0 0 0 0 0 0 0 127 0" result="hardAlpha"/>
<feOffset dx="3.39777"/>
<feGaussianBlur stdDeviation="1.69888"/>
<feComposite in2="hardAlpha" operator="arithmetic" k2="-1" k3="1"/>
<feColorMatrix type="matrix" values="0 0 0 0 0 0 0 0 0 0 0 0 0 0 0 0 0 0 0.02 0"/>
<feBlend mode="normal" in2="effect5_innerShadow_1469_10050" result="effect6_innerShadow_1469_10050"/>
<feColorMatrix in="SourceAlpha" type="matrix" values="0 0 0 0 0 0 0 0 0 0 0 0 0 0 0 0 0 0 127 0" result="hardAlpha"/>
<feOffset dx="-3.39777"/>
<feGaussianBlur stdDeviation="1.69888"/>
<feComposite in2="hardAlpha" operator="arithmetic" k2="-1" k3="1"/>
<feColorMatrix type="matrix" values="0 0 0 0 0 0 0 0 0 0 0 0 0 0 0 0 0 0 0.02 0"/>
<feBlend mode="normal" in2="effect6_innerShadow_1469_10050" result="effect7_innerShadow_1469_10050"/>
</filter>
<filter id="filter10_ddi_1469_10050" x="298.588" y="159.383" width="91.4371" height="91.437" filterUnits="userSpaceOnUse" color-interpolation-filters="sRGB">
<feFlood flood-opacity="0" result="BackgroundImageFix"/>
<feColorMatrix in="SourceAlpha" type="matrix" values="0 0 0 0 0 0 0 0 0 0 0 0 0 0 0 0 0 0 127 0" result="hardAlpha"/>
<feOffset dy="6.79553"/>
<feGaussianBlur stdDeviation="8.49442"/>
<feColorMatrix type="matrix" values="0 0 0 0 0.0796528 0 0 0 0 0.486412 0 0 0 0 0.516667 0 0 0 0.5 0"/>
<feBlend mode="normal" in2="BackgroundImageFix" result="effect1_dropShadow_1469_10050"/>
<feColorMatrix in="SourceAlpha" type="matrix" values="0 0 0 0 0 0 0 0 0 0 0 0 0 0 0 0 0 0 127 0" result="hardAlpha"/>
<feOffset dy="3.39777"/>
<feGaussianBlur stdDeviation="5.09665"/>
<feColorMatrix type="matrix" values="0 0 0 0 0.14184 0 0 0 0 0.746679 0 0 0 0 0.791667 0 0 0 0.3 0"/>
<feBlend mode="normal" in2="effect1_dropShadow_1469_10050" result="effect2_dropShadow_1469_10050"/>
<feBlend mode="normal" in="SourceGraphic" in2="effect2_dropShadow_1469_10050" result="shape"/>
<feColorMatrix in="SourceAlpha" type="matrix" values="0 0 0 0 0 0 0 0 0 0 0 0 0 0 0 0 0 0 127 0" result="hardAlpha"/>
<feOffset dx="-1.69888" dy="-1.69888"/>
<feGaussianBlur stdDeviation="0.849441"/>
<feComposite in2="hardAlpha" operator="arithmetic" k2="-1" k3="1"/>
<feColorMatrix type="matrix" values="0 0 0 0 0.270588 0 0 0 0 0.65098 0 0 0 0 1 0 0 0 0.24 0"/>
<feBlend mode="normal" in2="shape" result="effect3_innerShadow_1469_10050"/>
</filter>
<linearGradient id="paint0_linear_1469_10050" x1="360" y1="245.467" x2="1.64997" y2="245.467" gradientUnits="userSpaceOnUse">
<stop stop-color="#88D1D8"/>
<stop offset="1" stop-color="#C8EEF1"/>
</linearGradient>
<linearGradient id="paint1_linear_1469_10050" x1="317.664" y1="426.199" x2="361.192" y2="384.045" gradientUnits="userSpaceOnUse">
<stop stop-color="#FFA585"/>
<stop offset="1" stop-color="#FFEDA0"/>
</linearGradient>
<linearGradient id="paint2_linear_1469_10050" x1="12.6328" y1="12" x2="-4.46092" y2="69.4372" gradientUnits="userSpaceOnUse">
<stop stop-color="#D0E9FF"/>
<stop offset="1" stop-color="#6A94FF"/>
</linearGradient>
<linearGradient id="paint3_linear_1469_10050" x1="0.0273438" y1="282.026" x2="-0.533525" y2="348.153" gradientUnits="userSpaceOnUse">
<stop stop-color="#7DF6FF"/>
<stop offset="1" stop-color="#45A6FF"/>
</linearGradient>
<linearGradient id="paint4_linear_1469_10050" x1="326.386" y1="218.424" x2="361.311" y2="177.088" gradientUnits="userSpaceOnUse">
<stop stop-color="#88D1D8"/>
<stop offset="1" stop-color="#C8EEF1"/>
</linearGradient>
<linearGradient id="paint5_linear_1469_10050" x1="1.65" y1="245.467" x2="360" y2="245.467" gradientUnits="userSpaceOnUse">
<stop stop-color="#88D1D8"/>
<stop offset="1" stop-color="#C8EEF1"/>
</linearGradient>
<clipPath id="clip0_1469_10050">
<rect width="360" height="504" rx="12" fill="white"/>
</clipPath>
<clipPath id="clip1_1469_10050">
<path d="M312.91 421.857C307.341 416.106 304.557 413.231 303.549 409.95C302.662 407.065 302.712 403.973 303.69 401.117C304.803 397.871 307.678 395.086 313.429 389.517L324.382 378.91C330.132 373.341 333.008 370.556 336.288 369.548C339.173 368.662 342.265 368.711 345.121 369.69C348.367 370.803 351.152 373.678 356.721 379.429L367.328 390.381C372.897 396.132 375.682 399.007 376.69 402.288C377.576 405.173 377.527 408.265 376.548 411.121C375.436 414.367 372.56 417.152 366.81 422.721L355.857 433.328C350.106 438.897 347.231 441.682 343.951 442.69C341.065 443.576 337.973 443.527 335.118 442.548C331.871 441.435 329.087 438.56 323.517 432.809L312.91 421.857Z" fill="white"/>
</clipPath>
<clipPath id="clip2_1469_10050">
<rect width="45.7407" height="45.7407" fill="white" transform="translate(307.796 405.617) rotate(-44.0816)"/>
</clipPath>
<clipPath id="clip3_1469_10050">
<path d="M-0.354389 26.3717C4.19156 21.3411 6.46453 18.8258 9.17986 17.7891C11.5683 16.8772 14.1842 16.7448 16.6525 17.411C19.4586 18.1683 21.9739 20.4413 27.0045 24.9872L36.5856 33.6453C41.6161 38.1913 44.1314 40.4643 45.1681 43.1796C46.0801 45.5681 46.2124 48.1839 45.5463 50.6523C44.789 53.4584 42.516 55.9737 37.97 61.0042L29.3119 70.5853C24.766 75.6159 22.493 78.1312 19.7777 79.1679C17.3892 80.0798 14.7733 80.2122 12.305 79.546C9.49887 78.7887 6.98359 76.5157 1.95304 71.9698L-7.62808 63.3116C-12.6586 58.7657 -15.1739 56.4927 -16.2106 53.7774C-17.1225 51.3889 -17.2549 48.7731 -16.5888 46.3047C-15.8315 43.4986 -13.5585 40.9833 -9.01253 35.9528L-0.354389 26.3717Z" fill="white"/>
</clipPath>
<clipPath id="clip4_1469_10050">
<rect width="38.7408" height="38.7408" fill="white" transform="translate(13.1206 21.0906) rotate(42.1031)"/>
</clipPath>
<clipPath id="clip5_1469_10050">
<path d="M-9.34815 301.236C-6.06642 294.512 -4.42555 291.15 -1.86354 289.22C0.390063 287.523 3.12313 286.583 5.94396 286.534C9.15081 286.479 12.5127 288.12 19.2366 291.402L32.0428 297.652C38.7667 300.934 42.1286 302.575 44.0582 305.137C45.7554 307.39 46.6956 310.123 46.7441 312.944C46.7992 316.151 45.1583 319.513 41.8766 326.237L35.6263 339.043C32.3446 345.767 30.7037 349.129 28.1417 351.058C25.8881 352.756 23.155 353.696 20.3342 353.744C17.1273 353.8 13.7654 352.159 7.04151 348.877L-5.76468 342.627C-12.4886 339.345 -15.8505 337.704 -17.78 335.142C-19.4773 332.888 -20.4175 330.155 -20.466 327.335C-20.5211 324.128 -18.8802 320.766 -15.5985 314.042L-9.34815 301.236Z" fill="white"/>
</clipPath>
<clipPath id="clip6_1469_10050">
<rect width="42.7503" height="42.7503" fill="white" transform="translate(3.30518 291.555) rotate(26.0157)"/>
</clipPath>
<clipPath id="clip7_1469_10050">
<path d="M321.572 214.684C316.122 210.078 313.396 207.776 312.21 204.956C311.168 202.475 310.937 199.728 311.551 197.109C312.249 194.13 314.552 191.405 319.157 185.954L327.929 175.572C332.534 170.122 334.837 167.396 337.657 166.21C340.137 165.168 342.884 164.937 345.504 165.551C348.482 166.249 351.208 168.552 356.658 173.157L367.04 181.929C372.491 186.534 375.216 188.837 376.402 191.657C377.445 194.137 377.676 196.884 377.062 199.504C376.363 202.482 374.061 205.208 369.455 210.658L360.684 221.04C356.078 226.491 353.776 229.216 350.956 230.402C348.475 231.445 345.728 231.676 343.109 231.062C340.13 230.363 337.405 228.061 331.954 223.455L321.572 214.684Z" fill="white"/>
</clipPath>
<clipPath id="clip8_1469_10050">
<rect width="40.7732" height="40.7732" fill="white" transform="translate(315.577 200.722) rotate(-49.8054)"/>
</clipPath>
</defs>
</svg>
