<svg width="360" height="504" viewBox="0 0 360 504" fill="none" xmlns="http://www.w3.org/2000/svg">
<g clip-path="url(#clip0_1469_10084)">
<rect width="360" height="504" rx="12" fill="url(#paint0_linear_1469_10084)" fill-opacity="0.14"/>
<g filter="url(#filter1_dddiiii_1469_10084)">
<g clip-path="url(#clip1_1469_10084)">
<path d="M316.335 417.738C310.491 412.466 307.57 409.83 306.364 406.679C305.303 403.908 305.147 400.871 305.918 398.006C306.794 394.748 309.43 391.826 314.702 385.982L324.743 374.853C330.015 369.009 332.651 366.088 335.802 364.882C338.573 363.821 341.61 363.665 344.475 364.436C347.733 365.312 350.655 367.948 356.499 373.22L367.628 383.261C373.472 388.533 376.393 391.169 377.599 394.32C378.66 397.091 378.816 400.127 378.045 402.993C377.169 406.251 374.533 409.173 369.261 415.016L359.22 426.146C353.948 431.99 351.312 434.911 348.161 436.117C345.39 437.178 342.354 437.334 339.488 436.563C336.23 435.687 333.308 433.051 327.465 427.779L316.335 417.738Z" fill="url(#paint1_linear_1469_10084)" fill-opacity="0.75"/>
<g clip-path="url(#clip2_1469_10084)" filter="url(#filter2_dd_1469_10084)">
<path fill-rule="evenodd" clip-rule="evenodd" d="M325.403 395.389C324.742 395.243 324.956 394.235 325.621 394.374L330.097 395.33C330.758 395.476 330.544 396.485 329.879 396.345L325.403 395.389ZM330.414 392.839L328.509 391.12C328.001 390.665 327.306 391.435 327.81 391.893L329.716 393.613C330.225 394.068 330.918 393.297 330.414 392.839ZM326.7 400.034L329.256 398.378C329.826 398.003 329.261 397.137 328.69 397.504L326.133 399.16C325.563 399.536 326.128 400.403 326.7 400.034ZM350.106 411.744C351.268 411.328 351.593 409.69 350.641 408.876C349.734 408.011 348.138 408.503 347.843 409.703C347.659 410.12 348 410.6 347.703 410.966C347.513 411.177 347.181 411.198 346.966 411.004L343.518 407.891L341.161 410.503C343.125 410.944 343.931 413.541 342.534 415.013C341.218 416.551 338.545 416.02 337.907 414.11L335.549 416.723L343.035 423.477C343.406 423.812 343.88 423.964 344.343 423.941C344.807 423.916 345.262 423.716 345.597 423.345L352.35 415.859L348.902 412.749C348.687 412.554 348.673 412.224 348.865 412.012C349.197 411.68 349.709 411.97 350.106 411.744ZM338.623 412.539C338.956 412.873 338.666 413.385 338.892 413.781C339.308 414.944 340.944 415.271 341.759 414.316C342.622 413.409 342.134 411.813 340.932 411.517C340.515 411.334 340.035 411.675 339.669 411.378C339.457 411.187 339.437 410.856 339.631 410.641L342.742 407.193L340.13 404.836C339.688 406.803 337.09 407.605 335.62 406.209C334.078 404.889 334.612 402.223 336.523 401.582L333.911 399.225L327.158 406.71C326.823 407.081 326.671 407.555 326.695 408.019C326.719 408.484 326.92 408.938 327.291 409.273L334.776 416.026L337.887 412.578C338.08 412.362 338.411 412.348 338.623 412.539ZM348.338 401.772C348.005 401.438 348.294 400.927 348.069 400.53C347.835 399.862 347.074 399.372 346.382 399.431C344.468 399.531 344.166 402.289 346.028 402.793C346.502 402.986 347.276 402.519 347.449 403.209C347.485 403.378 347.434 403.546 347.327 403.667L344.216 407.117L346.828 409.474C347.084 408.32 348.243 407.399 349.398 407.396C352.482 407.281 353.351 411.669 350.435 412.728L353.049 415.086L359.802 407.6C360.137 407.229 360.289 406.756 360.265 406.291C360.241 405.826 360.041 405.371 359.67 405.036L352.185 398.285L349.073 401.734C348.88 401.947 348.551 401.964 348.338 401.772ZM336.108 382.141C335.61 382.167 335.168 382.394 334.856 382.739C334.545 383.084 334.363 383.549 334.39 384.046L334.907 394.114L339.544 393.876C339.833 393.861 340.078 394.082 340.092 394.369C340.09 394.841 339.524 394.998 339.404 395.438C338.873 396.553 339.808 397.941 341.054 397.845C342.305 397.811 343.09 396.34 342.448 395.282C342.312 395.045 342.119 394.845 341.891 394.697C341.467 394.444 341.664 393.749 342.148 393.744L346.785 393.503L346.606 389.99C344.888 391.075 342.463 389.777 342.446 387.726C342.32 385.721 344.568 384.25 346.355 385.137L346.175 381.623L336.108 382.141Z" fill="white"/>
</g>
</g>
</g>
<g filter="url(#filter3_dddiiii_1469_10084)">
<g clip-path="url(#clip3_1469_10084)">
<path d="M-11.6697 61.8565C-15.8435 55.8898 -17.9304 52.9065 -18.3634 49.8153C-18.7443 47.0962 -18.2546 44.3263 -16.9645 41.9026C-15.4978 39.1472 -12.5145 37.0603 -6.54785 32.8865L4.81608 24.9372C10.7827 20.7634 13.766 18.6765 16.8572 18.2435C19.5764 17.8626 22.3463 18.3523 24.77 19.6424C27.5253 21.1091 29.6122 24.0924 33.786 30.059L41.7354 41.423C45.9092 47.3896 47.9961 50.3729 48.4291 53.4641C48.8099 56.1833 48.3202 58.9531 47.0301 61.3768C45.5634 64.1322 42.5801 66.2191 36.6135 70.3929L25.2496 78.3423C19.2829 82.5161 16.2996 84.603 13.2084 85.036C10.4893 85.4168 7.71939 84.9271 5.2957 83.637C2.54034 82.1703 0.453434 79.187 -3.72037 73.2204L-11.6697 61.8565Z" fill="url(#paint2_linear_1469_10084)"/>
<g clip-path="url(#clip4_1469_10084)" filter="url(#filter4_dd_1469_10084)">
<path d="M5.54576 38.6404L4.63981 37.3453C4.49752 37.1419 4.54741 36.8597 4.75082 36.7174L11.8948 31.72C12.4617 31.3255 13.1987 31.2716 13.817 31.5809C14.4366 31.8893 14.8347 32.5115 14.8605 33.2023L14.9284 35.1229L16.7063 35.841L16.7054 35.8396C17.3455 36.1007 17.7934 36.688 17.8706 37.3758C17.9492 38.0626 17.6458 38.7365 17.0809 39.1338L10.3064 43.8727L12.1387 46.492C12.2809 46.6954 12.2311 46.9776 12.0276 47.1199C11.8242 47.2622 11.542 47.2123 11.3997 47.0089L8.40301 42.725L10.7359 41.0931C10.9393 40.9508 10.9888 40.6709 10.8455 40.4661C10.7032 40.2627 10.4234 40.2132 10.22 40.3555L7.8871 41.9874L7.23376 41.0535L13.0536 36.9823C13.257 36.84 13.3065 36.5602 13.1632 36.3554C13.021 36.152 12.7411 36.1025 12.5377 36.2448L6.71784 40.3159L6.0616 39.3778L8.39447 37.7459C8.59787 37.6036 8.64736 37.3238 8.50507 37.1204C8.36182 36.9156 8.08197 36.8661 7.87855 37.0084L5.54576 38.6404ZM17.1022 52.7569C18.3566 52.0608 19.7325 52.4399 20.5809 52.8191C20.6499 51.8188 20.8939 50.8361 21.2997 49.9196L14.7164 47.3431C13.9389 47.0359 13.0573 47.1396 12.371 47.6196C11.6861 48.0988 11.2864 48.8914 11.307 49.7281L11.4742 56.7928C12.4756 56.7249 13.481 56.8335 14.4443 57.1118C14.379 56.1847 14.4933 54.7633 15.5787 53.8226C15.6813 53.7365 15.8177 53.6988 15.9502 53.7173C16.0842 53.741 16.1994 53.8232 16.2658 53.9417C16.4942 54.3094 16.8695 54.5601 17.2964 54.6283C17.3787 54.2039 17.2709 53.7641 17.0047 53.4248C16.9162 53.3218 16.8799 53.1845 16.9032 53.0528C16.9278 52.9201 17.01 52.8049 17.1285 52.7385L17.1022 52.7569ZM35.8964 57.0519C36.0106 57.9694 35.6046 58.8737 34.8448 59.399L15.7388 72.7642C14.9829 73.295 13.9979 73.3658 13.173 72.9495C12.3505 72.5337 11.823 71.6972 11.8018 70.7743L11.504 57.7073C12.5744 57.6674 14.0646 57.7296 14.7479 58.2675C14.9001 58.3878 15.112 58.3961 15.274 58.289C15.4266 58.1802 15.4959 57.9875 15.4468 57.8054C15.4468 57.8054 14.9968 56.0161 15.8446 54.8626C16.3022 55.3606 16.9679 55.6141 17.641 55.5451C17.8023 55.5312 17.942 55.4335 18.0104 55.2867C18.306 54.6781 18.2961 53.9658 17.9852 53.3652C19.3506 52.9603 20.8694 53.9915 20.8889 54.0047C21.0469 54.1126 21.2575 54.1074 21.411 53.9939C21.5649 53.878 21.6293 53.6784 21.5708 53.4947C21.2998 52.6683 21.744 51.253 22.1568 50.2553L34.3254 55.0185C35.1882 55.3505 35.7943 56.1342 35.8964 57.0519ZM27.4451 59.4647L19.3524 56.9692C19.2189 56.9286 19.0742 56.9515 18.9608 57.0309C18.8473 57.1103 18.7761 57.2383 18.7685 57.3776L18.3379 65.8354C18.3295 66.0061 18.4188 66.1662 18.5688 66.2509C18.7187 66.3356 18.9045 66.3272 19.048 66.2289L20.808 64.9977L21.2601 65.6439L21.2591 65.6425C21.4023 65.8473 21.6822 65.8968 21.887 65.7535C22.0904 65.6112 22.1399 65.3314 21.9966 65.1266L21.2871 64.1123C21.2184 64.0141 21.1138 63.9471 20.9963 63.9263C20.8787 63.9055 20.7575 63.9326 20.6606 64.0004L19.2839 64.9634L19.6393 58.0006L26.3026 60.0552L24.9249 61.0169C24.7215 61.1592 24.673 61.4404 24.8152 61.6439L25.6409 62.8241C25.7841 63.0289 26.064 63.0784 26.2674 62.9361C26.4722 62.7929 26.5217 62.513 26.3784 62.3082L25.8102 61.496L27.5703 60.2648L27.5712 60.2662C27.7128 60.1651 27.7844 59.9934 27.7562 59.8235C27.728 59.6537 27.6083 59.5149 27.4451 59.4642L27.4451 59.4647Z" fill="white"/>
</g>
</g>
</g>
<g filter="url(#filter5_dddiiii_1469_10084)">
<g clip-path="url(#clip5_1469_10084)">
<path d="M-11.1368 305.651C-6.26369 299.885 -3.82711 297.002 -0.843685 295.748C1.78061 294.645 4.68672 294.401 7.45814 295.051C10.6088 295.79 13.4918 298.227 19.2577 303.1L30.2394 312.382C36.0054 317.255 38.8883 319.691 40.1423 322.675C41.2452 325.299 41.4891 328.205 40.8389 330.977C40.0997 334.127 37.6632 337.01 32.79 342.776L23.5086 353.758C18.6355 359.524 16.1989 362.407 13.2155 363.661C10.5912 364.764 7.68508 365.008 4.91366 364.357C1.76299 363.618 -1.11998 361.182 -6.88592 356.308L-17.8676 347.027C-23.6336 342.154 -26.5165 339.717 -27.7705 336.734C-28.8734 334.11 -29.1173 331.203 -28.4671 328.432C-27.7279 325.281 -25.2913 322.398 -20.4182 316.632L-11.1368 305.651Z" fill="url(#paint3_linear_1469_10084)" fill-opacity="0.8"/>
<g clip-path="url(#clip6_1469_10084)" filter="url(#filter6_dd_1469_10084)">
<path d="M6.45955 329.866C5.17402 328.779 4.32965 327.289 4.05752 325.638L0.208918 327.043C0.211431 327.181 0.218624 327.321 0.227879 327.458C0.231649 327.503 0.235419 327.548 0.237971 327.592C0.243726 327.674 0.253976 327.755 0.263007 327.836C0.271662 327.912 0.2791 327.987 0.290002 328.063C0.292728 328.082 0.295454 328.101 0.29818 328.12C0.522414 329.66 1.15296 331.136 2.15541 332.38C2.19081 332.425 2.22622 332.469 2.26387 332.514C2.31042 332.57 2.35922 332.625 2.40783 332.679C2.45784 332.736 2.50888 332.792 2.55992 332.847C2.60348 332.894 2.64684 332.939 2.69141 332.985C2.75463 333.051 2.82112 333.116 2.88761 333.181C2.92451 333.216 2.96038 333.252 2.99831 333.287C3.10497 333.385 3.21267 333.482 3.32344 333.576C3.43422 333.67 3.54809 333.76 3.66298 333.848C3.704 333.879 3.74379 333.908 3.78481 333.939C3.85953 333.994 3.93425 334.048 4.01103 334.101C4.06262 334.136 4.11422 334.171 4.16684 334.205C4.23144 334.247 4.29605 334.289 4.36169 334.33C4.42245 334.367 4.48341 334.406 4.5452 334.442C4.59642 334.472 4.65091 334.502 4.70315 334.531C6.07376 335.297 7.60487 335.671 9.13428 335.649C9.18286 335.648 9.23041 335.649 9.2788 335.646C9.33963 335.643 9.40047 335.64 9.4613 335.637C9.56033 335.631 9.65935 335.625 9.75818 335.617C9.78963 335.614 9.82108 335.612 9.85253 335.609C9.9961 335.595 10.1383 335.577 10.2813 335.556L11.0257 331.529C9.35101 331.533 7.74133 330.951 6.45813 329.866L6.45955 329.866Z" fill="white"/>
<path d="M12.75 322.42C11.6166 321.462 9.91397 321.605 8.95607 322.738C7.9982 323.872 8.14105 325.574 9.27444 326.532C10.4078 327.49 12.1105 327.347 13.0684 326.214C14.0262 325.081 13.8834 323.378 12.75 322.42Z" fill="white"/>
<path d="M-1.41387 334.44C-1.4186 334.357 -1.47256 334.28 -1.55194 334.251L-2.97477 333.685C-3.36675 333.529 -3.58826 333.099 -3.48827 332.687L-3.13101 331.203C-3.11084 331.12 -3.13597 331.036 -3.20986 330.977L-4.41089 330.035C-4.44601 330.008 -4.47906 329.978 -4.50782 329.945C-4.51512 329.939 -4.51915 329.931 -4.52645 329.925C-4.55156 329.896 -4.57563 329.865 -4.59642 329.833C-4.59886 329.831 -4.60129 329.829 -4.6027 329.825L-11.5263 334.291L-7.03042 335.276C-6.97743 335.287 -6.93127 335.312 -6.89354 335.343C-6.80711 335.417 -6.7622 335.534 -6.78834 335.654L-7.74531 340.154L-1.33987 336.022C-1.34119 336.006 -1.34373 335.99 -1.34383 335.975L-1.41586 334.443L-1.41387 334.44Z" fill="white"/>
<path d="M7.90778 339.693C7.84121 339.641 7.75004 339.633 7.67528 339.672L6.3159 340.374C5.94107 340.571 5.47142 340.46 5.22404 340.113L4.33555 338.866C4.28684 338.797 4.19912 338.763 4.11451 338.779L2.61326 339.071C2.56319 339.081 2.51378 339.085 2.46295 339.086C2.44601 339.086 2.43113 339.084 2.41522 339.083C2.38115 339.082 2.34829 339.081 2.31609 339.075C2.29775 339.072 2.27921 339.066 2.2619 339.062C2.23194 339.056 2.20302 339.048 2.17512 339.039C2.15639 339.032 2.13889 339.025 2.12119 339.016C2.09535 339.005 2.06727 338.994 2.04349 338.98C2.02579 338.971 2.00894 338.959 1.99105 338.948C1.96708 338.932 1.94433 338.917 1.92139 338.9L1.87391 338.86C1.85322 338.842 1.83336 338.821 1.81472 338.801C1.80095 338.785 1.78719 338.77 1.77445 338.753C1.75787 338.73 1.74129 338.708 1.72574 338.684C1.71403 338.666 1.70335 338.647 1.69388 338.628C1.68845 338.617 1.68077 338.607 1.67533 338.596L-1.32251 345.582L2.95663 343.89C3.11974 343.825 3.3051 343.905 3.36969 344.068L5.08826 348.333L8.57049 340.218L7.90556 339.694L7.90778 339.693Z" fill="white"/>
<path d="M14.6763 320.143C10.9718 317.012 5.41106 317.478 2.28118 321.181C1.90769 321.623 1.57889 322.099 1.30708 322.593C0.6466 323.78 0.291097 325.069 0.220733 326.36L4.19432 324.908C4.30193 324.87 4.42241 324.89 4.51006 324.964L4.52954 324.981C4.59162 325.033 4.6307 325.108 4.64094 325.189C4.82143 326.828 5.61475 328.316 6.8724 329.379C8.12995 330.442 9.72747 330.974 11.3756 330.881C11.4566 330.877 11.5369 330.903 11.6002 330.956L11.6172 330.971C11.7049 331.045 11.7461 331.159 11.7251 331.273L10.9568 335.434C12.2188 335.148 13.4291 334.583 14.4901 333.735C14.9334 333.383 15.3464 332.981 15.7198 332.539C18.8497 328.836 18.3832 323.276 14.6799 320.146L14.6763 320.143ZM8.86202 327.02C7.45962 325.835 7.283 323.73 8.46826 322.328C9.65352 320.926 11.7583 320.749 13.1607 321.934C14.5631 323.119 14.7397 325.224 13.5544 326.627C12.3692 328.029 10.2644 328.206 8.86202 327.02Z" fill="white"/>
<path d="M17.864 335.461L19.3676 335.171C19.4733 335.15 19.5489 335.053 19.5443 334.945L19.4672 333.419C19.4526 333.083 19.6331 332.768 19.9291 332.615L21.2886 331.915C21.3841 331.867 21.4286 331.75 21.3952 331.649L20.8907 330.206C20.7827 329.889 20.8673 329.537 21.1069 329.306L22.2137 328.248C22.2944 328.172 22.3057 328.05 22.2418 327.963L21.3514 326.72C21.1554 326.446 21.1383 326.081 21.3097 325.791L22.0707 324.469C22.1261 324.374 22.1075 324.26 22.0167 324.189L20.811 323.245C20.5494 323.039 20.4302 322.696 20.5059 322.372L20.8685 320.884C20.8937 320.78 20.8369 320.669 20.7351 320.629L19.3145 320.063C19.0035 319.942 18.7919 319.644 18.7773 319.308L18.7024 317.782C18.6978 317.674 18.6125 317.587 18.5042 317.577L16.9811 317.433C16.6505 317.402 16.3649 317.18 16.2524 316.863L15.7498 315.416C15.714 315.313 15.6093 315.251 15.5037 315.273L14.0012 315.564C13.673 315.629 13.3349 315.495 13.1401 315.222L12.2529 313.975C12.19 313.887 12.071 313.857 11.9713 313.909L10.6155 314.614C10.3163 314.768 9.95491 314.734 9.69205 314.526L8.49083 313.582C8.40599 313.514 8.28207 313.52 8.20359 313.596L7.1003 314.654C6.8597 314.887 6.50249 314.957 6.18989 314.83L4.77052 314.265C4.66754 314.224 4.55543 314.263 4.50111 314.357L3.73821 315.684C3.57131 315.973 3.24952 316.141 2.91769 316.109L1.39338 315.965C1.28508 315.954 1.18703 316.026 1.16098 316.133L0.803727 317.618C0.724734 317.943 0.46196 318.195 0.134784 318.259L-1.36665 318.549C-1.47456 318.57 -1.54929 318.664 -1.54352 318.773L-1.46841 320.301C-1.45072 320.634 -1.63251 320.947 -1.9293 321.103L-3.28867 321.806C-3.38514 321.856 -3.43104 321.969 -3.39522 322.072L-2.89071 323.515C-2.78149 323.833 -2.86824 324.187 -3.11026 324.417L-4.21496 325.472C-4.29345 325.548 -4.30489 325.667 -4.24081 325.757L-3.3527 327C-3.15683 327.272 -3.13979 327.637 -3.30668 327.926L-4.07099 329.25C-4.08567 329.277 -4.0965 329.31 -4.09752 329.338C-4.10215 329.418 -4.07141 329.488 -4.01457 329.532L-2.81232 330.475C-2.55069 330.681 -2.42902 331.026 -2.50802 331.352L-2.86528 332.836C-2.8903 332.942 -2.83473 333.052 -2.73643 333.091L-1.31585 333.657C-1.27494 333.673 -1.2359 333.694 -1.19788 333.715C-1.18365 333.723 -1.1727 333.732 -1.15949 333.741C-1.13674 333.757 -1.11277 333.773 -1.09208 333.79L-1.0799 333.8C-1.0726 333.807 -1.06857 333.814 -1.06127 333.82C-1.03083 333.846 -1.00227 333.876 -0.976976 333.908C-0.968267 333.918 -0.959368 333.929 -0.950658 333.939C-0.920123 333.979 -0.891644 334.022 -0.869714 334.068C-0.865687 334.075 -0.862686 334.084 -0.858656 334.092C-0.83954 334.131 -0.824727 334.173 -0.812161 334.215C-0.808784 334.228 -0.804189 334.242 -0.800813 334.255C-0.787492 334.306 -0.779697 334.359 -0.776389 334.412L-0.704554 335.942C-0.702292 335.969 -0.695159 336 -0.682697 336.027C-0.649898 336.094 -0.582668 336.141 -0.507413 336.148L1.01568 336.292C1.35078 336.322 1.63656 336.547 1.74353 336.865L2.24458 338.307C2.2804 338.41 2.38507 338.471 2.49298 338.45L3.99526 338.157C4.3259 338.094 4.66191 338.23 4.85532 338.499L5.74381 339.747C5.80789 339.837 5.92443 339.864 6.02193 339.813L7.3813 339.111C7.67829 338.957 8.04072 338.99 8.30358 339.197L9.5048 340.142C9.59207 340.211 9.71253 340.205 9.79204 340.128L10.8953 339.069C11.1384 338.839 11.4946 338.77 11.8033 338.891L13.2253 339.461C13.3271 339.501 13.4424 339.461 13.4957 339.368L14.2554 338.042C14.4231 337.75 14.7473 337.583 15.0826 337.616L16.6024 337.761C16.7107 337.771 16.81 337.701 16.8361 337.594L17.1921 336.108C17.2711 335.782 17.5339 335.531 17.861 335.467L17.864 335.461ZM14.8823 334.231C13.3382 335.468 11.4959 336.144 9.62416 336.267C9.55556 336.272 9.48677 336.274 9.41919 336.277C9.34712 336.281 9.27383 336.284 9.20158 336.285C9.10115 336.288 9.00053 336.289 8.89972 336.287C8.87483 336.287 8.84872 336.286 8.82382 336.285C7.63803 336.266 6.47174 336.021 5.38303 335.569C5.36431 335.561 5.34661 335.553 5.32789 335.545C5.21536 335.498 5.1061 335.449 4.99544 335.398C4.98486 335.393 4.97306 335.387 4.96248 335.382C4.78104 335.296 4.60128 335.202 4.42461 335.105C4.36403 335.071 4.30364 335.038 4.24307 335.004C4.17883 334.966 4.11685 334.929 4.05468 334.889C3.97949 334.842 3.90553 334.796 3.83137 334.748C3.77631 334.712 3.72126 334.676 3.66723 334.638C3.58314 334.58 3.49784 334.52 3.41581 334.459C3.37237 334.427 3.32911 334.396 3.28566 334.364C3.16 334.268 3.03517 334.169 2.91343 334.066C2.79168 333.963 2.67304 333.856 2.55765 333.749C2.51832 333.711 2.47899 333.674 2.44069 333.635C2.36689 333.564 2.29412 333.492 2.22341 333.418C2.1764 333.37 2.13163 333.322 2.08565 333.272C2.02711 333.208 1.96857 333.144 1.91229 333.08C1.86227 333.023 1.81226 332.966 1.76449 332.909C1.723 332.859 1.68375 332.81 1.64329 332.759C1.50691 332.589 1.37586 332.416 1.2524 332.238C1.18027 332.134 1.11039 332.029 1.04256 331.921C1.03591 331.909 1.02823 331.899 1.02055 331.888C0.385076 330.879 -0.0540497 329.757 -0.26955 328.577C-0.271521 328.567 -0.273304 328.559 -0.275276 328.549C-0.294715 328.439 -0.313125 328.328 -0.329289 328.216C-0.337276 328.161 -0.344046 328.107 -0.350818 328.054C-0.361256 327.97 -0.372725 327.887 -0.380915 327.803C-0.570035 325.94 -0.209106 324.014 0.75097 322.288C1.0424 321.758 1.39431 321.248 1.79558 320.773C5.15277 316.801 11.1154 316.302 15.0889 319.66C19.0624 323.018 19.5614 328.978 16.2042 332.951C15.8029 333.425 15.3585 333.857 14.8844 334.233L14.8823 334.231Z" fill="white"/>
</g>
</g>
</g>
<g filter="url(#filter7_dddiiii_1469_10084)">
<g clip-path="url(#clip7_1469_10084)">
<path d="M310.074 198.244C305.153 192.129 302.693 189.072 302.003 185.778C301.397 182.882 301.723 179.867 302.935 177.167C304.313 174.097 307.37 171.637 313.485 166.716L325.132 157.344C331.247 152.423 334.304 149.962 337.598 149.273C340.494 148.666 343.509 148.993 346.209 150.205C349.279 151.583 351.739 154.64 356.66 160.755L366.032 172.401C370.953 178.516 373.414 181.574 374.103 184.867C374.71 187.764 374.383 190.779 373.171 193.479C371.793 196.548 368.736 199.009 362.621 203.93L350.975 213.302C344.86 218.223 341.802 220.683 338.509 221.373C335.612 221.979 332.597 221.653 329.897 220.441C326.828 219.063 324.367 216.006 319.446 209.891L310.074 198.244Z" fill="url(#paint4_linear_1469_10084)"/>
<g clip-path="url(#clip8_1469_10084)" filter="url(#filter8_ddi_1469_10084)">
<path fill-rule="evenodd" clip-rule="evenodd" d="M328.05 183.024C331.04 180.618 335.421 181.092 337.827 184.082C340.233 187.072 339.759 191.452 336.769 193.858C333.779 196.264 329.398 195.79 326.992 192.801C324.586 189.811 325.06 185.43 328.05 183.024ZM341.833 189.24C344.657 188.65 347.704 189.628 349.638 192.031L349.64 192.034C350.537 193.149 350.954 194.574 350.8 195.996C350.646 197.418 349.934 198.72 348.819 199.618L339.818 206.861C338.704 207.758 337.279 208.175 335.857 208.021C334.435 207.867 333.132 207.155 332.235 206.04L332.233 206.038C330.3 203.636 329.996 200.451 331.176 197.816C333.648 198.142 336.245 197.495 338.34 195.809C340.435 194.124 341.622 191.725 341.834 189.239L341.833 189.24ZM337.888 180.091C336.27 180.959 334.21 180.582 333.016 179.098L329.703 174.982C328.355 173.307 328.621 170.852 330.296 169.504L337.861 163.417C339.536 162.069 341.99 162.334 343.338 164.009L346.651 168.126C347.999 169.801 347.733 172.255 346.058 173.603L342.418 176.532L342.124 181.918C342.097 182.438 341.749 182.887 341.252 183.044C340.756 183.202 340.214 183.035 339.891 182.626L337.888 180.091Z" fill="#282828"/>
</g>
</g>
</g>
</g>
<rect x="1" y="1" width="358" height="502" rx="11" stroke="url(#paint5_linear_1469_10084)" stroke-width="2"/>
<defs>
<filter id="filter1_dddiiii_1469_10084" x="295.893" y="354.411" width="163.377" height="163.377" filterUnits="userSpaceOnUse" color-interpolation-filters="sRGB">
<feFlood flood-opacity="0" result="BackgroundImageFix"/>
<feColorMatrix in="SourceAlpha" type="matrix" values="0 0 0 0 0 0 0 0 0 0 0 0 0 0 0 0 0 0 127 0" result="hardAlpha"/>
<feOffset dx="37.4738" dy="37.4738"/>
<feGaussianBlur stdDeviation="18.7369"/>
<feColorMatrix type="matrix" values="0 0 0 0 0.87451 0 0 0 0 0.486275 0 0 0 0 0.937255 0 0 0 0.1 0"/>
<feBlend mode="normal" in2="BackgroundImageFix" result="effect1_dropShadow_1469_10084"/>
<feColorMatrix in="SourceAlpha" type="matrix" values="0 0 0 0 0 0 0 0 0 0 0 0 0 0 0 0 0 0 127 0" result="hardAlpha"/>
<feOffset dx="14.9895" dy="14.9895"/>
<feGaussianBlur stdDeviation="7.49476"/>
<feColorMatrix type="matrix" values="0 0 0 0 0.87451 0 0 0 0 0.486275 0 0 0 0 0.937255 0 0 0 0.1 0"/>
<feBlend mode="normal" in2="effect1_dropShadow_1469_10084" result="effect2_dropShadow_1469_10084"/>
<feColorMatrix in="SourceAlpha" type="matrix" values="0 0 0 0 0 0 0 0 0 0 0 0 0 0 0 0 0 0 127 0" result="hardAlpha"/>
<feOffset dx="7.49476" dy="7.49476"/>
<feGaussianBlur stdDeviation="3.74738"/>
<feColorMatrix type="matrix" values="0 0 0 0 0.87451 0 0 0 0 0.486275 0 0 0 0 0.937255 0 0 0 0.2 0"/>
<feBlend mode="normal" in2="effect2_dropShadow_1469_10084" result="effect3_dropShadow_1469_10084"/>
<feBlend mode="normal" in="SourceGraphic" in2="effect3_dropShadow_1469_10084" result="shape"/>
<feColorMatrix in="SourceAlpha" type="matrix" values="0 0 0 0 0 0 0 0 0 0 0 0 0 0 0 0 0 0 127 0" result="hardAlpha"/>
<feOffset dy="1.87369"/>
<feGaussianBlur stdDeviation="0.936845"/>
<feComposite in2="hardAlpha" operator="arithmetic" k2="-1" k3="1"/>
<feColorMatrix type="matrix" values="0 0 0 0 1 0 0 0 0 1 0 0 0 0 1 0 0 0 0.1 0"/>
<feBlend mode="normal" in2="shape" result="effect4_innerShadow_1469_10084"/>
<feColorMatrix in="SourceAlpha" type="matrix" values="0 0 0 0 0 0 0 0 0 0 0 0 0 0 0 0 0 0 127 0" result="hardAlpha"/>
<feOffset dy="-3.74738"/>
<feGaussianBlur stdDeviation="1.87369"/>
<feComposite in2="hardAlpha" operator="arithmetic" k2="-1" k3="1"/>
<feColorMatrix type="matrix" values="0 0 0 0 0 0 0 0 0 0 0 0 0 0 0 0 0 0 0.05 0"/>
<feBlend mode="normal" in2="effect4_innerShadow_1469_10084" result="effect5_innerShadow_1469_10084"/>
<feColorMatrix in="SourceAlpha" type="matrix" values="0 0 0 0 0 0 0 0 0 0 0 0 0 0 0 0 0 0 127 0" result="hardAlpha"/>
<feOffset dx="3.74738"/>
<feGaussianBlur stdDeviation="1.87369"/>
<feComposite in2="hardAlpha" operator="arithmetic" k2="-1" k3="1"/>
<feColorMatrix type="matrix" values="0 0 0 0 0 0 0 0 0 0 0 0 0 0 0 0 0 0 0.02 0"/>
<feBlend mode="normal" in2="effect5_innerShadow_1469_10084" result="effect6_innerShadow_1469_10084"/>
<feColorMatrix in="SourceAlpha" type="matrix" values="0 0 0 0 0 0 0 0 0 0 0 0 0 0 0 0 0 0 127 0" result="hardAlpha"/>
<feOffset dx="-3.74738"/>
<feGaussianBlur stdDeviation="1.87369"/>
<feComposite in2="hardAlpha" operator="arithmetic" k2="-1" k3="1"/>
<feColorMatrix type="matrix" values="0 0 0 0 0 0 0 0 0 0 0 0 0 0 0 0 0 0 0.02 0"/>
<feBlend mode="normal" in2="effect6_innerShadow_1469_10084" result="effect7_innerShadow_1469_10084"/>
</filter>
<filter id="filter2_dd_1469_10084" x="291.506" y="357.517" width="100.985" height="100.985" filterUnits="userSpaceOnUse" color-interpolation-filters="sRGB">
<feFlood flood-opacity="0" result="BackgroundImageFix"/>
<feColorMatrix in="SourceAlpha" type="matrix" values="0 0 0 0 0 0 0 0 0 0 0 0 0 0 0 0 0 0 127 0" result="hardAlpha"/>
<feOffset dy="7.49476"/>
<feGaussianBlur stdDeviation="9.36845"/>
<feColorMatrix type="matrix" values="0 0 0 0 1 0 0 0 0 1 0 0 0 0 1 0 0 0 0.5 0"/>
<feBlend mode="normal" in2="BackgroundImageFix" result="effect1_dropShadow_1469_10084"/>
<feColorMatrix in="SourceAlpha" type="matrix" values="0 0 0 0 0 0 0 0 0 0 0 0 0 0 0 0 0 0 127 0" result="hardAlpha"/>
<feOffset dy="3.74738"/>
<feGaussianBlur stdDeviation="5.62107"/>
<feColorMatrix type="matrix" values="0 0 0 0 1 0 0 0 0 1 0 0 0 0 1 0 0 0 0.3 0"/>
<feBlend mode="normal" in2="effect1_dropShadow_1469_10084" result="effect2_dropShadow_1469_10084"/>
<feBlend mode="normal" in="SourceGraphic" in2="effect2_dropShadow_1469_10084" result="shape"/>
</filter>
<filter id="filter3_dddiiii_1469_10084" x="-27.0608" y="9.5461" width="150.062" height="150.062" filterUnits="userSpaceOnUse" color-interpolation-filters="sRGB">
<feFlood flood-opacity="0" result="BackgroundImageFix"/>
<feColorMatrix in="SourceAlpha" type="matrix" values="0 0 0 0 0 0 0 0 0 0 0 0 0 0 0 0 0 0 127 0" result="hardAlpha"/>
<feOffset dx="34.6709" dy="34.6709"/>
<feGaussianBlur stdDeviation="17.3354"/>
<feColorMatrix type="matrix" values="0 0 0 0 0.560784 0 0 0 0 0.6 0 0 0 0 0.972549 0 0 0 0.1 0"/>
<feBlend mode="normal" in2="BackgroundImageFix" result="effect1_dropShadow_1469_10084"/>
<feColorMatrix in="SourceAlpha" type="matrix" values="0 0 0 0 0 0 0 0 0 0 0 0 0 0 0 0 0 0 127 0" result="hardAlpha"/>
<feOffset dx="13.8684" dy="13.8684"/>
<feGaussianBlur stdDeviation="6.93418"/>
<feColorMatrix type="matrix" values="0 0 0 0 0.560784 0 0 0 0 0.6 0 0 0 0 0.972549 0 0 0 0.1 0"/>
<feBlend mode="normal" in2="effect1_dropShadow_1469_10084" result="effect2_dropShadow_1469_10084"/>
<feColorMatrix in="SourceAlpha" type="matrix" values="0 0 0 0 0 0 0 0 0 0 0 0 0 0 0 0 0 0 127 0" result="hardAlpha"/>
<feOffset dx="6.93418" dy="6.93418"/>
<feGaussianBlur stdDeviation="3.46709"/>
<feColorMatrix type="matrix" values="0 0 0 0 0.560784 0 0 0 0 0.6 0 0 0 0 0.972549 0 0 0 0.14 0"/>
<feBlend mode="normal" in2="effect2_dropShadow_1469_10084" result="effect3_dropShadow_1469_10084"/>
<feBlend mode="normal" in="SourceGraphic" in2="effect3_dropShadow_1469_10084" result="shape"/>
<feColorMatrix in="SourceAlpha" type="matrix" values="0 0 0 0 0 0 0 0 0 0 0 0 0 0 0 0 0 0 127 0" result="hardAlpha"/>
<feOffset dy="1.73354"/>
<feGaussianBlur stdDeviation="0.866772"/>
<feComposite in2="hardAlpha" operator="arithmetic" k2="-1" k3="1"/>
<feColorMatrix type="matrix" values="0 0 0 0 1 0 0 0 0 1 0 0 0 0 1 0 0 0 0.1 0"/>
<feBlend mode="normal" in2="shape" result="effect4_innerShadow_1469_10084"/>
<feColorMatrix in="SourceAlpha" type="matrix" values="0 0 0 0 0 0 0 0 0 0 0 0 0 0 0 0 0 0 127 0" result="hardAlpha"/>
<feOffset dy="-3.46709"/>
<feGaussianBlur stdDeviation="1.73354"/>
<feComposite in2="hardAlpha" operator="arithmetic" k2="-1" k3="1"/>
<feColorMatrix type="matrix" values="0 0 0 0 0 0 0 0 0 0 0 0 0 0 0 0 0 0 0.05 0"/>
<feBlend mode="normal" in2="effect4_innerShadow_1469_10084" result="effect5_innerShadow_1469_10084"/>
<feColorMatrix in="SourceAlpha" type="matrix" values="0 0 0 0 0 0 0 0 0 0 0 0 0 0 0 0 0 0 127 0" result="hardAlpha"/>
<feOffset dx="3.46709"/>
<feGaussianBlur stdDeviation="1.73354"/>
<feComposite in2="hardAlpha" operator="arithmetic" k2="-1" k3="1"/>
<feColorMatrix type="matrix" values="0 0 0 0 0 0 0 0 0 0 0 0 0 0 0 0 0 0 0.02 0"/>
<feBlend mode="normal" in2="effect5_innerShadow_1469_10084" result="effect6_innerShadow_1469_10084"/>
<feColorMatrix in="SourceAlpha" type="matrix" values="0 0 0 0 0 0 0 0 0 0 0 0 0 0 0 0 0 0 127 0" result="hardAlpha"/>
<feOffset dx="-3.46709"/>
<feGaussianBlur stdDeviation="1.73354"/>
<feComposite in2="hardAlpha" operator="arithmetic" k2="-1" k3="1"/>
<feColorMatrix type="matrix" values="0 0 0 0 0 0 0 0 0 0 0 0 0 0 0 0 0 0 0.02 0"/>
<feBlend mode="normal" in2="effect6_innerShadow_1469_10084" result="effect7_innerShadow_1469_10084"/>
</filter>
<filter id="filter4_dd_1469_10084" x="-30.9683" y="12.0818" width="92.6108" height="92.6107" filterUnits="userSpaceOnUse" color-interpolation-filters="sRGB">
<feFlood flood-opacity="0" result="BackgroundImageFix"/>
<feColorMatrix in="SourceAlpha" type="matrix" values="0 0 0 0 0 0 0 0 0 0 0 0 0 0 0 0 0 0 127 0" result="hardAlpha"/>
<feOffset dy="6.93418"/>
<feGaussianBlur stdDeviation="8.66772"/>
<feColorMatrix type="matrix" values="0 0 0 0 1 0 0 0 0 1 0 0 0 0 1 0 0 0 0.5 0"/>
<feBlend mode="normal" in2="BackgroundImageFix" result="effect1_dropShadow_1469_10084"/>
<feColorMatrix in="SourceAlpha" type="matrix" values="0 0 0 0 0 0 0 0 0 0 0 0 0 0 0 0 0 0 127 0" result="hardAlpha"/>
<feOffset dy="3.46709"/>
<feGaussianBlur stdDeviation="5.20063"/>
<feColorMatrix type="matrix" values="0 0 0 0 1 0 0 0 0 1 0 0 0 0 1 0 0 0 0.3 0"/>
<feBlend mode="normal" in2="effect1_dropShadow_1469_10084" result="effect2_dropShadow_1469_10084"/>
<feBlend mode="normal" in="SourceGraphic" in2="effect2_dropShadow_1469_10084" result="shape"/>
</filter>
<filter id="filter5_dddiiii_1469_10084" x="-37.935" y="285.584" width="156.539" height="156.539" filterUnits="userSpaceOnUse" color-interpolation-filters="sRGB">
<feFlood flood-opacity="0" result="BackgroundImageFix"/>
<feColorMatrix in="SourceAlpha" type="matrix" values="0 0 0 0 0 0 0 0 0 0 0 0 0 0 0 0 0 0 127 0" result="hardAlpha"/>
<feOffset dx="35.9462" dy="35.9462"/>
<feGaussianBlur stdDeviation="17.9731"/>
<feColorMatrix type="matrix" values="0 0 0 0 0.898039 0 0 0 0 0.211765 0 0 0 0 0.670588 0 0 0 0.1 0"/>
<feBlend mode="normal" in2="BackgroundImageFix" result="effect1_dropShadow_1469_10084"/>
<feColorMatrix in="SourceAlpha" type="matrix" values="0 0 0 0 0 0 0 0 0 0 0 0 0 0 0 0 0 0 127 0" result="hardAlpha"/>
<feOffset dx="14.3785" dy="14.3785"/>
<feGaussianBlur stdDeviation="7.18925"/>
<feColorMatrix type="matrix" values="0 0 0 0 0.898039 0 0 0 0 0.211765 0 0 0 0 0.670588 0 0 0 0.1 0"/>
<feBlend mode="normal" in2="effect1_dropShadow_1469_10084" result="effect2_dropShadow_1469_10084"/>
<feColorMatrix in="SourceAlpha" type="matrix" values="0 0 0 0 0 0 0 0 0 0 0 0 0 0 0 0 0 0 127 0" result="hardAlpha"/>
<feOffset dx="7.18925" dy="7.18925"/>
<feGaussianBlur stdDeviation="3.59462"/>
<feColorMatrix type="matrix" values="0 0 0 0 0.898039 0 0 0 0 0.211765 0 0 0 0 0.670588 0 0 0 0.14 0"/>
<feBlend mode="normal" in2="effect2_dropShadow_1469_10084" result="effect3_dropShadow_1469_10084"/>
<feBlend mode="normal" in="SourceGraphic" in2="effect3_dropShadow_1469_10084" result="shape"/>
<feColorMatrix in="SourceAlpha" type="matrix" values="0 0 0 0 0 0 0 0 0 0 0 0 0 0 0 0 0 0 127 0" result="hardAlpha"/>
<feOffset dy="1.79731"/>
<feGaussianBlur stdDeviation="0.898656"/>
<feComposite in2="hardAlpha" operator="arithmetic" k2="-1" k3="1"/>
<feColorMatrix type="matrix" values="0 0 0 0 1 0 0 0 0 1 0 0 0 0 1 0 0 0 0.1 0"/>
<feBlend mode="normal" in2="shape" result="effect4_innerShadow_1469_10084"/>
<feColorMatrix in="SourceAlpha" type="matrix" values="0 0 0 0 0 0 0 0 0 0 0 0 0 0 0 0 0 0 127 0" result="hardAlpha"/>
<feOffset dy="-3.59462"/>
<feGaussianBlur stdDeviation="1.79731"/>
<feComposite in2="hardAlpha" operator="arithmetic" k2="-1" k3="1"/>
<feColorMatrix type="matrix" values="0 0 0 0 0 0 0 0 0 0 0 0 0 0 0 0 0 0 0.05 0"/>
<feBlend mode="normal" in2="effect4_innerShadow_1469_10084" result="effect5_innerShadow_1469_10084"/>
<feColorMatrix in="SourceAlpha" type="matrix" values="0 0 0 0 0 0 0 0 0 0 0 0 0 0 0 0 0 0 127 0" result="hardAlpha"/>
<feOffset dx="3.59462"/>
<feGaussianBlur stdDeviation="1.79731"/>
<feComposite in2="hardAlpha" operator="arithmetic" k2="-1" k3="1"/>
<feColorMatrix type="matrix" values="0 0 0 0 0 0 0 0 0 0 0 0 0 0 0 0 0 0 0.02 0"/>
<feBlend mode="normal" in2="effect5_innerShadow_1469_10084" result="effect6_innerShadow_1469_10084"/>
<feColorMatrix in="SourceAlpha" type="matrix" values="0 0 0 0 0 0 0 0 0 0 0 0 0 0 0 0 0 0 127 0" result="hardAlpha"/>
<feOffset dx="-3.59462"/>
<feGaussianBlur stdDeviation="1.79731"/>
<feComposite in2="hardAlpha" operator="arithmetic" k2="-1" k3="1"/>
<feColorMatrix type="matrix" values="0 0 0 0 0 0 0 0 0 0 0 0 0 0 0 0 0 0 0.02 0"/>
<feBlend mode="normal" in2="effect6_innerShadow_1469_10084" result="effect7_innerShadow_1469_10084"/>
</filter>
<filter id="filter6_dd_1469_10084" x="-41.9145" y="288.781" width="96.7358" height="96.7354" filterUnits="userSpaceOnUse" color-interpolation-filters="sRGB">
<feFlood flood-opacity="0" result="BackgroundImageFix"/>
<feColorMatrix in="SourceAlpha" type="matrix" values="0 0 0 0 0 0 0 0 0 0 0 0 0 0 0 0 0 0 127 0" result="hardAlpha"/>
<feOffset dy="7.18925"/>
<feGaussianBlur stdDeviation="8.98656"/>
<feColorMatrix type="matrix" values="0 0 0 0 1 0 0 0 0 1 0 0 0 0 1 0 0 0 0.5 0"/>
<feBlend mode="normal" in2="BackgroundImageFix" result="effect1_dropShadow_1469_10084"/>
<feColorMatrix in="SourceAlpha" type="matrix" values="0 0 0 0 0 0 0 0 0 0 0 0 0 0 0 0 0 0 127 0" result="hardAlpha"/>
<feOffset dy="3.59462"/>
<feGaussianBlur stdDeviation="5.39194"/>
<feColorMatrix type="matrix" values="0 0 0 0 1 0 0 0 0 1 0 0 0 0 1 0 0 0 0.3 0"/>
<feBlend mode="normal" in2="effect1_dropShadow_1469_10084" result="effect2_dropShadow_1469_10084"/>
<feBlend mode="normal" in="SourceGraphic" in2="effect2_dropShadow_1469_10084" result="shape"/>
</filter>
<filter id="filter7_dddiiii_1469_10084" x="292.278" y="139.548" width="162.559" height="162.559" filterUnits="userSpaceOnUse" color-interpolation-filters="sRGB">
<feFlood flood-opacity="0" result="BackgroundImageFix"/>
<feColorMatrix in="SourceAlpha" type="matrix" values="0 0 0 0 0 0 0 0 0 0 0 0 0 0 0 0 0 0 127 0" result="hardAlpha"/>
<feOffset dx="37.3732" dy="37.3732"/>
<feGaussianBlur stdDeviation="18.6866"/>
<feColorMatrix type="matrix" values="0 0 0 0 0.458824 0 0 0 0 0.458824 0 0 0 0 0.458824 0 0 0 0.1 0"/>
<feBlend mode="normal" in2="BackgroundImageFix" result="effect1_dropShadow_1469_10084"/>
<feColorMatrix in="SourceAlpha" type="matrix" values="0 0 0 0 0 0 0 0 0 0 0 0 0 0 0 0 0 0 127 0" result="hardAlpha"/>
<feOffset dx="14.9493" dy="14.9493"/>
<feGaussianBlur stdDeviation="7.47463"/>
<feColorMatrix type="matrix" values="0 0 0 0 0.458824 0 0 0 0 0.458824 0 0 0 0 0.458824 0 0 0 0.1 0"/>
<feBlend mode="normal" in2="effect1_dropShadow_1469_10084" result="effect2_dropShadow_1469_10084"/>
<feColorMatrix in="SourceAlpha" type="matrix" values="0 0 0 0 0 0 0 0 0 0 0 0 0 0 0 0 0 0 127 0" result="hardAlpha"/>
<feOffset dx="7.47463" dy="7.47463"/>
<feGaussianBlur stdDeviation="3.73732"/>
<feColorMatrix type="matrix" values="0 0 0 0 0.458333 0 0 0 0 0.458333 0 0 0 0 0.458333 0 0 0 0.2 0"/>
<feBlend mode="normal" in2="effect2_dropShadow_1469_10084" result="effect3_dropShadow_1469_10084"/>
<feBlend mode="normal" in="SourceGraphic" in2="effect3_dropShadow_1469_10084" result="shape"/>
<feColorMatrix in="SourceAlpha" type="matrix" values="0 0 0 0 0 0 0 0 0 0 0 0 0 0 0 0 0 0 127 0" result="hardAlpha"/>
<feOffset dy="1.86866"/>
<feGaussianBlur stdDeviation="0.934329"/>
<feComposite in2="hardAlpha" operator="arithmetic" k2="-1" k3="1"/>
<feColorMatrix type="matrix" values="0 0 0 0 1 0 0 0 0 1 0 0 0 0 1 0 0 0 0.1 0"/>
<feBlend mode="normal" in2="shape" result="effect4_innerShadow_1469_10084"/>
<feColorMatrix in="SourceAlpha" type="matrix" values="0 0 0 0 0 0 0 0 0 0 0 0 0 0 0 0 0 0 127 0" result="hardAlpha"/>
<feOffset dy="-3.73732"/>
<feGaussianBlur stdDeviation="1.86866"/>
<feComposite in2="hardAlpha" operator="arithmetic" k2="-1" k3="1"/>
<feColorMatrix type="matrix" values="0 0 0 0 0 0 0 0 0 0 0 0 0 0 0 0 0 0 0.05 0"/>
<feBlend mode="normal" in2="effect4_innerShadow_1469_10084" result="effect5_innerShadow_1469_10084"/>
<feColorMatrix in="SourceAlpha" type="matrix" values="0 0 0 0 0 0 0 0 0 0 0 0 0 0 0 0 0 0 127 0" result="hardAlpha"/>
<feOffset dx="3.73732"/>
<feGaussianBlur stdDeviation="1.86866"/>
<feComposite in2="hardAlpha" operator="arithmetic" k2="-1" k3="1"/>
<feColorMatrix type="matrix" values="0 0 0 0 0 0 0 0 0 0 0 0 0 0 0 0 0 0 0.02 0"/>
<feBlend mode="normal" in2="effect5_innerShadow_1469_10084" result="effect6_innerShadow_1469_10084"/>
<feColorMatrix in="SourceAlpha" type="matrix" values="0 0 0 0 0 0 0 0 0 0 0 0 0 0 0 0 0 0 127 0" result="hardAlpha"/>
<feOffset dx="-3.73732"/>
<feGaussianBlur stdDeviation="1.86866"/>
<feComposite in2="hardAlpha" operator="arithmetic" k2="-1" k3="1"/>
<feColorMatrix type="matrix" values="0 0 0 0 0 0 0 0 0 0 0 0 0 0 0 0 0 0 0.02 0"/>
<feBlend mode="normal" in2="effect6_innerShadow_1469_10084" result="effect7_innerShadow_1469_10084"/>
</filter>
<filter id="filter8_ddi_1469_10084" x="287.838" y="142.583" width="100.429" height="100.429" filterUnits="userSpaceOnUse" color-interpolation-filters="sRGB">
<feFlood flood-opacity="0" result="BackgroundImageFix"/>
<feColorMatrix in="SourceAlpha" type="matrix" values="0 0 0 0 0 0 0 0 0 0 0 0 0 0 0 0 0 0 127 0" result="hardAlpha"/>
<feOffset dy="7.47463"/>
<feGaussianBlur stdDeviation="9.34329"/>
<feColorMatrix type="matrix" values="0 0 0 0 0.770833 0 0 0 0 0.770833 0 0 0 0 0.770833 0 0 0 0.5 0"/>
<feBlend mode="normal" in2="BackgroundImageFix" result="effect1_dropShadow_1469_10084"/>
<feColorMatrix in="SourceAlpha" type="matrix" values="0 0 0 0 0 0 0 0 0 0 0 0 0 0 0 0 0 0 127 0" result="hardAlpha"/>
<feOffset dy="3.73732"/>
<feGaussianBlur stdDeviation="5.60597"/>
<feColorMatrix type="matrix" values="0 0 0 0 0.772549 0 0 0 0 0.772549 0 0 0 0 0.772549 0 0 0 0.3 0"/>
<feBlend mode="normal" in2="effect1_dropShadow_1469_10084" result="effect2_dropShadow_1469_10084"/>
<feBlend mode="normal" in="SourceGraphic" in2="effect2_dropShadow_1469_10084" result="shape"/>
<feColorMatrix in="SourceAlpha" type="matrix" values="0 0 0 0 0 0 0 0 0 0 0 0 0 0 0 0 0 0 127 0" result="hardAlpha"/>
<feOffset dx="-0.934329" dy="-0.934329"/>
<feGaussianBlur stdDeviation="0.467164"/>
<feComposite in2="hardAlpha" operator="arithmetic" k2="-1" k3="1"/>
<feColorMatrix type="matrix" values="0 0 0 0 1 0 0 0 0 1 0 0 0 0 1 0 0 0 0.16 0"/>
<feBlend mode="normal" in2="shape" result="effect3_innerShadow_1469_10084"/>
</filter>
<linearGradient id="paint0_linear_1469_10084" x1="180.825" y1="424.642" x2="180.825" y2="66.2917" gradientUnits="userSpaceOnUse">
<stop stop-color="#4557F6"/>
<stop offset="1" stop-color="#D7DBFF"/>
</linearGradient>
<linearGradient id="paint1_linear_1469_10084" x1="299.641" y1="402.677" x2="366.327" y2="422.464" gradientUnits="userSpaceOnUse">
<stop stop-color="#7BADF8"/>
<stop offset="1" stop-color="#BE6CFF"/>
</linearGradient>
<linearGradient id="paint2_linear_1469_10084" x1="-65.5732" y1="52.5127" x2="63.8515" y2="63.9759" gradientUnits="userSpaceOnUse">
<stop stop-color="#4557F6"/>
<stop offset="1" stop-color="#D7DBFF"/>
</linearGradient>
<linearGradient id="paint3_linear_1469_10084" x1="27.3789" y1="432.96" x2="-17.0804" y2="253.312" gradientUnits="userSpaceOnUse">
<stop stop-color="#0E0725"/>
<stop offset="0.32747" stop-color="#5C03BC"/>
<stop offset="0.669597" stop-color="#E536AB"/>
<stop offset="1" stop-color="#F4E5F0"/>
</linearGradient>
<linearGradient id="paint4_linear_1469_10084" x1="296.016" y1="180.774" x2="358.555" y2="210.799" gradientUnits="userSpaceOnUse">
<stop stop-color="#FBFBFB"/>
<stop offset="1" stop-color="#DEDEDE"/>
</linearGradient>
<linearGradient id="paint5_linear_1469_10084" x1="180.825" y1="66.2917" x2="180.825" y2="424.642" gradientUnits="userSpaceOnUse">
<stop stop-color="#4557F6"/>
<stop offset="1" stop-color="#D7DBFF"/>
</linearGradient>
<clipPath id="clip0_1469_10084">
<rect width="360" height="504" rx="12" fill="white"/>
</clipPath>
<clipPath id="clip1_1469_10084">
<path d="M316.335 417.738C310.491 412.466 307.57 409.83 306.364 406.679C305.303 403.908 305.147 400.871 305.918 398.006C306.794 394.748 309.43 391.826 314.702 385.982L324.743 374.853C330.015 369.009 332.651 366.088 335.802 364.882C338.573 363.821 341.61 363.665 344.475 364.436C347.733 365.312 350.655 367.948 356.499 373.22L367.628 383.261C373.472 388.533 376.393 391.169 377.599 394.32C378.66 397.091 378.816 400.127 378.045 402.993C377.169 406.251 374.533 409.173 369.261 415.016L359.22 426.146C353.948 431.99 351.312 434.911 348.161 436.117C345.39 437.178 342.354 437.334 339.488 436.563C336.23 435.687 333.308 433.051 327.465 427.779L316.335 417.738Z" fill="white"/>
</clipPath>
<clipPath id="clip2_1469_10084">
<rect width="44.9686" height="44.9686" fill="white" transform="translate(310.243 402.148) rotate(-47.9437)"/>
</clipPath>
<clipPath id="clip3_1469_10084">
<path d="M-11.6697 61.8565C-15.8435 55.8898 -17.9304 52.9065 -18.3634 49.8153C-18.7443 47.0962 -18.2546 44.3263 -16.9645 41.9026C-15.4978 39.1472 -12.5145 37.0603 -6.54785 32.8865L4.81608 24.9372C10.7827 20.7634 13.766 18.6765 16.8572 18.2435C19.5764 17.8626 22.3463 18.3523 24.77 19.6424C27.5253 21.1091 29.6122 24.0924 33.786 30.059L41.7354 41.423C45.9092 47.3896 47.9961 50.3729 48.4291 53.4641C48.8099 56.1833 48.3202 58.9531 47.0301 61.3768C45.5634 64.1322 42.5801 66.2191 36.6135 70.3929L25.2496 78.3423C19.2829 82.5161 16.2996 84.603 13.2084 85.036C10.4893 85.4168 7.71939 84.9271 5.2957 83.637C2.54034 82.1703 0.453434 79.187 -3.72037 73.2204L-11.6697 61.8565Z" fill="white"/>
</clipPath>
<clipPath id="clip4_1469_10084">
<rect width="41.6051" height="41.6051" fill="white" transform="translate(-13.6328 46.3311) rotate(-34.9737)"/>
</clipPath>
<clipPath id="clip5_1469_10084">
<path d="M-11.1368 305.651C-6.26369 299.885 -3.82711 297.002 -0.843685 295.748C1.78061 294.645 4.68672 294.401 7.45814 295.051C10.6088 295.79 13.4918 298.227 19.2577 303.1L30.2394 312.382C36.0054 317.255 38.8883 319.691 40.1423 322.675C41.2452 325.299 41.4891 328.205 40.8389 330.977C40.0997 334.127 37.6632 337.01 32.79 342.776L23.5086 353.758C18.6355 359.524 16.1989 362.407 13.2155 363.661C10.5912 364.764 7.68508 365.008 4.91366 364.357C1.76299 363.618 -1.11998 361.182 -6.88592 356.308L-17.8676 347.027C-23.6336 342.154 -26.5165 339.717 -27.7705 336.734C-28.8734 334.11 -29.1173 331.203 -28.4671 328.432C-27.7279 325.281 -25.2913 322.398 -20.4182 316.632L-11.1368 305.651Z" fill="white"/>
</clipPath>
<clipPath id="clip6_1469_10084">
<rect width="43.1355" height="43.1355" fill="white" transform="translate(3.90283 299.565) rotate(40.2033)"/>
</clipPath>
<clipPath id="clip7_1469_10084">
<path d="M310.074 198.244C305.153 192.129 302.693 189.072 302.003 185.778C301.397 182.882 301.723 179.867 302.935 177.167C304.313 174.097 307.37 171.637 313.485 166.716L325.132 157.344C331.247 152.423 334.304 149.962 337.598 149.273C340.494 148.666 343.509 148.993 346.209 150.205C349.279 151.583 351.739 154.64 356.66 160.755L366.032 172.401C370.953 178.516 373.414 181.574 374.103 184.867C374.71 187.764 374.383 190.779 373.171 193.479C371.793 196.548 368.736 199.009 362.621 203.93L350.975 213.302C344.86 218.223 341.802 220.683 338.509 221.373C335.612 221.979 332.597 221.653 329.897 220.441C326.828 219.063 324.367 216.006 319.446 209.891L310.074 198.244Z" fill="white"/>
</clipPath>
<clipPath id="clip8_1469_10084">
<rect width="44.8478" height="44.8478" fill="white" transform="translate(306.525 181.912) rotate(-38.8247)"/>
</clipPath>
</defs>
</svg>
