<svg width="360" height="504" viewBox="0 0 360 504" fill="none" xmlns="http://www.w3.org/2000/svg">
<g clip-path="url(#clip0_1469_10137)">
<rect width="360" height="504" rx="12" fill="url(#paint0_linear_1469_10137)" fill-opacity="0.14"/>
<g filter="url(#filter1_dddiiii_1469_10137)">
<g clip-path="url(#clip1_1469_10137)">
<path d="M318.994 412.634C313.923 407.191 311.388 404.47 310.511 401.404C309.739 398.707 309.841 395.835 310.801 393.2C311.893 390.204 314.615 387.668 320.058 382.598L330.425 372.94C335.868 367.87 338.589 365.334 341.655 364.457C344.352 363.685 347.224 363.787 349.859 364.748C352.855 365.84 355.391 368.561 360.461 374.004L370.119 384.371C375.189 389.814 377.725 392.536 378.602 395.602C379.374 398.298 379.272 401.17 378.311 403.806C377.219 406.802 374.498 409.337 369.055 414.408L358.688 424.065C353.245 429.136 350.523 431.671 347.457 432.548C344.761 433.32 341.889 433.218 339.253 432.258C336.257 431.166 333.722 428.444 328.651 423.001L318.994 412.634Z" fill="url(#paint1_linear_1469_10137)"/>
<g clip-path="url(#clip2_1469_10137)" filter="url(#filter2_dd_1469_10137)">
<path fill-rule="evenodd" clip-rule="evenodd" d="M329.363 392.332C328.753 392.14 329.037 391.208 329.652 391.394L333.788 392.661C334.399 392.853 334.114 393.785 333.5 393.599L329.363 392.332ZM334.291 390.341L332.638 388.566C332.197 388.097 331.48 388.765 331.917 389.238L333.57 391.013C334.012 391.483 334.728 390.814 334.291 390.341ZM330.204 396.812L332.747 395.462C333.314 395.156 332.853 394.294 332.285 394.593L329.742 395.943C329.174 396.25 329.636 397.113 330.204 396.812ZM351.285 409.757C352.414 409.46 352.853 407.944 352.024 407.1C351.24 406.21 349.697 406.544 349.321 407.649C349.114 408.027 349.395 408.506 349.086 408.827C348.889 409.01 348.576 409.003 348.389 408.802L345.397 405.589L342.964 407.855C344.777 408.431 345.324 410.943 343.887 412.214C342.521 413.555 340.048 412.836 339.604 410.985L337.17 413.253L343.665 420.225C343.987 420.571 344.421 420.753 344.859 420.77C345.298 420.784 345.743 420.633 346.089 420.311L353.061 413.816L350.069 410.604C349.883 410.403 349.896 410.091 350.094 409.907C350.435 409.622 350.893 409.937 351.285 409.757ZM340.407 409.565C340.693 409.906 340.378 410.365 340.558 410.756C340.855 411.885 342.369 412.327 343.214 411.495C344.102 410.711 343.773 409.169 342.665 408.792C342.287 408.584 341.808 408.866 341.487 408.557C341.303 408.359 341.311 408.047 341.512 407.86L344.724 404.868L342.457 402.434C341.88 404.25 339.368 404.792 338.098 403.358C336.754 401.988 337.475 399.522 339.327 399.075L337.06 396.642L330.089 403.136C329.743 403.458 329.561 403.892 329.545 404.331C329.529 404.77 329.682 405.215 330.004 405.56L336.499 412.533L339.711 409.541C339.911 409.353 340.223 409.367 340.407 409.565ZM350.437 400.221C350.151 399.88 350.465 399.422 350.286 399.03C350.12 398.381 349.444 397.858 348.787 397.857C346.976 397.794 346.467 400.366 348.178 400.993C348.608 401.215 349.376 400.838 349.482 401.502C349.502 401.664 349.441 401.818 349.33 401.923L346.118 404.917L348.385 407.35C348.72 406.285 349.887 405.512 350.975 405.604C353.888 405.748 354.347 409.952 351.514 410.71L353.782 413.144L360.755 406.649C361.1 406.327 361.283 405.893 361.298 405.454C361.314 405.015 361.163 404.569 360.841 404.224L354.345 397.253L351.132 400.246C350.934 400.431 350.622 400.42 350.437 400.221ZM340.529 380.734C340.058 380.718 339.623 380.895 339.301 381.195C338.98 381.494 338.771 381.917 338.755 382.387L338.417 391.91L342.804 392.066C343.076 392.075 343.289 392.304 343.279 392.575C343.239 393.019 342.693 393.121 342.543 393.526C341.952 394.531 342.718 395.916 343.9 395.927C345.081 395.997 345.94 394.676 345.423 393.628C345.314 393.394 345.148 393.189 344.946 393.032C344.568 392.758 344.81 392.12 345.266 392.155L349.653 392.308L349.771 388.985C348.065 389.866 345.887 388.445 346.039 386.513C346.085 384.614 348.323 383.413 349.933 384.395L350.052 381.072L340.529 380.734Z" fill="white"/>
</g>
</g>
</g>
<g filter="url(#filter3_dddiiii_1469_10137)">
<g clip-path="url(#clip3_1469_10137)">
<path d="M-4.42144 46.2229C0.615597 40.5214 3.13412 37.6707 6.16759 36.4733C8.8359 35.4201 11.7692 35.2386 14.547 35.9549C17.7049 36.7692 20.5556 39.2877 26.2571 44.3248L37.116 53.9182C42.8174 58.9553 45.6681 61.4738 46.8655 64.5073C47.9188 67.1756 48.1003 70.1088 47.384 72.8866C46.5697 76.0446 44.0511 78.8953 39.0141 84.5967L29.4206 95.4556C24.3836 101.157 21.8651 104.008 18.8316 105.205C16.1633 106.258 13.23 106.44 10.4522 105.724C7.29428 104.909 4.44356 102.391 -1.25789 97.3538L-12.1168 87.7603C-17.8182 82.7233 -20.6689 80.2047 -21.8663 77.1713C-22.9196 74.503 -23.1011 71.5697 -22.3848 68.7919C-21.5705 65.634 -19.0519 62.7832 -14.0149 57.0818L-4.42144 46.2229Z" fill="url(#paint2_linear_1469_10137)"/>
<g clip-path="url(#clip4_1469_10137)" filter="url(#filter4_dd_1469_10137)">
<path d="M23.3772 58.0175L24.4705 56.7799C24.6422 56.5856 24.941 56.5671 25.1354 56.7388L31.9618 62.7697C32.5015 63.2488 32.7369 63.9842 32.5742 64.688C32.4129 65.3929 31.8786 65.9497 31.1832 66.1452L29.2493 66.6848L28.9556 68.6666L28.9568 68.6653C28.8485 69.3794 28.3618 69.9782 27.6822 70.2253C27.0039 70.4735 26.2451 70.3304 25.7031 69.854L19.2297 64.135L17.0185 66.6379C16.8468 66.8322 16.5479 66.8507 16.3536 66.679C16.1592 66.5073 16.1407 66.2085 16.3124 66.0141L19.929 61.9205L22.1581 63.8899C22.3525 64.0616 22.6489 64.0433 22.8217 63.8476C22.9935 63.6533 22.9751 63.3569 22.7808 63.1852L20.5516 61.2158L21.34 60.3233L26.9012 65.2364C27.0956 65.4082 27.392 65.3898 27.5649 65.1941C27.7366 64.9998 27.7182 64.7034 27.5239 64.5317L21.9627 59.6186L22.7546 58.7221L24.9838 60.6915C25.1782 60.8633 25.4745 60.8449 25.6463 60.6506C25.8191 60.4549 25.8008 60.1585 25.6064 59.9868L23.3772 58.0175ZM11.8721 73.2145C12.8865 74.3179 12.8387 75.8083 12.6616 76.7629C13.6944 76.5878 14.7523 76.5948 15.7825 76.7823L16.7858 69.4646C16.9073 68.5996 16.586 67.7296 15.9302 67.1502C15.2757 66.572 14.3727 66.3604 13.528 66.5864L6.39372 68.4876C6.70811 69.4881 6.84416 70.5358 6.79766 71.5824C7.72321 71.2889 9.19494 71.0566 10.4163 71.9284C10.5289 72.0114 10.6007 72.1407 10.6143 72.2799C10.6231 72.4218 10.5678 72.559 10.4638 72.6554C10.1462 72.9775 9.98363 73.4201 10.019 73.8704C10.4702 73.85 10.8905 73.6327 11.1699 73.2792C11.2527 73.1641 11.3834 73.0935 11.5228 73.0849C11.6636 73.0774 11.8007 73.1327 11.8972 73.2367L11.8721 73.2145ZM12.1161 93.3554C11.2122 93.6963 10.1942 93.5056 9.4745 92.8626L-8.78237 76.7333C-9.50676 76.0957 -9.82008 75.1126 -9.5995 74.1728C-9.37876 73.2355 -8.65839 72.4947 -7.72629 72.247L5.4722 68.742C5.77507 69.8194 6.07716 71.3481 5.69827 72.174C5.61341 72.358 5.65685 72.5753 5.8054 72.7136C5.95333 72.8419 6.16599 72.865 6.33889 72.7705C6.33889 72.7705 8.04584 71.875 9.42527 72.4533C9.03161 73.0401 8.93728 73.7784 9.17228 74.4451C9.22595 74.6055 9.35949 74.7235 9.52531 74.757C10.2159 74.908 10.9369 74.7234 11.4707 74.2604C12.2166 75.5479 11.5415 77.3433 11.5329 77.3663C11.4619 77.5532 11.5188 77.7659 11.6717 77.8939C11.8271 78.0218 12.0456 78.0383 12.2179 77.9339C12.9908 77.4561 14.5371 77.5604 15.6516 77.7351L13.7962 91.2615C13.6705 92.2191 13.0232 93.0268 12.1161 93.3554ZM7.59427 85.3632L8.14541 76.5323C8.15391 76.3868 8.09516 76.2454 7.98675 76.1496C7.87833 76.0539 7.73081 76.013 7.58745 76.0394L-1.10816 77.6749C-1.28358 77.7082 -1.42429 77.8382 -1.47359 78.0112C-1.52289 78.1843 -1.46883 78.3709 -1.33381 78.4926L0.348018 79.9784L-0.197483 80.5959L-0.196314 80.5945C-0.369191 80.7902 -0.350869 81.0866 -0.155173 81.2595C0.039188 81.4312 0.335543 81.4129 0.508433 81.2172L1.36466 80.248C1.44759 80.1541 1.49 80.0315 1.4823 79.907C1.47459 79.7825 1.4174 79.666 1.32484 79.5842L0.00927794 78.422L7.16813 77.0765L6.71445 84.3476L5.40006 83.184C5.2057 83.0123 4.90817 83.032 4.73645 83.2263L3.74007 84.3541C3.56719 84.5498 3.58551 84.8462 3.77989 85.0179C3.97557 85.1908 4.27192 85.1725 4.44481 84.9768L5.1305 84.2006L6.81233 85.6865L6.81116 85.6878C6.94851 85.8068 7.1404 85.8374 7.30604 85.7672C7.47168 85.6969 7.58329 85.5413 7.59478 85.3631L7.59427 85.3632Z" fill="white"/>
</g>
</g>
</g>
<g filter="url(#filter5_dddiiii_1469_10137)">
<g clip-path="url(#clip5_1469_10137)">
<path d="M0.956026 288.176C6.1973 281.114 8.81794 277.582 12.1942 275.905C15.1641 274.43 18.5248 273.932 21.7947 274.484C25.5121 275.112 29.0432 277.732 36.1053 282.974L49.5557 292.956C56.6178 298.197 60.1489 300.818 61.8263 304.194C63.3017 307.164 63.7991 310.525 63.2471 313.795C62.6196 317.512 59.9989 321.043 54.7577 328.105L44.7753 341.556C39.534 348.618 36.9134 352.149 33.5371 353.826C30.5672 355.302 27.2065 355.799 23.9366 355.247C20.2192 354.62 16.6881 351.999 9.62597 346.758L-3.8244 336.775C-10.8865 331.534 -14.4176 328.913 -16.095 325.537C-17.5704 322.567 -18.0678 319.207 -17.5158 315.937C-16.8883 312.219 -14.2676 308.688 -9.02638 301.626L0.956026 288.176Z" fill="url(#paint3_linear_1469_10137)"/>
<g clip-path="url(#clip6_1469_10137)" filter="url(#filter6_ddi_1469_10137)">
<ellipse cx="23.2202" cy="314.294" rx="20.9375" ry="16.75" transform="rotate(36.5815 23.2202 314.294)" fill="white"/>
<path d="M9.44191 322.32L5.64581 316.895C4.03267 319.229 2.22604 319.51 -1.46021 319.443C2.02 321.36 4.49503 322.165 9.44191 322.32Z" fill="white"/>
</g>
</g>
</g>
<g filter="url(#filter7_dddiiii_1469_10137)">
<g clip-path="url(#clip7_1469_10137)">
<path d="M315.098 172.484C309.964 166.893 307.397 164.098 306.523 160.963C305.756 158.206 305.88 155.276 306.88 152.594C308.016 149.545 310.811 146.978 316.402 141.843L327.05 132.064C332.641 126.93 335.437 124.362 338.571 123.489C341.329 122.721 344.258 122.846 346.94 123.845C349.989 124.982 352.557 127.777 357.691 133.368L367.47 144.016C372.605 149.607 375.172 152.402 376.045 155.537C376.813 158.294 376.688 161.224 375.689 163.906C374.553 166.955 371.757 169.523 366.166 174.657L355.518 184.436C349.927 189.571 347.132 192.138 343.997 193.011C341.24 193.779 338.31 193.654 335.628 192.655C332.579 191.519 330.012 188.723 324.877 183.132L315.098 172.484Z" fill="url(#paint4_linear_1469_10137)"/>
<g clip-path="url(#clip8_1469_10137)" filter="url(#filter8_dd_1469_10137)">
<g filter="url(#filter9_i_1469_10137)">
<path d="M341.756 161.437C344.794 164.745 344.575 169.889 341.267 172.927C337.96 175.965 332.815 175.746 329.777 172.438C326.739 169.13 326.958 163.986 330.266 160.948C333.574 157.91 338.718 158.129 341.756 161.437Z" fill="white"/>
<path d="M350.795 151.909C354.508 155.952 354.241 162.24 350.198 165.953C346.155 169.666 339.867 169.398 336.154 165.355C332.441 161.312 332.708 155.024 336.751 151.311C340.795 147.598 347.082 147.866 350.795 151.909Z" fill="white"/>
<path d="M356.398 147.99C359.436 151.298 359.217 156.443 355.909 159.481C352.601 162.519 347.456 162.3 344.418 158.992C341.381 155.684 341.599 150.54 344.907 147.502C348.215 144.464 353.36 144.683 356.398 147.99Z" fill="white"/>
</g>
<g filter="url(#filter10_di_1469_10137)">
<circle cx="331.04" cy="157.783" r="9.03583" transform="rotate(-42.5635 331.04 157.783)" fill="#FFA945"/>
</g>
</g>
</g>
</g>
</g>
<rect x="1" y="1" width="358" height="502" rx="11" stroke="url(#paint5_linear_1469_10137)" stroke-width="2"/>
<defs>
<filter id="filter1_dddiiii_1469_10137" x="300.966" y="354.912" width="154.48" height="154.48" filterUnits="userSpaceOnUse" color-interpolation-filters="sRGB">
<feFlood flood-opacity="0" result="BackgroundImageFix"/>
<feColorMatrix in="SourceAlpha" type="matrix" values="0 0 0 0 0 0 0 0 0 0 0 0 0 0 0 0 0 0 127 0" result="hardAlpha"/>
<feOffset dx="35.4204" dy="35.4204"/>
<feGaussianBlur stdDeviation="17.7102"/>
<feColorMatrix type="matrix" values="0 0 0 0 0.87451 0 0 0 0 0.486275 0 0 0 0 0.937255 0 0 0 0.1 0"/>
<feBlend mode="normal" in2="BackgroundImageFix" result="effect1_dropShadow_1469_10137"/>
<feColorMatrix in="SourceAlpha" type="matrix" values="0 0 0 0 0 0 0 0 0 0 0 0 0 0 0 0 0 0 127 0" result="hardAlpha"/>
<feOffset dx="14.1681" dy="14.1681"/>
<feGaussianBlur stdDeviation="7.08407"/>
<feColorMatrix type="matrix" values="0 0 0 0 0.87451 0 0 0 0 0.486275 0 0 0 0 0.937255 0 0 0 0.1 0"/>
<feBlend mode="normal" in2="effect1_dropShadow_1469_10137" result="effect2_dropShadow_1469_10137"/>
<feColorMatrix in="SourceAlpha" type="matrix" values="0 0 0 0 0 0 0 0 0 0 0 0 0 0 0 0 0 0 127 0" result="hardAlpha"/>
<feOffset dx="7.08407" dy="7.08407"/>
<feGaussianBlur stdDeviation="3.54204"/>
<feColorMatrix type="matrix" values="0 0 0 0 0.87451 0 0 0 0 0.486275 0 0 0 0 0.937255 0 0 0 0.2 0"/>
<feBlend mode="normal" in2="effect2_dropShadow_1469_10137" result="effect3_dropShadow_1469_10137"/>
<feBlend mode="normal" in="SourceGraphic" in2="effect3_dropShadow_1469_10137" result="shape"/>
<feColorMatrix in="SourceAlpha" type="matrix" values="0 0 0 0 0 0 0 0 0 0 0 0 0 0 0 0 0 0 127 0" result="hardAlpha"/>
<feOffset dy="1.77102"/>
<feGaussianBlur stdDeviation="0.885509"/>
<feComposite in2="hardAlpha" operator="arithmetic" k2="-1" k3="1"/>
<feColorMatrix type="matrix" values="0 0 0 0 1 0 0 0 0 1 0 0 0 0 1 0 0 0 0.1 0"/>
<feBlend mode="normal" in2="shape" result="effect4_innerShadow_1469_10137"/>
<feColorMatrix in="SourceAlpha" type="matrix" values="0 0 0 0 0 0 0 0 0 0 0 0 0 0 0 0 0 0 127 0" result="hardAlpha"/>
<feOffset dy="-3.54204"/>
<feGaussianBlur stdDeviation="1.77102"/>
<feComposite in2="hardAlpha" operator="arithmetic" k2="-1" k3="1"/>
<feColorMatrix type="matrix" values="0 0 0 0 0 0 0 0 0 0 0 0 0 0 0 0 0 0 0.05 0"/>
<feBlend mode="normal" in2="effect4_innerShadow_1469_10137" result="effect5_innerShadow_1469_10137"/>
<feColorMatrix in="SourceAlpha" type="matrix" values="0 0 0 0 0 0 0 0 0 0 0 0 0 0 0 0 0 0 127 0" result="hardAlpha"/>
<feOffset dx="3.54204"/>
<feGaussianBlur stdDeviation="1.77102"/>
<feComposite in2="hardAlpha" operator="arithmetic" k2="-1" k3="1"/>
<feColorMatrix type="matrix" values="0 0 0 0 0 0 0 0 0 0 0 0 0 0 0 0 0 0 0.02 0"/>
<feBlend mode="normal" in2="effect5_innerShadow_1469_10137" result="effect6_innerShadow_1469_10137"/>
<feColorMatrix in="SourceAlpha" type="matrix" values="0 0 0 0 0 0 0 0 0 0 0 0 0 0 0 0 0 0 127 0" result="hardAlpha"/>
<feOffset dx="-3.54204"/>
<feGaussianBlur stdDeviation="1.77102"/>
<feComposite in2="hardAlpha" operator="arithmetic" k2="-1" k3="1"/>
<feColorMatrix type="matrix" values="0 0 0 0 0 0 0 0 0 0 0 0 0 0 0 0 0 0 0.02 0"/>
<feBlend mode="normal" in2="effect6_innerShadow_1469_10137" result="effect7_innerShadow_1469_10137"/>
</filter>
<filter id="filter2_dd_1469_10137" x="296.824" y="357.856" width="95.4931" height="95.4931" filterUnits="userSpaceOnUse" color-interpolation-filters="sRGB">
<feFlood flood-opacity="0" result="BackgroundImageFix"/>
<feColorMatrix in="SourceAlpha" type="matrix" values="0 0 0 0 0 0 0 0 0 0 0 0 0 0 0 0 0 0 127 0" result="hardAlpha"/>
<feOffset dy="7.08407"/>
<feGaussianBlur stdDeviation="8.85509"/>
<feColorMatrix type="matrix" values="0 0 0 0 1 0 0 0 0 1 0 0 0 0 1 0 0 0 0.5 0"/>
<feBlend mode="normal" in2="BackgroundImageFix" result="effect1_dropShadow_1469_10137"/>
<feColorMatrix in="SourceAlpha" type="matrix" values="0 0 0 0 0 0 0 0 0 0 0 0 0 0 0 0 0 0 127 0" result="hardAlpha"/>
<feOffset dy="3.54204"/>
<feGaussianBlur stdDeviation="5.31305"/>
<feColorMatrix type="matrix" values="0 0 0 0 1 0 0 0 0 1 0 0 0 0 1 0 0 0 0.3 0"/>
<feBlend mode="normal" in2="effect1_dropShadow_1469_10137" result="effect2_dropShadow_1469_10137"/>
<feBlend mode="normal" in="SourceGraphic" in2="effect2_dropShadow_1469_10137" result="shape"/>
</filter>
<filter id="filter3_dddiiii_1469_10137" x="-32.0277" y="26.3122" width="157.88" height="157.88" filterUnits="userSpaceOnUse" color-interpolation-filters="sRGB">
<feFlood flood-opacity="0" result="BackgroundImageFix"/>
<feColorMatrix in="SourceAlpha" type="matrix" values="0 0 0 0 0 0 0 0 0 0 0 0 0 0 0 0 0 0 127 0" result="hardAlpha"/>
<feOffset dx="36.2241" dy="36.2241"/>
<feGaussianBlur stdDeviation="18.1121"/>
<feColorMatrix type="matrix" values="0 0 0 0 0.560784 0 0 0 0 0.6 0 0 0 0 0.972549 0 0 0 0.1 0"/>
<feBlend mode="normal" in2="BackgroundImageFix" result="effect1_dropShadow_1469_10137"/>
<feColorMatrix in="SourceAlpha" type="matrix" values="0 0 0 0 0 0 0 0 0 0 0 0 0 0 0 0 0 0 127 0" result="hardAlpha"/>
<feOffset dx="14.4896" dy="14.4896"/>
<feGaussianBlur stdDeviation="7.24482"/>
<feColorMatrix type="matrix" values="0 0 0 0 0.560784 0 0 0 0 0.6 0 0 0 0 0.972549 0 0 0 0.1 0"/>
<feBlend mode="normal" in2="effect1_dropShadow_1469_10137" result="effect2_dropShadow_1469_10137"/>
<feColorMatrix in="SourceAlpha" type="matrix" values="0 0 0 0 0 0 0 0 0 0 0 0 0 0 0 0 0 0 127 0" result="hardAlpha"/>
<feOffset dx="7.24482" dy="7.24482"/>
<feGaussianBlur stdDeviation="3.62241"/>
<feColorMatrix type="matrix" values="0 0 0 0 0.560784 0 0 0 0 0.6 0 0 0 0 0.972549 0 0 0 0.14 0"/>
<feBlend mode="normal" in2="effect2_dropShadow_1469_10137" result="effect3_dropShadow_1469_10137"/>
<feBlend mode="normal" in="SourceGraphic" in2="effect3_dropShadow_1469_10137" result="shape"/>
<feColorMatrix in="SourceAlpha" type="matrix" values="0 0 0 0 0 0 0 0 0 0 0 0 0 0 0 0 0 0 127 0" result="hardAlpha"/>
<feOffset dy="1.81121"/>
<feGaussianBlur stdDeviation="0.905603"/>
<feComposite in2="hardAlpha" operator="arithmetic" k2="-1" k3="1"/>
<feColorMatrix type="matrix" values="0 0 0 0 1 0 0 0 0 1 0 0 0 0 1 0 0 0 0.1 0"/>
<feBlend mode="normal" in2="shape" result="effect4_innerShadow_1469_10137"/>
<feColorMatrix in="SourceAlpha" type="matrix" values="0 0 0 0 0 0 0 0 0 0 0 0 0 0 0 0 0 0 127 0" result="hardAlpha"/>
<feOffset dy="-3.62241"/>
<feGaussianBlur stdDeviation="1.81121"/>
<feComposite in2="hardAlpha" operator="arithmetic" k2="-1" k3="1"/>
<feColorMatrix type="matrix" values="0 0 0 0 0 0 0 0 0 0 0 0 0 0 0 0 0 0 0.05 0"/>
<feBlend mode="normal" in2="effect4_innerShadow_1469_10137" result="effect5_innerShadow_1469_10137"/>
<feColorMatrix in="SourceAlpha" type="matrix" values="0 0 0 0 0 0 0 0 0 0 0 0 0 0 0 0 0 0 127 0" result="hardAlpha"/>
<feOffset dx="3.62241"/>
<feGaussianBlur stdDeviation="1.81121"/>
<feComposite in2="hardAlpha" operator="arithmetic" k2="-1" k3="1"/>
<feColorMatrix type="matrix" values="0 0 0 0 0 0 0 0 0 0 0 0 0 0 0 0 0 0 0.02 0"/>
<feBlend mode="normal" in2="effect5_innerShadow_1469_10137" result="effect6_innerShadow_1469_10137"/>
<feColorMatrix in="SourceAlpha" type="matrix" values="0 0 0 0 0 0 0 0 0 0 0 0 0 0 0 0 0 0 127 0" result="hardAlpha"/>
<feOffset dx="-3.62241"/>
<feGaussianBlur stdDeviation="1.81121"/>
<feComposite in2="hardAlpha" operator="arithmetic" k2="-1" k3="1"/>
<feColorMatrix type="matrix" values="0 0 0 0 0 0 0 0 0 0 0 0 0 0 0 0 0 0 0.02 0"/>
<feBlend mode="normal" in2="effect6_innerShadow_1469_10137" result="effect7_innerShadow_1469_10137"/>
</filter>
<filter id="filter4_dd_1469_10137" x="-36.0266" y="29.5566" width="97.581" height="97.581" filterUnits="userSpaceOnUse" color-interpolation-filters="sRGB">
<feFlood flood-opacity="0" result="BackgroundImageFix"/>
<feColorMatrix in="SourceAlpha" type="matrix" values="0 0 0 0 0 0 0 0 0 0 0 0 0 0 0 0 0 0 127 0" result="hardAlpha"/>
<feOffset dy="7.24482"/>
<feGaussianBlur stdDeviation="9.05603"/>
<feColorMatrix type="matrix" values="0 0 0 0 1 0 0 0 0 1 0 0 0 0 1 0 0 0 0.5 0"/>
<feBlend mode="normal" in2="BackgroundImageFix" result="effect1_dropShadow_1469_10137"/>
<feColorMatrix in="SourceAlpha" type="matrix" values="0 0 0 0 0 0 0 0 0 0 0 0 0 0 0 0 0 0 127 0" result="hardAlpha"/>
<feOffset dy="3.62241"/>
<feGaussianBlur stdDeviation="5.43362"/>
<feColorMatrix type="matrix" values="0 0 0 0 1 0 0 0 0 1 0 0 0 0 1 0 0 0 0.3 0"/>
<feBlend mode="normal" in2="effect1_dropShadow_1469_10137" result="effect2_dropShadow_1469_10137"/>
<feBlend mode="normal" in="SourceGraphic" in2="effect2_dropShadow_1469_10137" result="shape"/>
</filter>
<filter id="filter5_dddiiii_1469_10137" x="-28.1875" y="263.812" width="181.669" height="181.669" filterUnits="userSpaceOnUse" color-interpolation-filters="sRGB">
<feFlood flood-opacity="0" result="BackgroundImageFix"/>
<feColorMatrix in="SourceAlpha" type="matrix" values="0 0 0 0 0 0 0 0 0 0 0 0 0 0 0 0 0 0 127 0" result="hardAlpha"/>
<feOffset dx="41.875" dy="41.875"/>
<feGaussianBlur stdDeviation="20.9375"/>
<feColorMatrix type="matrix" values="0 0 0 0 0.694118 0 0 0 0 0.854902 0 0 0 0 0.870588 0 0 0 0.1 0"/>
<feBlend mode="normal" in2="BackgroundImageFix" result="effect1_dropShadow_1469_10137"/>
<feColorMatrix in="SourceAlpha" type="matrix" values="0 0 0 0 0 0 0 0 0 0 0 0 0 0 0 0 0 0 127 0" result="hardAlpha"/>
<feOffset dx="16.75" dy="16.75"/>
<feGaussianBlur stdDeviation="8.37501"/>
<feColorMatrix type="matrix" values="0 0 0 0 0.694118 0 0 0 0 0.854902 0 0 0 0 0.870588 0 0 0 0.1 0"/>
<feBlend mode="normal" in2="effect1_dropShadow_1469_10137" result="effect2_dropShadow_1469_10137"/>
<feColorMatrix in="SourceAlpha" type="matrix" values="0 0 0 0 0 0 0 0 0 0 0 0 0 0 0 0 0 0 127 0" result="hardAlpha"/>
<feOffset dx="8.37501" dy="8.37501"/>
<feGaussianBlur stdDeviation="4.1875"/>
<feColorMatrix type="matrix" values="0 0 0 0 0.694118 0 0 0 0 0.854902 0 0 0 0 0.870588 0 0 0 0.2 0"/>
<feBlend mode="normal" in2="effect2_dropShadow_1469_10137" result="effect3_dropShadow_1469_10137"/>
<feBlend mode="normal" in="SourceGraphic" in2="effect3_dropShadow_1469_10137" result="shape"/>
<feColorMatrix in="SourceAlpha" type="matrix" values="0 0 0 0 0 0 0 0 0 0 0 0 0 0 0 0 0 0 127 0" result="hardAlpha"/>
<feOffset dy="2.09375"/>
<feGaussianBlur stdDeviation="1.04688"/>
<feComposite in2="hardAlpha" operator="arithmetic" k2="-1" k3="1"/>
<feColorMatrix type="matrix" values="0 0 0 0 1 0 0 0 0 1 0 0 0 0 1 0 0 0 0.1 0"/>
<feBlend mode="normal" in2="shape" result="effect4_innerShadow_1469_10137"/>
<feColorMatrix in="SourceAlpha" type="matrix" values="0 0 0 0 0 0 0 0 0 0 0 0 0 0 0 0 0 0 127 0" result="hardAlpha"/>
<feOffset dy="-4.1875"/>
<feGaussianBlur stdDeviation="2.09375"/>
<feComposite in2="hardAlpha" operator="arithmetic" k2="-1" k3="1"/>
<feColorMatrix type="matrix" values="0 0 0 0 0 0 0 0 0 0 0 0 0 0 0 0 0 0 0.05 0"/>
<feBlend mode="normal" in2="effect4_innerShadow_1469_10137" result="effect5_innerShadow_1469_10137"/>
<feColorMatrix in="SourceAlpha" type="matrix" values="0 0 0 0 0 0 0 0 0 0 0 0 0 0 0 0 0 0 127 0" result="hardAlpha"/>
<feOffset dx="4.1875"/>
<feGaussianBlur stdDeviation="2.09375"/>
<feComposite in2="hardAlpha" operator="arithmetic" k2="-1" k3="1"/>
<feColorMatrix type="matrix" values="0 0 0 0 0 0 0 0 0 0 0 0 0 0 0 0 0 0 0.02 0"/>
<feBlend mode="normal" in2="effect5_innerShadow_1469_10137" result="effect6_innerShadow_1469_10137"/>
<feColorMatrix in="SourceAlpha" type="matrix" values="0 0 0 0 0 0 0 0 0 0 0 0 0 0 0 0 0 0 127 0" result="hardAlpha"/>
<feOffset dx="-4.1875"/>
<feGaussianBlur stdDeviation="2.09375"/>
<feComposite in2="hardAlpha" operator="arithmetic" k2="-1" k3="1"/>
<feColorMatrix type="matrix" values="0 0 0 0 0 0 0 0 0 0 0 0 0 0 0 0 0 0 0.02 0"/>
<feBlend mode="normal" in2="effect6_innerShadow_1469_10137" result="effect7_innerShadow_1469_10137"/>
</filter>
<filter id="filter6_ddi_1469_10137" x="-33.2212" y="267.154" width="112.173" height="112.174" filterUnits="userSpaceOnUse" color-interpolation-filters="sRGB">
<feFlood flood-opacity="0" result="BackgroundImageFix"/>
<feColorMatrix in="SourceAlpha" type="matrix" values="0 0 0 0 0 0 0 0 0 0 0 0 0 0 0 0 0 0 127 0" result="hardAlpha"/>
<feOffset dy="8.37501"/>
<feGaussianBlur stdDeviation="10.4688"/>
<feColorMatrix type="matrix" values="0 0 0 0 0.0796528 0 0 0 0 0.486412 0 0 0 0 0.516667 0 0 0 0.5 0"/>
<feBlend mode="normal" in2="BackgroundImageFix" result="effect1_dropShadow_1469_10137"/>
<feColorMatrix in="SourceAlpha" type="matrix" values="0 0 0 0 0 0 0 0 0 0 0 0 0 0 0 0 0 0 127 0" result="hardAlpha"/>
<feOffset dy="4.1875"/>
<feGaussianBlur stdDeviation="6.28126"/>
<feColorMatrix type="matrix" values="0 0 0 0 0.14184 0 0 0 0 0.746679 0 0 0 0 0.791667 0 0 0 0.3 0"/>
<feBlend mode="normal" in2="effect1_dropShadow_1469_10137" result="effect2_dropShadow_1469_10137"/>
<feBlend mode="normal" in="SourceGraphic" in2="effect2_dropShadow_1469_10137" result="shape"/>
<feColorMatrix in="SourceAlpha" type="matrix" values="0 0 0 0 0 0 0 0 0 0 0 0 0 0 0 0 0 0 127 0" result="hardAlpha"/>
<feOffset dx="-2.09375" dy="-2.09375"/>
<feGaussianBlur stdDeviation="1.04688"/>
<feComposite in2="hardAlpha" operator="arithmetic" k2="-1" k3="1"/>
<feColorMatrix type="matrix" values="0 0 0 0 0.270588 0 0 0 0 0.65098 0 0 0 0 1 0 0 0 0.24 0"/>
<feBlend mode="normal" in2="shape" result="effect3_innerShadow_1469_10137"/>
</filter>
<filter id="filter7_dddiiii_1469_10137" x="296.815" y="113.781" width="157.61" height="157.61" filterUnits="userSpaceOnUse" color-interpolation-filters="sRGB">
<feFlood flood-opacity="0" result="BackgroundImageFix"/>
<feColorMatrix in="SourceAlpha" type="matrix" values="0 0 0 0 0 0 0 0 0 0 0 0 0 0 0 0 0 0 127 0" result="hardAlpha"/>
<feOffset dx="36.1433" dy="36.1433"/>
<feGaussianBlur stdDeviation="18.0717"/>
<feColorMatrix type="matrix" values="0 0 0 0 0.415686 0 0 0 0 0.580392 0 0 0 0 1 0 0 0 0.1 0"/>
<feBlend mode="normal" in2="BackgroundImageFix" result="effect1_dropShadow_1469_10137"/>
<feColorMatrix in="SourceAlpha" type="matrix" values="0 0 0 0 0 0 0 0 0 0 0 0 0 0 0 0 0 0 127 0" result="hardAlpha"/>
<feOffset dx="14.4573" dy="14.4573"/>
<feGaussianBlur stdDeviation="7.22867"/>
<feColorMatrix type="matrix" values="0 0 0 0 0.415686 0 0 0 0 0.580392 0 0 0 0 1 0 0 0 0.1 0"/>
<feBlend mode="normal" in2="effect1_dropShadow_1469_10137" result="effect2_dropShadow_1469_10137"/>
<feColorMatrix in="SourceAlpha" type="matrix" values="0 0 0 0 0 0 0 0 0 0 0 0 0 0 0 0 0 0 127 0" result="hardAlpha"/>
<feOffset dx="7.22867" dy="7.22867"/>
<feGaussianBlur stdDeviation="3.61433"/>
<feColorMatrix type="matrix" values="0 0 0 0 0.415686 0 0 0 0 0.580392 0 0 0 0 1 0 0 0 0.2 0"/>
<feBlend mode="normal" in2="effect2_dropShadow_1469_10137" result="effect3_dropShadow_1469_10137"/>
<feBlend mode="normal" in="SourceGraphic" in2="effect3_dropShadow_1469_10137" result="shape"/>
<feColorMatrix in="SourceAlpha" type="matrix" values="0 0 0 0 0 0 0 0 0 0 0 0 0 0 0 0 0 0 127 0" result="hardAlpha"/>
<feOffset dy="1.80717"/>
<feGaussianBlur stdDeviation="0.903583"/>
<feComposite in2="hardAlpha" operator="arithmetic" k2="-1" k3="1"/>
<feColorMatrix type="matrix" values="0 0 0 0 1 0 0 0 0 1 0 0 0 0 1 0 0 0 0.1 0"/>
<feBlend mode="normal" in2="shape" result="effect4_innerShadow_1469_10137"/>
<feColorMatrix in="SourceAlpha" type="matrix" values="0 0 0 0 0 0 0 0 0 0 0 0 0 0 0 0 0 0 127 0" result="hardAlpha"/>
<feOffset dy="-3.61433"/>
<feGaussianBlur stdDeviation="1.80717"/>
<feComposite in2="hardAlpha" operator="arithmetic" k2="-1" k3="1"/>
<feColorMatrix type="matrix" values="0 0 0 0 0 0 0 0 0 0 0 0 0 0 0 0 0 0 0.05 0"/>
<feBlend mode="normal" in2="effect4_innerShadow_1469_10137" result="effect5_innerShadow_1469_10137"/>
<feColorMatrix in="SourceAlpha" type="matrix" values="0 0 0 0 0 0 0 0 0 0 0 0 0 0 0 0 0 0 127 0" result="hardAlpha"/>
<feOffset dx="3.61433"/>
<feGaussianBlur stdDeviation="1.80717"/>
<feComposite in2="hardAlpha" operator="arithmetic" k2="-1" k3="1"/>
<feColorMatrix type="matrix" values="0 0 0 0 0 0 0 0 0 0 0 0 0 0 0 0 0 0 0.02 0"/>
<feBlend mode="normal" in2="effect5_innerShadow_1469_10137" result="effect6_innerShadow_1469_10137"/>
<feColorMatrix in="SourceAlpha" type="matrix" values="0 0 0 0 0 0 0 0 0 0 0 0 0 0 0 0 0 0 127 0" result="hardAlpha"/>
<feOffset dx="-3.61433"/>
<feGaussianBlur stdDeviation="1.80717"/>
<feComposite in2="hardAlpha" operator="arithmetic" k2="-1" k3="1"/>
<feColorMatrix type="matrix" values="0 0 0 0 0 0 0 0 0 0 0 0 0 0 0 0 0 0 0.02 0"/>
<feBlend mode="normal" in2="effect6_innerShadow_1469_10137" result="effect7_innerShadow_1469_10137"/>
</filter>
<filter id="filter8_dd_1469_10137" x="292.542" y="116.734" width="97.4251" height="97.4253" filterUnits="userSpaceOnUse" color-interpolation-filters="sRGB">
<feFlood flood-opacity="0" result="BackgroundImageFix"/>
<feColorMatrix in="SourceAlpha" type="matrix" values="0 0 0 0 0 0 0 0 0 0 0 0 0 0 0 0 0 0 127 0" result="hardAlpha"/>
<feOffset dy="7.22867"/>
<feGaussianBlur stdDeviation="9.03584"/>
<feColorMatrix type="matrix" values="0 0 0 0 1 0 0 0 0 1 0 0 0 0 1 0 0 0 0.5 0"/>
<feBlend mode="normal" in2="BackgroundImageFix" result="effect1_dropShadow_1469_10137"/>
<feColorMatrix in="SourceAlpha" type="matrix" values="0 0 0 0 0 0 0 0 0 0 0 0 0 0 0 0 0 0 127 0" result="hardAlpha"/>
<feOffset dy="3.61433"/>
<feGaussianBlur stdDeviation="5.4215"/>
<feColorMatrix type="matrix" values="0 0 0 0 1 0 0 0 0 1 0 0 0 0 1 0 0 0 0.3 0"/>
<feBlend mode="normal" in2="effect1_dropShadow_1469_10137" result="effect2_dropShadow_1469_10137"/>
<feBlend mode="normal" in="SourceGraphic" in2="effect2_dropShadow_1469_10137" result="shape"/>
</filter>
<filter id="filter9_i_1469_10137" x="325.827" y="143.552" width="32.7134" height="31.5179" filterUnits="userSpaceOnUse" color-interpolation-filters="sRGB">
<feFlood flood-opacity="0" result="BackgroundImageFix"/>
<feBlend mode="normal" in="SourceGraphic" in2="BackgroundImageFix" result="shape"/>
<feColorMatrix in="SourceAlpha" type="matrix" values="0 0 0 0 0 0 0 0 0 0 0 0 0 0 0 0 0 0 127 0" result="hardAlpha"/>
<feOffset dx="-1.80717" dy="-1.80717"/>
<feGaussianBlur stdDeviation="0.903583"/>
<feComposite in2="hardAlpha" operator="arithmetic" k2="-1" k3="1"/>
<feColorMatrix type="matrix" values="0 0 0 0 0.415686 0 0 0 0 0.580392 0 0 0 0 1 0 0 0 0.24 0"/>
<feBlend mode="normal" in2="shape" result="effect1_innerShadow_1469_10137"/>
</filter>
<filter id="filter10_di_1469_10137" x="311.161" y="141.519" width="39.7578" height="39.7578" filterUnits="userSpaceOnUse" color-interpolation-filters="sRGB">
<feFlood flood-opacity="0" result="BackgroundImageFix"/>
<feColorMatrix in="SourceAlpha" type="matrix" values="0 0 0 0 0 0 0 0 0 0 0 0 0 0 0 0 0 0 127 0" result="hardAlpha"/>
<feOffset dy="3.61433"/>
<feGaussianBlur stdDeviation="5.4215"/>
<feColorMatrix type="matrix" values="0 0 0 0 1 0 0 0 0 0.662745 0 0 0 0 0.270588 0 0 0 0.3 0"/>
<feBlend mode="normal" in2="BackgroundImageFix" result="effect1_dropShadow_1469_10137"/>
<feBlend mode="normal" in="SourceGraphic" in2="effect1_dropShadow_1469_10137" result="shape"/>
<feColorMatrix in="SourceAlpha" type="matrix" values="0 0 0 0 0 0 0 0 0 0 0 0 0 0 0 0 0 0 127 0" result="hardAlpha"/>
<feOffset dx="-1.80717" dy="-1.80717"/>
<feGaussianBlur stdDeviation="0.903583"/>
<feComposite in2="hardAlpha" operator="arithmetic" k2="-1" k3="1"/>
<feColorMatrix type="matrix" values="0 0 0 0 0.716667 0 0 0 0 0.517672 0 0 0 0 0.00597221 0 0 0 0.24 0"/>
<feBlend mode="normal" in2="shape" result="effect2_innerShadow_1469_10137"/>
</filter>
<linearGradient id="paint0_linear_1469_10137" x1="180.825" y1="424.642" x2="180.825" y2="66.2917" gradientUnits="userSpaceOnUse">
<stop stop-color="#0061FF"/>
<stop offset="1" stop-color="#60EFFF"/>
</linearGradient>
<linearGradient id="paint1_linear_1469_10137" x1="304.508" y1="397.084" x2="365.682" y2="421.18" gradientUnits="userSpaceOnUse">
<stop stop-color="#7BADF8"/>
<stop offset="1" stop-color="#BE6CFF"/>
</linearGradient>
<linearGradient id="paint2_linear_1469_10137" x1="-8.14253" y1="-10.814" x2="11.9351" y2="123.445" gradientUnits="userSpaceOnUse">
<stop stop-color="#4557F6"/>
<stop offset="1" stop-color="#D7DBFF"/>
</linearGradient>
<linearGradient id="paint3_linear_1469_10137" x1="-3.27098" y1="294.386" x2="50.2841" y2="334.133" gradientUnits="userSpaceOnUse">
<stop stop-color="#88D1D8"/>
<stop offset="1" stop-color="#C8EEF1"/>
</linearGradient>
<linearGradient id="paint4_linear_1469_10137" x1="300.43" y1="156.512" x2="362.676" y2="181.543" gradientUnits="userSpaceOnUse">
<stop stop-color="#D0E9FF"/>
<stop offset="1" stop-color="#6A94FF"/>
</linearGradient>
<linearGradient id="paint5_linear_1469_10137" x1="1.65" y1="245.467" x2="360" y2="245.467" gradientUnits="userSpaceOnUse">
<stop stop-color="#0061FF"/>
<stop offset="1" stop-color="#60EFFF"/>
</linearGradient>
<clipPath id="clip0_1469_10137">
<rect width="360" height="504" rx="12" fill="white"/>
</clipPath>
<clipPath id="clip1_1469_10137">
<path d="M318.994 412.634C313.923 407.191 311.388 404.47 310.511 401.404C309.739 398.707 309.841 395.835 310.801 393.2C311.893 390.204 314.615 387.668 320.058 382.598L330.425 372.94C335.868 367.87 338.589 365.334 341.655 364.457C344.352 363.685 347.224 363.787 349.859 364.748C352.855 365.84 355.391 368.561 360.461 374.004L370.119 384.371C375.189 389.814 377.725 392.536 378.602 395.602C379.374 398.298 379.272 401.17 378.311 403.806C377.219 406.802 374.498 409.337 369.055 414.408L358.688 424.065C353.245 429.136 350.523 431.671 347.457 432.548C344.761 433.32 341.889 433.218 339.253 432.258C336.257 431.166 333.722 428.444 328.651 423.001L318.994 412.634Z" fill="white"/>
</clipPath>
<clipPath id="clip2_1469_10137">
<rect width="42.5045" height="42.5045" fill="white" transform="translate(314.535 397.455) rotate(-42.9712)"/>
</clipPath>
<clipPath id="clip3_1469_10137">
<path d="M-4.42144 46.2229C0.615597 40.5214 3.13412 37.6707 6.16759 36.4733C8.8359 35.4201 11.7692 35.2386 14.547 35.9549C17.7049 36.7692 20.5556 39.2877 26.2571 44.3248L37.116 53.9182C42.8174 58.9553 45.6681 61.4738 46.8655 64.5073C47.9188 67.1756 48.1003 70.1088 47.384 72.8866C46.5697 76.0446 44.0511 78.8953 39.0141 84.5967L29.4206 95.4556C24.3836 101.157 21.8651 104.008 18.8316 105.205C16.1633 106.258 13.23 106.44 10.4522 105.724C7.29428 104.909 4.44356 102.391 -1.25789 97.3538L-12.1168 87.7603C-17.8182 82.7233 -20.6689 80.2047 -21.8663 77.1713C-22.9196 74.503 -23.1011 71.5697 -22.3848 68.7919C-21.5705 65.634 -19.0519 62.7832 -14.0149 57.0818L-4.42144 46.2229Z" fill="white"/>
</clipPath>
<clipPath id="clip4_1469_10137">
<rect width="43.4689" height="43.4689" fill="white" transform="translate(10.8657 40.4238) rotate(41.4595)"/>
</clipPath>
<clipPath id="clip5_1469_10137">
<path d="M0.956026 288.176C6.1973 281.114 8.81794 277.582 12.1942 275.905C15.1641 274.43 18.5248 273.932 21.7947 274.484C25.5121 275.112 29.0432 277.732 36.1053 282.974L49.5557 292.956C56.6178 298.197 60.1489 300.818 61.8263 304.194C63.3017 307.164 63.7991 310.525 63.2471 313.795C62.6196 317.512 59.9989 321.043 54.7577 328.105L44.7753 341.556C39.534 348.618 36.9134 352.149 33.5371 353.826C30.5672 355.302 27.2065 355.799 23.9366 355.247C20.2192 354.62 16.6881 351.999 9.62597 346.758L-3.8244 336.775C-10.8865 331.534 -14.4176 328.913 -16.095 325.537C-17.5704 322.567 -18.0678 319.207 -17.5158 315.937C-16.8883 312.219 -14.2676 308.688 -9.02638 301.626L0.956026 288.176Z" fill="white"/>
</clipPath>
<clipPath id="clip6_1469_10137">
<rect width="50.25" height="50.25" fill="white" transform="translate(17.6636 279.716) rotate(36.5815)"/>
</clipPath>
<clipPath id="clip7_1469_10137">
<path d="M315.098 172.484C309.964 166.893 307.397 164.098 306.523 160.963C305.756 158.206 305.88 155.276 306.88 152.594C308.016 149.545 310.811 146.978 316.402 141.843L327.05 132.064C332.641 126.93 335.437 124.362 338.571 123.489C341.329 122.721 344.258 122.846 346.94 123.845C349.989 124.982 352.557 127.777 357.691 133.368L367.47 144.016C372.605 149.607 375.172 152.402 376.045 155.537C376.813 158.294 376.688 161.224 375.689 163.906C374.553 166.955 371.757 169.523 366.166 174.657L355.518 184.436C349.927 189.571 347.132 192.138 343.997 193.011C341.24 193.779 338.31 193.654 335.628 192.655C332.579 191.519 330.012 188.723 324.877 183.132L315.098 172.484Z" fill="white"/>
</clipPath>
<clipPath id="clip8_1469_10137">
<rect width="43.372" height="43.372" fill="white" transform="translate(310.613 156.914) rotate(-42.5635)"/>
</clipPath>
</defs>
</svg>
