<svg width="24" height="24" viewBox="0 0 24 24" fill="none" xmlns="http://www.w3.org/2000/svg">
<g id="Icons">
<path id="Vector" d="M4.659 9.654C4.38395 11.7596 4.22005 13.8782 4.168 16.001C7.0468 17.2035 9.80318 18.6803 12.399 20.411C14.9951 18.6803 17.7519 17.2035 20.631 16.001C20.5789 13.8782 20.415 11.7596 20.14 9.654M20.14 9.654C21.015 9.36 21.902 9.088 22.798 8.84C19.5346 6.55225 16.051 4.59589 12.399 3C8.74699 4.59622 5.2634 6.55292 2 8.841C2.89327 9.08763 3.77961 9.35873 4.658 9.654C7.32662 10.5512 9.9159 11.6691 12.399 12.996C14.8817 11.6691 17.4717 10.5512 20.14 9.654ZM7.149 14.507C7.34791 14.507 7.53868 14.428 7.67933 14.2873C7.81998 14.1467 7.899 13.9559 7.899 13.757C7.899 13.5581 7.81998 13.3673 7.67933 13.2267C7.53868 13.086 7.34791 13.007 7.149 13.007C6.95009 13.007 6.75932 13.086 6.61867 13.2267C6.47802 13.3673 6.399 13.5581 6.399 13.757C6.399 13.9559 6.47802 14.1467 6.61867 14.2873C6.75932 14.428 6.95009 14.507 7.149 14.507ZM7.149 14.507V10.832C8.84573 9.77734 10.5983 8.81526 12.399 7.95M5.392 19.5C5.94997 18.9434 6.39244 18.282 6.69396 17.5539C6.99549 16.8257 7.15013 16.0451 7.149 15.257V13.757" stroke="#323232" stroke-width="1.5" stroke-linecap="round" stroke-linejoin="round"/>
</g>
</svg>
