<svg width="38" height="39" viewBox="0 0 38 39" fill="none" xmlns="http://www.w3.org/2000/svg">
<g id="Icons">
<path id="Vector" d="M29.0398 9.48454C26.3942 6.83895 22.8768 5.3764 19.1418 5.3764C15.4069 5.3764 11.8895 6.83901 9.24388 9.48454C6.59829 12.1301 5.13574 15.6475 5.13574 19.3825C5.13574 23.1174 6.59835 26.6348 9.24388 29.2804C11.8894 31.926 15.4069 33.3886 19.1418 33.3886C22.8768 33.3886 26.3942 31.926 29.0398 29.2804C31.6854 26.6349 33.1479 23.1174 33.1479 19.3825C33.1479 15.6475 31.6853 12.1301 29.0398 9.48454ZM26.1449 12.8146C26.5498 13.2498 26.6434 13.8723 27.6695 13.7483C28.6653 13.6243 28.6349 14.2772 28.5413 14.4328C28.4173 14.6504 27.9504 14.7757 27.1723 14.4948C26.3942 14.2456 26.4562 14.8681 25.7097 14.5884C24.9632 14.3088 25.3364 13.9976 25.0252 13.7167C24.7139 13.437 24.3711 13.6851 23.7486 13.8407C23.1261 13.9963 23.0325 13.7167 23.4993 13.2498C23.779 12.9702 24.1218 12.8146 24.7127 12.3477C25.3048 11.9745 25.7097 12.3793 26.1449 12.8146ZM19.1419 31.988C12.2008 31.988 6.53641 26.3236 6.53641 19.3825C6.53641 18.9156 6.56802 18.4488 6.59842 17.9819C6.72243 17.9503 6.84766 17.9199 6.94129 17.8883C7.28416 17.7643 7.37654 18.1375 7.5954 18.1995C7.84464 18.2311 8.24952 18.2311 8.37352 18.76C8.49753 19.2889 8.87201 19.6001 9.43126 19.5065C9.99175 19.4129 10.0854 19.7241 9.64889 20.5642C9.21364 21.374 9.61728 21.9028 9.89813 22.5873C10.1778 23.2718 10.8635 23.8007 11.61 24.2676C12.3565 24.7028 12.0452 27.38 12.3565 27.9406C12.6677 28.5011 13.1346 29.6208 13.5078 30.1813C14.2543 31.3327 15.9662 31.3947 15.1881 30.8038C14.5656 30.3369 14.5656 29.9941 14.348 29.2792C14.1303 28.5631 14.8768 28.0026 15.1261 27.6913C15.4057 27.3801 15.6549 26.3527 15.6549 25.8239C15.6549 25.295 16.9619 25.1697 16.8379 24.5789C16.7455 23.9892 16.9632 23.2111 17.2744 22.8062C17.6173 22.4014 17.5856 21.4993 16.185 21.312C14.7844 21.1248 14.9717 19.6938 14.4415 19.6622C13.8811 19.6622 13.5698 19.6622 12.7917 18.946C12.0136 18.2299 10.6446 18.1995 10.5193 18.5412C10.3953 18.884 10.2081 18.9764 9.92848 18.884C9.64884 18.7904 9.42998 19.3509 9.08836 18.9156C8.74549 18.4804 9.49323 18.1375 9.24398 17.9199C8.96435 17.6707 8.31024 18.0135 8.43424 17.6087C8.55826 17.2038 8.40263 16.6129 8.123 16.9545C7.84336 17.2974 7.18926 17.6707 7.03364 16.6117C6.90962 15.5539 8.58987 14.9618 9.02511 15.3667C9.46036 15.7716 9.99048 16.0208 10.0829 15.3047C10.1765 14.5582 11.0166 14.5266 11.2658 14.1217C11.5151 13.7485 11.6707 13.3752 12.4172 13.0323C13.1637 12.6895 13.6306 11.6937 14.0354 11.3825C14.4403 11.0712 15.56 11.3205 15.6853 10.8536C15.8093 10.3867 15.25 9.79587 14.7515 9.82625C14.2531 9.85786 14.2227 9.42138 13.7558 9.60862C13.2573 9.82625 13.5066 10.4487 12.6044 10.636C11.7023 10.8232 11.3278 9.73387 12.044 9.329C12.7601 8.89375 13.7242 9.07976 13.7242 8.86213C13.7242 8.61289 14.2531 8.05239 14.6263 7.96001C14.9995 7.898 15.3728 8.11563 15.0932 8.39526C14.8135 8.67489 14.9059 9.04937 14.9059 9.04937C15.5284 9.51624 16.2445 8.73813 16.5242 8.42688C16.8038 8.11563 16.3065 7.99163 15.8701 7.55514C15.746 7.43113 15.746 7.3059 15.7764 7.24389C16.2433 7.11988 16.7102 7.02626 17.177 6.93265C17.5199 7.02626 17.6439 7.33752 17.4263 8.23963C17.4263 8.27124 17.4263 8.27124 17.3947 8.30164C17.2391 9.01776 18.0792 9.515 18.6397 9.04813C19.3862 8.39402 21.0056 8.17639 21.3473 7.77153C21.5345 7.58429 21.6585 7.30466 21.7521 7.05541C22.8415 7.30465 23.8992 7.6779 24.8963 8.17639C24.0866 8.86089 24.2422 9.515 24.5231 9.98187C24.866 10.5727 23.9322 10.9776 23.2465 11.1332C22.562 11.2889 23.2465 12.0986 22.5 12.2226C21.7219 12.3162 21.5662 13.2183 22.0331 13.8408C22.5 14.4633 20.2896 15.6147 20.2276 16.9217C20.1656 18.2287 20.6629 19.1624 21.4726 19.8165C22.2824 20.4706 22.8112 19.5989 23.745 19.8165C24.6787 20.0341 24.3675 20.563 24.7103 21.2171C25.0532 21.8712 25.5201 22.5557 25.2088 23.4895C24.8976 24.4232 25.0848 24.7028 25.4885 25.2949C25.8933 25.9174 26.2046 27.2864 26.3602 27.7533C26.3602 27.7533 27.4496 27.6913 28.0101 27.0068C28.5706 26.2907 28.4149 25.8858 28.7882 25.7302C29.1614 25.5746 29.255 25.2949 29.1614 24.7345C29.0678 24.174 29.8459 24.4232 30.0952 23.9563C30.3444 23.4578 29.3487 22.3065 30.2192 21.3727C31.0909 20.4074 31.5262 20.1278 31.7134 19.3496C31.869 18.5715 30.9353 19.132 30.3128 19.0384C29.9699 18.9764 29.6283 16.7977 28.6629 15.5527C28.6313 15.5211 28.6629 15.4907 28.6946 15.5211C28.8818 15.6148 29.3487 15.864 29.7219 16.3613C30.2508 17.0457 30.2824 18.5084 31.2465 18.2287C31.4021 18.1971 31.5578 18.1351 31.6818 18.0731C31.7134 18.5084 31.7438 18.9448 31.7438 19.3801C31.7474 26.3237 26.0827 31.988 19.1419 31.988Z" fill="#151515"/>
<path id="Vector_2" d="M29.0398 9.48454C26.3942 6.83895 22.8768 5.3764 19.1418 5.3764C15.4069 5.3764 11.8895 6.83901 9.24388 9.48454C6.59829 12.1301 5.13574 15.6475 5.13574 19.3825C5.13574 23.1174 6.59835 26.6348 9.24388 29.2804C11.8894 31.926 15.4069 33.3886 19.1418 33.3886C22.8768 33.3886 26.3942 31.926 29.0398 29.2804C31.6854 26.6349 33.1479 23.1174 33.1479 19.3825C33.1479 15.6475 31.6853 12.1301 29.0398 9.48454ZM26.1449 12.8146C26.5498 13.2498 26.6434 13.8723 27.6695 13.7483C28.6653 13.6243 28.6349 14.2772 28.5413 14.4328C28.4173 14.6504 27.9504 14.7757 27.1723 14.4948C26.3942 14.2456 26.4562 14.8681 25.7097 14.5884C24.9632 14.3088 25.3364 13.9976 25.0252 13.7167C24.7139 13.437 24.3711 13.6851 23.7486 13.8407C23.1261 13.9963 23.0325 13.7167 23.4993 13.2498C23.779 12.9702 24.1218 12.8146 24.7127 12.3477C25.3048 11.9745 25.7097 12.3793 26.1449 12.8146ZM19.1419 31.988C12.2008 31.988 6.53641 26.3236 6.53641 19.3825C6.53641 18.9156 6.56802 18.4488 6.59842 17.9819C6.72243 17.9503 6.84766 17.9199 6.94129 17.8883C7.28416 17.7643 7.37654 18.1375 7.5954 18.1995C7.84464 18.2311 8.24952 18.2311 8.37352 18.76C8.49753 19.2889 8.87201 19.6001 9.43126 19.5065C9.99175 19.4129 10.0854 19.7241 9.64889 20.5642C9.21364 21.374 9.61728 21.9028 9.89813 22.5873C10.1778 23.2718 10.8635 23.8007 11.61 24.2676C12.3565 24.7028 12.0452 27.38 12.3565 27.9406C12.6677 28.5011 13.1346 29.6208 13.5078 30.1813C14.2543 31.3327 15.9662 31.3947 15.1881 30.8038C14.5656 30.3369 14.5656 29.9941 14.348 29.2792C14.1303 28.5631 14.8768 28.0026 15.1261 27.6913C15.4057 27.3801 15.6549 26.3527 15.6549 25.8239C15.6549 25.295 16.9619 25.1697 16.8379 24.5789C16.7455 23.9892 16.9632 23.2111 17.2744 22.8062C17.6173 22.4014 17.5856 21.4993 16.185 21.312C14.7844 21.1248 14.9717 19.6938 14.4415 19.6622C13.8811 19.6622 13.5698 19.6622 12.7917 18.946C12.0136 18.2299 10.6446 18.1995 10.5193 18.5412C10.3953 18.884 10.2081 18.9764 9.92848 18.884C9.64884 18.7904 9.42998 19.3509 9.08836 18.9156C8.74549 18.4804 9.49323 18.1375 9.24398 17.9199C8.96435 17.6707 8.31024 18.0135 8.43424 17.6087C8.55826 17.2038 8.40263 16.6129 8.123 16.9545C7.84336 17.2974 7.18926 17.6707 7.03364 16.6117C6.90962 15.5539 8.58987 14.9618 9.02511 15.3667C9.46036 15.7716 9.99048 16.0208 10.0829 15.3047C10.1765 14.5582 11.0166 14.5266 11.2658 14.1217C11.5151 13.7485 11.6707 13.3752 12.4172 13.0323C13.1637 12.6895 13.6306 11.6937 14.0354 11.3825C14.4403 11.0712 15.56 11.3205 15.6853 10.8536C15.8093 10.3867 15.25 9.79587 14.7515 9.82625C14.2531 9.85786 14.2227 9.42138 13.7558 9.60862C13.2573 9.82625 13.5066 10.4487 12.6044 10.636C11.7023 10.8232 11.3278 9.73387 12.044 9.329C12.7601 8.89375 13.7242 9.07976 13.7242 8.86213C13.7242 8.61289 14.2531 8.05239 14.6263 7.96001C14.9995 7.898 15.3728 8.11563 15.0932 8.39526C14.8135 8.67489 14.9059 9.04937 14.9059 9.04937C15.5284 9.51624 16.2445 8.73813 16.5242 8.42688C16.8038 8.11563 16.3065 7.99163 15.8701 7.55514C15.746 7.43113 15.746 7.3059 15.7764 7.24389C16.2433 7.11988 16.7102 7.02626 17.177 6.93265C17.5199 7.02626 17.6439 7.33752 17.4263 8.23963C17.4263 8.27124 17.4263 8.27124 17.3947 8.30164C17.2391 9.01776 18.0792 9.515 18.6397 9.04813C19.3862 8.39402 21.0056 8.17639 21.3473 7.77153C21.5345 7.58429 21.6585 7.30466 21.7521 7.05541C22.8415 7.30465 23.8992 7.6779 24.8963 8.17639C24.0866 8.86089 24.2422 9.515 24.5231 9.98187C24.866 10.5727 23.9322 10.9776 23.2465 11.1332C22.562 11.2889 23.2465 12.0986 22.5 12.2226C21.7219 12.3162 21.5662 13.2183 22.0331 13.8408C22.5 14.4633 20.2896 15.6147 20.2276 16.9217C20.1656 18.2287 20.6629 19.1624 21.4726 19.8165C22.2824 20.4706 22.8112 19.5989 23.745 19.8165C24.6787 20.0341 24.3675 20.563 24.7103 21.2171C25.0532 21.8712 25.5201 22.5557 25.2088 23.4895C24.8976 24.4232 25.0848 24.7028 25.4885 25.2949C25.8933 25.9174 26.2046 27.2864 26.3602 27.7533C26.3602 27.7533 27.4496 27.6913 28.0101 27.0068C28.5706 26.2907 28.4149 25.8858 28.7882 25.7302C29.1614 25.5746 29.255 25.2949 29.1614 24.7345C29.0678 24.174 29.8459 24.4232 30.0952 23.9563C30.3444 23.4578 29.3487 22.3065 30.2192 21.3727C31.0909 20.4074 31.5262 20.1278 31.7134 19.3496C31.869 18.5715 30.9353 19.132 30.3128 19.0384C29.9699 18.9764 29.6283 16.7977 28.6629 15.5527C28.6313 15.5211 28.6629 15.4907 28.6946 15.5211C28.8818 15.6148 29.3487 15.864 29.7219 16.3613C30.2508 17.0457 30.2824 18.5084 31.2465 18.2287C31.4021 18.1971 31.5578 18.1351 31.6818 18.0731C31.7134 18.5084 31.7438 18.9448 31.7438 19.3801C31.7474 26.3237 26.0827 31.988 19.1419 31.988Z" fill="#151515"/>
</g>
</svg>
