<svg width="38" height="40" viewBox="0 0 38 40" fill="none" xmlns="http://www.w3.org/2000/svg">
<path d="M36.7635 6.6615L19.456 0.331224C19.1599 0.222925 18.8398 0.222925 18.5437 0.331224L1.23617 6.6615C0.974385 6.75839 0.743468 6.93573 0.570881 7.17245C0.398294 7.40917 0.291299 7.69529 0.262621 7.9968C0.254159 8.0517 0.249937 8.10729 0.250001 8.16297V23.9887C0.250001 24.4084 0.401956 24.8109 0.672439 25.1077C0.942922 25.4045 1.30978 25.5712 1.6923 25.5712C2.07482 25.5712 2.44167 25.4045 2.71215 25.1077C2.98264 24.8109 3.13459 24.4084 3.13459 23.9887V10.3588L9.19043 12.5724C7.58147 15.4246 7.06983 18.8608 7.76785 22.1266C8.46587 25.3923 10.3165 28.2207 12.9134 29.9906C9.66819 31.3872 6.86292 33.9134 4.81126 37.3673C4.70456 37.5413 4.63044 37.7369 4.59322 37.9426C4.556 38.1483 4.55642 38.3601 4.59445 38.5656C4.63248 38.7712 4.70736 38.9664 4.81475 39.1399C4.92213 39.3134 5.05988 39.4617 5.21997 39.5763C5.38007 39.6909 5.55933 39.7694 5.74732 39.8073C5.93532 39.8452 6.1283 39.8417 6.31506 39.797C6.50182 39.7524 6.67862 39.6674 6.83519 39.5471C6.99177 39.4268 7.12498 39.2736 7.2271 39.0963C9.94403 34.5226 14.2349 31.9015 18.9998 31.9015C23.7648 31.9015 28.0557 34.5226 30.7726 39.0963C30.9841 39.4413 31.3109 39.681 31.6823 39.7638C32.0536 39.8465 32.4398 39.7655 32.7572 39.5384C33.0746 39.3112 33.2977 38.9561 33.3784 38.5499C33.4591 38.1436 33.3909 37.7188 33.1884 37.3673C31.1368 33.9134 28.3207 31.3872 25.0863 29.9906C27.6807 28.2208 29.5296 25.3943 30.2275 22.1309C30.9254 18.8675 30.4154 15.4337 28.8092 12.5823L36.7635 9.67432C37.0508 9.56933 37.3006 9.36782 37.4777 9.09834C37.6547 8.82886 37.75 8.50507 37.75 8.17286C37.75 7.84065 37.6547 7.51686 37.4777 7.24738C37.3006 6.97789 37.0508 6.77638 36.7635 6.67139V6.6615ZM27.6536 19.241C27.654 20.7421 27.33 22.222 26.7082 23.5592C26.0864 24.8964 25.1845 26.0527 24.0766 26.9334C22.9686 27.8141 21.6862 28.394 20.3344 28.6255C18.9827 28.857 17.6002 28.7335 16.3003 28.2652C15.0005 27.797 13.8203 26.9972 12.8567 25.9315C11.8931 24.8659 11.1735 23.5647 10.757 22.1348C10.3404 20.7049 10.2387 19.187 10.4603 17.7057C10.6819 16.2243 11.2205 14.8217 12.0318 13.6129L18.5437 15.9868C18.8398 16.0951 19.1599 16.0951 19.456 15.9868L25.9679 13.6129C27.0636 15.243 27.6544 17.2155 27.6536 19.241ZM18.9998 12.8256L6.25355 8.16297L18.9998 3.50032L31.7461 8.16297L18.9998 12.8256Z" fill="#2C74B9"/>
</svg>
