<svg width="12" height="14" viewBox="0 0 12 14" fill="none" xmlns="http://www.w3.org/2000/svg">
<path d="M1.33301 11.6667V2.91668C1.33301 2.5299 1.48665 2.15897 1.76014 1.88548C2.03363 1.61199 2.40457 1.45834 2.79134 1.45834H10.083C10.2377 1.45834 10.3861 1.5198 10.4955 1.6292C10.6049 1.73859 10.6663 1.88697 10.6663 2.04168V12.5417C10.6663 12.6964 10.6049 12.8448 10.4955 12.9542C10.3861 13.0636 10.2377 13.125 10.083 13.125H2.79134C2.40457 13.125 2.03363 12.9714 1.76014 12.6979C1.48665 12.4244 1.33301 12.0535 1.33301 11.6667ZM1.33301 11.6667C1.33301 11.2799 1.48665 10.909 1.76014 10.6355C2.03363 10.362 2.40457 10.2083 2.79134 10.2083H10.6663" stroke="#C31E5D" stroke-width="1.5" stroke-linecap="round" stroke-linejoin="round"/>
<path d="M3.66699 6.70834H8.33366" stroke="#C31E5D" stroke-width="1.5" stroke-linecap="round" stroke-linejoin="round"/>
<path d="M3.66699 4.375H7.16699" stroke="#C31E5D" stroke-width="1.5" stroke-linecap="round" stroke-linejoin="round"/>
</svg>
