<svg width="44" height="44" viewBox="0 0 44 44" fill="none" xmlns="http://www.w3.org/2000/svg">
<path d="M8.86018 6.59981L10.4578 9.78797L10.8848 9.29532C10.8425 9.02553 10.7769 8.65956 10.7041 8.25136L11.178 7.69771V7.70005C11.2249 7.65313 11.2507 7.59214 11.2507 7.5288C11.2507 7.46311 11.2249 7.40211 11.178 7.35754C11.1311 7.31062 11.0701 7.28482 11.0044 7.28482C10.9387 7.28482 10.8754 7.31062 10.8285 7.35754L10.6244 7.59683C10.6244 7.45372 10.5704 7.30358 10.547 7.15344L11.0208 6.59979C11.1053 6.49657 11.0936 6.34408 10.9927 6.25728C10.9458 6.21271 10.8848 6.1869 10.8214 6.1869C10.7557 6.1869 10.6947 6.21271 10.6502 6.25728L10.439 6.50361C10.2701 5.77639 10.181 5.17582 10.181 5.08664C10.4085 4.81685 10.6009 4.57052 10.7815 4.36644C11.2859 3.70485 11.5205 3.22632 11.4595 2.96123C11.4525 2.90728 11.422 2.8627 11.3751 2.83455C11.3375 2.79467 11.2859 2.77121 11.232 2.76886C10.9669 2.76886 10.5235 3.05741 9.95342 3.658C9.77278 3.84333 9.56399 4.07323 9.35286 4.343H7.90537L8.11651 4.10371L8.11416 4.10137C8.20331 3.99814 8.18923 3.84097 8.08601 3.75417C7.98044 3.66502 7.82561 3.6791 7.73646 3.78232L7.26727 4.33597H6.81685L7.02094 4.09668C7.06552 4.04742 7.08897 3.98173 7.08194 3.91604C7.07724 3.84801 7.0444 3.78936 6.99279 3.74713C6.94587 3.70256 6.88487 3.67675 6.82153 3.67675C6.75584 3.67675 6.69485 3.70256 6.65027 3.74713L6.17639 4.30078H5.11837L4.69141 4.79343L8.08364 5.88664L8.08599 5.8843C7.53469 6.56462 7.02095 7.27076 6.54704 8.00502H5.02689C4.90724 8.09416 4.84625 8.16689 4.84156 8.22085V8.26307C4.87675 8.29826 5.65797 8.75572 5.96528 8.93637L5.64154 9.49471C5.62511 9.51817 5.62511 9.54867 5.64154 9.57213C5.665 9.59089 5.69549 9.59089 5.71896 9.57213L6.22333 9.16862C6.4509 9.44544 7.02095 10.1422 7.05848 10.1727H7.09367C7.14059 10.1727 7.20863 10.0883 7.279 9.95687L7.02563 8.45546H7.02798C7.67311 7.87366 8.28544 7.2543 8.86018 6.59981Z" fill="#783294"/>
<path d="M21.9832 43.1533C29.3913 43.1533 36.262 39.2779 40.0919 32.9382C43.9239 26.5963 44.1574 18.7112 40.7075 12.1541C37.2597 5.59752 30.6325 1.32129 23.2372 0.883406C22.824 0.846222 22.4005 0.846222 21.9832 0.846222C21.6919 0.846222 21.4544 1.08379 21.4544 1.37507C21.4544 1.66634 21.6919 1.90391 21.9832 1.90391C22.3799 1.90391 22.7827 1.90391 23.1731 1.94109C29.0523 2.28815 34.4835 5.19676 38.0304 9.8986C41.5774 14.6003 42.883 20.622 41.6022 26.371C40.3214 32.118 36.5844 37.0161 31.3786 39.7698C26.1707 42.5214 20.019 42.8499 14.5487 40.6705C9.07621 38.489 4.83753 34.0187 2.95115 28.441C1.06302 22.8611 1.71788 16.7361 4.74218 11.6814C4.84341 11.4376 4.74838 11.1567 4.52114 11.0245C4.2939 10.8902 4.00263 10.946 3.83941 11.1525C1.27161 15.4515 0.311018 20.5231 1.13115 25.4625C1.95128 30.4018 4.49634 34.8907 8.3139 38.1299C12.1336 41.3691 16.9758 43.1498 21.9834 43.1539L21.9832 43.1533Z" fill="#783294" stroke="#783294" stroke-width="0.576923"/>
<path d="M34.0684 14.803H28.8584C29.441 16.9783 29.7488 19.2197 29.7777 21.4712H36.0392C35.9545 19.1182 35.2748 16.8231 34.0684 14.803Z" fill="#783294"/>
<path d="M18.5934 35.6281C17.1204 34.1242 16.0442 32.2774 15.4575 30.255H10.6504C12.5881 32.9199 15.3973 34.8225 18.5934 35.6281Z" fill="#783294"/>
<path d="M15.1351 29.1972C14.5608 27.0198 14.2571 24.7805 14.2303 22.529H7.96875C8.05345 24.884 8.73515 27.1771 9.94573 29.1972H15.1351Z" fill="#783294"/>
<path d="M7.96875 21.4712H14.2303C14.2571 19.2195 14.5608 16.9801 15.1351 14.803H9.94578C8.7352 16.8233 8.05347 19.1163 7.96875 21.4712Z" fill="#783294"/>
<path d="M21.9834 36.0448C24.1669 36.0448 26.146 33.7394 27.3834 30.2276H16.6104C17.8436 33.7394 19.8268 36.0448 21.9834 36.0448Z" fill="#783294"/>
<path d="M27.7459 14.803H16.2663C15.6486 16.9721 15.3181 19.2155 15.2871 21.4712H28.7187C28.6898 19.2153 28.3636 16.9739 27.7459 14.803Z" fill="#783294"/>
<path d="M10.6497 13.7439H15.4568C16.0435 11.7215 17.1197 9.8747 18.5926 8.37088C15.3968 9.17652 12.5879 11.0791 10.6497 13.7439Z" fill="#783294"/>
<path d="M21.9835 7.95483C19.8041 7.95483 17.8209 10.2603 16.5898 13.7721H27.4042C26.1668 10.2603 24.1898 7.95483 21.9835 7.95483Z" fill="#783294"/>
<path d="M33.3639 30.254H28.5568C27.968 32.2764 26.8918 34.1212 25.4209 35.6271C28.6146 34.8194 31.4257 32.9188 33.3639 30.254Z" fill="#783294"/>
<path d="M25.4202 8.37088C26.891 9.87687 27.9673 11.7216 28.5561 13.7439H33.3632C31.4254 11.079 28.6141 9.17853 25.4202 8.37088Z" fill="#783294"/>
<path d="M36.0382 22.529H29.7767C29.7478 24.7807 29.44 27.0221 28.8574 29.1972H34.0508C35.2635 27.1768 35.9494 24.8838 36.0382 22.529Z" fill="#783294"/>
<path d="M16.2671 29.1972H27.7467C28.3644 27.026 28.6908 24.7846 28.7197 22.529H15.2881C15.3191 24.7848 15.6494 27.0283 16.2671 29.1972Z" fill="#783294"/>
</svg>
