<svg width="40" height="40" viewBox="0 0 40 40" fill="none" xmlns="http://www.w3.org/2000/svg">
<path d="M25.0413 36.0837C23.458 36.8337 21.6663 37.2921 19.7497 37.2921C17.833 37.2921 16.083 36.8754 14.4997 36.0837V37.3337C14.4997 37.8337 14.333 38.3337 14.083 38.7087C15.833 39.4587 17.7913 39.8337 19.7913 39.8337C21.7913 39.8337 23.7497 39.4171 25.4997 38.7087C25.2497 38.3337 25.083 37.8337 25.083 37.3337V36.0837H25.0413Z" fill="#1798A6"/>
<path d="M27.583 15.4998C29.4163 17.0414 30.833 19.0831 31.4997 21.4164C31.9997 21.2498 32.583 21.1664 33.1247 21.1664C33.458 21.1664 33.7913 21.2081 34.1247 21.2498C33.208 17.6248 30.9163 14.4998 27.8747 12.4998C27.8747 12.5414 27.8747 12.5831 27.8747 12.6248V14.3331C27.8747 14.7498 27.7913 15.1664 27.583 15.4998Z" fill="#1798A6"/>
<path d="M7.95866 21.4164C8.66699 19.0831 10.042 17.0414 11.8753 15.4998C11.7087 15.1664 11.5837 14.7498 11.5837 14.3331V12.6248C11.5837 12.5831 11.5837 12.5414 11.5837 12.4998C8.54199 14.4998 6.25033 17.6248 5.29199 21.2498C5.62533 21.2081 5.95866 21.1664 6.29199 21.1664C6.91699 21.1664 7.45866 21.2498 7.95866 21.4164Z" fill="#1798A6"/>
<path d="M19.7497 7.58333C21.7747 7.58333 23.4163 5.94171 23.4163 3.91667C23.4163 1.89162 21.7747 0.25 19.7497 0.25C17.7246 0.25 16.083 1.89162 16.083 3.91667C16.083 5.94171 17.7246 7.58333 19.7497 7.58333Z" fill="#1798A6"/>
<path d="M14.0417 14.7084H25.4167C25.625 14.7084 25.7917 14.5417 25.7917 14.3334V12.6251C25.7917 10.7917 24.5833 9.20841 22.9583 8.66675C22.0417 9.29175 20.9167 9.66675 19.7083 9.66675C18.5 9.66675 17.375 9.29175 16.4583 8.66675C14.7917 9.25008 13.625 10.7917 13.625 12.6251V14.3334C13.6667 14.5417 13.8333 14.7084 14.0417 14.7084Z" fill="#1798A6"/>
<path d="M9.58333 31.6251C8.66667 32.2501 7.54167 32.6668 6.33333 32.6668C5.125 32.6668 4 32.2918 3.04167 31.6251C1.41667 32.2085 0.25 33.7918 0.25 35.6251V37.3335C0.25 37.5418 0.416667 37.7085 0.625 37.7085H12C12.2083 37.7085 12.375 37.5418 12.375 37.3335V35.6251C12.4167 33.7501 11.25 32.2085 9.58333 31.6251Z" fill="#1798A6"/>
<path d="M6.33366 30.5834C8.3587 30.5834 10.0003 28.9418 10.0003 26.9168C10.0003 24.8917 8.3587 23.2501 6.33366 23.2501C4.30861 23.2501 2.66699 24.8917 2.66699 26.9168C2.66699 28.9418 4.30861 30.5834 6.33366 30.5834Z" fill="#1798A6"/>
<path d="M36.4167 31.6251C35.5 32.2918 34.375 32.6668 33.1667 32.6668C31.9583 32.6668 30.8333 32.2918 29.9167 31.6251C28.2917 32.2085 27.125 33.7918 27.125 35.6251V37.3335C27.125 37.5418 27.2917 37.7085 27.5 37.7085H38.875C39.0833 37.7085 39.25 37.5418 39.25 37.3335V35.6251C39.25 33.7501 38.0833 32.2085 36.4167 31.6251Z" fill="#1798A6"/>
<path d="M33.1667 30.5834C35.1917 30.5834 36.8333 28.9418 36.8333 26.9168C36.8333 24.8917 35.1917 23.2501 33.1667 23.2501C31.1416 23.2501 29.5 24.8917 29.5 26.9168C29.5 28.9418 31.1416 30.5834 33.1667 30.5834Z" fill="#1798A6"/>
<path d="M19.7503 19C15.7087 19 12.417 21.3333 12.417 24.25C12.417 25.9167 13.5003 27.375 15.167 28.3333C15.0003 28.7917 14.667 29.4167 14.042 30.1667C13.6253 30.625 14.1253 31.3333 14.7087 31.125C15.917 30.6667 17.292 30.0417 18.5837 29.4167C18.9587 29.4583 19.3753 29.5 19.792 29.5C23.8337 29.5 27.1253 27.1667 27.1253 24.25C27.0837 21.3333 23.792 19 19.7503 19ZM16.1253 25.3333C15.5003 25.3333 15.0003 24.8333 15.0003 24.2083C15.0003 23.5833 15.5003 23.0833 16.1253 23.0833C16.7503 23.0833 17.2503 23.5833 17.2503 24.2083C17.2503 24.8333 16.7503 25.3333 16.1253 25.3333ZM19.7503 25.3333C19.1253 25.3333 18.6253 24.8333 18.6253 24.2083C18.6253 23.5833 19.1253 23.0833 19.7503 23.0833C20.3753 23.0833 20.8753 23.5833 20.8753 24.2083C20.8753 24.8333 20.3753 25.3333 19.7503 25.3333ZM23.3753 25.3333C22.7503 25.3333 22.2503 24.8333 22.2503 24.2083C22.2503 23.5833 22.7503 23.0833 23.3753 23.0833C24.0003 23.0833 24.5003 23.5833 24.5003 24.2083C24.5003 24.8333 24.0003 25.3333 23.3753 25.3333Z" fill="#1798A6"/>
</svg>
