<svg width="26" height="26" viewBox="0 0 26 26" fill="none" xmlns="http://www.w3.org/2000/svg">
<path d="M5.659 10.6542C5.38395 12.7598 5.22005 14.8784 5.168 17.0012C8.0468 18.2037 10.8032 19.6805 13.399 21.4112C15.9951 19.6805 18.7519 18.2037 21.631 17.0012C21.5789 14.8784 21.415 12.7598 21.14 10.6542M21.14 10.6542C22.015 10.3602 22.902 10.0882 23.798 9.84021C20.5346 7.55246 17.051 5.5961 13.399 4.00021C9.74699 5.59644 6.2634 7.55313 3 9.84121C3.89327 10.0878 4.77961 10.3589 5.658 10.6542C8.32662 11.5514 10.9159 12.6693 13.399 13.9962C15.8817 12.6693 18.4717 11.5514 21.14 10.6542ZM8.149 15.5072C8.34791 15.5072 8.53868 15.4282 8.67933 15.2875C8.81998 15.1469 8.899 14.9561 8.899 14.7572C8.899 14.5583 8.81998 14.3675 8.67933 14.2269C8.53868 14.0862 8.34791 14.0072 8.149 14.0072C7.95009 14.0072 7.75932 14.0862 7.61867 14.2269C7.47802 14.3675 7.399 14.5583 7.399 14.7572C7.399 14.9561 7.47802 15.1469 7.61867 15.2875C7.75932 15.4282 7.95009 15.5072 8.149 15.5072ZM8.149 15.5072V11.8322C9.84573 10.7776 11.5983 9.81548 13.399 8.95021M6.392 20.5002C6.94997 19.9436 7.39244 19.2822 7.69396 18.5541C7.99549 17.8259 8.15013 17.0453 8.149 16.2572V14.7572" stroke="#1798A6" stroke-width="1.5" stroke-linecap="round" stroke-linejoin="round"/>
</svg>
