<svg width="50" height="50" viewBox="0 0 50 50" fill="none" xmlns="http://www.w3.org/2000/svg">
<path d="M27.0146 16.9386H29.4462C29.9979 16.9386 30.5008 17.1649 30.8687 17.5311C31.2349 17.8989 31.4596 18.4002 31.4596 18.952V35.1566C31.4596 35.5016 31.1796 35.7816 30.8346 35.7816H25.6262C25.2812 35.7816 25.0012 35.5016 25.0012 35.1566V18.952C25.0012 18.3986 25.2275 17.8941 25.5921 17.5295C25.9567 17.1649 26.4611 16.9386 27.0146 16.9386ZM33.3346 15.9149H32.3808C31.8176 15.9149 31.4009 15.7863 31.1015 15.5796C30.8752 15.4234 30.7174 15.2264 30.6181 15.0067C30.522 14.7951 30.4797 14.5737 30.4797 14.3524C30.4797 13.8527 30.6978 13.3237 30.942 12.9722L35.0695 6.99219C35.1851 6.82617 35.3283 6.6862 35.4878 6.57715C35.8036 6.36068 36.1877 6.25 36.5653 6.25C36.9429 6.25 37.327 6.35905 37.6427 6.57715C37.8023 6.68782 37.9455 6.8278 38.0594 6.99219L42.187 12.9722C42.4295 13.3237 42.6476 13.8527 42.6476 14.3508C42.6476 14.5705 42.6069 14.7935 42.5093 15.0051C42.41 15.2248 42.2521 15.4217 42.0259 15.578C41.7264 15.7847 41.3097 15.9133 40.7466 15.9133H39.7928V35.1549C39.7928 35.5 39.5128 35.7799 39.1678 35.7799H33.9578C33.6127 35.7799 33.3328 35.5 33.3328 35.1549V15.9133L33.3346 15.9149ZM32.3971 37.3324C32.9863 37.3324 33.5217 37.5733 33.9091 37.9606C34.2965 38.348 34.5373 38.8835 34.5373 39.4727V39.917H39.1678C39.5128 39.917 39.7928 40.197 39.7928 40.542C39.7928 40.8871 39.5128 41.167 39.1678 41.167H34.5373V41.6097C34.5373 42.1989 34.2965 42.7344 33.9091 43.1217C33.5217 43.5091 32.9863 43.75 32.3971 43.75C31.8078 43.75 31.2724 43.5091 30.885 43.1217L30.8476 43.0811C30.483 42.6969 30.2567 42.1777 30.2567 41.6097V41.167H8.95801C8.61296 41.167 8.33301 40.8871 8.33301 40.542C8.33301 40.197 8.61296 39.917 8.95801 39.917H30.2567V39.4727C30.2567 38.8835 30.4976 38.348 30.885 37.9606C31.2724 37.5733 31.8078 37.3324 32.3971 37.3324ZM10.3479 24.3457H12.7795C13.3329 24.3457 13.8375 24.5736 14.2004 24.9366L14.2379 24.9772C14.5813 25.3402 14.7929 25.8285 14.7929 26.3574V35.1545C14.7929 35.4996 14.5129 35.7795 14.1679 35.7795H8.95954C8.61449 35.7795 8.33454 35.4996 8.33454 35.1545V26.3574C8.33454 25.8041 8.56078 25.3011 8.92538 24.9365C9.28996 24.5703 9.7945 24.3441 10.3479 24.3441L10.3479 24.3457ZM18.6812 20.6413H21.1129C21.663 20.6413 22.1675 20.8692 22.5321 21.2321C22.8999 21.6016 23.1262 22.1046 23.1262 22.6547V35.1547C23.1262 35.4997 22.8462 35.7797 22.5012 35.7797H17.2912C16.9461 35.7797 16.6662 35.4997 16.6662 35.1547V22.6547C16.6662 22.1029 16.8924 21.6 17.2586 21.2321C17.6265 20.8659 18.1294 20.6413 18.6796 20.6413H18.6812Z" fill="#E5AF27"/>
</svg>
