<svg width="26" height="26" viewBox="0 0 26 26" fill="none" xmlns="http://www.w3.org/2000/svg">
<g id="Icons">
<path id="Vector" fill-rule="evenodd" clip-rule="evenodd" d="M12.8405 10.8537C12.4281 10.4405 11.7806 10.3763 11.2944 10.7009C10.8083 11.0256 10.6191 11.648 10.8421 12.1879C11.0661 12.7279 11.639 13.0343 12.2129 12.9215C12.7858 12.8078 13.199 12.3051 13.199 11.7201C13.1999 11.3954 13.0705 11.0837 12.8405 10.8537ZM16.9717 7.3596C16.8762 7.45595 16.7208 7.45595 16.6253 7.36047C16.529 7.26498 16.529 7.10959 16.6245 7.01323L17.9917 5.64601V5.64688C18.0872 5.55139 18.2426 5.55139 18.3381 5.64688C18.4336 5.74237 18.4336 5.89689 18.3381 5.99325L16.9708 7.36047L16.9717 7.3596ZM5.17802 11.7053C5.31344 11.7053 5.42283 11.8147 5.42283 11.9492C5.42283 12.0846 5.31345 12.194 5.17802 12.194H3.24481C3.10939 12.194 3 12.0847 3 11.9492C3 11.8147 3.10938 11.7053 3.24481 11.7053H5.17802ZM7.35951 6.97781C7.45587 7.07416 7.45587 7.22868 7.35951 7.32417C7.26402 7.42053 7.1095 7.42053 7.01401 7.32504L5.64679 5.95782C5.55044 5.86147 5.5513 5.70695 5.64679 5.61146C5.74228 5.5151 5.89767 5.51597 5.99316 5.61146L7.35951 6.97781ZM12.245 5.17827C12.245 5.31282 12.1356 5.42221 12.0002 5.42221C11.8656 5.42221 11.7562 5.31283 11.7562 5.17827V3.24505C11.7562 3.10963 11.8656 3.00024 12.0002 3.00024C12.1356 3.00024 12.245 3.10962 12.245 3.24505V5.17827ZM21.7531 21.3308H12.7892C12.5158 21.3316 12.2944 21.553 12.2935 21.8265V22.3221H22.2496V21.8265C22.2488 21.553 22.0274 21.3325 21.7539 21.3308H21.7531ZM12.541 22.8117C12.5202 22.8274 12.4993 22.8421 12.4768 22.856H12.4776C12.186 23.0383 11.8188 23.0487 11.5184 22.882C11.218 22.7162 11.0305 22.3994 11.0305 22.0565V21.9749H11.804V22.5669C11.804 22.7015 11.9134 22.8109 12.0488 22.8109L12.541 22.8117ZM21.0933 20.8412V20.3455H21.0941C21.0924 20.0729 20.871 19.8516 20.5984 19.8507H13.9438C13.8127 19.8507 13.6869 19.9028 13.594 19.9965C13.5844 20.0061 13.5749 20.0156 13.5671 20.026C13.4915 20.1146 13.4507 20.2274 13.4507 20.3438V20.8394L21.0933 20.8412ZM12.9586 20.8412H12.7893C12.3769 20.8429 12.0089 21.099 11.8657 21.4862H10.8023C10.383 21.4853 10.0435 21.1459 10.0427 20.7266V20.112H12.9872C12.9681 20.1884 12.9586 20.2665 12.9586 20.3455L12.9586 20.8412ZM17.318 12.9103C17.1922 12.8608 17.1305 12.7193 17.1791 12.5934C17.2286 12.4675 17.3701 12.405 17.496 12.4545C18.391 12.8052 18.9917 13.3 19.2261 14.2272C19.4483 15.1031 19.3198 16.3609 18.7721 18.2611V18.2602C18.7356 18.3904 18.6002 18.4659 18.47 18.4295C18.3406 18.3921 18.2651 18.2567 18.3016 18.1274C18.8242 16.3139 18.9518 15.1368 18.7521 14.3459C18.5646 13.6063 18.0655 13.2028 17.318 12.9103ZM13.8293 19.3671C13.8214 18.7838 14.0237 18.2161 14.3996 17.7699H8.80564V18.8637C8.80564 19.2821 9.14505 19.6224 9.56435 19.6232H13.2754C13.4281 19.4817 13.6226 19.3923 13.8292 19.368L13.8293 19.3671ZM15.2026 16.9286C15.0767 17.0432 14.9534 17.1595 14.8354 17.2793H12.2197V13.4163C13.1095 13.2887 13.7484 12.4944 13.6842 11.5977C13.62 10.7009 12.8743 10.0065 11.9749 10.0065C11.0765 10.0065 10.3299 10.7009 10.2657 11.5977C10.2014 12.4944 10.8412 13.2887 11.731 13.4163V17.2793H8.79693C8.77696 17.0041 8.7162 16.7324 8.61811 16.4746C8.48789 16.1395 8.29692 15.8322 8.05471 15.5675C7.02257 14.4233 6.54164 12.8843 6.73956 11.3565C6.93748 9.82776 7.79255 8.46147 9.08163 7.61678C10.3707 6.77213 11.9646 6.53255 13.4447 6.96138C14.9256 7.39109 16.1443 8.44494 16.7825 9.84858C16.4275 9.66021 16.0325 9.56473 15.6315 9.5682C15.5507 9.56559 15.4743 9.60292 15.4266 9.66803C15.3788 9.73226 15.3667 9.81647 15.3927 9.89286C15.6731 10.695 14.8901 11.4788 14.1218 12.2463C13.3814 12.9876 12.6539 13.7151 12.7242 14.5588C12.7746 15.1473 13.2173 15.6265 13.7998 15.722C14.2555 15.6066 14.7043 15.4659 15.1444 15.301C15.7061 15.1057 16.2608 14.9078 16.3311 14.8713C16.3458 14.8635 16.3597 14.8539 16.3728 14.8435C16.4335 14.7932 16.4908 14.7393 16.5446 14.6821C16.5064 14.7472 16.4674 14.8114 16.4274 14.8748H16.4266C16.2695 15.1196 16.0924 15.3522 15.8971 15.5684C15.7113 15.7724 15.555 16.0007 15.4326 16.2472C15.3267 16.4634 15.2486 16.6925 15.2026 16.9286ZM15.6002 17.2281C15.7069 17.1318 15.8146 17.0371 15.9213 16.9434C17.0568 15.946 18.1054 15.0241 16.9422 13.5475H16.9414C16.8789 13.4677 16.7747 13.4347 16.6775 13.4642C16.5811 13.4937 16.5125 13.5796 16.5056 13.6803C16.463 13.9772 16.3146 14.2489 16.0872 14.4451C15.9795 14.4894 15.4873 14.6647 14.9838 14.8401C14.4161 15.0371 13.8979 15.2429 13.8779 15.2403C13.5168 15.1812 13.2425 14.8843 13.2112 14.5198C13.1591 13.8999 13.8076 13.2515 14.4673 12.5917C15.2477 11.8105 16.0429 11.0153 15.9326 10.0779L15.9335 10.077C16.4917 10.1595 16.9856 10.4824 17.2834 10.9616C17.319 11.0189 17.3754 11.0588 17.4414 11.0727C18.9961 11.4338 19.7843 12.4773 20.1099 13.927C20.4424 15.408 20.3026 17.3142 19.9962 19.3621H14.3189C14.2894 18.5209 14.9057 17.8568 15.5828 17.244C15.588 17.2396 15.5941 17.2344 15.5984 17.2292L15.6002 17.2281ZM16.8528 15.1117L16.8372 15.136H16.838C16.6662 15.4043 16.4735 15.6578 16.2599 15.8948C16.1757 15.9885 16.0976 16.0875 16.0272 16.1925C16.384 15.9026 16.667 15.5319 16.8528 15.1117Z" fill="#5E4138"/>
</g>
</svg>
