<svg width="16" height="25" viewBox="0 0 16 25" fill="none" xmlns="http://www.w3.org/2000/svg">
<path d="M11.767 13.5062L13.4082 22.7427C13.4266 22.8515 13.4113 22.9632 13.3645 23.0631C13.3176 23.1629 13.2414 23.2461 13.146 23.3015C13.0506 23.3568 12.9405 23.3817 12.8306 23.3729C12.7206 23.364 12.616 23.3218 12.5307 23.2519L8.65239 20.3409C8.46516 20.2011 8.23772 20.1255 8.00401 20.1255C7.7703 20.1255 7.54286 20.2011 7.35564 20.3409L3.4708 23.2508C3.38557 23.3206 3.28107 23.3627 3.17126 23.3716C3.06144 23.3805 2.95153 23.3557 2.85619 23.3005C2.76084 23.2453 2.6846 23.1623 2.63763 23.0626C2.59066 22.963 2.5752 22.8514 2.5933 22.7427L4.23347 13.5062" stroke="#C31E5D" stroke-width="1.5" stroke-linecap="round" stroke-linejoin="round"/>
<path d="M8 14.7086C11.5899 14.7086 14.5 11.7984 14.5 8.20856C14.5 4.61871 11.5899 1.70856 8 1.70856C4.41015 1.70856 1.5 4.61871 1.5 8.20856C1.5 11.7984 4.41015 14.7086 8 14.7086Z" stroke="#C31E5D" stroke-width="1.5" stroke-linecap="round" stroke-linejoin="round"/>
</svg>
