<svg width="26" height="26" viewBox="0 0 26 26" fill="none" xmlns="http://www.w3.org/2000/svg">
<g id="Icons">
<path id="Vector" fill-rule="evenodd" clip-rule="evenodd" d="M20.1207 19.5278C20.2787 19.5278 20.43 19.5901 20.5406 19.7014C20.6526 19.8127 20.7141 19.964 20.7141 20.1212V20.7146C20.7141 20.8719 20.6526 21.0232 20.5406 21.1344C20.43 21.2457 20.2787 21.308 20.1207 21.308H5.87909C5.7211 21.308 5.57052 21.2457 5.46001 21.1344C5.34801 21.0232 5.2857 20.8719 5.2857 20.7146V20.1212C5.2857 19.964 5.348 19.8126 5.46001 19.7014C5.57053 19.5901 5.72111 19.5278 5.87909 19.5278H20.1207ZM6.47249 19.2311V18.341C6.47249 18.1808 6.59933 18.0495 6.75955 18.0443C9.0441 17.9687 10.8718 18.4649 12.4837 19.2311H6.47249ZM13.5288 19.2311C15.4046 18.3611 17.3102 17.9835 19.2402 18.0443C19.4004 18.0495 19.5273 18.1808 19.5273 18.341V19.2311H13.5288ZM7.36041 17.7409L7.36264 17.4479C7.36412 17.3011 7.47168 17.1779 7.61781 17.1572C9.4084 16.9042 11.2035 17.6356 12.9947 18.5947C14.6807 17.6289 16.4609 17.1349 18.3435 17.1542C18.5067 17.1557 18.6372 17.2885 18.6372 17.4509V17.7432C16.7332 17.7728 14.8527 18.2268 13.0028 19.1562C11.3992 18.3366 9.60053 17.7647 7.36041 17.7409ZM16.2637 12.128V13.8726L16.2392 13.995L16.1725 14.0951L16.0723 14.1626L15.95 14.1871H10.0509L9.92775 14.1626L9.82835 14.0951L9.76085 13.995L9.73637 13.8726V12.128L9.76085 12.0056L9.82835 11.9055L9.92775 11.838L10.0509 11.8135H15.95L16.0723 11.838L16.1725 11.9055L16.2392 12.0056L16.2637 12.128ZM15.6703 14.4838V17.1785C14.752 17.4129 13.8589 17.7734 12.9904 18.2563C12.1048 17.789 11.2176 17.3832 10.3297 17.1214V14.4836L15.6703 14.4838ZM8.56431 9.14316H7.36267V6.76955H9.73628V7.81838C9.59609 8.07057 9.38989 8.22858 9.08872 8.25528C8.77645 8.28421 8.53983 8.5505 8.54948 8.86425C8.55244 8.95919 8.55763 9.05191 8.56431 9.14316ZM18.9339 6.76955H19.2306C19.3953 6.76955 19.5273 6.90233 19.5273 7.06625V8.84646C19.5273 9.01038 19.3953 9.14316 19.2306 9.14316H18.9324C18.9339 9.11646 18.9339 9.08975 18.9339 9.06231L18.9339 6.76955ZM6.76929 9.04233L4.87189 8.22938C4.76285 8.18265 4.69238 8.07509 4.69238 7.95641C4.69238 7.83773 4.76285 7.73018 4.87189 7.68345L6.76929 6.8705V9.04233ZM19.7448 6.76955H21.0109C21.1756 6.76955 21.3076 6.90233 21.3076 7.06625V8.84646C21.3076 9.01038 21.1756 9.14316 21.0109 9.14316H19.7448C19.7959 9.05563 19.8241 8.95475 19.8241 8.84646V7.06625C19.8241 6.95796 19.7959 6.85707 19.7448 6.76955ZM9.74294 11.6125C9.2022 10.8982 8.88102 9.99768 8.84616 8.85529C8.84245 8.69878 8.95965 8.56527 9.11616 8.55116C9.55009 8.51111 9.8453 8.27598 10.033 7.89025V5.58273C10.033 5.34685 10.1272 5.12062 10.2933 4.95298C10.461 4.78609 10.6872 4.69263 10.9231 4.69263H11.8132C12.049 4.69263 12.276 4.78609 12.4429 4.95298C12.454 4.96485 12.4659 4.97672 12.477 4.98933H14.1868C14.4227 4.98933 14.6496 5.08279 14.8165 5.24969C14.8276 5.26155 14.8395 5.27342 14.8506 5.28603H15.967C16.2303 5.28603 16.4677 5.401 16.6308 5.58273H17.7472C18.2397 5.58273 18.6373 5.98106 18.6373 6.47284V9.06235C18.6373 9.84564 18.2946 10.5889 17.699 11.0962C17.6945 11.0992 17.6908 11.1022 17.6878 11.1051C17.3333 11.3788 16.9439 11.6407 16.5092 11.8847L16.3809 11.6956L16.1873 11.565L15.9499 11.5168H10.0509L9.81349 11.565L9.74294 11.6125Z" fill="#1798A6"/>
</g>
</svg>
