<svg width="18" height="17" viewBox="0 0 18 17" fill="none" xmlns="http://www.w3.org/2000/svg">
<g id="Group">
<g id="Group_2">
<g id="Group_3">
<path id="Vector" d="M11.0536 10.1266V10.278C11.0536 11.4137 10.1262 12.3411 8.99054 12.3411C7.85489 12.3411 6.92745 11.4137 6.92745 10.278V10.1266L0.378549 8.85846C0.246057 8.83953 0.113565 8.80168 0 8.72597V14.4421C0 15.8427 1.13565 16.9783 2.53628 16.9783H15.4637C16.8644 16.9783 18 15.8427 18 14.4421V8.72597C17.8864 8.78275 17.7539 8.8206 17.6215 8.85846L11.0536 10.1266Z" fill="#5E4138"/>
<path id="Vector_2" d="M15.4827 3.59643H13.1735V2.65006C13.1735 1.19264 11.9811 0.000213623 10.5237 0.000213623H7.45741C6 0.000213623 4.80757 1.19264 4.80757 2.65006V3.59643H2.49842C1.11672 3.59643 0 4.71315 0 6.09485V7.15479C0 7.49548 0.246057 7.77939 0.567823 7.8551L6.92744 9.08539C6.94637 7.96867 7.85489 7.07908 8.99054 7.07908C10.1073 7.07908 11.0347 7.96867 11.0536 9.08539L17.3943 7.8551C17.735 7.77939 17.9811 7.49548 17.9811 7.15479V6.07592C17.9811 4.71315 16.8644 3.59643 15.4827 3.59643ZM6.7571 2.63113C6.7571 2.25258 7.07886 1.94974 7.43849 1.94974H10.5237C10.9022 1.94974 11.205 2.27151 11.205 2.63113V3.5775H6.7571V2.63113Z" fill="#5E4138"/>
<path id="Vector_3" d="M10.0315 10.2781V9.14247C10.0315 8.57464 9.5583 8.10146 8.99047 8.10146C8.42265 8.10146 7.94946 8.57464 7.94946 9.14247V10.2781C7.94946 10.8459 8.42265 11.3191 8.99047 11.3191C9.5583 11.3191 10.0315 10.8459 10.0315 10.2781Z" fill="#5E4138"/>
</g>
</g>
</g>
</svg>
