<svg width="44" height="822" viewBox="0 0 44 822" fill="none" xmlns="http://www.w3.org/2000/svg">
<path d="M22 2L22 814" stroke="#EBEBEB" stroke-width="3" stroke-linecap="round"/>
<path d="M22 1.99609L22 57.9961" stroke="#E47275" stroke-width="3" stroke-linecap="round"/>
<circle cx="22" cy="23.9961" r="6" fill="#D62D31"/>
<circle cx="22" cy="179.996" r="6" fill="#656565"/>
<circle cx="22" cy="357.996" r="6" fill="#656565"/>
<circle cx="22" cy="557.996" r="6" fill="#656565"/>
<circle cx="22" cy="735.996" r="6" fill="#656565"/>
<path fill-rule="evenodd" clip-rule="evenodd" d="M18.3192 56.1076L5.5276 48.7216C5.0656 48.4534 4.79939 47.9934 4.79939 47.461V45.4498C4.79939 45.0683 5.16961 44.8022 5.5327 44.9245L18.7209 49.4231C19.1911 44.2798 19.9358 39.3578 20.2958 36.7581L16.5182 34.5777C16.0562 34.3094 15.79 33.8494 15.79 33.3171L15.79 32.5501C15.79 32.1687 16.1602 31.9025 16.5233 32.0249L21.785 33.8189L27.0466 32.0249C27.4097 31.9025 27.7799 32.1687 27.7799 32.5501L27.7799 33.3171C27.7799 33.8494 27.5158 34.3115 27.0517 34.5777L23.2741 36.7581C23.6351 39.3589 24.3788 44.2799 24.849 49.4231L38.0351 44.9245C38.3982 44.8021 38.7684 45.0683 38.7684 45.4498L38.7684 47.461C38.7684 47.9934 38.5043 48.4554 38.0402 48.7216L25.2478 56.1047C25.2917 58.1598 25.2376 60.0945 25.0369 61.7578C24.1588 69.0733 19.4733 69.2592 18.5461 61.8884C18.336 60.1954 18.2759 58.2137 18.3198 56.1076L18.3192 56.1076Z" fill="#D62D31"/>
</svg>
