<svg width="432" height="572" viewBox="0 0 432 572" fill="none" xmlns="http://www.w3.org/2000/svg">
<g filter="url(#filter0_di_1469_10049)">
<g clip-path="url(#clip0_1469_10049)">
<rect x="6" y="6" width="408" height="548" rx="12" fill="#FEFEFE"/>
<g filter="url(#filter1_diiiii_1469_10049)">
<g clip-path="url(#clip1_1469_10049)">
<path d="M1.09915 186.435C6.86596 178.456 9.74937 174.467 13.5048 172.542C16.8082 170.848 20.5629 170.244 24.2307 170.816C28.4006 171.465 32.39 174.349 40.3689 180.116L55.5653 191.099C63.5442 196.866 67.5336 199.749 69.4589 203.505C71.1524 206.808 71.7566 210.563 71.185 214.231C70.5351 218.4 67.6517 222.39 61.8849 230.369L50.9015 245.565C45.1347 253.544 42.2513 257.534 38.4959 259.459C35.1925 261.152 31.4378 261.757 27.77 261.185C23.6001 260.535 19.6107 257.652 11.6318 251.885L-3.56462 240.901C-11.5435 235.135 -15.5329 232.251 -17.4582 228.496C-19.1517 225.192 -19.7559 221.438 -19.1843 217.77C-18.5344 213.6 -15.651 209.611 -9.88423 201.632L1.09915 186.435Z" fill="url(#paint0_linear_1469_10049)" fill-opacity="0.72"/>
<g clip-path="url(#clip2_1469_10049)" filter="url(#filter2_ddi_1469_10049)">
<path d="M39.3522 244.238L39.7276 242.645C39.8502 242.301 39.8695 241.928 39.7831 241.573C39.6968 241.219 39.5085 240.897 39.2416 240.648L54.5335 219.49C54.9479 218.915 55.1173 218.199 55.0045 217.5C54.8917 216.8 54.5059 216.174 53.9318 215.759L16.5365 188.731C15.962 188.317 15.2466 188.147 14.5473 188.26C13.8479 188.372 13.2218 188.757 12.8062 189.331L-2.49656 210.504C-2.80851 210.37 -3.15044 210.321 -3.48741 210.362C-3.82438 210.404 -4.14429 210.534 -4.41443 210.74L-5.80999 211.597C-6.04947 211.738 -6.24967 211.937 -6.39221 212.175C-6.53474 212.414 -6.61505 212.685 -6.62575 212.962C-6.63478 213.251 -6.57438 213.537 -6.44963 213.798C-6.32487 214.058 -6.13942 214.284 -5.90888 214.458L36.6663 245.23C36.9035 245.394 37.1768 245.499 37.4631 245.536C37.7494 245.573 38.0403 245.54 38.3114 245.441C38.5718 245.344 38.8035 245.183 38.9854 244.973C39.1672 244.762 39.2933 244.51 39.3522 244.238ZM38.004 239.745L21.9325 228.129C21.8472 228.068 21.7502 228.024 21.6475 228.002L18.9543 227.413L16.5652 225.686L15.1611 223.314C15.1075 223.223 15.0359 223.145 14.9507 223.083L-1.24102 211.38L14.0471 190.228C14.2246 189.983 14.4919 189.819 14.7905 189.771C15.089 189.723 15.3944 189.795 15.6396 189.972L30.2245 200.513L29.8152 201.08C29.5499 201.448 29.4415 201.906 29.5137 202.354C29.5858 202.802 29.8327 203.203 30.2001 203.469L35.772 207.496C36.14 207.762 36.5982 207.87 37.0461 207.798C37.4941 207.726 37.8951 207.479 38.1614 207.112L38.5708 206.546L53.035 217C53.2798 217.177 53.4443 217.444 53.4923 217.743C53.5403 218.041 53.468 218.347 53.2912 218.592L38.004 239.745ZM38.8639 208.6C38.9828 208.436 39.1623 208.325 39.3628 208.293C39.5633 208.26 39.7684 208.309 39.9331 208.428L40.5757 208.892C40.7341 209.014 40.8389 209.192 40.8678 209.389C40.8968 209.587 40.8476 209.788 40.7307 209.949C40.6139 210.111 40.4386 210.221 40.2421 210.255C40.0456 210.29 39.8434 210.246 39.6785 210.134L39.0359 209.669C38.8715 209.55 38.761 209.371 38.7287 209.17C38.6965 208.97 38.7451 208.765 38.8639 208.6ZM40.9339 221.018L31.3842 208.094C31.29 207.966 31.1584 207.871 31.0076 207.821L15.7416 202.81C15.5874 202.76 15.4211 202.76 15.2668 202.81C15.1125 202.86 14.9782 202.958 14.8831 203.09C14.7881 203.221 14.7372 203.379 14.7379 203.542C14.7386 203.704 14.7908 203.862 14.887 203.992L18.9575 209.502L15.1209 214.81C15.0356 214.928 14.9853 215.067 14.9761 215.212C14.9668 215.356 14.9989 215.501 15.0686 215.628C16.49 218.234 18.4766 220.49 20.8827 222.229C23.2888 223.968 26.0535 225.146 28.9742 225.678C29.1165 225.705 29.2634 225.69 29.3978 225.636C29.5322 225.582 29.6485 225.491 29.7332 225.374L33.5702 220.065L36.0167 220.868L31.7756 226.736C31.6502 226.651 31.5024 226.605 31.351 226.604C31.1996 226.604 31.0513 226.648 30.9249 226.731L28.7413 228.177C28.6382 228.245 28.5532 228.337 28.4935 228.446C28.4338 228.554 28.4012 228.675 28.3985 228.799C28.3958 228.922 28.4232 229.045 28.4782 229.156C28.5331 229.266 28.6141 229.362 28.7142 229.435L29.4423 229.961L28.9325 230.667C28.8202 230.831 28.7766 231.034 28.8111 231.23C28.8455 231.427 28.9552 231.602 29.1169 231.719C29.2786 231.836 29.4795 231.885 29.6768 231.856C29.8742 231.827 30.0525 231.722 30.1739 231.564L30.6837 230.858L31.4133 231.386C31.5136 231.458 31.63 231.505 31.7524 231.522C31.8749 231.54 31.9997 231.527 32.1163 231.486C32.2328 231.445 32.3376 231.376 32.4217 231.285C32.5058 231.194 32.5667 231.085 32.5992 230.965L33.2869 228.438C33.3265 228.292 33.3218 228.138 33.2735 227.994C33.2252 227.85 33.1354 227.725 33.0155 227.632L37.5427 221.368L40.0771 222.2C40.2314 222.251 40.3976 222.251 40.5519 222.2C40.7062 222.15 40.8406 222.052 40.9356 221.921C41.0307 221.789 41.0815 221.631 41.0808 221.469C41.0801 221.306 41.0279 221.149 40.9317 221.018L40.9339 221.018ZM29.4028 223.217C26.8783 222.69 24.4932 221.636 22.4029 220.125C20.3126 218.615 18.5641 216.68 17.2712 214.449L19.9118 210.795L24.4347 216.918C24.5294 217.045 24.6608 217.14 24.8113 217.19L32.0435 219.564L29.4028 223.217Z" fill="white"/>
</g>
</g>
</g>
<g filter="url(#filter3_dddiiii_1469_10049)">
<g clip-path="url(#clip3_1469_10049)">
<path d="M368.495 67.3179C362.371 62.1845 359.309 59.6178 357.969 56.4654C356.791 53.6924 356.52 50.6175 357.196 47.6813C357.965 44.3434 360.532 41.2815 365.665 35.1578L375.442 23.4947C380.576 17.371 383.143 14.3091 386.295 12.9692C389.068 11.7906 392.143 11.5201 395.079 12.1964C398.417 12.9654 401.479 15.5321 407.603 20.6655L419.266 30.4425C425.389 35.5759 428.451 38.1426 429.791 41.295C430.97 44.068 431.24 47.1429 430.564 50.0791C429.795 53.4171 427.228 56.4789 422.095 62.6026L412.318 74.2657C407.185 80.3894 404.618 83.4513 401.465 84.7912C398.692 85.9699 395.617 86.2404 392.681 85.564C389.343 84.795 386.281 82.2283 380.158 77.0949L368.495 67.3179Z" fill="url(#paint1_linear_1469_10049)" fill-opacity="0.78"/>
<g clip-path="url(#clip4_1469_10049)" filter="url(#filter4_dd_1469_10049)">
<path d="M396.851 68.5768C397.525 69.1419 398.538 69.0528 399.103 68.3787L415.899 48.3434L413.448 46.2893L396.653 66.3247C396.093 67.0029 396.177 68.0118 396.851 68.5768Z" fill="white"/>
<path d="M394.133 71.8192C396.411 73.7289 399.803 73.4305 401.713 71.1525L417.423 52.4112C418.182 51.5058 418.063 50.1582 417.158 49.3992L416.858 49.1476L400.063 69.183C399.052 70.3884 397.252 70.5468 396.047 69.5362C394.841 68.5257 394.683 66.7258 395.693 65.5203L412.489 45.485L410.55 43.8599L393.466 64.2397C391.561 66.5219 391.86 69.9137 394.133 71.8192Z" fill="white"/>
<path d="M396.355 31.9606C393.752 35.0652 394.155 39.6921 397.269 42.3029C398.736 43.532 400.539 44.0889 402.318 44.0053L404.265 45.8302C404.529 46.0759 404.952 45.9703 405.063 45.6278L406.001 42.8199C406.665 42.3878 407.273 41.8331 407.784 41.1728C410.114 38.1742 409.705 33.7348 406.871 31.2086C403.765 28.4284 399.011 28.7919 396.355 31.9606ZM404.878 36.5839L401.162 41.0171C400.94 41.2828 400.542 41.3178 400.276 41.0951C400.01 40.8723 399.975 40.4744 400.198 40.2087L403.914 35.7755C404.137 35.5098 404.535 35.4748 404.801 35.6975C405.066 35.9203 405.101 36.3182 404.878 36.5839ZM404.231 33.0086L399.022 39.2229C398.799 39.4886 398.401 39.5236 398.136 39.3009C397.87 39.0781 397.835 38.6802 398.058 38.4145L403.267 32.2002C403.49 31.9345 403.888 31.8995 404.153 32.1222C404.419 32.3449 404.45 32.7478 404.231 33.0086Z" fill="white"/>
<path d="M392.507 63.4354L393.237 62.5645L371.602 44.4288L370.872 45.2997C369.92 46.4363 369.516 47.8572 369.636 49.223C369.757 50.5978 370.403 51.9265 371.539 52.8792L391.176 69.3404C390.667 67.3389 391.084 65.1329 392.507 63.4354Z" fill="white"/>
<path d="M407.065 43.6106L406.256 46.0243C406.188 46.2353 406.086 46.4266 405.946 46.5939C405.641 46.958 405.191 47.1844 404.711 47.2084C404.234 47.2366 403.764 47.0684 403.416 46.7435L401.841 45.2642C399.883 45.2313 397.994 44.5271 396.479 43.2567C392.847 40.2128 392.365 34.7818 395.405 31.1555L395.409 31.1506L392.088 28.3665C389.81 26.4568 386.418 26.7552 384.508 29.0333L372.407 43.4694L394.046 61.6092L409.596 43.0598L408.567 42.1978L408.563 42.2027C408.114 42.739 407.612 43.207 407.065 43.6106ZM396.839 51.761L393.156 56.1548C392.929 56.4254 392.535 56.4555 392.27 56.2328C392.004 56.0101 391.965 55.617 392.192 55.3464L395.875 50.9526C396.098 50.6869 396.496 50.6519 396.761 50.8746C397.027 51.0974 397.062 51.4953 396.839 51.761ZM397.445 45.9517L390.652 54.0554C390.425 54.326 390.036 54.3602 389.765 54.1334C389.5 53.9107 389.46 53.5176 389.687 53.247L396.48 45.1433C396.703 44.8776 397.101 44.8426 397.367 45.0653C397.637 45.2922 397.668 45.686 397.445 45.9517ZM394.945 43.8565L388.152 51.9601C387.925 52.2307 387.531 52.2608 387.266 52.0381C387 51.8154 386.961 51.4223 387.188 51.1517L393.981 43.048C394.204 42.7823 394.602 42.7473 394.867 42.9701C395.133 43.1928 395.168 43.5908 394.945 43.8565ZM392.436 41.7529L385.643 49.8566C385.416 50.1272 385.022 50.1573 384.756 49.9346C384.491 49.7118 384.452 49.3188 384.678 49.0482L391.472 40.9445C391.694 40.6788 392.092 40.6438 392.358 40.8665C392.629 41.0934 392.659 41.4872 392.436 41.7529Z" fill="white"/>
</g>
</g>
</g>
<g filter="url(#filter5_dddiiii_1469_10049)">
<g clip-path="url(#clip5_1469_10049)">
<path d="M368.278 355.576C361.941 349.898 358.772 347.058 357.457 343.656C356.3 340.663 356.121 337.381 356.944 334.28C357.88 330.755 360.719 327.586 366.398 321.249L377.214 309.181C382.893 302.844 385.732 299.676 389.134 298.361C392.127 297.204 395.409 297.024 398.51 297.847C402.036 298.783 405.204 301.622 411.541 307.301L423.61 318.117C429.946 323.796 433.115 326.635 434.43 330.038C435.587 333.03 435.766 336.312 434.943 339.414C434.007 342.939 431.168 346.107 425.489 352.444L414.673 364.513C408.994 370.85 406.155 374.018 402.753 375.333C399.76 376.49 396.478 376.67 393.377 375.846C389.851 374.911 386.683 372.071 380.346 366.392L368.278 355.576Z" fill="url(#paint2_linear_1469_10049)" fill-opacity="0.81"/>
<g clip-path="url(#clip6_1469_10049)" filter="url(#filter6_dd_1469_10049)">
<path fill-rule="evenodd" clip-rule="evenodd" d="M378.001 331.381C377.286 331.225 377.514 330.134 378.233 330.283L383.076 331.3C383.791 331.456 383.563 332.547 382.844 332.398L378.001 331.381ZM383.41 328.605L381.344 326.754C380.793 326.264 380.045 327.099 380.592 327.593L382.658 329.445C383.21 329.935 383.957 329.099 383.41 328.605ZM379.42 336.398L382.178 334.598C382.792 334.191 382.179 333.257 381.562 333.655L378.804 335.455C378.189 335.863 378.803 336.799 379.42 336.398ZM404.767 348.975C406.023 348.52 406.368 346.748 405.336 345.871C404.352 344.939 402.628 345.478 402.313 346.776C402.116 347.227 402.486 347.745 402.167 348.142C401.962 348.371 401.604 348.394 401.37 348.185L397.631 344.832L395.092 347.665C397.217 348.134 398.098 350.939 396.593 352.536C395.175 354.203 392.284 353.639 391.587 351.576L389.048 354.41L397.165 361.685C397.567 362.045 398.08 362.208 398.581 362.182C399.082 362.154 399.574 361.935 399.934 361.533L407.209 353.416L403.47 350.065C403.237 349.856 403.22 349.498 403.427 349.268C403.785 348.908 404.34 349.22 404.767 348.975ZM392.356 349.875C392.717 350.235 392.405 350.79 392.65 351.217C393.105 352.473 394.875 352.82 395.753 351.785C396.683 350.801 396.149 349.078 394.849 348.762C394.397 348.565 393.879 348.935 393.482 348.616C393.252 348.41 393.23 348.053 393.439 347.819L396.79 344.08L393.957 341.542C393.487 343.669 390.68 344.546 389.086 343.042C387.414 341.62 387.982 338.736 390.046 338.037L387.213 335.498L379.939 343.614C379.579 344.016 379.416 344.529 379.443 345.031C379.471 345.533 379.69 346.024 380.092 346.385L388.209 353.659L391.56 349.92C391.768 349.686 392.126 349.669 392.356 349.875ZM402.82 338.199C402.459 337.839 402.77 337.286 402.526 336.857C402.269 336.136 401.446 335.609 400.697 335.676C398.628 335.79 398.312 338.773 400.326 339.311C400.839 339.519 401.675 339.011 401.864 339.756C401.904 339.939 401.85 340.12 401.734 340.252L398.383 343.993L401.216 346.532C401.489 345.283 402.738 344.283 403.987 344.276C407.321 344.14 408.276 348.882 405.127 350.037L407.961 352.577L415.236 344.459C415.596 344.057 415.759 343.544 415.732 343.042C415.704 342.54 415.486 342.048 415.084 341.688L406.967 334.415L403.615 338.155C403.408 338.387 403.051 338.406 402.82 338.199ZM389.527 317.019C388.989 317.049 388.512 317.296 388.176 317.67C387.841 318.045 387.646 318.547 387.677 319.084L388.271 329.968L393.285 329.694C393.596 329.677 393.862 329.915 393.878 330.226C393.879 330.736 393.267 330.907 393.138 331.384C392.569 332.59 393.584 334.088 394.931 333.98C396.283 333.939 397.127 332.345 396.429 331.204C396.281 330.948 396.072 330.732 395.825 330.574C395.366 330.301 395.577 329.549 396.099 329.542L401.112 329.265L400.905 325.467C399.052 326.647 396.425 325.252 396.399 323.035C396.256 320.867 398.682 319.269 400.617 320.222L400.41 316.423L389.527 317.019Z" fill="white"/>
</g>
</g>
</g>
<g filter="url(#filter7_diiii_1469_10049)">
<g clip-path="url(#clip7_1469_10049)">
<path d="M-0.398419 410.809C6.76563 404.057 10.3476 400.681 14.3981 399.496C17.9609 398.454 21.7622 398.566 25.2573 399.817C29.2305 401.239 32.6068 404.821 39.3592 411.985L52.2197 425.63C58.9721 432.794 62.3484 436.376 63.5332 440.426C64.5755 443.989 64.463 447.79 63.212 451.285C61.7898 455.259 58.2078 458.635 51.0438 465.387L37.3993 478.248C30.2352 485 26.6532 488.376 22.6028 489.561C19.0399 490.604 15.2386 490.491 11.7436 489.24C7.77029 487.818 4.39408 484.236 -2.35834 477.072L-15.2189 463.427C-21.9713 456.263 -25.3475 452.681 -26.5324 448.631C-27.5746 445.068 -27.4622 441.267 -26.2112 437.772C-24.789 433.798 -21.207 430.422 -14.0429 423.67L-0.398419 410.809Z" fill="url(#paint3_linear_1469_10049)" fill-opacity="0.75"/>
<g clip-path="url(#clip8_1469_10049)" filter="url(#filter8_ddi_1469_10049)">
<path d="M37.2521 436.144C37.3951 435.728 37.5366 435.305 37.6734 434.869L39.5563 436.129C39.4184 436.43 39.288 436.705 39.1669 436.954C39.0619 437.175 38.95 437.399 38.838 437.627L37.2487 436.143L37.2521 436.144ZM17.3962 422.628L26.3544 426.667L19.2919 420.07C18.9518 420.549 18.6261 420.997 18.3113 421.423C18.0036 421.838 17.698 422.241 17.3962 422.628ZM35.1149 441.357C34.0239 443.632 32.8654 445.604 31.6631 447.572L35.3776 446.254C37.0949 444.444 38.7914 442.65 40.6087 439.981L37.0667 436.671C36.4504 438.396 35.7971 439.932 35.1167 441.355L35.1149 441.357ZM14.5835 421.358L16.9139 422.41C17.1505 422.105 17.3906 421.793 17.631 421.471L15.3069 419.918C15.1876 420.162 15.0667 420.405 14.9458 420.648C14.825 420.887 14.7059 421.124 14.5835 421.358ZM31.1385 448.307L22.1428 451.499C22.1171 451.507 22.0982 451.515 22.0827 451.523C22.0689 451.529 22.0499 451.541 22.0274 451.555L17.687 454.403C19.2391 454.332 22.2365 454.188 22.9394 454.129C22.9632 454.126 22.9837 454.123 23.0059 454.119C23.0281 454.115 23.0486 454.108 23.0709 454.101L28.3004 452.245L28.3056 452.244L37.0406 449.142L36.1176 446.539L31.1557 448.301C31.1488 448.304 31.1419 448.307 31.1351 448.307L31.1385 448.307ZM50.0877 443.799C50.2884 443.729 50.442 443.588 50.5302 443.415C50.6149 443.25 50.636 443.055 50.5717 442.875C50.5074 442.695 50.3706 442.557 50.1997 442.48C50.0254 442.404 49.8152 442.391 49.6145 442.461L48.6555 442.801L49.1303 444.138L50.0894 443.798L50.0877 443.799ZM38.2897 448.7L37.3667 446.097L36.6084 446.367L37.5313 448.969L38.2897 448.7ZM24.6679 459.293C23.5589 461.888 22.4817 464.902 21.4573 468.592L15.7879 466.034C15.7762 466.028 15.7645 466.023 15.7527 466.017L5.18465 461.25C5.17632 461.245 5.16625 461.241 5.15617 461.237L-5.124 456.601C-2.26911 446.928 0.665332 442.075 3.52131 437.354C4.02646 436.519 4.52991 435.685 5.03055 434.83C5.03404 434.827 5.03414 434.823 5.03763 434.82C7.20118 431.125 9.30216 427.021 11.2695 420.424L14.1159 421.709C14.1209 421.711 14.1242 421.714 14.1276 421.714L16.8652 422.95C16.8769 422.955 16.8886 422.961 16.9003 422.966L27.5455 427.766C27.5538 427.771 27.5623 427.773 27.5724 427.777L37.8576 432.416C37.6713 433.089 37.4841 433.737 37.2891 434.36C37.2836 434.375 37.2781 434.387 37.276 434.402C37.094 434.986 36.9077 435.547 36.7184 436.092C36.7076 436.112 36.7001 436.135 36.696 436.159C36.0506 438.004 35.3658 439.632 34.6475 441.13C33.4715 443.581 32.2053 445.695 30.8872 447.844L21.9687 451.01C21.931 451.022 21.8932 451.038 21.8535 451.059C21.8122 451.078 21.7759 451.099 21.7447 451.122L16.6182 454.486C16.5455 454.535 16.4989 454.618 16.5012 454.712C16.5072 454.855 16.6262 454.963 16.769 454.958C16.7843 454.956 22.0287 454.719 22.9801 454.64C23.0278 454.635 23.0721 454.63 23.1131 454.621C23.1559 454.61 23.1986 454.599 23.2432 454.584L27.8208 452.96C26.7515 454.845 25.6945 456.887 24.6658 459.291L24.6679 459.293ZM13.902 428.144L31.6458 436.147C31.8284 436.229 32.0396 436.149 32.123 435.968C32.2048 435.785 32.1245 435.574 31.9436 435.491L14.1998 427.487C14.0189 427.404 13.806 427.486 13.7225 427.667C13.6407 427.85 13.7211 428.061 13.902 428.144ZM12.8085 432.337L30.5523 440.341C30.7349 440.423 30.9461 440.342 31.0296 440.161C31.113 439.98 31.031 439.767 30.8502 439.684L13.1064 431.681C12.9255 431.597 12.7125 431.679 12.6291 431.86C12.5457 432.041 12.6276 432.254 12.8085 432.337ZM10.5101 436.117L28.2539 444.12C28.4365 444.202 28.6477 444.121 28.7312 443.94C28.8146 443.759 28.7326 443.547 28.5517 443.463L10.8079 435.46C10.6253 435.378 10.4141 435.458 10.3307 435.639C10.2489 435.822 10.3292 436.033 10.5101 436.117ZM7.91238 439.739L25.6562 447.742C25.8388 447.824 26.05 447.744 26.1334 447.563C26.2152 447.38 26.1349 447.169 25.954 447.086L8.21023 439.082C8.02935 438.999 7.81641 439.081 7.73296 439.262C7.65116 439.444 7.7315 439.656 7.91238 439.739ZM15.9392 454.427C16.0227 454.246 15.9407 454.033 15.7598 453.95L3.49102 448.418C3.31014 448.334 3.09719 448.416 3.01375 448.597C2.93195 448.78 3.01228 448.991 3.19317 449.074L15.4619 454.607C15.6446 454.688 15.8558 454.608 15.9392 454.427ZM20.6206 450.787C20.7024 450.604 20.622 450.393 20.4411 450.309L5.69959 443.661C5.5187 443.578 5.30576 443.66 5.22232 443.841C5.14052 444.023 5.22085 444.235 5.40174 444.318L20.1433 450.966C20.3259 451.048 20.5371 450.967 20.6206 450.787ZM18.117 467.647L15.7514 466.579C15.518 466.895 15.2897 467.209 15.0631 467.521L17.4238 469.099C17.5362 468.858 17.6504 468.615 17.7679 468.372C17.8837 468.131 18.0012 467.888 18.1188 467.646L18.117 467.647ZM14.3783 467.6L14.4811 467.453L14.4847 467.447C14.4883 467.44 14.4935 467.435 14.4971 467.428C14.7645 467.054 15.0212 466.7 15.2688 466.364L6.37919 462.356L13.4383 468.95C13.7666 468.469 14.0789 468.02 14.3783 467.6ZM3.08282 437.088C3.31672 436.7 3.55227 436.313 3.78615 435.924C2.26463 437.256 0.693509 438.717 -0.985963 440.505C-3.07529 442.724 -5.33059 445.447 -7.86991 449.041L-5.98823 450.799L-5.97835 450.81L-4.31146 452.368C-1.85507 445.251 0.642385 441.123 3.08047 437.09L3.08282 437.088ZM-6.08435 451.414C-6.1944 451.634 -6.30793 451.856 -6.41991 452.084C-6.54986 452.345 -6.68351 452.616 -6.81911 452.895L-4.91125 454.17C-4.77279 453.737 -4.63121 453.313 -4.49337 452.899L-6.08601 451.413L-6.08435 451.414ZM48.4384 445.09C48.5502 445.041 48.6409 444.962 48.6914 444.862C48.7455 444.755 48.7593 444.633 48.7185 444.519L48.0963 442.768C48.0539 442.653 47.9682 442.565 47.8609 442.518C47.7486 442.469 47.613 442.461 47.481 442.507L37.8522 445.923L38.7752 448.526L47.7657 445.335C47.8544 445.895 47.5046 446.472 46.9143 446.682L38.4213 449.697C38.236 449.763 38.1383 449.967 38.2041 450.152C38.2213 450.202 38.2473 450.244 38.2802 450.279C38.374 450.378 38.5222 450.42 38.6595 450.37L47.1525 447.354C48.1202 447.009 48.6587 446.024 48.4368 445.088L48.4384 445.09Z" fill="white"/>
</g>
</g>
</g>
<g filter="url(#filter9_dddiiii_1469_10049)">
<g clip-path="url(#clip9_1469_10049)">
<path d="M192.923 539.394C189.332 532.117 187.537 528.479 187.582 525.001C187.621 521.942 188.628 518.973 190.458 516.521C192.539 513.734 196.177 511.938 203.454 508.348L217.313 501.509C224.589 497.919 228.228 496.124 231.706 496.168C234.765 496.208 237.733 497.215 240.185 499.045C242.973 501.125 244.768 504.764 248.359 512.04L255.197 525.899C258.788 533.176 260.583 536.814 260.538 540.292C260.499 543.352 259.492 546.32 257.662 548.772C255.581 551.56 251.943 553.355 244.666 556.945L230.807 563.784C223.531 567.374 219.892 569.17 216.414 569.125C213.355 569.086 210.386 568.079 207.934 566.249C205.147 564.168 203.352 560.53 199.761 553.253L192.923 539.394Z" fill="url(#paint4_linear_1469_10049)"/>
<g clip-path="url(#clip10_1469_10049)" filter="url(#filter10_ddi_1469_10049)">
<path fill-rule="evenodd" clip-rule="evenodd" d="M214.483 528.078C218.041 526.322 222.355 527.785 224.11 531.343C225.866 534.901 224.403 539.215 220.845 540.97C217.287 542.726 212.973 541.263 211.218 537.705C209.462 534.147 210.925 529.833 214.483 528.078ZM226.993 537.449C229.976 537.488 232.83 539.161 234.241 542.02L234.242 542.023C234.897 543.35 234.997 544.881 234.522 546.282C234.047 547.682 233.036 548.836 231.709 549.491L220.999 554.776C219.672 555.43 218.14 555.531 216.74 555.056C215.34 554.581 214.185 553.569 213.531 552.243L213.529 552.24C212.119 549.382 212.528 546.099 214.311 543.707C216.733 544.591 219.498 544.522 221.992 543.292C224.484 542.062 226.222 539.909 226.994 537.448L226.993 537.449ZM225.07 527.33C223.242 527.843 221.248 526.998 220.377 525.233L217.959 520.334C216.976 518.341 217.796 515.924 219.789 514.941L228.791 510.499C230.784 509.515 233.201 510.335 234.184 512.328L236.602 517.227C237.585 519.22 236.765 521.637 234.772 522.621L230.441 524.758L228.933 530.126C228.789 530.645 228.336 531.02 227.8 531.066C227.264 531.114 226.754 530.824 226.52 530.338L225.07 527.33Z" fill="#282828"/>
</g>
</g>
</g>
</g>
<rect x="7" y="7" width="406" height="546" rx="11" stroke="url(#paint5_linear_1469_10049)" stroke-width="2"/>
</g>
<defs>
<filter id="filter0_di_1469_10049" x="0" y="0" width="432" height="572" filterUnits="userSpaceOnUse" color-interpolation-filters="sRGB">
<feFlood flood-opacity="0" result="BackgroundImageFix"/>
<feColorMatrix in="SourceAlpha" type="matrix" values="0 0 0 0 0 0 0 0 0 0 0 0 0 0 0 0 0 0 127 0" result="hardAlpha"/>
<feOffset dx="6" dy="6"/>
<feGaussianBlur stdDeviation="6"/>
<feComposite in2="hardAlpha" operator="out"/>
<feColorMatrix type="matrix" values="0 0 0 0 0 0 0 0 0 0 0 0 0 0 0 0 0 0 0.08 0"/>
<feBlend mode="normal" in2="BackgroundImageFix" result="effect1_dropShadow_1469_10049"/>
<feBlend mode="normal" in="SourceGraphic" in2="effect1_dropShadow_1469_10049" result="shape"/>
<feColorMatrix in="SourceAlpha" type="matrix" values="0 0 0 0 0 0 0 0 0 0 0 0 0 0 0 0 0 0 127 0" result="hardAlpha"/>
<feOffset dx="10" dy="10"/>
<feGaussianBlur stdDeviation="20"/>
<feComposite in2="hardAlpha" operator="arithmetic" k2="-1" k3="1"/>
<feColorMatrix type="matrix" values="0 0 0 0 0 0 0 0 0 0 0 0 0 0 0 0 0 0 0.06 0"/>
<feBlend mode="normal" in2="shape" result="effect2_innerShadow_1469_10049"/>
</filter>
<filter id="filter1_diiiii_1469_10049" x="-31.0469" y="158.953" width="203.157" height="203.157" filterUnits="userSpaceOnUse" color-interpolation-filters="sRGB">
<feFlood flood-opacity="0" result="BackgroundImageFix"/>
<feColorMatrix in="SourceAlpha" type="matrix" values="0 0 0 0 0 0 0 0 0 0 0 0 0 0 0 0 0 0 127 0" result="hardAlpha"/>
<feOffset dx="46.8753" dy="46.8753"/>
<feGaussianBlur stdDeviation="23.4376"/>
<feColorMatrix type="matrix" values="0 0 0 0 0.203922 0 0 0 0 0.913725 0 0 0 0 0.486275 0 0 0 0.1 0"/>
<feBlend mode="normal" in2="BackgroundImageFix" result="effect1_dropShadow_1469_10049"/>
<feBlend mode="normal" in="SourceGraphic" in2="effect1_dropShadow_1469_10049" result="shape"/>
<feColorMatrix in="SourceAlpha" type="matrix" values="0 0 0 0 0 0 0 0 0 0 0 0 0 0 0 0 0 0 127 0" result="hardAlpha"/>
<feOffset dy="4.68753"/>
<feGaussianBlur stdDeviation="2.34376"/>
<feComposite in2="hardAlpha" operator="arithmetic" k2="-1" k3="1"/>
<feColorMatrix type="matrix" values="0 0 0 0 1 0 0 0 0 1 0 0 0 0 1 0 0 0 0.6 0"/>
<feBlend mode="normal" in2="shape" result="effect2_innerShadow_1469_10049"/>
<feColorMatrix in="SourceAlpha" type="matrix" values="0 0 0 0 0 0 0 0 0 0 0 0 0 0 0 0 0 0 127 0" result="hardAlpha"/>
<feOffset dy="2.34376"/>
<feGaussianBlur stdDeviation="1.17188"/>
<feComposite in2="hardAlpha" operator="arithmetic" k2="-1" k3="1"/>
<feColorMatrix type="matrix" values="0 0 0 0 1 0 0 0 0 1 0 0 0 0 1 0 0 0 0.1 0"/>
<feBlend mode="normal" in2="effect2_innerShadow_1469_10049" result="effect3_innerShadow_1469_10049"/>
<feColorMatrix in="SourceAlpha" type="matrix" values="0 0 0 0 0 0 0 0 0 0 0 0 0 0 0 0 0 0 127 0" result="hardAlpha"/>
<feOffset dy="-4.68753"/>
<feGaussianBlur stdDeviation="2.34376"/>
<feComposite in2="hardAlpha" operator="arithmetic" k2="-1" k3="1"/>
<feColorMatrix type="matrix" values="0 0 0 0 0 0 0 0 0 0 0 0 0 0 0 0 0 0 0.05 0"/>
<feBlend mode="normal" in2="effect3_innerShadow_1469_10049" result="effect4_innerShadow_1469_10049"/>
<feColorMatrix in="SourceAlpha" type="matrix" values="0 0 0 0 0 0 0 0 0 0 0 0 0 0 0 0 0 0 127 0" result="hardAlpha"/>
<feOffset dx="4.68753"/>
<feGaussianBlur stdDeviation="2.34376"/>
<feComposite in2="hardAlpha" operator="arithmetic" k2="-1" k3="1"/>
<feColorMatrix type="matrix" values="0 0 0 0 0 0 0 0 0 0 0 0 0 0 0 0 0 0 0.02 0"/>
<feBlend mode="normal" in2="effect4_innerShadow_1469_10049" result="effect5_innerShadow_1469_10049"/>
<feColorMatrix in="SourceAlpha" type="matrix" values="0 0 0 0 0 0 0 0 0 0 0 0 0 0 0 0 0 0 127 0" result="hardAlpha"/>
<feOffset dx="-4.68753"/>
<feGaussianBlur stdDeviation="2.34376"/>
<feComposite in2="hardAlpha" operator="arithmetic" k2="-1" k3="1"/>
<feColorMatrix type="matrix" values="0 0 0 0 0 0 0 0 0 0 0 0 0 0 0 0 0 0 0.02 0"/>
<feBlend mode="normal" in2="effect5_innerShadow_1469_10049" result="effect6_innerShadow_1469_10049"/>
</filter>
<filter id="filter2_ddi_1469_10049" x="-36.7072" y="162.668" width="125.415" height="125.415" filterUnits="userSpaceOnUse" color-interpolation-filters="sRGB">
<feFlood flood-opacity="0" result="BackgroundImageFix"/>
<feColorMatrix in="SourceAlpha" type="matrix" values="0 0 0 0 0 0 0 0 0 0 0 0 0 0 0 0 0 0 127 0" result="hardAlpha"/>
<feOffset dy="9.37505"/>
<feGaussianBlur stdDeviation="11.7188"/>
<feColorMatrix type="matrix" values="0 0 0 0 0 0 0 0 0 0.529167 0 0 0 0 0.338997 0 0 0 0.5 0"/>
<feBlend mode="normal" in2="BackgroundImageFix" result="effect1_dropShadow_1469_10049"/>
<feColorMatrix in="SourceAlpha" type="matrix" values="0 0 0 0 0 0 0 0 0 0 0 0 0 0 0 0 0 0 127 0" result="hardAlpha"/>
<feOffset dy="4.68753"/>
<feGaussianBlur stdDeviation="7.03129"/>
<feColorMatrix type="matrix" values="0 0 0 0 0 0 0 0 0 0.529412 0 0 0 0 0.337255 0 0 0 0.3 0"/>
<feBlend mode="normal" in2="effect1_dropShadow_1469_10049" result="effect2_dropShadow_1469_10049"/>
<feBlend mode="normal" in="SourceGraphic" in2="effect2_dropShadow_1469_10049" result="shape"/>
<feColorMatrix in="SourceAlpha" type="matrix" values="0 0 0 0 0 0 0 0 0 0 0 0 0 0 0 0 0 0 127 0" result="hardAlpha"/>
<feOffset dx="-2.34376" dy="-2.34376"/>
<feGaussianBlur stdDeviation="1.17188"/>
<feComposite in2="hardAlpha" operator="arithmetic" k2="-1" k3="1"/>
<feColorMatrix type="matrix" values="0 0 0 0 0.4 0 0 0 0 1 0 0 0 0 0.784314 0 0 0 0.24 0"/>
<feBlend mode="normal" in2="shape" result="effect3_innerShadow_1469_10049"/>
</filter>
<filter id="filter3_dddiiii_1469_10049" x="347.195" y="2.19525" width="165.66" height="165.66" filterUnits="userSpaceOnUse" color-interpolation-filters="sRGB">
<feFlood flood-opacity="0" result="BackgroundImageFix"/>
<feColorMatrix in="SourceAlpha" type="matrix" values="0 0 0 0 0 0 0 0 0 0 0 0 0 0 0 0 0 0 127 0" result="hardAlpha"/>
<feOffset dx="38.0475" dy="38.0475"/>
<feGaussianBlur stdDeviation="19.0237"/>
<feColorMatrix type="matrix" values="0 0 0 0 0.960784 0 0 0 0 0.32549 0 0 0 0 0.32549 0 0 0 0.1 0"/>
<feBlend mode="normal" in2="BackgroundImageFix" result="effect1_dropShadow_1469_10049"/>
<feColorMatrix in="SourceAlpha" type="matrix" values="0 0 0 0 0 0 0 0 0 0 0 0 0 0 0 0 0 0 127 0" result="hardAlpha"/>
<feOffset dx="15.219" dy="15.219"/>
<feGaussianBlur stdDeviation="7.6095"/>
<feColorMatrix type="matrix" values="0 0 0 0 0.960784 0 0 0 0 0.32549 0 0 0 0 0.32549 0 0 0 0.1 0"/>
<feBlend mode="normal" in2="effect1_dropShadow_1469_10049" result="effect2_dropShadow_1469_10049"/>
<feColorMatrix in="SourceAlpha" type="matrix" values="0 0 0 0 0 0 0 0 0 0 0 0 0 0 0 0 0 0 127 0" result="hardAlpha"/>
<feOffset dx="7.6095" dy="7.6095"/>
<feGaussianBlur stdDeviation="3.80475"/>
<feColorMatrix type="matrix" values="0 0 0 0 0.960784 0 0 0 0 0.32549 0 0 0 0 0.32549 0 0 0 0.2 0"/>
<feBlend mode="normal" in2="effect2_dropShadow_1469_10049" result="effect3_dropShadow_1469_10049"/>
<feBlend mode="normal" in="SourceGraphic" in2="effect3_dropShadow_1469_10049" result="shape"/>
<feColorMatrix in="SourceAlpha" type="matrix" values="0 0 0 0 0 0 0 0 0 0 0 0 0 0 0 0 0 0 127 0" result="hardAlpha"/>
<feOffset dy="1.90237"/>
<feGaussianBlur stdDeviation="0.951187"/>
<feComposite in2="hardAlpha" operator="arithmetic" k2="-1" k3="1"/>
<feColorMatrix type="matrix" values="0 0 0 0 1 0 0 0 0 1 0 0 0 0 1 0 0 0 0.1 0"/>
<feBlend mode="normal" in2="shape" result="effect4_innerShadow_1469_10049"/>
<feColorMatrix in="SourceAlpha" type="matrix" values="0 0 0 0 0 0 0 0 0 0 0 0 0 0 0 0 0 0 127 0" result="hardAlpha"/>
<feOffset dy="-3.80475"/>
<feGaussianBlur stdDeviation="1.90237"/>
<feComposite in2="hardAlpha" operator="arithmetic" k2="-1" k3="1"/>
<feColorMatrix type="matrix" values="0 0 0 0 0 0 0 0 0 0 0 0 0 0 0 0 0 0 0.05 0"/>
<feBlend mode="normal" in2="effect4_innerShadow_1469_10049" result="effect5_innerShadow_1469_10049"/>
<feColorMatrix in="SourceAlpha" type="matrix" values="0 0 0 0 0 0 0 0 0 0 0 0 0 0 0 0 0 0 127 0" result="hardAlpha"/>
<feOffset dx="3.80475"/>
<feGaussianBlur stdDeviation="1.90237"/>
<feComposite in2="hardAlpha" operator="arithmetic" k2="-1" k3="1"/>
<feColorMatrix type="matrix" values="0 0 0 0 0 0 0 0 0 0 0 0 0 0 0 0 0 0 0.02 0"/>
<feBlend mode="normal" in2="effect5_innerShadow_1469_10049" result="effect6_innerShadow_1469_10049"/>
<feColorMatrix in="SourceAlpha" type="matrix" values="0 0 0 0 0 0 0 0 0 0 0 0 0 0 0 0 0 0 127 0" result="hardAlpha"/>
<feOffset dx="-3.80475"/>
<feGaussianBlur stdDeviation="1.90237"/>
<feComposite in2="hardAlpha" operator="arithmetic" k2="-1" k3="1"/>
<feColorMatrix type="matrix" values="0 0 0 0 0 0 0 0 0 0 0 0 0 0 0 0 0 0 0.02 0"/>
<feBlend mode="normal" in2="effect6_innerShadow_1469_10049" result="effect7_innerShadow_1469_10049"/>
</filter>
<filter id="filter4_dd_1469_10049" x="342.696" y="5.30588" width="102.368" height="102.368" filterUnits="userSpaceOnUse" color-interpolation-filters="sRGB">
<feFlood flood-opacity="0" result="BackgroundImageFix"/>
<feColorMatrix in="SourceAlpha" type="matrix" values="0 0 0 0 0 0 0 0 0 0 0 0 0 0 0 0 0 0 127 0" result="hardAlpha"/>
<feOffset dy="7.6095"/>
<feGaussianBlur stdDeviation="9.51187"/>
<feColorMatrix type="matrix" values="0 0 0 0 0.658333 0 0 0 0 0.0411459 0 0 0 0 0.0411459 0 0 0 0.5 0"/>
<feBlend mode="normal" in2="BackgroundImageFix" result="effect1_dropShadow_1469_10049"/>
<feColorMatrix in="SourceAlpha" type="matrix" values="0 0 0 0 0 0 0 0 0 0 0 0 0 0 0 0 0 0 127 0" result="hardAlpha"/>
<feOffset dy="3.80475"/>
<feGaussianBlur stdDeviation="5.70712"/>
<feColorMatrix type="matrix" values="0 0 0 0 0.658824 0 0 0 0 0.0392157 0 0 0 0 0.0392157 0 0 0 0.3 0"/>
<feBlend mode="normal" in2="effect1_dropShadow_1469_10049" result="effect2_dropShadow_1469_10049"/>
<feBlend mode="normal" in="SourceGraphic" in2="effect2_dropShadow_1469_10049" result="shape"/>
</filter>
<filter id="filter5_dddiiii_1469_10049" x="346.123" y="287.026" width="176.621" height="176.621" filterUnits="userSpaceOnUse" color-interpolation-filters="sRGB">
<feFlood flood-opacity="0" result="BackgroundImageFix"/>
<feColorMatrix in="SourceAlpha" type="matrix" values="0 0 0 0 0 0 0 0 0 0 0 0 0 0 0 0 0 0 127 0" result="hardAlpha"/>
<feOffset dx="40.5153" dy="40.5153"/>
<feGaussianBlur stdDeviation="20.2576"/>
<feColorMatrix type="matrix" values="0 0 0 0 0.87451 0 0 0 0 0.486275 0 0 0 0 0.937255 0 0 0 0.1 0"/>
<feBlend mode="normal" in2="BackgroundImageFix" result="effect1_dropShadow_1469_10049"/>
<feColorMatrix in="SourceAlpha" type="matrix" values="0 0 0 0 0 0 0 0 0 0 0 0 0 0 0 0 0 0 127 0" result="hardAlpha"/>
<feOffset dx="16.2061" dy="16.2061"/>
<feGaussianBlur stdDeviation="8.10306"/>
<feColorMatrix type="matrix" values="0 0 0 0 0.87451 0 0 0 0 0.486275 0 0 0 0 0.937255 0 0 0 0.1 0"/>
<feBlend mode="normal" in2="effect1_dropShadow_1469_10049" result="effect2_dropShadow_1469_10049"/>
<feColorMatrix in="SourceAlpha" type="matrix" values="0 0 0 0 0 0 0 0 0 0 0 0 0 0 0 0 0 0 127 0" result="hardAlpha"/>
<feOffset dx="8.10306" dy="8.10306"/>
<feGaussianBlur stdDeviation="4.05153"/>
<feColorMatrix type="matrix" values="0 0 0 0 0.87451 0 0 0 0 0.486275 0 0 0 0 0.937255 0 0 0 0.2 0"/>
<feBlend mode="normal" in2="effect2_dropShadow_1469_10049" result="effect3_dropShadow_1469_10049"/>
<feBlend mode="normal" in="SourceGraphic" in2="effect3_dropShadow_1469_10049" result="shape"/>
<feColorMatrix in="SourceAlpha" type="matrix" values="0 0 0 0 0 0 0 0 0 0 0 0 0 0 0 0 0 0 127 0" result="hardAlpha"/>
<feOffset dy="2.02576"/>
<feGaussianBlur stdDeviation="1.01288"/>
<feComposite in2="hardAlpha" operator="arithmetic" k2="-1" k3="1"/>
<feColorMatrix type="matrix" values="0 0 0 0 1 0 0 0 0 1 0 0 0 0 1 0 0 0 0.1 0"/>
<feBlend mode="normal" in2="shape" result="effect4_innerShadow_1469_10049"/>
<feColorMatrix in="SourceAlpha" type="matrix" values="0 0 0 0 0 0 0 0 0 0 0 0 0 0 0 0 0 0 127 0" result="hardAlpha"/>
<feOffset dy="-4.05153"/>
<feGaussianBlur stdDeviation="2.02576"/>
<feComposite in2="hardAlpha" operator="arithmetic" k2="-1" k3="1"/>
<feColorMatrix type="matrix" values="0 0 0 0 0 0 0 0 0 0 0 0 0 0 0 0 0 0 0.05 0"/>
<feBlend mode="normal" in2="effect4_innerShadow_1469_10049" result="effect5_innerShadow_1469_10049"/>
<feColorMatrix in="SourceAlpha" type="matrix" values="0 0 0 0 0 0 0 0 0 0 0 0 0 0 0 0 0 0 127 0" result="hardAlpha"/>
<feOffset dx="4.05153"/>
<feGaussianBlur stdDeviation="2.02576"/>
<feComposite in2="hardAlpha" operator="arithmetic" k2="-1" k3="1"/>
<feColorMatrix type="matrix" values="0 0 0 0 0 0 0 0 0 0 0 0 0 0 0 0 0 0 0.02 0"/>
<feBlend mode="normal" in2="effect5_innerShadow_1469_10049" result="effect6_innerShadow_1469_10049"/>
<feColorMatrix in="SourceAlpha" type="matrix" values="0 0 0 0 0 0 0 0 0 0 0 0 0 0 0 0 0 0 127 0" result="hardAlpha"/>
<feOffset dx="-4.05153"/>
<feGaussianBlur stdDeviation="2.02576"/>
<feComposite in2="hardAlpha" operator="arithmetic" k2="-1" k3="1"/>
<feColorMatrix type="matrix" values="0 0 0 0 0 0 0 0 0 0 0 0 0 0 0 0 0 0 0.02 0"/>
<feBlend mode="normal" in2="effect6_innerShadow_1469_10049" result="effect7_innerShadow_1469_10049"/>
</filter>
<filter id="filter6_dd_1469_10049" x="341.378" y="290.382" width="109.169" height="109.169" filterUnits="userSpaceOnUse" color-interpolation-filters="sRGB">
<feFlood flood-opacity="0" result="BackgroundImageFix"/>
<feColorMatrix in="SourceAlpha" type="matrix" values="0 0 0 0 0 0 0 0 0 0 0 0 0 0 0 0 0 0 127 0" result="hardAlpha"/>
<feOffset dy="8.10306"/>
<feGaussianBlur stdDeviation="10.1288"/>
<feColorMatrix type="matrix" values="0 0 0 0 1 0 0 0 0 1 0 0 0 0 1 0 0 0 0.5 0"/>
<feBlend mode="normal" in2="BackgroundImageFix" result="effect1_dropShadow_1469_10049"/>
<feColorMatrix in="SourceAlpha" type="matrix" values="0 0 0 0 0 0 0 0 0 0 0 0 0 0 0 0 0 0 127 0" result="hardAlpha"/>
<feOffset dy="4.05153"/>
<feGaussianBlur stdDeviation="6.07729"/>
<feColorMatrix type="matrix" values="0 0 0 0 1 0 0 0 0 1 0 0 0 0 1 0 0 0 0.3 0"/>
<feBlend mode="normal" in2="effect1_dropShadow_1469_10049" result="effect2_dropShadow_1469_10049"/>
<feBlend mode="normal" in="SourceGraphic" in2="effect2_dropShadow_1469_10049" result="shape"/>
</filter>
<filter id="filter7_diiii_1469_10049" x="-39.1973" y="386.831" width="204.459" height="204.458" filterUnits="userSpaceOnUse" color-interpolation-filters="sRGB">
<feFlood flood-opacity="0" result="BackgroundImageFix"/>
<feColorMatrix in="SourceAlpha" type="matrix" values="0 0 0 0 0 0 0 0 0 0 0 0 0 0 0 0 0 0 127 0" result="hardAlpha"/>
<feOffset dx="46.8753" dy="46.8753"/>
<feGaussianBlur stdDeviation="23.4376"/>
<feColorMatrix type="matrix" values="0 0 0 0 1 0 0 0 0 0.662745 0 0 0 0 0.270588 0 0 0 0.1 0"/>
<feBlend mode="normal" in2="BackgroundImageFix" result="effect1_dropShadow_1469_10049"/>
<feBlend mode="normal" in="SourceGraphic" in2="effect1_dropShadow_1469_10049" result="shape"/>
<feColorMatrix in="SourceAlpha" type="matrix" values="0 0 0 0 0 0 0 0 0 0 0 0 0 0 0 0 0 0 127 0" result="hardAlpha"/>
<feOffset dy="2.34376"/>
<feGaussianBlur stdDeviation="1.17188"/>
<feComposite in2="hardAlpha" operator="arithmetic" k2="-1" k3="1"/>
<feColorMatrix type="matrix" values="0 0 0 0 1 0 0 0 0 1 0 0 0 0 1 0 0 0 0.1 0"/>
<feBlend mode="normal" in2="shape" result="effect2_innerShadow_1469_10049"/>
<feColorMatrix in="SourceAlpha" type="matrix" values="0 0 0 0 0 0 0 0 0 0 0 0 0 0 0 0 0 0 127 0" result="hardAlpha"/>
<feOffset dy="-4.68753"/>
<feGaussianBlur stdDeviation="2.34376"/>
<feComposite in2="hardAlpha" operator="arithmetic" k2="-1" k3="1"/>
<feColorMatrix type="matrix" values="0 0 0 0 0 0 0 0 0 0 0 0 0 0 0 0 0 0 0.05 0"/>
<feBlend mode="normal" in2="effect2_innerShadow_1469_10049" result="effect3_innerShadow_1469_10049"/>
<feColorMatrix in="SourceAlpha" type="matrix" values="0 0 0 0 0 0 0 0 0 0 0 0 0 0 0 0 0 0 127 0" result="hardAlpha"/>
<feOffset dx="4.68753"/>
<feGaussianBlur stdDeviation="2.34376"/>
<feComposite in2="hardAlpha" operator="arithmetic" k2="-1" k3="1"/>
<feColorMatrix type="matrix" values="0 0 0 0 0 0 0 0 0 0 0 0 0 0 0 0 0 0 0.02 0"/>
<feBlend mode="normal" in2="effect3_innerShadow_1469_10049" result="effect4_innerShadow_1469_10049"/>
<feColorMatrix in="SourceAlpha" type="matrix" values="0 0 0 0 0 0 0 0 0 0 0 0 0 0 0 0 0 0 127 0" result="hardAlpha"/>
<feOffset dx="-4.68753"/>
<feGaussianBlur stdDeviation="2.34376"/>
<feComposite in2="hardAlpha" operator="arithmetic" k2="-1" k3="1"/>
<feColorMatrix type="matrix" values="0 0 0 0 0 0 0 0 0 0 0 0 0 0 0 0 0 0 0.02 0"/>
<feBlend mode="normal" in2="effect4_innerShadow_1469_10049" result="effect5_innerShadow_1469_10049"/>
</filter>
<filter id="filter8_ddi_1469_10049" x="-44.695" y="390.708" width="126.39" height="126.39" filterUnits="userSpaceOnUse" color-interpolation-filters="sRGB">
<feFlood flood-opacity="0" result="BackgroundImageFix"/>
<feColorMatrix in="SourceAlpha" type="matrix" values="0 0 0 0 0 0 0 0 0 0 0 0 0 0 0 0 0 0 127 0" result="hardAlpha"/>
<feOffset dy="9.37505"/>
<feGaussianBlur stdDeviation="11.7188"/>
<feColorMatrix type="matrix" values="0 0 0 0 0.792157 0 0 0 0 0.439216 0 0 0 0 0.0313726 0 0 0 0.5 0"/>
<feBlend mode="normal" in2="BackgroundImageFix" result="effect1_dropShadow_1469_10049"/>
<feColorMatrix in="SourceAlpha" type="matrix" values="0 0 0 0 0 0 0 0 0 0 0 0 0 0 0 0 0 0 127 0" result="hardAlpha"/>
<feOffset dy="4.68753"/>
<feGaussianBlur stdDeviation="7.03129"/>
<feColorMatrix type="matrix" values="0 0 0 0 0.791667 0 0 0 0 0.440879 0 0 0 0 0.0329861 0 0 0 0.3 0"/>
<feBlend mode="normal" in2="effect1_dropShadow_1469_10049" result="effect2_dropShadow_1469_10049"/>
<feBlend mode="normal" in="SourceGraphic" in2="effect2_dropShadow_1469_10049" result="shape"/>
<feColorMatrix in="SourceAlpha" type="matrix" values="0 0 0 0 0 0 0 0 0 0 0 0 0 0 0 0 0 0 127 0" result="hardAlpha"/>
<feOffset dx="-1.17188" dy="-1.17188"/>
<feGaussianBlur stdDeviation="0.585941"/>
<feComposite in2="hardAlpha" operator="arithmetic" k2="-1" k3="1"/>
<feColorMatrix type="matrix" values="0 0 0 0 1 0 0 0 0 0.662745 0 0 0 0 0.270588 0 0 0 0.24 0"/>
<feBlend mode="normal" in2="shape" result="effect3_innerShadow_1469_10049"/>
</filter>
<filter id="filter9_dddiiii_1469_10049" x="178.801" y="487.388" width="163.925" height="163.925" filterUnits="userSpaceOnUse" color-interpolation-filters="sRGB">
<feFlood flood-opacity="0" result="BackgroundImageFix"/>
<feColorMatrix in="SourceAlpha" type="matrix" values="0 0 0 0 0 0 0 0 0 0 0 0 0 0 0 0 0 0 127 0" result="hardAlpha"/>
<feOffset dx="38.6358" dy="38.6358"/>
<feGaussianBlur stdDeviation="19.3179"/>
<feColorMatrix type="matrix" values="0 0 0 0 0.458824 0 0 0 0 0.458824 0 0 0 0 0.458824 0 0 0 0.1 0"/>
<feBlend mode="normal" in2="BackgroundImageFix" result="effect1_dropShadow_1469_10049"/>
<feColorMatrix in="SourceAlpha" type="matrix" values="0 0 0 0 0 0 0 0 0 0 0 0 0 0 0 0 0 0 127 0" result="hardAlpha"/>
<feOffset dx="15.4543" dy="15.4543"/>
<feGaussianBlur stdDeviation="7.72717"/>
<feColorMatrix type="matrix" values="0 0 0 0 0.458824 0 0 0 0 0.458824 0 0 0 0 0.458824 0 0 0 0.1 0"/>
<feBlend mode="normal" in2="effect1_dropShadow_1469_10049" result="effect2_dropShadow_1469_10049"/>
<feColorMatrix in="SourceAlpha" type="matrix" values="0 0 0 0 0 0 0 0 0 0 0 0 0 0 0 0 0 0 127 0" result="hardAlpha"/>
<feOffset dx="7.72717" dy="7.72717"/>
<feGaussianBlur stdDeviation="3.86358"/>
<feColorMatrix type="matrix" values="0 0 0 0 0.458333 0 0 0 0 0.458333 0 0 0 0 0.458333 0 0 0 0.2 0"/>
<feBlend mode="normal" in2="effect2_dropShadow_1469_10049" result="effect3_dropShadow_1469_10049"/>
<feBlend mode="normal" in="SourceGraphic" in2="effect3_dropShadow_1469_10049" result="shape"/>
<feColorMatrix in="SourceAlpha" type="matrix" values="0 0 0 0 0 0 0 0 0 0 0 0 0 0 0 0 0 0 127 0" result="hardAlpha"/>
<feOffset dy="1.93179"/>
<feGaussianBlur stdDeviation="0.965896"/>
<feComposite in2="hardAlpha" operator="arithmetic" k2="-1" k3="1"/>
<feColorMatrix type="matrix" values="0 0 0 0 1 0 0 0 0 1 0 0 0 0 1 0 0 0 0.1 0"/>
<feBlend mode="normal" in2="shape" result="effect4_innerShadow_1469_10049"/>
<feColorMatrix in="SourceAlpha" type="matrix" values="0 0 0 0 0 0 0 0 0 0 0 0 0 0 0 0 0 0 127 0" result="hardAlpha"/>
<feOffset dy="-3.86358"/>
<feGaussianBlur stdDeviation="1.93179"/>
<feComposite in2="hardAlpha" operator="arithmetic" k2="-1" k3="1"/>
<feColorMatrix type="matrix" values="0 0 0 0 0 0 0 0 0 0 0 0 0 0 0 0 0 0 0.05 0"/>
<feBlend mode="normal" in2="effect4_innerShadow_1469_10049" result="effect5_innerShadow_1469_10049"/>
<feColorMatrix in="SourceAlpha" type="matrix" values="0 0 0 0 0 0 0 0 0 0 0 0 0 0 0 0 0 0 127 0" result="hardAlpha"/>
<feOffset dx="3.86358"/>
<feGaussianBlur stdDeviation="1.93179"/>
<feComposite in2="hardAlpha" operator="arithmetic" k2="-1" k3="1"/>
<feColorMatrix type="matrix" values="0 0 0 0 0 0 0 0 0 0 0 0 0 0 0 0 0 0 0.02 0"/>
<feBlend mode="normal" in2="effect5_innerShadow_1469_10049" result="effect6_innerShadow_1469_10049"/>
<feColorMatrix in="SourceAlpha" type="matrix" values="0 0 0 0 0 0 0 0 0 0 0 0 0 0 0 0 0 0 127 0" result="hardAlpha"/>
<feOffset dx="-3.86358"/>
<feGaussianBlur stdDeviation="1.93179"/>
<feComposite in2="hardAlpha" operator="arithmetic" k2="-1" k3="1"/>
<feColorMatrix type="matrix" values="0 0 0 0 0 0 0 0 0 0 0 0 0 0 0 0 0 0 0.02 0"/>
<feBlend mode="normal" in2="effect6_innerShadow_1469_10049" result="effect7_innerShadow_1469_10049"/>
</filter>
<filter id="filter10_ddi_1469_10049" x="173.696" y="490.01" width="100.728" height="100.728" filterUnits="userSpaceOnUse" color-interpolation-filters="sRGB">
<feFlood flood-opacity="0" result="BackgroundImageFix"/>
<feColorMatrix in="SourceAlpha" type="matrix" values="0 0 0 0 0 0 0 0 0 0 0 0 0 0 0 0 0 0 127 0" result="hardAlpha"/>
<feOffset dy="7.72717"/>
<feGaussianBlur stdDeviation="9.65896"/>
<feColorMatrix type="matrix" values="0 0 0 0 0.770833 0 0 0 0 0.770833 0 0 0 0 0.770833 0 0 0 0.5 0"/>
<feBlend mode="normal" in2="BackgroundImageFix" result="effect1_dropShadow_1469_10049"/>
<feColorMatrix in="SourceAlpha" type="matrix" values="0 0 0 0 0 0 0 0 0 0 0 0 0 0 0 0 0 0 127 0" result="hardAlpha"/>
<feOffset dy="3.86358"/>
<feGaussianBlur stdDeviation="5.79538"/>
<feColorMatrix type="matrix" values="0 0 0 0 0.772549 0 0 0 0 0.772549 0 0 0 0 0.772549 0 0 0 0.3 0"/>
<feBlend mode="normal" in2="effect1_dropShadow_1469_10049" result="effect2_dropShadow_1469_10049"/>
<feBlend mode="normal" in="SourceGraphic" in2="effect2_dropShadow_1469_10049" result="shape"/>
<feColorMatrix in="SourceAlpha" type="matrix" values="0 0 0 0 0 0 0 0 0 0 0 0 0 0 0 0 0 0 127 0" result="hardAlpha"/>
<feOffset dx="-0.965896" dy="-0.965896"/>
<feGaussianBlur stdDeviation="0.482948"/>
<feComposite in2="hardAlpha" operator="arithmetic" k2="-1" k3="1"/>
<feColorMatrix type="matrix" values="0 0 0 0 1 0 0 0 0 1 0 0 0 0 1 0 0 0 0.16 0"/>
<feBlend mode="normal" in2="shape" result="effect3_innerShadow_1469_10049"/>
</filter>
<linearGradient id="paint0_linear_1469_10049" x1="17.5742" y1="163.641" x2="1.97421" y2="249.242" gradientUnits="userSpaceOnUse">
<stop stop-color="#66FFC8"/>
<stop offset="1" stop-color="#34E97C"/>
</linearGradient>
<linearGradient id="paint1_linear_1469_10049" x1="351" y1="52.6525" x2="419.393" y2="70.2674" gradientUnits="userSpaceOnUse">
<stop stop-color="#FF668B"/>
<stop offset="1" stop-color="#F55353"/>
</linearGradient>
<linearGradient id="paint2_linear_1469_10049" x1="350.174" y1="339.353" x2="422.344" y2="360.506" gradientUnits="userSpaceOnUse">
<stop stop-color="#7BADF8"/>
<stop offset="1" stop-color="#BE6CFF"/>
</linearGradient>
<linearGradient id="paint3_linear_1469_10049" x1="20.0684" y1="391.518" x2="-11.347" y2="472.661" gradientUnits="userSpaceOnUse">
<stop stop-color="#FFD260"/>
<stop offset="1" stop-color="#FFA945"/>
<stop offset="1" stop-color="#FFA945"/>
</linearGradient>
<linearGradient id="paint4_linear_1469_10049" x1="182.665" y1="518.605" x2="239.019" y2="562.963" gradientUnits="userSpaceOnUse">
<stop stop-color="#FBFBFB"/>
<stop offset="1" stop-color="#DEDEDE"/>
</linearGradient>
<linearGradient id="paint5_linear_1469_10049" x1="6" y1="280" x2="644.5" y2="280" gradientUnits="userSpaceOnUse">
<stop stop-color="#0E0725"/>
<stop offset="0.32747" stop-color="#5C03BC"/>
<stop offset="0.669597" stop-color="#E536AB"/>
<stop offset="1" stop-color="#F4E5F0"/>
</linearGradient>
<clipPath id="clip0_1469_10049">
<rect x="6" y="6" width="408" height="548" rx="12" fill="white"/>
</clipPath>
<clipPath id="clip1_1469_10049">
<path d="M1.09915 186.435C6.86596 178.456 9.74937 174.467 13.5048 172.542C16.8082 170.848 20.5629 170.244 24.2307 170.816C28.4006 171.465 32.39 174.349 40.3689 180.116L55.5653 191.099C63.5442 196.866 67.5336 199.749 69.4589 203.505C71.1524 206.808 71.7566 210.563 71.185 214.231C70.5351 218.4 67.6517 222.39 61.8849 230.369L50.9015 245.565C45.1347 253.544 42.2513 257.534 38.4959 259.459C35.1925 261.152 31.4378 261.757 27.77 261.185C23.6001 260.535 19.6107 257.652 11.6318 251.885L-3.56462 240.901C-11.5435 235.135 -15.5329 232.251 -17.4582 228.496C-19.1517 225.192 -19.7559 221.438 -19.1843 217.77C-18.5344 213.6 -15.651 209.611 -9.88423 201.632L1.09915 186.435Z" fill="white"/>
</clipPath>
<clipPath id="clip2_1469_10049">
<rect width="56.2503" height="56.2503" fill="white" transform="translate(19.6807 176.731) rotate(35.8579)"/>
</clipPath>
<clipPath id="clip3_1469_10049">
<path d="M368.495 67.3179C362.371 62.1845 359.309 59.6178 357.969 56.4654C356.791 53.6924 356.52 50.6175 357.196 47.6813C357.965 44.3434 360.532 41.2815 365.665 35.1578L375.442 23.4947C380.576 17.371 383.143 14.3091 386.295 12.9692C389.068 11.7906 392.143 11.5201 395.079 12.1964C398.417 12.9654 401.479 15.5321 407.603 20.6655L419.266 30.4425C425.389 35.5759 428.451 38.1426 429.791 41.295C430.97 44.068 431.24 47.1429 430.564 50.0791C429.795 53.4171 427.228 56.4789 422.095 62.6026L412.318 74.2657C407.185 80.3894 404.618 83.4513 401.465 84.7912C398.692 85.9699 395.617 86.2404 392.681 85.564C389.343 84.795 386.281 82.2283 380.158 77.0949L368.495 67.3179Z" fill="white"/>
</clipPath>
<clipPath id="clip4_1469_10049">
<rect width="45.657" height="45.657" fill="white" transform="translate(361.72 51.7095) rotate(-50.0275)"/>
</clipPath>
<clipPath id="clip5_1469_10049">
<path d="M368.278 355.576C361.941 349.898 358.772 347.058 357.457 343.656C356.3 340.663 356.121 337.381 356.944 334.28C357.88 330.755 360.719 327.586 366.398 321.249L377.214 309.181C382.893 302.844 385.732 299.676 389.134 298.361C392.127 297.204 395.409 297.024 398.51 297.847C402.036 298.783 405.204 301.622 411.541 307.301L423.61 318.117C429.946 323.796 433.115 326.635 434.43 330.038C435.587 333.03 435.766 336.312 434.943 339.414C434.007 342.939 431.168 346.107 425.489 352.444L414.673 364.513C408.994 370.85 406.155 374.018 402.753 375.333C399.76 376.49 396.478 376.67 393.377 375.846C389.851 374.911 386.683 372.071 380.346 366.392L368.278 355.576Z" fill="white"/>
</clipPath>
<clipPath id="clip6_1469_10049">
<rect width="48.6183" height="48.6183" fill="white" transform="translate(361.635 338.743) rotate(-48.1338)"/>
</clipPath>
<clipPath id="clip7_1469_10049">
<path d="M-0.398419 410.809C6.76563 404.057 10.3476 400.681 14.3981 399.496C17.9609 398.454 21.7622 398.566 25.2573 399.817C29.2305 401.239 32.6068 404.821 39.3592 411.985L52.2197 425.63C58.9721 432.794 62.3484 436.376 63.5332 440.426C64.5755 443.989 64.463 447.79 63.212 451.285C61.7898 455.259 58.2078 458.635 51.0438 465.387L37.3993 478.248C30.2352 485 26.6532 488.376 22.6028 489.561C19.0399 490.604 15.2386 490.491 11.7436 489.24C7.77029 487.818 4.39408 484.236 -2.35834 477.072L-15.2189 463.427C-21.9713 456.263 -25.3475 452.681 -26.5324 448.631C-27.5746 445.068 -27.4622 441.267 -26.2112 437.772C-24.789 433.798 -21.207 430.422 -14.0429 423.67L-0.398419 410.809Z" fill="white"/>
</clipPath>
<clipPath id="clip8_1469_10049">
<rect width="56.2503" height="56.2503" fill="white" transform="translate(19.6763 404.771) rotate(46.6942)"/>
</clipPath>
<clipPath id="clip9_1469_10049">
<path d="M192.923 539.394C189.332 532.117 187.537 528.479 187.582 525.001C187.621 521.942 188.628 518.973 190.458 516.521C192.539 513.734 196.177 511.938 203.454 508.348L217.313 501.509C224.589 497.919 228.228 496.124 231.706 496.168C234.765 496.208 237.733 497.215 240.185 499.045C242.973 501.125 244.768 504.764 248.359 512.04L255.197 525.899C258.788 533.176 260.583 536.814 260.538 540.292C260.499 543.352 259.492 546.32 257.662 548.772C255.581 551.56 251.943 553.355 244.666 556.945L230.807 563.784C223.531 567.374 219.892 569.17 216.414 569.125C213.355 569.086 210.386 568.079 207.934 566.249C205.147 564.168 203.352 560.53 199.761 553.253L192.923 539.394Z" fill="white"/>
</clipPath>
<clipPath id="clip10_1469_10049">
<rect width="46.363" height="46.363" fill="white" transform="translate(193.014 522.116) rotate(-26.2631)"/>
</clipPath>
</defs>
</svg>
