<svg width="37" height="36" viewBox="0 0 37 36" fill="none" xmlns="http://www.w3.org/2000/svg">
<g id="Group 9">
<path id="Vector" d="M17.3023 12.8776C18.8836 11.182 20.6706 9.28662 22.5089 7.3684L4.45131 2.40729L3.2981 3.5605L13.8826 10.2572C15.0986 11.0279 16.2404 11.9013 17.3023 12.8776Z" fill="#323232"/>
<path id="Vector_2" d="M23.4507 19.0202C24.4155 20.0764 25.289 21.2239 26.054 22.4342L32.7563 33.0187L33.9096 31.8655L28.9542 13.8079C27.31 15.4007 25.4146 17.1934 23.4507 19.0202Z" fill="#323232"/>
<path id="Vector_3" d="M22.6685 18.1923C24.6495 16.3483 26.699 14.4072 28.5202 12.6432C30.5812 10.6907 32.3624 8.96656 33.4357 7.86472C36.3016 4.99881 36.4786 2.48685 36.3016 1.20233C36.2045 0.591467 35.7478 0.129039 35.1484 0.049113C33.8581 -0.127866 31.3348 0.0376951 28.4574 2.88648C27.4013 3.94265 25.7 5.69531 23.776 7.70487C22.0005 9.566 20.0309 11.6441 18.1413 13.6651C14.0822 18.021 10.4741 22.0687 10.3257 22.7024C10.3257 22.7024 7.18571 27.5037 6.23802 29.5589C6.07816 29.9071 6.43212 30.2668 6.78037 30.1013C8.83561 29.1536 13.6369 26.0136 13.6369 26.0136C14.2534 25.8481 18.2954 22.2343 22.6685 18.1923Z" fill="#323232"/>
<path id="Vector_4" d="M9.281 22.1944C9.28671 22.1829 9.29242 22.1715 9.29813 22.1601L2.77846 20.3161L1.47681 21.6178L7.35707 25.243C8.21342 23.8443 9.0298 22.5883 9.281 22.1944Z" fill="#323232"/>
<path id="Vector_5" d="M14.1336 27.0421C13.7454 27.299 12.4894 28.1097 11.085 28.9717L14.7216 34.8577L16.0175 33.5618L14.1735 27.025C14.1564 27.0307 14.145 27.0364 14.1336 27.0421Z" fill="#323232"/>
<path id="Vector_6" d="M12.8092 0.934424C11.7473 0.763155 10.6626 1.10569 9.89759 1.8707L9.23535 2.53294L12.2725 3.37216C12.7521 2.66996 12.9576 1.80219 12.8092 0.934424Z" fill="#323232"/>
<path id="Vector_7" d="M19.58 3.00131C18.5181 2.82433 17.4334 3.16687 16.6684 3.93758L16.166 4.43997L19.1461 5.26207C19.5572 4.58841 19.717 3.79486 19.58 3.00131Z" fill="#323232"/>
<path id="Vector_8" d="M32.9502 24.0437L33.778 27.0809L34.4402 26.4186C35.211 25.6536 35.5535 24.5689 35.3765 23.5071C34.5202 23.3586 33.6524 23.5584 32.9502 24.0437Z" fill="#323232"/>
<path id="Vector_9" d="M31.0605 17.1644L31.8769 20.1502L32.3793 19.6478C33.1443 18.8828 33.4926 17.7981 33.3156 16.7363C32.5278 16.5992 31.7285 16.7591 31.0605 17.1644Z" fill="#323232"/>
<path id="Vector_10" d="M9.81175 11.3363L8.64712 12.501C8.48156 12.6665 8.48156 12.9406 8.64712 13.1061C8.73275 13.1918 8.84123 13.2317 8.9497 13.2317C9.05817 13.2317 9.16664 13.1918 9.25227 13.1061L10.4169 11.9415C10.5825 11.7759 10.5825 11.5019 10.4169 11.3363C10.2513 11.1708 9.98302 11.1708 9.81175 11.3363Z" fill="#323232"/>
<path id="Vector_11" d="M7.11722 14.0305L4.80508 16.3427C4.63952 16.5082 4.63952 16.7823 4.80508 16.9478C4.89071 17.0335 4.99918 17.0734 5.10766 17.0734C5.21613 17.0734 5.3246 17.0335 5.41023 16.9478L7.72237 14.6357C7.88793 14.4701 7.88793 14.1961 7.72237 14.0305C7.55681 13.865 7.28278 13.865 7.11722 14.0305Z" fill="#323232"/>
<path id="Vector_12" d="M2.00757 12.4658C1.84201 12.3003 1.56798 12.3003 1.40242 12.4658L0.648829 13.2194C0.483268 13.385 0.483268 13.659 0.648829 13.8246C0.734464 13.9102 0.842935 13.9502 0.951405 13.9502C1.05988 13.9502 1.16835 13.9102 1.25398 13.8246L2.00757 13.071C2.17313 12.8997 2.17313 12.6314 2.00757 12.4658Z" fill="#323232"/>
<path id="Vector_13" d="M3.02953 11.8668C3.138 11.8668 3.24647 11.8268 3.33211 11.7412L5.35309 9.72023C5.51865 9.55467 5.51865 9.28064 5.35309 9.11508C5.18753 8.94952 4.9135 8.94952 4.74794 9.11508L2.72695 11.1361C2.56139 11.3016 2.56139 11.5757 2.72695 11.7412C2.81259 11.8268 2.92106 11.8668 3.02953 11.8668Z" fill="#323232"/>
<path id="Vector_14" d="M23.5134 27.7946C23.6219 27.7946 23.7304 27.7547 23.816 27.669L24.9806 26.5044C25.1462 26.3388 25.1462 26.0648 24.9806 25.8993C24.8151 25.7337 24.541 25.7337 24.3755 25.8993L23.2108 27.0639C23.0453 27.2295 23.0453 27.5035 23.2108 27.669C23.2908 27.7547 23.3992 27.7946 23.5134 27.7946Z" fill="#323232"/>
<path id="Vector_15" d="M22.2859 28.5947C22.1203 28.4291 21.8463 28.4291 21.6807 28.5947L19.3686 30.9068C19.203 31.0724 19.203 31.3464 19.3686 31.512C19.4542 31.5976 19.5627 31.6376 19.6711 31.6376C19.7796 31.6376 19.8881 31.5976 19.9737 31.512L22.2859 29.1998C22.4514 29.0343 22.4514 28.7603 22.2859 28.5947Z" fill="#323232"/>
<path id="Vector_16" d="M23.2449 34.309L22.4914 35.0626C22.3258 35.2281 22.3258 35.5022 22.4914 35.6677C22.577 35.7534 22.6855 35.7933 22.7939 35.7933C22.9024 35.7933 23.0109 35.7534 23.0965 35.6677L23.8501 34.9141C24.0157 34.7486 24.0157 34.4745 23.8501 34.309C23.6845 34.1434 23.4162 34.1434 23.2449 34.309Z" fill="#323232"/>
<path id="Vector_17" d="M26.6022 30.9582L24.5812 32.9792C24.4156 33.1448 24.4156 33.4188 24.5812 33.5844C24.6668 33.67 24.7753 33.71 24.8838 33.71C24.9922 33.71 25.1007 33.67 25.1864 33.5844L27.2073 31.5634C27.3729 31.3978 27.3729 31.1238 27.2073 30.9582C27.0418 30.7927 26.7677 30.7927 26.6022 30.9582Z" fill="#323232"/>
</g>
</svg>
