<svg width="24" height="24" viewBox="0 0 24 24" fill="none" xmlns="http://www.w3.org/2000/svg">
<circle cx="12" cy="12" r="9" fill="#FBEAEA" stroke="#D62D31" stroke-width="1.5"/>
<path d="M10.8196 13.8065V13.6435C10.8228 13.0842 10.8723 12.6383 10.9682 12.3059C11.0673 11.9735 11.2111 11.7051 11.3997 11.5005C11.5882 11.296 11.8152 11.1106 12.0804 10.9444C12.2786 10.8166 12.456 10.6839 12.6126 10.5465C12.7692 10.4091 12.8938 10.2573 12.9865 10.0911C13.0792 9.9217 13.1255 9.73313 13.1255 9.52539C13.1255 9.30486 13.0728 9.11151 12.9673 8.94531C12.8619 8.77912 12.7196 8.65128 12.5407 8.56179C12.3649 8.4723 12.1699 8.42756 11.9558 8.42756C11.748 8.42756 11.5515 8.4739 11.3661 8.56658C11.1808 8.65607 11.0289 8.79031 10.9107 8.96928C10.7924 9.14506 10.7285 9.36399 10.7189 9.62607H8.76296C8.77894 8.98686 8.93235 8.45952 9.22319 8.04403C9.51403 7.62536 9.89915 7.31374 10.3786 7.1092C10.858 6.90146 11.3869 6.79758 11.9654 6.79758C12.6014 6.79758 13.1639 6.90305 13.6529 7.11399C14.1419 7.32173 14.5254 7.62376 14.8034 8.02006C15.0815 8.41637 15.2205 8.89418 15.2205 9.45348C15.2205 9.82741 15.1582 10.1598 15.0336 10.4506C14.9121 10.7383 14.7411 10.994 14.5206 11.2177C14.3001 11.4382 14.0396 11.638 13.7392 11.8169C13.4867 11.9672 13.2789 12.1238 13.1159 12.2868C12.9561 12.4498 12.8363 12.6383 12.7564 12.8525C12.6797 13.0666 12.6397 13.3303 12.6365 13.6435V13.8065H10.8196ZM11.7688 16.8746C11.4492 16.8746 11.176 16.7628 10.949 16.5391C10.7253 16.3121 10.6151 16.0405 10.6183 15.7241C10.6151 15.4109 10.7253 15.1424 10.949 14.9187C11.176 14.695 11.4492 14.5831 11.7688 14.5831C12.0724 14.5831 12.3393 14.695 12.5694 14.9187C12.7995 15.1424 12.9162 15.4109 12.9194 15.7241C12.9162 15.935 12.8603 16.1284 12.7516 16.3042C12.6461 16.4767 12.5071 16.6158 12.3345 16.7212C12.1619 16.8235 11.9734 16.8746 11.7688 16.8746Z" fill="#D62D31"/>
</svg>
