<svg width="48" height="26" viewBox="0 0 48 26" fill="none" xmlns="http://www.w3.org/2000/svg">
<g id="Ribbons">
<g id="Sdw" filter="url(#filter0_d_3530_1932)">
<path fill-rule="evenodd" clip-rule="evenodd" d="M16.6285 8.91431H31.3714V19.188C31.3714 20.3319 31.3714 20.9038 31.1304 21.2547C30.9199 21.5612 30.5939 21.769 30.2272 21.8307C29.8075 21.9012 29.2889 21.66 28.2517 21.1776L24 19.2L19.7482 21.1776C18.711 21.66 18.1924 21.9012 17.7727 21.8307C17.406 21.769 17.08 21.5612 16.8695 21.2547C16.6285 20.9038 16.6285 20.3319 16.6285 19.188V8.91431Z" fill="#D62D31"/>
</g>
<mask id="mask0_3530_1932" style="mask-type:luminance" maskUnits="userSpaceOnUse" x="16" y="8" width="16" height="14">
<path id="Lighting" fill-rule="evenodd" clip-rule="evenodd" d="M16.6285 8.91431H31.3714V20.4782C31.3714 21.4808 30.3307 22.1445 29.4216 21.7217L24 19.2L18.5783 21.7217C17.6693 22.1445 16.6285 21.4808 16.6285 20.4782V8.91431Z" fill="white"/>
</mask>
<g mask="url(#mask0_3530_1932)">
<g id="Color" filter="url(#filter1_d_3530_1932)">
<path fill-rule="evenodd" clip-rule="evenodd" d="M16.6285 8.91431H31.3714V19.188C31.3714 20.3319 31.3714 20.9038 31.1304 21.2547C30.9199 21.5612 30.5939 21.769 30.2272 21.8307C29.8075 21.9012 29.2889 21.66 28.2517 21.1776L24 19.2L19.7482 21.1776C18.711 21.66 18.1924 21.9012 17.7727 21.8307C17.406 21.769 17.08 21.5612 16.8695 21.2547C16.6285 20.9038 16.6285 20.3319 16.6285 19.188V8.91431Z" fill="#D62D31"/>
</g>
<g id="Lighten">
<path fill-rule="evenodd" clip-rule="evenodd" d="M16.6285 8.91431H31.3714V22.6286L24 19.2L16.6285 22.6286V8.91431Z" fill="url(#paint0_linear_3530_1932)" fill-opacity="0.3" style="mix-blend-mode:overlay"/>
<path fill-rule="evenodd" clip-rule="evenodd" d="M16.6285 8.91431H31.3714V22.6286L24 19.2L16.6285 22.6286V8.91431Z" fill="url(#paint1_radial_3530_1932)" fill-opacity="0.6" style="mix-blend-mode:overlay"/>
</g>
<path id="White" fill-rule="evenodd" clip-rule="evenodd" d="M20.5714 2.05713H27.4286V21.2571H24H20.5714V2.05713Z" fill="#FEFEFE"/>
<g id="Stroke" style="mix-blend-mode:soft-light">
<path d="M16.8004 2.1001H31.1998C31.2708 2.1001 31.3287 2.158 31.3287 2.229V20.478C31.3287 21.3886 30.4425 22.0108 29.6061 21.7476L29.4401 21.6831L24.0905 19.1948C24.0474 19.1748 23.9993 19.1701 23.9537 19.1802L23.9098 19.1948L18.5602 21.6831C17.6795 22.0925 16.6715 21.4492 16.6715 20.478V2.229C16.6715 2.158 16.7294 2.1001 16.8004 2.1001Z" stroke="url(#paint2_linear_3530_1932)" stroke-width="0.0857143" stroke-linecap="round" stroke-linejoin="round"/>
</g>
</g>
</g>
<defs>
<filter id="filter0_d_3530_1932" x="14.9143" y="8.91431" width="18.1714" height="16.357" filterUnits="userSpaceOnUse" color-interpolation-filters="sRGB">
<feFlood flood-opacity="0" result="BackgroundImageFix"/>
<feColorMatrix in="SourceAlpha" type="matrix" values="0 0 0 0 0 0 0 0 0 0 0 0 0 0 0 0 0 0 127 0" result="hardAlpha"/>
<feOffset dy="1.71429"/>
<feGaussianBlur stdDeviation="0.857143"/>
<feColorMatrix type="matrix" values="0 0 0 0 0 0 0 0 0 0 0 0 0 0 0 0 0 0 0.2 0"/>
<feBlend mode="normal" in2="BackgroundImageFix" result="effect1_dropShadow_3530_1932"/>
<feBlend mode="normal" in="SourceGraphic" in2="effect1_dropShadow_3530_1932" result="shape"/>
</filter>
<filter id="filter1_d_3530_1932" x="14.9143" y="8.91431" width="18.1714" height="16.357" filterUnits="userSpaceOnUse" color-interpolation-filters="sRGB">
<feFlood flood-opacity="0" result="BackgroundImageFix"/>
<feColorMatrix in="SourceAlpha" type="matrix" values="0 0 0 0 0 0 0 0 0 0 0 0 0 0 0 0 0 0 127 0" result="hardAlpha"/>
<feOffset dy="1.71429"/>
<feGaussianBlur stdDeviation="0.857143"/>
<feColorMatrix type="matrix" values="0 0 0 0 0 0 0 0 0 0 0 0 0 0 0 0 0 0 0.2 0"/>
<feBlend mode="normal" in2="BackgroundImageFix" result="effect1_dropShadow_3530_1932"/>
<feBlend mode="normal" in="SourceGraphic" in2="effect1_dropShadow_3530_1932" result="shape"/>
</filter>
<linearGradient id="paint0_linear_3530_1932" x1="24" y1="2.05717" x2="24" y2="22.6286" gradientUnits="userSpaceOnUse">
<stop stop-color="white"/>
<stop offset="1" stop-color="white" stop-opacity="0"/>
</linearGradient>
<radialGradient id="paint1_radial_3530_1932" cx="0" cy="0" r="1" gradientUnits="userSpaceOnUse" gradientTransform="translate(24 8.91431) rotate(90) scale(13.7143)">
<stop stop-color="white"/>
<stop offset="1" stop-color="white" stop-opacity="0"/>
</radialGradient>
<linearGradient id="paint2_linear_3530_1932" x1="24" y1="2.05713" x2="24" y2="22.6286" gradientUnits="userSpaceOnUse">
<stop stop-color="white"/>
<stop offset="1" stop-color="#999999"/>
</linearGradient>
</defs>
</svg>
