<svg width="64" height="62" viewBox="0 0 64 62" fill="none" xmlns="http://www.w3.org/2000/svg">
<rect x="0.989258" width="62.0216" height="62" rx="31" fill="#DE575A"/>
<path d="M32.4491 7.63187C32.439 7.31547 32.4775 7.04762 32.5646 6.82832C32.6516 6.60902 32.778 6.44245 32.9438 6.32861C33.1112 6.21478 33.3079 6.15786 33.5339 6.15786C33.6912 6.15786 33.8419 6.1905 33.9859 6.25579C34.1298 6.32108 34.293 6.43408 34.4755 6.59479C34.5726 6.68017 34.6546 6.74545 34.7216 6.79065C34.7886 6.83418 34.8656 6.85594 34.9526 6.85594C35.0715 6.85594 35.1694 6.80991 35.2464 6.71783C35.3234 6.62409 35.3594 6.47593 35.3544 6.27337H36.173C36.1847 6.59144 36.1462 6.86013 36.0575 7.07943C35.9688 7.29873 35.8407 7.4653 35.6733 7.57914C35.5059 7.69298 35.3109 7.74989 35.0882 7.74989C34.9225 7.74989 34.7668 7.71558 34.6212 7.64694C34.4772 7.57663 34.3173 7.46447 34.1415 7.31045C34.0378 7.21838 33.9549 7.15225 33.8929 7.11207C33.831 7.07022 33.7573 7.0493 33.672 7.0493C33.5531 7.0493 33.4552 7.0945 33.3782 7.1849C33.3012 7.27362 33.2652 7.42261 33.2702 7.63187H32.4491Z" fill="#FEFEFE"/>
<path d="M44.3277 6.72743L45.3254 7.12687L43.9927 10.4559C43.8695 10.7636 43.6934 11.0032 43.4642 11.1747C43.2366 11.3469 42.9762 11.4455 42.6831 11.4706C42.3899 11.4957 42.0817 11.4435 41.7584 11.3141C41.4709 11.199 41.23 11.044 41.0358 10.849C40.8437 10.6531 40.721 10.4237 40.6676 10.1606C40.6149 9.89608 40.6527 9.60559 40.7812 9.28917L41.786 9.69141C41.7387 9.81854 41.7211 9.93682 41.7332 10.0462C41.7474 10.1547 41.7877 10.2502 41.8538 10.3326C41.9222 10.4141 42.0155 10.4784 42.1336 10.5257C42.2579 10.5755 42.3734 10.5911 42.48 10.5725C42.5888 10.5529 42.6866 10.5001 42.7734 10.414C42.8601 10.3279 42.934 10.2087 42.995 10.0564L44.3277 6.72743Z" fill="#FEFEFE"/>
<path d="M49.555 13.1087C49.2518 13.5805 48.9045 13.9244 48.5129 14.1404C48.1228 14.3573 47.7181 14.4544 47.2989 14.4317C46.8819 14.4086 46.4826 14.2743 46.101 14.0291C45.7165 13.782 45.4276 13.4729 45.2342 13.1019C45.0408 12.7309 44.9618 12.3229 44.997 11.8779C45.0323 11.4329 45.201 10.9752 45.5033 10.5048C45.8065 10.033 46.1532 9.68868 46.5433 9.47176C46.9335 9.25485 47.337 9.15798 47.7539 9.18116C48.1718 9.20293 48.5729 9.33735 48.9574 9.58444C49.339 9.82971 49.6265 10.1379 49.8199 10.5089C50.0156 10.8794 50.0958 11.2872 50.0606 11.7322C50.0268 12.1781 49.8582 12.6369 49.555 13.1087ZM48.6277 12.5127C48.8241 12.2071 48.9439 11.92 48.9872 11.6513C49.032 11.3835 49.0068 11.1425 48.9117 10.9282C48.8166 10.7138 48.6585 10.5356 48.4374 10.3935C48.2163 10.2514 47.9885 10.1816 47.7541 10.1842C47.5196 10.1867 47.2892 10.2635 47.0628 10.4145C46.8378 10.5664 46.6271 10.7952 46.4307 11.1008C46.2343 11.4064 46.1137 11.6931 46.069 11.9608C46.0257 12.2295 46.0516 12.471 46.1467 12.6854C46.2417 12.8997 46.3998 13.0779 46.6209 13.22C46.8421 13.3621 47.0698 13.4319 47.3043 13.4293C47.5388 13.4268 47.7685 13.3495 47.9935 13.1976C48.2199 13.0466 48.4313 12.8183 48.6277 12.5127Z" fill="#FEFEFE"/>
<path d="M52.5807 13.1998L49.0318 16.9218L48.2449 16.1715L51.7938 12.4495L52.5807 13.1998Z" fill="#FEFEFE"/>
<path d="M56.8001 19.0869L52.611 22.07L52.0662 21.305L53.405 17.6049L53.3832 17.5743L50.7465 19.4518L50.1158 18.5661L54.305 15.583L54.8585 16.3603L53.5115 20.0446L53.5377 20.0814L56.1723 18.2053L56.8001 19.0869Z" fill="#FEFEFE"/>
<path d="M59.4572 29.1672L54.4594 30.3797L54.238 29.467L56.8561 26.5296L56.8472 26.493L53.7016 27.2561L53.4453 26.1994L58.443 24.987L58.668 25.9143L56.0482 28.8341L56.0589 28.878L59.202 28.1155L59.4572 29.1672Z" fill="#FEFEFE"/>
<path d="M56.7629 34.9475C56.2028 34.9742 55.7211 34.8907 55.3181 34.6971C54.9151 34.5051 54.6012 34.2318 54.3765 33.8772C54.1535 33.5241 54.0313 33.121 54.0097 32.6678C53.9879 32.2113 54.0721 31.7967 54.2622 31.424C54.4522 31.0512 54.7387 30.7502 55.1216 30.5207C55.5046 30.2913 55.9753 30.1633 56.5338 30.1367C57.094 30.11 57.5755 30.1927 57.9785 30.3847C58.3815 30.5766 58.6945 30.8491 58.9175 31.2022C59.1421 31.5552 59.2653 31.9599 59.287 32.4164C59.3086 32.8696 59.2244 33.2825 59.0343 33.6553C58.846 34.0296 58.5604 34.3315 58.1775 34.5609C57.7946 34.792 57.3231 34.9209 56.7629 34.9475ZM56.7105 33.8464C57.0733 33.8291 57.3768 33.7602 57.6207 33.6397C57.8648 33.5208 58.0465 33.3604 58.166 33.1587C58.2854 32.9569 58.3389 32.7247 58.3264 32.4622C58.3139 32.1997 58.2386 31.9736 58.1005 31.7841C57.9624 31.5946 57.7662 31.4515 57.5119 31.3546C57.2576 31.2595 56.9491 31.2206 56.5862 31.2378C56.2234 31.2551 55.9199 31.3232 55.6759 31.4421C55.4319 31.5627 55.2502 31.7238 55.1307 31.9256C55.0113 32.1274 54.9578 32.3595 54.9703 32.6221C54.9828 32.8846 55.0581 33.1106 55.1962 33.3001C55.3343 33.4896 55.5305 33.632 55.7847 33.7271C56.039 33.8239 56.3476 33.8637 56.7105 33.8464Z" fill="#FEFEFE"/>
<path d="M53.5333 35.6687L58.8331 34.9441L58.6641 36.1197L55.006 36.4538L54.9999 36.4961L58.4032 37.9342L58.2585 38.9408L54.5808 39.3583L54.5744 39.4031L57.9976 40.7553L57.8286 41.9309L52.9476 39.7425L53.0984 38.6936L56.5659 38.2028L56.5716 38.163L53.3825 36.7176L53.5333 35.6687Z" fill="#FEFEFE"/>
<path d="M51.9965 43.1194C52.2755 43.2689 52.4882 43.4362 52.6346 43.6212C52.781 43.8062 52.862 43.999 52.8778 44.1994C52.8926 44.4013 52.8436 44.6001 52.7306 44.7959C52.6519 44.9321 52.5483 45.0463 52.4198 45.1383C52.2912 45.2304 52.1118 45.3152 51.8814 45.3929C51.7589 45.4343 51.6613 45.4727 51.5887 45.5081C51.5175 45.5443 51.4602 45.6001 51.4166 45.6755C51.3572 45.7784 51.3481 45.8863 51.3894 45.999C51.432 46.1126 51.5423 46.2178 51.7203 46.3147L51.311 47.0237C51.0297 46.8748 50.8162 46.7071 50.6707 46.5206C50.5251 46.3341 50.4449 46.1399 50.43 45.938C50.4151 45.7361 50.4633 45.5388 50.5747 45.346C50.6575 45.2024 50.7651 45.0848 50.8974 44.993C51.0302 44.9034 51.2073 44.8211 51.4286 44.7458C51.5602 44.702 51.6589 44.6633 51.7247 44.6297C51.7919 44.597 51.8468 44.5437 51.8895 44.4697C51.949 44.3668 51.9588 44.2594 51.919 44.1475C51.8807 44.0365 51.7696 43.9308 51.5859 43.8305L51.9965 43.1194Z" fill="#FEFEFE"/>
<path d="M46.84 53.8588L45.9952 54.5231L43.7786 51.7045C43.5737 51.4439 43.4542 51.1715 43.4203 50.8873C43.385 50.6041 43.4298 50.3293 43.5546 50.0629C43.6795 49.7965 43.8787 49.5556 44.1524 49.3404C44.3959 49.1489 44.6506 49.0179 44.9166 48.9471C45.1822 48.8787 45.4423 48.8872 45.6968 48.9725C45.9523 49.059 46.1849 49.2371 46.3947 49.5065L45.544 50.1756C45.4575 50.0711 45.3639 49.9967 45.2631 49.9524C45.162 49.9105 45.0592 49.8977 44.9548 49.9138C44.85 49.9323 44.7477 49.9808 44.6476 50.0595C44.5424 50.1422 44.4711 50.2345 44.434 50.3361C44.3965 50.4401 44.3933 50.5512 44.4245 50.6694C44.4557 50.7876 44.522 50.9111 44.6234 51.0401L46.84 53.8588Z" fill="#FEFEFE"/>
<path d="M38.7 55.1948C38.443 54.6963 38.3189 54.2235 38.3276 53.7764C38.3348 53.3301 38.453 52.931 38.6823 52.5793C38.9108 52.2298 39.2267 51.9511 39.63 51.7433C40.0362 51.5338 40.4483 51.4382 40.8663 51.4562C41.2843 51.4743 41.6772 51.6098 42.0449 51.8628C42.4127 52.1158 42.7247 52.4908 42.9809 52.9878C43.2379 53.4863 43.3628 53.9587 43.3555 54.405C43.3483 54.8513 43.2304 55.2492 43.0019 55.5987C42.7741 55.9497 42.4572 56.2299 42.0509 56.4393C41.6477 56.6472 41.2371 56.7421 40.8191 56.724C40.4003 56.7083 40.0071 56.5738 39.6393 56.3208C39.2701 56.0686 38.957 55.6932 38.7 55.1948ZM39.6798 54.6896C39.8463 55.0125 40.035 55.2599 40.2461 55.4317C40.4556 55.6043 40.6769 55.703 40.9101 55.7279C41.1432 55.7527 41.3766 55.7049 41.6102 55.5845C41.8438 55.464 42.0182 55.3016 42.1332 55.0973C42.2482 54.893 42.2969 54.655 42.2794 54.3835C42.2603 54.1127 42.1675 53.8158 42.0011 53.4929C41.8346 53.1701 41.6466 52.9223 41.4371 52.7497C41.2261 52.5778 41.004 52.4795 40.7708 52.4547C40.5377 52.4299 40.3043 52.4777 40.0707 52.5981C39.8371 52.7185 39.6627 52.8809 39.5477 53.0852C39.4327 53.2896 39.3847 53.5271 39.4038 53.7979C39.4214 54.0695 39.5134 54.3667 39.6798 54.6896Z" fill="#FEFEFE"/>
<path d="M36.9997 57.8787L35.5509 52.9443L36.5941 52.638L38.043 57.5724L36.9997 57.8787Z" fill="#FEFEFE"/>
<path d="M29.9002 58.4814L29.4113 53.362L30.3462 53.2727L32.8812 56.2822L32.9187 56.2786L32.611 53.0564L33.6934 52.9531L34.1822 58.0725L33.2323 58.1632L30.7151 55.1546L30.6701 55.1589L30.9776 58.3785L29.9002 58.4814Z" fill="#FEFEFE"/>
<path d="M19.8421 55.7415L21.291 50.8071L22.1921 51.0717L23.4269 54.8077L23.4631 54.8183L24.375 51.7126L25.4183 52.0189L23.9694 56.9534L23.0538 56.6845L21.8351 52.9559L21.7918 52.9431L20.8806 56.0464L19.8421 55.7415Z" fill="#FEFEFE"/>
<path d="M16.1835 50.518C16.4404 50.0196 16.7535 49.6442 17.1228 49.392C17.4905 49.1389 17.8842 49.0038 18.3037 48.9865C18.7209 48.97 19.1311 49.0656 19.5344 49.2735C19.9406 49.4829 20.2576 49.7631 20.4854 50.1141C20.7131 50.465 20.8306 50.8637 20.8378 51.31C20.845 51.7563 20.7205 52.228 20.4643 52.725C20.2074 53.2235 19.895 53.5992 19.5272 53.8522C19.1595 54.1052 18.767 54.24 18.3497 54.2566C17.9317 54.2746 17.5196 54.1789 17.1134 53.9695C16.7102 53.7616 16.3947 53.4822 16.1669 53.1312C15.9369 52.781 15.8183 52.3827 15.811 51.9364C15.8023 51.4893 15.9265 51.0165 16.1835 50.518ZM17.1633 51.0232C16.9968 51.3461 16.9048 51.6433 16.8872 51.9149C16.8682 52.1857 16.9161 52.4232 17.0312 52.6275C17.1462 52.8319 17.3205 52.9943 17.5541 53.1147C17.7877 53.2351 18.0211 53.2829 18.2543 53.2581C18.4874 53.2333 18.7095 53.1349 18.9205 52.9631C19.1301 52.7905 19.318 52.5427 19.4845 52.2198C19.651 51.897 19.7437 51.6001 19.7628 51.3293C19.7804 51.0577 19.7317 50.8198 19.6166 50.6155C19.5016 50.4111 19.3273 50.2488 19.0937 50.1283C18.8601 50.0079 18.6267 49.9601 18.3935 49.9849C18.1604 50.0097 17.939 50.1085 17.7295 50.2811C17.5185 50.4529 17.3297 50.7003 17.1633 51.0232Z" fill="#FEFEFE"/>
<path d="M17.1732 47.3612L15.1509 52.3133L14.2173 51.5791L15.757 48.2441L15.7234 48.2177L12.7764 50.4459L11.9769 49.8173L13.4542 46.4235L13.4187 46.3956L10.536 48.6841L9.60239 47.9499L13.9381 44.8171L14.7711 45.4721L13.4624 48.7205L13.494 48.7453L16.3403 46.7062L17.1732 47.3612Z" fill="#FEFEFE"/>
<path d="M11.49 42.3044C11.221 42.4713 10.9698 42.5719 10.7364 42.6061C10.5029 42.6404 10.2955 42.6142 10.114 42.5276C9.93175 42.4396 9.7841 42.2977 9.6711 42.1019C9.59242 41.9657 9.54536 41.8189 9.52992 41.6615C9.51447 41.5042 9.53072 41.3064 9.57866 41.068C9.60406 40.9412 9.61958 40.8375 9.62525 40.7569C9.62946 40.6772 9.6098 40.5996 9.56628 40.5242C9.50685 40.4213 9.41801 40.3595 9.29977 40.3388C9.18008 40.319 9.03378 40.3619 8.86086 40.4676L8.45156 39.7586C8.72116 39.5894 8.9731 39.4884 9.20738 39.4556C9.44167 39.4228 9.64995 39.4504 9.83224 39.5385C10.0145 39.6265 10.1613 39.767 10.2727 39.9598C10.3555 40.1033 10.4036 40.2553 10.417 40.4158C10.4281 40.5756 10.4109 40.7701 10.3654 40.9994C10.3376 41.1353 10.3218 41.2401 10.3179 41.3139C10.3127 41.3884 10.3314 41.4627 10.3741 41.5366C10.4335 41.6396 10.5216 41.7018 10.6384 41.7233C10.7537 41.7456 10.9008 41.7023 11.0795 41.5933L11.49 42.3044Z" fill="#FEFEFE"/>
<path d="M4.76688 32.469L4.61392 31.4052L8.16327 30.8949C8.49136 30.8477 8.78697 30.8804 9.0501 30.9931C9.31299 31.1042 9.52859 31.2804 9.6969 31.5217C9.86521 31.763 9.97414 32.056 10.0237 32.4007C10.0678 32.7072 10.0539 32.9933 9.98221 33.259C9.90858 33.5233 9.77123 33.7443 9.57016 33.9221C9.36742 34.1001 9.09692 34.2125 8.75865 34.2595L8.60463 33.1882C8.73837 33.1656 8.8496 33.1217 8.93832 33.0565C9.02515 32.9899 9.08769 32.9073 9.12596 32.8088C9.16233 32.7089 9.17146 32.5959 9.15335 32.47C9.13429 32.3374 9.09004 32.2296 9.0206 32.1466C8.94926 32.0621 8.85463 32.0039 8.7367 31.9718C8.61877 31.9397 8.47861 31.9353 8.31622 31.9587L4.76688 32.469Z" fill="#FEFEFE"/>
<path d="M7.67952 24.7517C8.2397 24.7784 8.71121 24.9073 9.09405 25.1384C9.47697 25.3678 9.76343 25.6697 9.95341 26.0441C10.1418 26.4168 10.2252 26.8297 10.2036 27.2828C10.1819 27.7393 10.0587 28.1441 9.83405 28.4971C9.60941 28.8501 9.2956 29.1225 8.8926 29.3145C8.48961 29.5065 8.00886 29.5892 7.45035 29.5626C6.89018 29.5359 6.41863 29.4078 6.03571 29.1784C5.65278 28.949 5.36713 28.648 5.17873 28.2753C4.98867 27.9026 4.90451 27.488 4.92626 27.0315C4.94784 26.5783 5.07095 26.1752 5.29559 25.8222C5.51863 25.4675 5.83165 25.1941 6.23464 25.0022C6.63772 24.8085 7.11935 24.725 7.67952 24.7517ZM7.62707 25.8529C7.26421 25.8356 6.95561 25.8753 6.70128 25.9722C6.44703 26.0673 6.25087 26.2096 6.11279 26.3992C5.97471 26.5887 5.89942 26.8147 5.88692 27.0772C5.87441 27.3397 5.92788 27.5719 6.04731 27.7737C6.16675 27.9755 6.34846 28.1366 6.59243 28.2572C6.83649 28.3761 7.13995 28.4442 7.50281 28.4614C7.86567 28.4787 8.17422 28.4398 8.42847 28.3446C8.6828 28.2478 8.87901 28.1047 9.01708 27.9151C9.15516 27.7256 9.23045 27.4996 9.24296 27.2371C9.25546 26.9745 9.202 26.7424 9.08256 26.5406C8.96312 26.3388 8.78138 26.1785 8.53732 26.0596C8.29335 25.9391 7.98993 25.8701 7.62707 25.8529Z" fill="#FEFEFE"/>
<path d="M6.35414 21.9766L11.3519 23.1891L11.0956 24.2457L6.0978 23.0333L6.35414 21.9766Z" fill="#FEFEFE"/>
<path d="M9.23429 15.4878L13.9123 17.6242L13.5221 18.4785L9.6484 19.169L9.63275 19.2033L12.5771 20.5479L12.1254 21.537L7.44738 19.4006L7.84378 18.5326L11.7079 17.857L11.7267 17.8159L8.7847 16.4723L9.23429 15.4878Z" fill="#FEFEFE"/>
<path d="M16.6353 8.14694L20.1842 11.8689L19.5045 12.517L15.6516 11.7184L15.6243 11.7444L17.858 14.087L17.071 14.8373L13.5222 11.1153L14.2127 10.4568L18.0512 11.2658L18.0839 11.2346L15.852 8.8938L16.6353 8.14694Z" fill="#FEFEFE"/>
<path d="M22.9882 7.59008C23.2914 8.06187 23.4599 8.52071 23.4937 8.9666C23.529 9.4116 23.4492 9.82006 23.2544 10.192C23.0601 10.5616 22.7722 10.8691 22.3905 11.1143C22.006 11.3614 21.6049 11.4958 21.1871 11.5176C20.7692 11.5394 20.3652 11.4418 19.9751 11.2249C19.585 11.008 19.2388 10.6643 18.9365 10.194C18.6333 9.72218 18.464 9.26379 18.4288 8.8188C18.3936 8.3738 18.4731 7.9665 18.6674 7.59688C18.8607 7.22585 19.1497 6.91679 19.5341 6.6697C19.9158 6.42443 20.3155 6.29091 20.7333 6.26914C21.1517 6.24506 21.5559 6.34148 21.9461 6.55839C22.3376 6.7744 22.685 7.1183 22.9882 7.59008ZM22.0608 8.18607C21.8644 7.88047 21.653 7.65216 21.4266 7.50115C21.2016 7.34924 20.9719 7.272 20.7374 7.26946C20.503 7.26691 20.2752 7.33668 20.0541 7.47878C19.833 7.62088 19.6749 7.79909 19.5798 8.01342C19.4847 8.22776 19.4588 8.46926 19.5021 8.73792C19.5469 9.00569 19.6674 9.29237 19.8638 9.59797C20.0602 9.90358 20.2709 10.1323 20.4959 10.2843C20.7223 10.4353 20.9527 10.512 21.1872 10.5146C21.4217 10.5171 21.6494 10.4474 21.8706 10.3053C22.0917 10.1632 22.2498 9.98495 22.3448 9.77062C22.4399 9.55629 22.4651 9.31524 22.4204 9.04748C22.3771 8.77881 22.2572 8.49167 22.0608 8.18607Z" fill="#FEFEFE"/>
<path d="M25.5432 9.58717L22.4151 5.24803L23.5325 4.8453L25.5449 7.91828L25.5851 7.90381L25.257 4.22376L26.2138 3.87893L28.309 6.93005L28.3516 6.91473L27.9383 3.25739L29.0557 2.85466L29.415 8.19168L28.4181 8.55098L26.3568 5.71986L26.319 5.73349L26.5401 9.22787L25.5432 9.58717Z" fill="#FEFEFE"/>
<path d="M31.7998 20.2036L33.1706 28.4296L41.3965 29.8003L33.1706 31.1711L31.7998 39.397L30.4291 31.1711L22.2031 29.8003L30.4291 28.4296L31.7998 20.2036Z" fill="#FEFEFE"/>
</svg>
