<svg width="14" height="14" viewBox="0 0 14 14" fill="none" xmlns="http://www.w3.org/2000/svg">
<path d="M5.6776 7.44793H3.18289C3.06981 7.44793 2.96919 7.51901 2.93042 7.62517C2.8958 7.73271 2.92949 7.85087 3.0158 7.9238L8.3593 12.1904V12.1908C8.41376 12.2352 8.48438 12.2559 8.55454 12.2485C8.62469 12.2412 8.68885 12.2061 8.73316 12.1511C8.82547 12.0353 8.80655 11.8664 8.6907 11.7741L3.94449 7.98601H5.67767C6.45678 7.98601 7.20772 7.69338 7.78197 7.16675C8.35614 6.63966 8.712 5.91684 8.77942 5.14054H10.3058C10.4531 5.13869 10.5717 5.01869 10.5717 4.87146C10.5717 4.72468 10.4526 4.6056 10.3058 4.6056H8.77942C8.69449 3.67464 8.19555 2.83087 7.4206 2.30802H10.3058C10.4531 2.30617 10.5717 2.18617 10.5717 2.03893C10.5781 1.96462 10.5528 1.89077 10.5024 1.83585C10.4517 1.78092 10.3801 1.75 10.3058 1.75H3.18316C3.03639 1.75 2.9173 1.86908 2.9173 2.01586C2.9173 2.16355 3.03592 2.2831 3.18316 2.28494H5.67787C6.31573 2.28586 6.93093 2.52218 7.40494 2.94958C7.87895 3.37698 8.17805 3.96456 8.24451 4.59916H3.18312C3.03635 4.59916 2.91726 4.71825 2.91726 4.86502C2.91726 5.01225 3.03588 5.13226 3.18312 5.1341H8.24451C8.17713 5.76828 7.87804 6.35536 7.40403 6.78231C6.93047 7.20971 6.31569 7.44649 5.67784 7.44787L5.6776 7.44793Z" fill="#69A042" stroke="#69A042" stroke-width="0.408333"/>
</svg>
