<svg width="31" height="32" viewBox="0 0 31 32" fill="none" xmlns="http://www.w3.org/2000/svg">
<g id="Layer 32">
<path id="Vector" d="M2.79094 25.4745C1.54175 21.0924 2.59797 15.7245 7.58281 14.3927C9.89908 13.7699 12.7551 14.5175 14.3997 16.424C15.6758 17.9039 15.4992 20.0359 13.3797 20.2759C12.6386 20.3329 11.8795 20.2203 11.1658 19.9477C10.4521 19.675 9.80451 19.2502 9.27703 18.7086C5.22741 14.6014 9.76406 9.84405 13.8341 8.69335C18.5537 7.35343 23.9215 8.50791 28.09 11.4005C28.6952 11.8195 29.3663 11.0216 28.7612 10.6026C24.2407 7.46694 18.4747 6.23825 13.3727 7.69441C9.21542 8.87565 5.46661 12.5194 7.00833 17.0667C7.3374 18.0358 7.92945 18.9248 8.72307 19.6416C9.51669 20.3583 10.483 20.8767 11.5217 21.1429C13.2051 21.5762 15.4455 21.3436 16.2425 19.7925C17.1677 18.0235 15.5857 15.8414 14.0308 14.6979C13.1627 14.0705 12.1783 13.6127 11.1417 13.3542C10.1051 13.0958 9.03967 13.0427 8.01502 13.1983C1.98525 14.1322 0.21854 20.4398 1.68188 25.5609C1.871 26.2212 2.98258 26.1458 2.79094 25.4745Z" fill="#323232"/>
<path id="Vector_2" d="M25.1291 6.0507C26.4716 7.5316 27.7267 9.07844 28.8879 10.6832L29.1015 9.88034C26.9096 10.5061 24.7963 11.3171 22.7861 12.3039C22.1687 12.6093 22.6311 13.6253 23.2531 13.3137C25.2615 12.3257 27.3736 11.5145 29.5647 10.8894C29.6436 10.8613 29.7132 10.8162 29.7684 10.7575C29.8236 10.6989 29.8629 10.6281 29.8835 10.5506C29.9041 10.4731 29.9053 10.3908 29.8872 10.3098C29.869 10.2288 29.8319 10.1513 29.7786 10.083C28.6221 8.47948 27.3721 6.93356 26.0349 5.45311C25.5438 4.91142 24.6494 5.51102 25.148 6.05405L25.1291 6.0507Z" fill="#323232"/>
</g>
</svg>
